  0
SECTION
  2
HEADER
  9
$ACADVER
  1
AC1024
  9
$ACADMAINTVER
 70
     6
  9
$DWGCODEPAGE
  3
ANSI_932
  9
$INSBASE
 10
0.0
 20
0.0
 30
0.0
  9
$EXTMIN
 10
1.000000000000000E+20
 20
1.000000000000000E+20
 30
1.000000000000000E+20
  9
$EXTMAX
 10
-1.000000000000000E+20
 20
-1.000000000000000E+20
 30
-1.000000000000000E+20
  9
$LIMMIN
 10
0.0
 20
0.0
  9
$LIMMAX
 10
12.0
 20
9.0
  9
$ORTHOMODE
 70
     0
  9
$REGENMODE
 70
     1
  9
$FILLMODE
 70
     1
  9
$QTEXTMODE
 70
     0
  9
$MIRRTEXT
 70
     1
  9
$LTSCALE
 40
1.0
  9
$ATTMODE
 70
     1
  9
$TEXTSIZE
 40
0.2
  9
$TRACEWID
 40
0.05
  9
$TEXTSTYLE
  7
Standard
  9
$CLAYER
  8
0
  9
$CELTYPE
  6
ByLayer
  9
$CECOLOR
 62
   256
  9
$CELTSCALE
 40
1.0
  9
$DISPSILH
 70
     0
  9
$DIMSCALE
 40
1.0
  9
$DIMASZ
 40
0.18
  9
$DIMEXO
 40
0.0625
  9
$DIMDLI
 40
0.38
  9
$DIMRND
 40
0.0
  9
$DIMDLE
 40
0.0
  9
$DIMEXE
 40
0.18
  9
$DIMTP
 40
0.0
  9
$DIMTM
 40
0.0
  9
$DIMTXT
 40
0.18
  9
$DIMCEN
 40
0.09
  9
$DIMTSZ
 40
0.0
  9
$DIMTOL
 70
     0
  9
$DIMLIM
 70
     0
  9
$DIMTIH
 70
     1
  9
$DIMTOH
 70
     1
  9
$DIMSE1
 70
     0
  9
$DIMSE2
 70
     0
  9
$DIMTAD
 70
     0
  9
$DIMZIN
 70
     0
  9
$DIMBLK
  1

  9
$DIMASO
 70
     1
  9
$DIMSHO
 70
     1
  9
$DIMPOST
  1

  9
$DIMAPOST
  1

  9
$DIMALT
 70
     0
  9
$DIMALTD
 70
     2
  9
$DIMALTF
 40
25.4
  9
$DIMLFAC
 40
1.0
  9
$DIMTOFL
 70
     0
  9
$DIMTVP
 40
0.0
  9
$DIMTIX
 70
     0
  9
$DIMSOXD
 70
     0
  9
$DIMSAH
 70
     0
  9
$DIMBLK1
  1

  9
$DIMBLK2
  1

  9
$DIMSTYLE
  2
Standard
  9
$DIMCLRD
 70
     0
  9
$DIMCLRE
 70
     0
  9
$DIMCLRT
 70
     0
  9
$DIMTFAC
 40
1.0
  9
$DIMGAP
 40
0.09
  9
$DIMJUST
 70
     0
  9
$DIMSD1
 70
     0
  9
$DIMSD2
 70
     0
  9
$DIMTOLJ
 70
     1
  9
$DIMTZIN
 70
     0
  9
$DIMALTZ
 70
     0
  9
$DIMALTTZ
 70
     0
  9
$DIMUPT
 70
     0
  9
$DIMDEC
 70
     4
  9
$DIMTDEC
 70
     4
  9
$DIMALTU
 70
     2
  9
$DIMALTTD
 70
     2
  9
$DIMTXSTY
  7
Standard
  9
$DIMAUNIT
 70
     0
  9
$DIMADEC
 70
     0
  9
$DIMALTRND
 40
0.0
  9
$DIMAZIN
 70
     0
  9
$DIMDSEP
 70
    46
  9
$DIMATFIT
 70
     3
  9
$DIMFRAC
 70
     0
  9
$DIMLDRBLK
  1

  9
$DIMLUNIT
 70
     2
  9
$DIMLWD
 70
    -2
  9
$DIMLWE
 70
    -2
  9
$DIMTMOVE
 70
     0
  9
$DIMFXL
 40
1.0
  9
$DIMFXLON
 70
     0
  9
$DIMJOGANG
 40
0.7853981633974483
  9
$DIMTFILL
 70
     0
  9
$DIMTFILLCLR
 70
     0
  9
$DIMARCSYM
 70
     0
  9
$DIMLTYPE
  6

  9
$DIMLTEX1
  6

  9
$DIMLTEX2
  6

  9
$DIMTXTDIRECTION
 70
     0
  9
$LUNITS
 70
     2
  9
$LUPREC
 70
     4
  9
$SKETCHINC
 40
0.1
  9
$FILLETRAD
 40
0.5
  9
$AUNITS
 70
     0
  9
$AUPREC
 70
     0
  9
$MENU
  1
.
  9
$ELEVATION
 40
0.0
  9
$PELEVATION
 40
0.0
  9
$THICKNESS
 40
0.0
  9
$LIMCHECK
 70
     0
  9
$CHAMFERA
 40
0.5
  9
$CHAMFERB
 40
0.5
  9
$CHAMFERC
 40
1.0
  9
$CHAMFERD
 40
0.0
  9
$SKPOLY
 70
     0
  9
$TDCREATE
 40
2457911.689600081
  9
$TDUCREATE
 40
2457911.314600081
  9
$TDUPDATE
 40
2457911.689600278
  9
$TDUUPDATE
 40
2457911.314600278
  9
$TDINDWG
 40
0.0000000116
  9
$TDUSRTIMER
 40
0.0000000116
  9
$USRTIMER
 70
     1
  9
$ANGBASE
 50
0.0
  9
$ANGDIR
 70
     0
  9
$PDMODE
 70
     0
  9
$PDSIZE
 40
0.0
  9
$PLINEWID
 40
0.0
  9
$SPLFRAME
 70
     0
  9
$SPLINETYPE
 70
     6
  9
$SPLINESEGS
 70
     8
  9
$HANDSEED
  5
112
  9
$SURFTAB1
 70
     6
  9
$SURFTAB2
 70
     6
  9
$SURFTYPE
 70
     6
  9
$SURFU
 70
     6
  9
$SURFV
 70
     6
  9
$UCSBASE
  2

  9
$UCSNAME
  2

  9
$UCSORG
 10
0.0
 20
0.0
 30
0.0
  9
$UCSXDIR
 10
1.0
 20
0.0
 30
0.0
  9
$UCSYDIR
 10
0.0
 20
1.0
 30
0.0
  9
$UCSORTHOREF
  2

  9
$UCSORTHOVIEW
 70
     0
  9
$UCSORGTOP
 10
0.0
 20
0.0
 30
0.0
  9
$UCSORGBOTTOM
 10
0.0
 20
0.0
 30
0.0
  9
$UCSORGLEFT
 10
0.0
 20
0.0
 30
0.0
  9
$UCSORGRIGHT
 10
0.0
 20
0.0
 30
0.0
  9
$UCSORGFRONT
 10
0.0
 20
0.0
 30
0.0
  9
$UCSORGBACK
 10
0.0
 20
0.0
 30
0.0
  9
$PUCSBASE
  2

  9
$PUCSNAME
  2

  9
$PUCSORG
 10
0.0
 20
0.0
 30
0.0
  9
$PUCSXDIR
 10
1.0
 20
0.0
 30
0.0
  9
$PUCSYDIR
 10
0.0
 20
1.0
 30
0.0
  9
$PUCSORTHOREF
  2

  9
$PUCSORTHOVIEW
 70
     0
  9
$PUCSORGTOP
 10
0.0
 20
0.0
 30
0.0
  9
$PUCSORGBOTTOM
 10
0.0
 20
0.0
 30
0.0
  9
$PUCSORGLEFT
 10
0.0
 20
0.0
 30
0.0
  9
$PUCSORGRIGHT
 10
0.0
 20
0.0
 30
0.0
  9
$PUCSORGFRONT
 10
0.0
 20
0.0
 30
0.0
  9
$PUCSORGBACK
 10
0.0
 20
0.0
 30
0.0
  9
$USERI1
 70
     0
  9
$USERI2
 70
     0
  9
$USERI3
 70
     0
  9
$USERI4
 70
     0
  9
$USERI5
 70
     0
  9
$USERR1
 40
0.0
  9
$USERR2
 40
0.0
  9
$USERR3
 40
0.0
  9
$USERR4
 40
0.0
  9
$USERR5
 40
0.0
  9
$WORLDVIEW
 70
     1
  9
$SHADEDGE
 70
     3
  9
$SHADEDIF
 70
    70
  9
$TILEMODE
 70
     1
  9
$MAXACTVP
 70
    64
  9
$PINSBASE
 10
0.0
 20
0.0
 30
0.0
  9
$PLIMCHECK
 70
     0
  9
$PEXTMIN
 10
1.000000000000000E+20
 20
1.000000000000000E+20
 30
1.000000000000000E+20
  9
$PEXTMAX
 10
-1.000000000000000E+20
 20
-1.000000000000000E+20
 30
-1.000000000000000E+20
  9
$PLIMMIN
 10
0.0
 20
0.0
  9
$PLIMMAX
 10
12.0
 20
9.0
  9
$UNITMODE
 70
     0
  9
$VISRETAIN
 70
     1
  9
$PLINEGEN
 70
     0
  9
$PSLTSCALE
 70
     1
  9
$TREEDEPTH
 70
  3020
  9
$CMLSTYLE
  2
Standard
  9
$CMLJUST
 70
     0
  9
$CMLSCALE
 40
1.0
  9
$PROXYGRAPHICS
 70
     1
  9
$MEASUREMENT
 70
     0
  9
$CELWEIGHT
370
    -1
  9
$ENDCAPS
280
     0
  9
$JOINSTYLE
280
     0
  9
$LWDISPLAY
290
     1
  9
$INSUNITS
 70
     1
  9
$HYPERLINKBASE
  1

  9
$STYLESHEET
  1

  9
$XEDIT
290
     1
  9
$CEPSNTYPE
380
     0
  9
$PSTYLEMODE
290
     1
  9
$FINGERPRINTGUID
  2
{7971D1D7-E499-4A62-8814-827120EA1EF0}
  9
$VERSIONGUID
  2
{FAEB1C32-E019-11D5-929B-00C0DF256EC4}
  9
$EXTNAMES
290
     1
  9
$PSVPSCALE
 40
0.0
  9
$OLESTARTUP
290
     0
  9
$SORTENTS
280
   127
  9
$INDEXCTL
280
     0
  9
$HIDETEXT
280
     1
  9
$XCLIPFRAME
280
     2
  9
$HALOGAP
280
     0
  9
$OBSCOLOR
 70
   257
  9
$OBSLTYPE
280
     0
  9
$INTERSECTIONDISPLAY
280
     0
  9
$INTERSECTIONCOLOR
 70
   257
  9
$DIMASSOC
280
     2
  9
$PROJECTNAME
  1

  9
$CAMERADISPLAY
290
     0
  9
$LENSLENGTH
 40
50.0
  9
$CAMERAHEIGHT
 40
0.0
  9
$STEPSPERSEC
 40
2.0
  9
$STEPSIZE
 40
6.0
  9
$3DDWFPREC
 40
2.0
  9
$PSOLWIDTH
 40
0.25
  9
$PSOLHEIGHT
 40
4.0
  9
$LOFTANG1
 40
1.570796326794897
  9
$LOFTANG2
 40
1.570796326794897
  9
$LOFTMAG1
 40
0.0
  9
$LOFTMAG2
 40
0.0
  9
$LOFTPARAM
 70
     7
  9
$LOFTNORMALS
280
     1
  9
$LATITUDE
 40
37.795
  9
$LONGITUDE
 40
-122.394
  9
$NORTHDIRECTION
 40
0.0
  9
$TIMEZONE
 70
 -8000
  9
$LIGHTGLYPHDISPLAY
280
     1
  9
$TILEMODELIGHTSYNCH
280
     1
  9
$CMATERIAL
347
3C
  9
$SOLIDHIST
280
     1
  9
$SHOWHIST
280
     1
  9
$DWFFRAME
280
     2
  9
$DGNFRAME
280
     2
  9
$REALWORLDSCALE
290
     1
  9
$INTERFERECOLOR
 62
   256
  9
$CSHADOW
280
     0
  9
$SHADOWPLANELOCATION
 40
0.0
  0
ENDSEC
  0
SECTION
  2
CLASSES
  0
CLASS
  1
ACDBDICTIONARYWDFLT
  2
AcDbDictionaryWithDefault
  3
ObjectDBX Classes
 90
        0
 91
        4
280
     0
281
     0
  0
CLASS
  1
VISUALSTYLE
  2
AcDbVisualStyle
  3
ObjectDBX Classes
 90
     4095
 91
        4
280
     0
281
     0
  0
CLASS
  1
MATERIAL
  2
AcDbMaterial
  3
ObjectDBX Classes
 90
     1153
 91
        4
280
     0
281
     0
  0
CLASS
  1
SUN
  2
AcDbSun
  3
SCENEOE
 90
     1024
 91
        4
280
     0
281
     0
  0
ENDSEC
  0
SECTION
  2
TABLES
  0
TABLE
  2
VPORT
  5
8
330
0
100
AcDbSymbolTable
 70
     1
  0
VPORT
  5
29
330
8
100
AcDbSymbolTableRecord
100
AcDbViewportTableRecord
  2
*Active
 70
     0
 10
0.0
 20
0.0
 11
1.0
 21
1.0
 12
0.0
 22
0.0
 13
0.0
 23
0.0
 14
0.5
 24
0.5
 15
0.5
 25
0.5
 16
0.0
 26
0.0
 36
1.0
 17
140.7583332981438
 27
-99.8361110861521
 37
0.0
 40
752.8277775895708
 41
1.014995313964386
 42
50.0
 43
0.0
 44
0.0
 50
0.0
 51
0.0
 71
     0
 72
   100
 73
     1
 74
     3
 75
     0
 76
     0
 77
     0
 78
     0
281
     0
 65
     1
110
0.0
120
0.0
130
0.0
111
1.0
121
0.0
131
0.0
112
0.0
122
1.0
132
0.0
 79
     0
146
0.0
 60
     3
 61
     5
292
     1
282
     1
141
0.0
142
0.0
 63
   250
361
3F
  0
ENDTAB
  0
TABLE
  2
LTYPE
  5
5
330
0
100
AcDbSymbolTable
 70
     1
  0
LTYPE
  5
14
330
5
100
AcDbSymbolTableRecord
100
AcDbLinetypeTableRecord
  2
ByBlock
 70
     0
  3

 72
    65
 73
     0
 40
0.0
  0
LTYPE
  5
15
330
5
100
AcDbSymbolTableRecord
100
AcDbLinetypeTableRecord
  2
ByLayer
 70
     0
  3

 72
    65
 73
     0
 40
0.0
  0
LTYPE
  5
16
330
5
100
AcDbSymbolTableRecord
100
AcDbLinetypeTableRecord
  2
Continuous
 70
     0
  3
Solid line
 72
    65
 73
     0
 40
0.0
  0
ENDTAB
  0
TABLE
  2
LAYER
  5
2
330
0
100
AcDbSymbolTable
 70
     2
  0
LAYER
  5
10
330
2
100
AcDbSymbolTableRecord
100
AcDbLayerTableRecord
  2
0
 70
     0
 62
     7
  6
Continuous
370
    -3
390
F
347
3E
  0
LAYER
  5
40
330
2
100
AcDbSymbolTableRecord
100
AcDbLayerTableRecord
  2
_U+30EC_U+30A4_U+30E4_U+30FC 1
 70
     0
 62
     7
  6
Continuous
370
    -3
390
F
347
3E
  0
ENDTAB
  0
TABLE
  2
STYLE
  5
3
330
0
100
AcDbSymbolTable
 70
     1
  0
STYLE
  5
11
330
3
100
AcDbSymbolTableRecord
100
AcDbTextStyleTableRecord
  2
Standard
 70
     0
 40
0.0
 41
1.0
 50
0.0
 71
     0
 42
0.2
  3
txt
  4

  0
ENDTAB
  0
TABLE
  2
VIEW
  5
6
330
0
100
AcDbSymbolTable
 70
     0
  0
ENDTAB
  0
TABLE
  2
UCS
  5
7
330
0
100
AcDbSymbolTable
 70
     0
  0
ENDTAB
  0
TABLE
  2
APPID
  5
9
330
0
100
AcDbSymbolTable
 70
     1
  0
APPID
  5
12
330
9
100
AcDbSymbolTableRecord
100
AcDbRegAppTableRecord
  2
ACAD
 70
     0
  0
ENDTAB
  0
TABLE
  2
DIMSTYLE
  5
A
330
0
100
AcDbSymbolTable
 70
     1
100
AcDbDimStyleTable
  0
DIMSTYLE
105
27
330
A
100
AcDbSymbolTableRecord
100
AcDbDimStyleTableRecord
  2
Standard
 70
     0
178
     0
340
11
  0
ENDTAB
  0
TABLE
  2
BLOCK_RECORD
  5
1
330
0
100
AcDbSymbolTable
 70
    17
  0
BLOCK_RECORD
  5
1F
330
1
100
AcDbSymbolTableRecord
100
AcDbBlockTableRecord
  2
*Model_Space
340
22
 70
     0
280
     1
281
     0
  0
BLOCK_RECORD
  5
1B
330
1
100
AcDbSymbolTableRecord
100
AcDbBlockTableRecord
  2
*Paper_Space
340
1E
 70
     0
280
     1
281
     0
  0
BLOCK_RECORD
  5
23
330
1
100
AcDbSymbolTableRecord
100
AcDbBlockTableRecord
  2
*Paper_Space0
340
26
 70
     0
280
     1
281
     0
  0
BLOCK_RECORD
  5
42
330
1
100
AcDbSymbolTableRecord
100
AcDbBlockTableRecord
  2
block 2
340
0
102
{BLKREFS
331
43
102
}
 70
     0
280
     1
281
     0
  0
BLOCK_RECORD
  5
47
330
1
100
AcDbSymbolTableRecord
100
AcDbBlockTableRecord
  2
block 3
340
0
102
{BLKREFS
331
48
102
}
 70
     0
280
     1
281
     0
  0
BLOCK_RECORD
  5
4C
330
1
100
AcDbSymbolTableRecord
100
AcDbBlockTableRecord
  2
block 4
340
0
102
{BLKREFS
331
4D
102
}
 70
     0
280
     1
281
     0
  0
BLOCK_RECORD
  5
51
330
1
100
AcDbSymbolTableRecord
100
AcDbBlockTableRecord
  2
block 5
340
0
102
{BLKREFS
331
52
102
}
 70
     0
280
     1
281
     0
  0
BLOCK_RECORD
  5
56
330
1
100
AcDbSymbolTableRecord
100
AcDbBlockTableRecord
  2
block 6
340
0
102
{BLKREFS
331
57
102
}
 70
     0
280
     1
281
     0
  0
BLOCK_RECORD
  5
5B
330
1
100
AcDbSymbolTableRecord
100
AcDbBlockTableRecord
  2
block 7
340
0
102
{BLKREFS
331
5C
102
}
 70
     0
280
     1
281
     0
  0
BLOCK_RECORD
  5
60
330
1
100
AcDbSymbolTableRecord
100
AcDbBlockTableRecord
  2
block 8
340
0
102
{BLKREFS
331
61
102
}
 70
     0
280
     1
281
     0
  0
BLOCK_RECORD
  5
65
330
1
100
AcDbSymbolTableRecord
100
AcDbBlockTableRecord
  2
block 9
340
0
102
{BLKREFS
331
66
102
}
 70
     0
280
     1
281
     0
  0
BLOCK_RECORD
  5
6A
330
1
100
AcDbSymbolTableRecord
100
AcDbBlockTableRecord
  2
block 10
340
0
102
{BLKREFS
331
6B
102
}
 70
     0
280
     1
281
     0
  0
BLOCK_RECORD
  5
6F
330
1
100
AcDbSymbolTableRecord
100
AcDbBlockTableRecord
  2
block 11
340
0
102
{BLKREFS
331
70
102
}
 70
     0
280
     1
281
     0
  0
BLOCK_RECORD
  5
74
330
1
100
AcDbSymbolTableRecord
100
AcDbBlockTableRecord
  2
block 12
340
0
102
{BLKREFS
331
75
102
}
 70
     0
280
     1
281
     0
  0
BLOCK_RECORD
  5
79
330
1
100
AcDbSymbolTableRecord
100
AcDbBlockTableRecord
  2
block 13
340
0
102
{BLKREFS
331
7A
102
}
 70
     0
280
     1
281
     0
  0
BLOCK_RECORD
  5
7E
330
1
100
AcDbSymbolTableRecord
100
AcDbBlockTableRecord
  2
block 14
340
0
102
{BLKREFS
331
7F
102
}
 70
     0
280
     1
281
     0
  0
BLOCK_RECORD
  5
83
330
1
100
AcDbSymbolTableRecord
100
AcDbBlockTableRecord
  2
block 15
340
0
102
{BLKREFS
331
84
102
}
 70
     0
280
     1
281
     0
  0
BLOCK_RECORD
  5
91
330
1
100
AcDbSymbolTableRecord
100
AcDbBlockTableRecord
  2
block 16
340
0
102
{BLKREFS
331
92
102
}
 70
     0
280
     1
281
     0
  0
BLOCK_RECORD
  5
A0
330
1
100
AcDbSymbolTableRecord
100
AcDbBlockTableRecord
  2
block 17
340
0
102
{BLKREFS
331
A1
102
}
 70
     0
280
     1
281
     0
  0
ENDTAB
  0
ENDSEC
  0
SECTION
  2
BLOCKS
  0
BLOCK
  5
20
330
1F
100
AcDbEntity
  8
0
100
AcDbBlockBegin
  2
*Model_Space
 70
     0
 10
0.0
 20
0.0
 30
0.0
  3
*Model_Space
  1

  0
ENDBLK
  5
21
330
1F
100
AcDbEntity
  8
0
100
AcDbBlockEnd
  0
BLOCK
  5
1C
330
1B
100
AcDbEntity
 67
     1
  8
0
100
AcDbBlockBegin
  2
*Paper_Space
 70
     0
 10
0.0
 20
0.0
 30
0.0
  3
*Paper_Space
  1

  0
ENDBLK
  5
1D
330
1B
100
AcDbEntity
 67
     1
  8
0
100
AcDbBlockEnd
  0
BLOCK
  5
24
330
23
100
AcDbEntity
  8
0
100
AcDbBlockBegin
  2
*Paper_Space0
 70
     0
 10
0.0
 20
0.0
 30
0.0
  3
*Paper_Space0
  1

  0
ENDBLK
  5
25
330
23
100
AcDbEntity
  8
0
100
AcDbBlockEnd
  0
BLOCK
  5
44
330
42
100
AcDbEntity
  8
0
100
AcDbBlockBegin
  2
block 2
 70
     0
 10
0.0
 20
0.0
 30
0.0
  3
block 2
  1

  0
SPLINE
  5
46
330
42
100
AcDbEntity
  8
_U+30EC_U+30A4_U+30E4_U+30FC 1
 62
   250
420
  2234388
370
    18
100
AcDbSpline
210
0.0
220
0.0
230
1.0
 70
    11
 71
     3
 72
    29
 73
    25
 74
     0
 42
0.0000000001
 43
0.0000000001
 12
1.0
 22
0.0
 32
0.0
 13
1.0
 23
0.0
 33
0.0
 40
0.0
 40
0.0
 40
0.0
 40
0.0
 40
1.0
 40
1.0
 40
1.0
 40
2.0
 40
2.0
 40
2.0
 40
3.0
 40
3.0
 40
3.0
 40
4.0
 40
4.0
 40
4.0
 40
5.0
 40
5.0
 40
5.0
 40
6.0
 40
6.0
 40
6.0
 40
7.0
 40
7.0
 40
7.0
 40
8.0
 40
8.0
 40
8.0
 40
8.0
 10
-93.75753958635306
 20
-164.2405627367176
 30
0.0
 10
-93.75753958635306
 20
-164.2405627367176
 30
0.0
 10
-58.75753992372189
 20
-164.2405627367176
 30
0.0
 10
-58.75753992372189
 20
-164.2405627367176
 30
0.0
 10
-44.95041777597093
 20
-164.2405627367176
 30
0.0
 10
-33.75755528374686
 20
-153.0476999617378
 30
0.0
 10
-33.75755528374686
 20
-139.2405774651901
 30
0.0
 10
-33.75755528374686
 20
-139.2405774651901
 30
0.0
 10
-33.75755528374686
 20
-29.24058582602287
 30
0.0
 10
-33.75755528374686
 20
-29.24058582602287
 30
0.0
 10
-33.75755528374686
 20
-15.43346332947511
 30
0.0
 10
-44.95041777597093
 20
-4.240565276717827
 30
0.0
 10
-58.75753992372189
 20
-4.240565276717827
 30
0.0
 10
-58.75753992372189
 20
-4.240565276717827
 30
0.0
 10
-93.75753958635306
 20
-4.240565276717827
 30
0.0
 10
-93.75753958635306
 20
-4.240565276717827
 30
0.0
 10
-107.564661734104
 20
-4.240565276717827
 30
0.0
 10
-118.7575588591994
 20
-15.43346332947511
 30
0.0
 10
-118.7575588591994
 20
-29.24058582602287
 30
0.0
 10
-118.7575588591994
 20
-29.24058582602287
 30
0.0
 10
-118.7575588591994
 20
-139.2405774651901
 30
0.0
 10
-118.7575588591994
 20
-139.2405774651901
 30
0.0
 10
-118.7575588591994
 20
-153.0476999617378
 30
0.0
 10
-107.564661734104
 20
-164.2405627367176
 30
0.0
 10
-93.75753958635306
 20
-164.2405627367176
 30
0.0
  0
ENDBLK
  5
45
330
42
100
AcDbEntity
  8
0
100
AcDbBlockEnd
  0
BLOCK
  5
49
330
47
100
AcDbEntity
  8
0
100
AcDbBlockBegin
  2
block 3
 70
     0
 10
0.0
 20
0.0
 30
0.0
  3
block 3
  1

  0
SPLINE
  5
4B
330
47
100
AcDbEntity
  8
_U+30EC_U+30A4_U+30E4_U+30FC 1
 62
   250
420
  2234388
370
    18
100
AcDbSpline
210
0.0
220
0.0
230
1.0
 70
    11
 71
     3
 72
    20
 73
    16
 74
     0
 42
0.0000000001
 43
0.0000000001
 12
1.0
 22
0.0
 32
0.0
 13
1.0
 23
0.0
 33
0.0
 40
0.0
 40
0.0
 40
0.0
 40
0.0
 40
1.0
 40
1.0
 40
1.0
 40
2.0
 40
2.0
 40
2.0
 40
3.0
 40
3.0
 40
3.0
 40
4.0
 40
4.0
 40
4.0
 40
5.0
 40
5.0
 40
5.0
 40
5.0
 10
-172.4174577346735
 20
187.4594435642464
 30
0.0
 10
-172.4174577346735
 20
185.8025874535491
 30
0.0
 10
-173.7605885676708
 20
184.4594213427739
 30
0.0
 10
-175.4174446783678
 20
184.4594213427739
 30
0.0
 10
-177.0743007890648
 20
184.4594213427739
 30
0.0
 10
-178.41746689984
 20
185.8025874535491
 30
0.0
 10
-178.41746689984
 20
187.4594435642464
 30
0.0
 10
-178.41746689984
 20
189.1162996749431
 30
0.0
 10
-177.0743007890648
 20
190.4594305079408
 30
0.0
 10
-175.4174446783678
 20
190.4594305079408
 30
0.0
 10
-173.7605885676708
 20
190.4594305079408
 30
0.0
 10
-172.4174577346735
 20
189.1162996749431
 30
0.0
 10
-172.4174577346735
 20
187.4594435642464
 30
0.0
 10
-172.4174577346735
 20
187.4594435642464
 30
0.0
 10
-172.4174577346735
 20
187.4594435642464
 30
0.0
 10
-172.4174577346735
 20
187.4594435642464
 30
0.0
  0
ENDBLK
  5
4A
330
47
100
AcDbEntity
  8
0
100
AcDbBlockEnd
  0
BLOCK
  5
4E
330
4C
100
AcDbEntity
  8
0
100
AcDbBlockBegin
  2
block 4
 70
     0
 10
0.0
 20
0.0
 30
0.0
  3
block 4
  1

  0
SPLINE
  5
50
330
4C
100
AcDbEntity
  8
_U+30EC_U+30A4_U+30E4_U+30FC 1
 62
   250
420
  2234388
370
    18
100
AcDbSpline
210
0.0
220
0.0
230
1.0
 70
    11
 71
     3
 72
    20
 73
    16
 74
     0
 42
0.0000000001
 43
0.0000000001
 12
1.0
 22
0.0
 32
0.0
 13
1.0
 23
0.0
 33
0.0
 40
0.0
 40
0.0
 40
0.0
 40
0.0
 40
1.0
 40
1.0
 40
1.0
 40
2.0
 40
2.0
 40
2.0
 40
3.0
 40
3.0
 40
3.0
 40
4.0
 40
4.0
 40
4.0
 40
5.0
 40
5.0
 40
5.0
 40
5.0
 10
-172.4174577346735
 20
72.95941859287112
 30
0.0
 10
-172.4174577346735
 20
71.30256248217447
 30
0.0
 10
-173.7605885676708
 20
69.95943164917678
 30
0.0
 10
-175.4174446783678
 20
69.95943164917678
 30
0.0
 10
-177.0743007890648
 20
69.95943164917678
 30
0.0
 10
-178.41746689984
 20
71.30256248217447
 30
0.0
 10
-178.41746689984
 20
72.95941859287112
 30
0.0
 10
-178.41746689984
 20
74.61627470356841
 30
0.0
 10
-177.0743007890648
 20
75.95944081434362
 30
0.0
 10
-175.4174446783678
 20
75.95944081434362
 30
0.0
 10
-173.7605885676708
 20
75.95944081434362
 30
0.0
 10
-172.4174577346735
 20
74.61627470356841
 30
0.0
 10
-172.4174577346735
 20
72.95941859287112
 30
0.0
 10
-172.4174577346735
 20
72.95941859287112
 30
0.0
 10
-172.4174577346735
 20
72.95941859287112
 30
0.0
 10
-172.4174577346735
 20
72.95941859287112
 30
0.0
  0
ENDBLK
  5
4F
330
4C
100
AcDbEntity
  8
0
100
AcDbBlockEnd
  0
BLOCK
  5
53
330
51
100
AcDbEntity
  8
0
100
AcDbBlockBegin
  2
block 5
 70
     0
 10
0.0
 20
0.0
 30
0.0
  3
block 5
  1

  0
SPLINE
  5
55
330
51
100
AcDbEntity
  8
_U+30EC_U+30A4_U+30E4_U+30FC 1
 62
   250
420
  2234388
370
    18
100
AcDbSpline
210
0.0
220
0.0
230
1.0
 70
    11
 71
     3
 72
    20
 73
    16
 74
     0
 42
0.0000000001
 43
0.0000000001
 12
1.0
 22
0.0
 32
0.0
 13
1.0
 23
0.0
 33
0.0
 40
0.0
 40
0.0
 40
0.0
 40
0.0
 40
1.0
 40
1.0
 40
1.0
 40
2.0
 40
2.0
 40
2.0
 40
3.0
 40
3.0
 40
3.0
 40
4.0
 40
4.0
 40
4.0
 40
5.0
 40
5.0
 40
5.0
 40
5.0
 10
-73.25755288712908
 20
15.7094413849613
 30
0.0
 10
-73.25755288712908
 20
14.05258527426464
 30
0.0
 10
-74.60068368619629
 20
12.70941916348943
 30
0.0
 10
-76.25753975503748
 20
12.70941916348943
 30
0.0
 10
-77.91439582387866
 20
12.70941916348943
 30
0.0
 10
-79.25752498018575
 20
14.05258527426464
 30
0.0
 10
-79.25752498018575
 20
15.7094413849613
 30
0.0
 10
-79.25752498018575
 20
17.36629749565859
 30
0.0
 10
-77.91439582387866
 20
18.70942832865564
 30
0.0
 10
-76.25753975503748
 20
18.70942832865564
 30
0.0
 10
-74.60068368619629
 20
18.70942832865564
 30
0.0
 10
-73.25755288712908
 20
17.36629749565859
 30
0.0
 10
-73.25755288712908
 20
15.7094413849613
 30
0.0
 10
-73.25755288712908
 20
15.7094413849613
 30
0.0
 10
-73.25755288712908
 20
15.7094413849613
 30
0.0
 10
-73.25755288712908
 20
15.7094413849613
 30
0.0
  0
ENDBLK
  5
54
330
51
100
AcDbEntity
  8
0
100
AcDbBlockEnd
  0
BLOCK
  5
58
330
56
100
AcDbEntity
  8
0
100
AcDbBlockBegin
  2
block 6
 70
     0
 10
0.0
 20
0.0
 30
0.0
  3
block 6
  1

  0
SPLINE
  5
5A
330
56
100
AcDbEntity
  8
_U+30EC_U+30A4_U+30E4_U+30FC 1
 62
   250
420
  2234388
370
    18
100
AcDbSpline
210
0.0
220
0.0
230
1.0
 70
    11
 71
     3
 72
    20
 73
    16
 74
     0
 42
0.0000000001
 43
0.0000000001
 12
1.0
 22
0.0
 32
0.0
 13
1.0
 23
0.0
 33
0.0
 40
0.0
 40
0.0
 40
0.0
 40
0.0
 40
1.0
 40
1.0
 40
1.0
 40
2.0
 40
2.0
 40
2.0
 40
3.0
 40
3.0
 40
3.0
 40
4.0
 40
4.0
 40
4.0
 40
5.0
 40
5.0
 40
5.0
 40
5.0
 10
25.90235554908028
 20
72.95941859287112
 30
0.0
 10
25.90235554908028
 20
71.30256248217447
 30
0.0
 10
24.55922045069047
 20
69.95943164917678
 30
0.0
 10
22.90236438184927
 20
69.95943164917678
 30
0.0
 10
21.24550831300808
 20
69.95943164917678
 30
0.0
 10
19.90237751394087
 20
71.30256248217447
 30
0.0
 10
19.90237751394087
 20
72.95941859287112
 30
0.0
 10
19.90237751394087
 20
74.61627470356841
 30
0.0
 10
21.24550831300808
 20
75.95944081434362
 30
0.0
 10
22.90236438184927
 20
75.95944081434362
 30
0.0
 10
24.55922045069047
 20
75.95944081434362
 30
0.0
 10
25.90235554908028
 20
74.61627470356841
 30
0.0
 10
25.90235554908028
 20
72.95941859287112
 30
0.0
 10
25.90235554908028
 20
72.95941859287112
 30
0.0
 10
25.90235554908028
 20
72.95941859287112
 30
0.0
 10
25.90235554908028
 20
72.95941859287112
 30
0.0
  0
ENDBLK
  5
59
330
56
100
AcDbEntity
  8
0
100
AcDbBlockEnd
  0
BLOCK
  5
5D
330
5B
100
AcDbEntity
  8
0
100
AcDbBlockBegin
  2
block 7
 70
     0
 10
0.0
 20
0.0
 30
0.0
  3
block 7
  1

  0
SPLINE
  5
5F
330
5B
100
AcDbEntity
  8
_U+30EC_U+30A4_U+30E4_U+30FC 1
 62
   250
420
  2234388
370
    18
100
AcDbSpline
210
0.0
220
0.0
230
1.0
 70
    11
 71
     3
 72
    20
 73
    16
 74
     0
 42
0.0000000001
 43
0.0000000001
 12
1.0
 22
0.0
 32
0.0
 13
1.0
 23
0.0
 33
0.0
 40
0.0
 40
0.0
 40
0.0
 40
0.0
 40
1.0
 40
1.0
 40
1.0
 40
2.0
 40
2.0
 40
2.0
 40
3.0
 40
3.0
 40
3.0
 40
4.0
 40
4.0
 40
4.0
 40
5.0
 40
5.0
 40
5.0
 40
5.0
 10
25.90235554908028
 20
187.4594435642464
 30
0.0
 10
25.90235554908028
 20
185.8025874535491
 30
0.0
 10
24.55922045069047
 20
184.4594213427739
 30
0.0
 10
22.90236438184927
 20
184.4594213427739
 30
0.0
 10
21.24550831300808
 20
184.4594213427739
 30
0.0
 10
19.90237751394087
 20
185.8025874535491
 30
0.0
 10
19.90237751394087
 20
187.4594435642464
 30
0.0
 10
19.90237751394087
 20
189.1162996749431
 30
0.0
 10
21.24550831300808
 20
190.4594305079408
 30
0.0
 10
22.90236438184927
 20
190.4594305079408
 30
0.0
 10
24.55922045069047
 20
190.4594305079408
 30
0.0
 10
25.90235554908028
 20
189.1162996749431
 30
0.0
 10
25.90235554908028
 20
187.4594435642464
 30
0.0
 10
25.90235554908028
 20
187.4594435642464
 30
0.0
 10
25.90235554908028
 20
187.4594435642464
 30
0.0
 10
25.90235554908028
 20
187.4594435642464
 30
0.0
  0
ENDBLK
  5
5E
330
5B
100
AcDbEntity
  8
0
100
AcDbBlockEnd
  0
BLOCK
  5
62
330
60
100
AcDbEntity
  8
0
100
AcDbBlockBegin
  2
block 8
 70
     0
 10
0.0
 20
0.0
 30
0.0
  3
block 8
  1

  0
SPLINE
  5
64
330
60
100
AcDbEntity
  8
_U+30EC_U+30A4_U+30E4_U+30FC 1
 62
   250
420
  2234388
370
    18
100
AcDbSpline
210
0.0
220
0.0
230
1.0
 70
    11
 71
     3
 72
    20
 73
    16
 74
     0
 42
0.0000000001
 43
0.0000000001
 12
1.0
 22
0.0
 32
0.0
 13
1.0
 23
0.0
 33
0.0
 40
0.0
 40
0.0
 40
0.0
 40
0.0
 40
1.0
 40
1.0
 40
1.0
 40
2.0
 40
2.0
 40
2.0
 40
3.0
 40
3.0
 40
3.0
 40
4.0
 40
4.0
 40
4.0
 40
5.0
 40
5.0
 40
5.0
 40
5.0
 10
-73.25755288712908
 20
244.7094207721562
 30
0.0
 10
-73.25755288712908
 20
243.052564661459
 30
0.0
 10
-74.60068368619629
 20
241.7094338284613
 30
0.0
 10
-76.25753975503748
 20
241.7094338284613
 30
0.0
 10
-77.91439582387866
 20
241.7094338284613
 30
0.0
 10
-79.25752498018575
 20
243.052564661459
 30
0.0
 10
-79.25752498018575
 20
244.7094207721562
 30
0.0
 10
-79.25752498018575
 20
246.3662768828529
 30
0.0
 10
-77.91439582387866
 20
247.7094429936281
 30
0.0
 10
-76.25753975503748
 20
247.7094429936281
 30
0.0
 10
-74.60068368619629
 20
247.7094429936281
 30
0.0
 10
-73.25755288712908
 20
246.3662768828529
 30
0.0
 10
-73.25755288712908
 20
244.7094207721562
 30
0.0
 10
-73.25755288712908
 20
244.7094207721562
 30
0.0
 10
-73.25755288712908
 20
244.7094207721562
 30
0.0
 10
-73.25755288712908
 20
244.7094207721562
 30
0.0
  0
ENDBLK
  5
63
330
60
100
AcDbEntity
  8
0
100
AcDbBlockEnd
  0
BLOCK
  5
67
330
65
100
AcDbEntity
  8
0
100
AcDbBlockBegin
  2
block 9
 70
     0
 10
0.0
 20
0.0
 30
0.0
  3
block 9
  1

  0
SPLINE
  5
69
330
65
100
AcDbEntity
  8
_U+30EC_U+30A4_U+30E4_U+30FC 1
 62
   250
420
  2234388
370
    18
100
AcDbSpline
210
0.0
220
0.0
230
1.0
 70
    11
 71
     3
 72
    29
 73
    25
 74
     0
 42
0.0000000001
 43
0.0000000001
 12
1.0
 22
0.0
 32
0.0
 13
1.0
 23
0.0
 33
0.0
 40
0.0
 40
0.0
 40
0.0
 40
0.0
 40
1.0
 40
1.0
 40
1.0
 40
2.0
 40
2.0
 40
2.0
 40
3.0
 40
3.0
 40
3.0
 40
4.0
 40
4.0
 40
4.0
 40
5.0
 40
5.0
 40
5.0
 40
6.0
 40
6.0
 40
6.0
 40
7.0
 40
7.0
 40
7.0
 40
8.0
 40
8.0
 40
8.0
 40
8.0
 10
176.9368151743253
 20
-164.2405627367176
 30
0.0
 10
176.9368151743253
 20
-164.2405627367176
 30
0.0
 10
211.9368238359044
 20
-164.2405627367176
 30
0.0
 10
211.9368238359044
 20
-164.2405627367176
 30
0.0
 10
225.7439463324528
 20
-164.2405627367176
 30
0.0
 10
236.9368091074326
 20
-153.0476999617378
 30
0.0
 10
236.9368091074326
 20
-139.2405774651901
 30
0.0
 10
236.9368091074326
 20
-139.2405774651901
 30
0.0
 10
236.9368091074326
 20
-29.24058582602287
 30
0.0
 10
236.9368091074326
 20
-29.24058582602287
 30
0.0
 10
236.9368091074326
 20
-15.43346332947511
 30
0.0
 10
225.7439463324528
 20
-4.240565276717827
 30
0.0
 10
211.9368238359044
 20
-4.240565276717827
 30
0.0
 10
211.9368238359044
 20
-4.240565276717827
 30
0.0
 10
176.9368151743253
 20
-4.240565276717827
 30
0.0
 10
176.9368151743253
 20
-4.240565276717827
 30
0.0
 10
163.1296930265743
 20
-4.240565276717827
 30
0.0
 10
151.9368305343502
 20
-15.43346332947511
 30
0.0
 10
151.9368305343502
 20
-29.24058582602287
 30
0.0
 10
151.9368305343502
 20
-29.24058582602287
 30
0.0
 10
151.9368305343502
 20
-139.2405774651901
 30
0.0
 10
151.9368305343502
 20
-139.2405774651901
 30
0.0
 10
151.9368305343502
 20
-153.0476999617378
 30
0.0
 10
163.1296930265743
 20
-164.2405627367176
 30
0.0
 10
176.9368151743253
 20
-164.2405627367176
 30
0.0
  0
ENDBLK
  5
68
330
65
100
AcDbEntity
  8
0
100
AcDbBlockEnd
  0
BLOCK
  5
6C
330
6A
100
AcDbEntity
  8
0
100
AcDbBlockBegin
  2
block 10
 70
     0
 10
0.0
 20
0.0
 30
0.0
  3
block 10
  1

  0
SPLINE
  5
6E
330
6A
100
AcDbEntity
  8
_U+30EC_U+30A4_U+30E4_U+30FC 1
 62
   250
420
  2234388
370
    18
100
AcDbSpline
210
0.0
220
0.0
230
1.0
 70
    11
 71
     3
 72
    20
 73
    16
 74
     0
 42
0.0000000001
 43
0.0000000001
 12
1.0
 22
0.0
 32
0.0
 13
1.0
 23
0.0
 33
0.0
 40
0.0
 40
0.0
 40
0.0
 40
0.0
 40
1.0
 40
1.0
 40
1.0
 40
2.0
 40
2.0
 40
2.0
 40
3.0
 40
3.0
 40
3.0
 40
4.0
 40
4.0
 40
4.0
 40
5.0
 40
5.0
 40
5.0
 40
5.0
 10
98.2768977366625
 20
187.4594435642464
 30
0.0
 10
98.2768977366625
 20
185.8025874535491
 30
0.0
 10
96.9337669375953
 20
184.4594213427739
 30
0.0
 10
95.2769108687541
 20
184.4594213427739
 30
0.0
 10
93.62005479991291
 20
184.4594213427739
 30
0.0
 10
92.2769240008457
 20
185.8025874535491
 30
0.0
 10
92.2769240008457
 20
187.4594435642464
 30
0.0
 10
92.2769240008457
 20
189.1162996749431
 30
0.0
 10
93.62005479991291
 20
190.4594305079408
 30
0.0
 10
95.2769108687541
 20
190.4594305079408
 30
0.0
 10
96.9337669375953
 20
190.4594305079408
 30
0.0
 10
98.2768977366625
 20
189.1162996749431
 30
0.0
 10
98.2768977366625
 20
187.4594435642464
 30
0.0
 10
98.2768977366625
 20
187.4594435642464
 30
0.0
 10
98.2768977366625
 20
187.4594435642464
 30
0.0
 10
98.2768977366625
 20
187.4594435642464
 30
0.0
  0
ENDBLK
  5
6D
330
6A
100
AcDbEntity
  8
0
100
AcDbBlockEnd
  0
BLOCK
  5
71
330
6F
100
AcDbEntity
  8
0
100
AcDbBlockBegin
  2
block 11
 70
     0
 10
0.0
 20
0.0
 30
0.0
  3
block 11
  1

  0
SPLINE
  5
73
330
6F
100
AcDbEntity
  8
_U+30EC_U+30A4_U+30E4_U+30FC 1
 62
   250
420
  2234388
370
    18
100
AcDbSpline
210
0.0
220
0.0
230
1.0
 70
    11
 71
     3
 72
    20
 73
    16
 74
     0
 42
0.0000000001
 43
0.0000000001
 12
1.0
 22
0.0
 32
0.0
 13
1.0
 23
0.0
 33
0.0
 40
0.0
 40
0.0
 40
0.0
 40
0.0
 40
1.0
 40
1.0
 40
1.0
 40
2.0
 40
2.0
 40
2.0
 40
3.0
 40
3.0
 40
3.0
 40
4.0
 40
4.0
 40
4.0
 40
5.0
 40
5.0
 40
5.0
 40
5.0
 10
98.2768977366625
 20
72.95941859287112
 30
0.0
 10
98.2768977366625
 20
71.30256248217447
 30
0.0
 10
96.9337669375953
 20
69.95943164917678
 30
0.0
 10
95.2769108687541
 20
69.95943164917678
 30
0.0
 10
93.62005479991291
 20
69.95943164917678
 30
0.0
 10
92.2769240008457
 20
71.30256248217447
 30
0.0
 10
92.2769240008457
 20
72.95941859287112
 30
0.0
 10
92.2769240008457
 20
74.61627470356841
 30
0.0
 10
93.62005479991291
 20
75.95944081434362
 30
0.0
 10
95.2769108687541
 20
75.95944081434362
 30
0.0
 10
96.9337669375953
 20
75.95944081434362
 30
0.0
 10
98.2768977366625
 20
74.61627470356841
 30
0.0
 10
98.2768977366625
 20
72.95941859287112
 30
0.0
 10
98.2768977366625
 20
72.95941859287112
 30
0.0
 10
98.2768977366625
 20
72.95941859287112
 30
0.0
 10
98.2768977366625
 20
72.95941859287112
 30
0.0
  0
ENDBLK
  5
72
330
6F
100
AcDbEntity
  8
0
100
AcDbBlockEnd
  0
BLOCK
  5
76
330
74
100
AcDbEntity
  8
0
100
AcDbBlockBegin
  2
block 12
 70
     0
 10
0.0
 20
0.0
 30
0.0
  3
block 12
  1

  0
SPLINE
  5
78
330
74
100
AcDbEntity
  8
_U+30EC_U+30A4_U+30E4_U+30FC 1
 62
   250
420
  2234388
370
    18
100
AcDbSpline
210
0.0
220
0.0
230
1.0
 70
    11
 71
     3
 72
    20
 73
    16
 74
     0
 42
0.0000000001
 43
0.0000000001
 12
1.0
 22
0.0
 32
0.0
 13
1.0
 23
0.0
 33
0.0
 40
0.0
 40
0.0
 40
0.0
 40
0.0
 40
1.0
 40
1.0
 40
1.0
 40
2.0
 40
2.0
 40
2.0
 40
3.0
 40
3.0
 40
3.0
 40
4.0
 40
4.0
 40
4.0
 40
5.0
 40
5.0
 40
5.0
 40
5.0
 10
197.4368018735493
 20
15.7094413849613
 30
0.0
 10
197.4368018735493
 20
14.05258527426464
 30
0.0
 10
196.093671074482
 20
12.70941916348943
 30
0.0
 10
194.4368150056409
 20
12.70941916348943
 30
0.0
 10
192.7799589367997
 20
12.70941916348943
 30
0.0
 10
191.4368281377324
 20
14.05258527426464
 30
0.0
 10
191.4368281377324
 20
15.7094413849613
 30
0.0
 10
191.4368281377324
 20
17.36629749565859
 30
0.0
 10
192.7799589367997
 20
18.70942832865564
 30
0.0
 10
194.4368150056409
 20
18.70942832865564
 30
0.0
 10
196.093671074482
 20
18.70942832865564
 30
0.0
 10
197.4368018735493
 20
17.36629749565859
 30
0.0
 10
197.4368018735493
 20
15.7094413849613
 30
0.0
 10
197.4368018735493
 20
15.7094413849613
 30
0.0
 10
197.4368018735493
 20
15.7094413849613
 30
0.0
 10
197.4368018735493
 20
15.7094413849613
 30
0.0
  0
ENDBLK
  5
77
330
74
100
AcDbEntity
  8
0
100
AcDbBlockEnd
  0
BLOCK
  5
7B
330
79
100
AcDbEntity
  8
0
100
AcDbBlockBegin
  2
block 13
 70
     0
 10
0.0
 20
0.0
 30
0.0
  3
block 13
  1

  0
SPLINE
  5
7D
330
79
100
AcDbEntity
  8
_U+30EC_U+30A4_U+30E4_U+30FC 1
 62
   250
420
  2234388
370
    18
100
AcDbSpline
210
0.0
220
0.0
230
1.0
 70
    11
 71
     3
 72
    20
 73
    16
 74
     0
 42
0.0000000001
 43
0.0000000001
 12
1.0
 22
0.0
 32
0.0
 13
1.0
 23
0.0
 33
0.0
 40
0.0
 40
0.0
 40
0.0
 40
0.0
 40
1.0
 40
1.0
 40
1.0
 40
2.0
 40
2.0
 40
2.0
 40
3.0
 40
3.0
 40
3.0
 40
4.0
 40
4.0
 40
4.0
 40
5.0
 40
5.0
 40
5.0
 40
5.0
 10
296.5967171480732
 20
72.95941859287112
 30
0.0
 10
296.5967171480732
 20
71.30256248217447
 30
0.0
 10
295.2535863150755
 20
69.95943164917678
 30
0.0
 10
293.5967302043788
 20
69.95943164917678
 30
0.0
 10
291.9398740936816
 20
69.95943164917678
 30
0.0
 10
290.5967432606839
 20
71.30256248217447
 30
0.0
 10
290.5967432606839
 20
72.95941859287112
 30
0.0
 10
290.5967432606839
 20
74.61627470356841
 30
0.0
 10
291.9398740936816
 20
75.95944081434362
 30
0.0
 10
293.5967302043788
 20
75.95944081434362
 30
0.0
 10
295.2535863150755
 20
75.95944081434362
 30
0.0
 10
296.5967171480732
 20
74.61627470356841
 30
0.0
 10
296.5967171480732
 20
72.95941859287112
 30
0.0
 10
296.5967171480732
 20
72.95941859287112
 30
0.0
 10
296.5967171480732
 20
72.95941859287112
 30
0.0
 10
296.5967171480732
 20
72.95941859287112
 30
0.0
  0
ENDBLK
  5
7C
330
79
100
AcDbEntity
  8
0
100
AcDbBlockEnd
  0
BLOCK
  5
80
330
7E
100
AcDbEntity
  8
0
100
AcDbBlockBegin
  2
block 14
 70
     0
 10
0.0
 20
0.0
 30
0.0
  3
block 14
  1

  0
SPLINE
  5
82
330
7E
100
AcDbEntity
  8
_U+30EC_U+30A4_U+30E4_U+30FC 1
 62
   250
420
  2234388
370
    18
100
AcDbSpline
210
0.0
220
0.0
230
1.0
 70
    11
 71
     3
 72
    20
 73
    16
 74
     0
 42
0.0000000001
 43
0.0000000001
 12
1.0
 22
0.0
 32
0.0
 13
1.0
 23
0.0
 33
0.0
 40
0.0
 40
0.0
 40
0.0
 40
0.0
 40
1.0
 40
1.0
 40
1.0
 40
2.0
 40
2.0
 40
2.0
 40
3.0
 40
3.0
 40
3.0
 40
4.0
 40
4.0
 40
4.0
 40
5.0
 40
5.0
 40
5.0
 40
5.0
 10
296.5967171480732
 20
187.4594435642464
 30
0.0
 10
296.5967171480732
 20
185.8025874535491
 30
0.0
 10
295.2535863150755
 20
184.4594213427739
 30
0.0
 10
293.5967302043788
 20
184.4594213427739
 30
0.0
 10
291.9398740936816
 20
184.4594213427739
 30
0.0
 10
290.5967432606839
 20
185.8025874535491
 30
0.0
 10
290.5967432606839
 20
187.4594435642464
 30
0.0
 10
290.5967432606839
 20
189.1162996749431
 30
0.0
 10
291.9398740936816
 20
190.4594305079408
 30
0.0
 10
293.5967302043788
 20
190.4594305079408
 30
0.0
 10
295.2535863150755
 20
190.4594305079408
 30
0.0
 10
296.5967171480732
 20
189.1162996749431
 30
0.0
 10
296.5967171480732
 20
187.4594435642464
 30
0.0
 10
296.5967171480732
 20
187.4594435642464
 30
0.0
 10
296.5967171480732
 20
187.4594435642464
 30
0.0
 10
296.5967171480732
 20
187.4594435642464
 30
0.0
  0
ENDBLK
  5
81
330
7E
100
AcDbEntity
  8
0
100
AcDbBlockEnd
  0
BLOCK
  5
85
330
83
100
AcDbEntity
  8
0
100
AcDbBlockBegin
  2
block 15
 70
     0
 10
0.0
 20
0.0
 30
0.0
  3
block 15
  1

  0
SPLINE
  5
87
330
83
100
AcDbEntity
  8
_U+30EC_U+30A4_U+30E4_U+30FC 1
 62
   250
420
  2234388
370
    18
100
AcDbSpline
210
0.0
220
0.0
230
1.0
 70
    11
 71
     3
 72
    20
 73
    16
 74
     0
 42
0.0000000001
 43
0.0000000001
 12
1.0
 22
0.0
 32
0.0
 13
1.0
 23
0.0
 33
0.0
 40
0.0
 40
0.0
 40
0.0
 40
0.0
 40
1.0
 40
1.0
 40
1.0
 40
2.0
 40
2.0
 40
2.0
 40
3.0
 40
3.0
 40
3.0
 40
4.0
 40
4.0
 40
4.0
 40
5.0
 40
5.0
 40
5.0
 40
5.0
 10
197.4368018735493
 20
244.7094207721562
 30
0.0
 10
197.4368018735493
 20
243.052564661459
 30
0.0
 10
196.093671074482
 20
241.7094338284613
 30
0.0
 10
194.4368150056409
 20
241.7094338284613
 30
0.0
 10
192.7799589367997
 20
241.7094338284613
 30
0.0
 10
191.4368281377324
 20
243.052564661459
 30
0.0
 10
191.4368281377324
 20
244.7094207721562
 30
0.0
 10
191.4368281377324
 20
246.3662768828529
 30
0.0
 10
192.7799589367997
 20
247.7094429936281
 30
0.0
 10
194.4368150056409
 20
247.7094429936281
 30
0.0
 10
196.093671074482
 20
247.7094429936281
 30
0.0
 10
197.4368018735493
 20
246.3662768828529
 30
0.0
 10
197.4368018735493
 20
244.7094207721562
 30
0.0
 10
197.4368018735493
 20
244.7094207721562
 30
0.0
 10
197.4368018735493
 20
244.7094207721562
 30
0.0
 10
197.4368018735493
 20
244.7094207721562
 30
0.0
  0
ENDBLK
  5
86
330
83
100
AcDbEntity
  8
0
100
AcDbBlockEnd
  0
BLOCK
  5
93
330
91
100
AcDbEntity
  8
0
100
AcDbBlockBegin
  2
block 16
 70
     0
 10
0.0
 20
0.0
 30
0.0
  3
block 16
  1

  0
SPLINE
  5
95
330
91
100
AcDbEntity
  8
_U+30EC_U+30A4_U+30E4_U+30FC 1
 62
   250
420
  2234388
370
    18
100
AcDbSpline
210
0.0
220
0.0
230
1.0
 70
    11
 71
     3
 72
    29
 73
    25
 74
     0
 42
0.0000000001
 43
0.0000000001
 12
1.0
 22
0.0
 32
0.0
 13
1.0
 23
0.0
 33
0.0
 40
0.0
 40
0.0
 40
0.0
 40
0.0
 40
1.0
 40
1.0
 40
1.0
 40
2.0
 40
2.0
 40
2.0
 40
3.0
 40
3.0
 40
3.0
 40
4.0
 40
4.0
 40
4.0
 40
5.0
 40
5.0
 40
5.0
 40
6.0
 40
6.0
 40
6.0
 40
7.0
 40
7.0
 40
7.0
 40
8.0
 40
8.0
 40
8.0
 40
8.0
 10
87.6884846734621
 20
-343.2628318586289
 30
0.0
 10
87.6884846734621
 20
-329.4557093620805
 30
0.0
 10
98.88134716568617
 20
-318.2628465871014
 30
0.0
 10
112.6884693134371
 20
-318.2628465871014
 30
0.0
 10
112.6884693134371
 20
-318.2628465871014
 30
0.0
 10
147.6884689760683
 20
-318.2628465871014
 30
0.0
 10
147.6884689760683
 20
-318.2628465871014
 30
0.0
 10
161.4955911238193
 20
-318.2628465871014
 30
0.0
 10
172.6884536160433
 20
-329.4557093620805
 30
0.0
 10
172.6884536160433
 20
-343.2628318586289
 30
0.0
 10
172.6884536160433
 20
-343.2628318586289
 30
0.0
 10
172.6884536160433
 20
-413.2628329522399
 30
0.0
 10
172.6884536160433
 20
-413.2628329522399
 30
0.0
 10
172.6884536160433
 20
-427.0699554487883
 30
0.0
 10
161.4955911238193
 20
-438.2628535015456
 30
0.0
 10
147.6884689760683
 20
-438.2628535015456
 30
0.0
 10
147.6884689760683
 20
-438.2628535015456
 30
0.0
 10
112.6884693134371
 20
-438.2628535015456
 30
0.0
 10
112.6884693134371
 20
-438.2628535015456
 30
0.0
 10
98.88134716568617
 20
-438.2628535015456
 30
0.0
 10
87.6884846734621
 20
-427.0699554487883
 30
0.0
 10
87.6884846734621
 20
-413.2628329522399
 30
0.0
 10
87.6884846734621
 20
-413.2628329522399
 30
0.0
 10
87.6884846734621
 20
-343.2628318586289
 30
0.0
 10
87.6884846734621
 20
-343.2628318586289
 30
0.0
  0
ENDBLK
  5
94
330
91
100
AcDbEntity
  8
0
100
AcDbBlockEnd
  0
BLOCK
  5
A2
330
A0
100
AcDbEntity
  8
0
100
AcDbBlockBegin
  2
block 17
 70
     0
 10
0.0
 20
0.0
 30
0.0
  3
block 17
  1

  0
SPLINE
  5
A4
330
A0
100
AcDbEntity
  8
_U+30EC_U+30A4_U+30E4_U+30FC 1
 62
   250
420
  2234388
370
    18
100
AcDbSpline
210
0.0
220
0.0
230
1.0
 70
    11
 71
     3
 72
    29
 73
    25
 74
     0
 42
0.0000000001
 43
0.0000000001
 12
1.0
 22
0.0
 32
0.0
 13
1.0
 23
0.0
 33
0.0
 40
0.0
 40
0.0
 40
0.0
 40
0.0
 40
1.0
 40
1.0
 40
1.0
 40
2.0
 40
2.0
 40
2.0
 40
3.0
 40
3.0
 40
3.0
 40
4.0
 40
4.0
 40
4.0
 40
5.0
 40
5.0
 40
5.0
 40
6.0
 40
6.0
 40
6.0
 40
7.0
 40
7.0
 40
7.0
 40
8.0
 40
8.0
 40
8.0
 40
8.0
 10
-118.7574530258662
 20
-343.2628318586289
 30
0.0
 10
-118.7574530258662
 20
-329.4557093620805
 30
0.0
 10
-107.5645559007734
 20
-318.2628465871014
 30
0.0
 10
-93.75743375302244
 20
-318.2628465871014
 30
0.0
 10
-93.75743375302244
 20
-318.2628465871014
 30
0.0
 10
-58.75743409039126
 20
-318.2628465871014
 30
0.0
 10
-58.75743409039126
 20
-318.2628465871014
 30
0.0
 10
-44.95031194264029
 20
-318.2628465871014
 30
0.0
 10
-33.75744945041622
 20
-329.4557093620805
 30
0.0
 10
-33.75744945041622
 20
-343.2628318586289
 30
0.0
 10
-33.75744945041622
 20
-343.2628318586289
 30
0.0
 10
-33.75744945041622
 20
-413.2628329522399
 30
0.0
 10
-33.75744945041622
 20
-413.2628329522399
 30
0.0
 10
-33.75744945041622
 20
-427.0699554487883
 30
0.0
 10
-44.95031194264029
 20
-438.2628535015456
 30
0.0
 10
-58.75743409039126
 20
-438.2628535015456
 30
0.0
 10
-58.75743409039126
 20
-438.2628535015456
 30
0.0
 10
-93.75743375302244
 20
-438.2628535015456
 30
0.0
 10
-93.75743375302244
 20
-438.2628535015456
 30
0.0
 10
-107.5645559007734
 20
-438.2628535015456
 30
0.0
 10
-118.7574530258662
 20
-427.0699554487883
 30
0.0
 10
-118.7574530258662
 20
-413.2628329522399
 30
0.0
 10
-118.7574530258662
 20
-413.2628329522399
 30
0.0
 10
-118.7574530258662
 20
-343.2628318586289
 30
0.0
 10
-118.7574530258662
 20
-343.2628318586289
 30
0.0
  0
ENDBLK
  5
A3
330
A0
100
AcDbEntity
  8
0
100
AcDbBlockEnd
  0
ENDSEC
  0
SECTION
  2
ENTITIES
  0
SPLINE
  5
41
330
1F
100
AcDbEntity
  8
_U+30EC_U+30A4_U+30E4_U+30FC 1
 62
   250
420
  2234388
370
    18
100
AcDbSpline
210
0.0
220
0.0
230
1.0
 70
    11
 71
     3
 72
    20
 73
    16
 74
     0
 42
0.0000000001
 43
0.0000000001
 12
1.0
 22
0.0
 32
0.0
 13
1.0
 23
0.0
 33
0.0
 40
0.0
 40
0.0
 40
0.0
 40
0.0
 40
1.0
 40
1.0
 40
1.0
 40
2.0
 40
2.0
 40
2.0
 40
3.0
 40
3.0
 40
3.0
 40
4.0
 40
4.0
 40
4.0
 40
5.0
 40
5.0
 40
5.0
 40
5.0
 10
-177.2575335667968
 20
130.3094435785339
 30
0.0
 10
-177.2575335667968
 20
186.090171897922
 30
0.0
 10
-132.038301633657
 20
231.3094391088393
 30
0.0
 10
-76.25753975503748
 20
231.3094391088393
 30
0.0
 10
-20.47677756701217
 20
231.3094391088393
 30
0.0
 10
24.74245322379359
 20
186.090171897922
 30
0.0
 10
24.74245322379359
 20
130.3094435785339
 30
0.0
 10
24.74245322379359
 20
74.5286799813677
 30
0.0
 10
-20.47677756701217
 20
29.3094127704504
 30
0.0
 10
-76.25753975503748
 20
29.3094127704504
 30
0.0
 10
-132.038301633657
 20
29.3094127704504
 30
0.0
 10
-177.2575335667968
 20
74.5286799813677
 30
0.0
 10
-177.2575335667968
 20
130.3094435785339
 30
0.0
 10
-177.2575335667968
 20
130.3094435785339
 30
0.0
 10
-177.2575335667968
 20
130.3094435785339
 30
0.0
 10
-177.2575335667968
 20
130.3094435785339
 30
0.0
  0
INSERT
  5
43
330
1F
100
AcDbEntity
  8
_U+30EC_U+30A4_U+30E4_U+30FC 1
100
AcDbBlockReference
  2
block 2
 10
0.0
 20
0.0
 30
0.0
  0
INSERT
  5
48
330
1F
100
AcDbEntity
  8
_U+30EC_U+30A4_U+30E4_U+30FC 1
100
AcDbBlockReference
  2
block 3
 10
0.0
 20
0.0
 30
0.0
  0
INSERT
  5
4D
330
1F
100
AcDbEntity
  8
_U+30EC_U+30A4_U+30E4_U+30FC 1
100
AcDbBlockReference
  2
block 4
 10
0.0
 20
0.0
 30
0.0
  0
INSERT
  5
52
330
1F
100
AcDbEntity
  8
_U+30EC_U+30A4_U+30E4_U+30FC 1
100
AcDbBlockReference
  2
block 5
 10
0.0
 20
0.0
 30
0.0
  0
INSERT
  5
57
330
1F
100
AcDbEntity
  8
_U+30EC_U+30A4_U+30E4_U+30FC 1
100
AcDbBlockReference
  2
block 6
 10
0.0
 20
0.0
 30
0.0
  0
INSERT
  5
5C
330
1F
100
AcDbEntity
  8
_U+30EC_U+30A4_U+30E4_U+30FC 1
100
AcDbBlockReference
  2
block 7
 10
0.0
 20
0.0
 30
0.0
  0
INSERT
  5
61
330
1F
100
AcDbEntity
  8
_U+30EC_U+30A4_U+30E4_U+30FC 1
100
AcDbBlockReference
  2
block 8
 10
0.0
 20
0.0
 30
0.0
  0
INSERT
  5
66
330
1F
100
AcDbEntity
  8
_U+30EC_U+30A4_U+30E4_U+30FC 1
100
AcDbBlockReference
  2
block 9
 10
0.0
 20
0.0
 30
0.0
  0
INSERT
  5
6B
330
1F
100
AcDbEntity
  8
_U+30EC_U+30A4_U+30E4_U+30FC 1
100
AcDbBlockReference
  2
block 10
 10
0.0
 20
0.0
 30
0.0
  0
INSERT
  5
70
330
1F
100
AcDbEntity
  8
_U+30EC_U+30A4_U+30E4_U+30FC 1
100
AcDbBlockReference
  2
block 11
 10
0.0
 20
0.0
 30
0.0
  0
INSERT
  5
75
330
1F
100
AcDbEntity
  8
_U+30EC_U+30A4_U+30E4_U+30FC 1
100
AcDbBlockReference
  2
block 12
 10
0.0
 20
0.0
 30
0.0
  0
INSERT
  5
7A
330
1F
100
AcDbEntity
  8
_U+30EC_U+30A4_U+30E4_U+30FC 1
100
AcDbBlockReference
  2
block 13
 10
0.0
 20
0.0
 30
0.0
  0
INSERT
  5
7F
330
1F
100
AcDbEntity
  8
_U+30EC_U+30A4_U+30E4_U+30FC 1
100
AcDbBlockReference
  2
block 14
 10
0.0
 20
0.0
 30
0.0
  0
INSERT
  5
84
330
1F
100
AcDbEntity
  8
_U+30EC_U+30A4_U+30E4_U+30FC 1
100
AcDbBlockReference
  2
block 15
 10
0.0
 20
0.0
 30
0.0
  0
SPLINE
  5
88
330
1F
100
AcDbEntity
  8
_U+30EC_U+30A4_U+30E4_U+30FC 1
 62
   250
420
  2234388
370
    18
100
AcDbSpline
210
0.0
220
0.0
230
1.0
 70
    11
 71
     3
 72
    32
 73
    28
 74
     0
 42
0.0000000001
 43
0.0000000001
 12
1.0
 22
0.0
 32
0.0
 13
1.0
 23
0.0
 33
0.0
 40
0.0
 40
0.0
 40
0.0
 40
0.0
 40
1.0
 40
1.0
 40
1.0
 40
2.0
 40
2.0
 40
2.0
 40
3.0
 40
3.0
 40
3.0
 40
4.0
 40
4.0
 40
4.0
 40
5.0
 40
5.0
 40
5.0
 40
6.0
 40
6.0
 40
6.0
 40
7.0
 40
7.0
 40
7.0
 40
8.0
 40
8.0
 40
8.0
 40
9.0
 40
9.0
 40
9.0
 40
9.0
 10
123.2594551548599
 20
100.7437024748143
 30
0.0
 10
184.4740533153676
 20
136.0522424659871
 30
0.0
 10
184.4341894274958
 20
206.726013837207
 30
0.0
 10
184.4210660944972
 20
206.7335985594276
 30
0.0
 10
184.4210660944972
 20
216.122426334858
 30
0.0
 10
176.8099210108959
 20
223.7336068885111
 30
0.0
 10
167.4210581948702
 20
223.7336068885111
 30
0.0
 10
165.4781346333272
 20
223.7336068885111
 30
0.0
 10
163.5496044047504
 20
223.4005141108166
 30
0.0
 10
161.7192169514474
 20
222.7488629998684
 30
0.0
 10
161.7192169514474
 20
222.7488629998684
 30
0.0
 10
161.7191816736706
 20
222.7411018887595
 30
0.0
 10
161.7191816736706
 20
222.7411018887595
 30
0.0
 10
148.1139895207679
 20
217.9364802232935
 30
0.0
 10
135.64484761666
 20
210.1103521696948
 30
0.0
 10
125.1403603846518
 20
199.605864672321
 30
0.0
 10
106.630569467987
 20
181.0962143991705
 30
0.0
 10
96.43687945027195
 20
156.4861896831005
 30
0.0
 10
96.43687945027195
 20
130.3094788563114
 30
0.0
 10
96.43687945027195
 20
124.2349983022748
 30
0.0
 10
96.98580165849
 20
118.2448669148834
 30
0.0
 10
98.06018635330238
 20
112.3957760830119
 30
0.0
 10
99.75553047671721
 20
103.1612885853207
 30
0.0
 10
108.6158969173371
 20
97.04955469795979
 30
0.0
 10
117.8504194595226
 20
98.7448988642029
 30
0.0
 10
119.7614166329912
 20
99.0957363641148
 30
0.0
 10
121.576846308898
 20
99.7722583083901
 30
0.0
 10
123.2594551548599
 20
100.7437024748143
 30
0.0
  0
SPLINE
  5
89
330
1F
100
AcDbEntity
  8
_U+30EC_U+30A4_U+30E4_U+30FC 1
 62
   250
420
  2234388
370
    18
100
AcDbSpline
210
0.0
220
0.0
230
1.0
 70
    11
 71
     3
 72
    32
 73
    28
 74
     0
 42
0.0000000001
 43
0.0000000001
 12
1.0
 22
0.0
 32
0.0
 13
1.0
 23
0.0
 33
0.0
 40
0.0
 40
0.0
 40
0.0
 40
0.0
 40
1.0
 40
1.0
 40
1.0
 40
2.0
 40
2.0
 40
2.0
 40
3.0
 40
3.0
 40
3.0
 40
4.0
 40
4.0
 40
4.0
 40
5.0
 40
5.0
 40
5.0
 40
6.0
 40
6.0
 40
6.0
 40
7.0
 40
7.0
 40
7.0
 40
8.0
 40
8.0
 40
8.0
 40
9.0
 40
9.0
 40
9.0
 40
9.0
 10
255.6301860472033
 20
83.45064164580397
 30
0.0
 10
194.4448230609921
 20
118.8097699702978
 30
0.0
 10
133.2594701775161
 20
83.43836497914056
 30
0.0
 10
133.2594701775161
 20
83.42319553470003
 30
0.0
 10
125.1285138576067
 20
78.7287816469845
 30
0.0
 10
122.3426277471924
 20
68.3317502606947
 30
0.0
 10
127.0370416349073
 20
60.20078692939423
 30
0.0
 10
128.008514200368
 20
58.51814276314796
 30
0.0
 10
129.2612280572975
 20
57.01449804130218
 30
0.0
 10
130.740778019551
 20
55.75518720828367
 30
0.0
 10
130.740778019551
 20
55.75518720828367
 30
0.0
 10
130.7475160749347
 20
55.75903248606024
 30
0.0
 10
130.7475160749347
 20
55.75903248606024
 30
0.0
 10
141.7110024618995
 20
46.37891832173873
 30
0.0
 10
154.7232457410406
 20
39.49336637901527
 30
0.0
 10
169.0726305132875
 20
35.64847665775486
 30
0.0
 10
194.3573341743353
 20
28.87334415944828
 30
0.0
 10
220.7670985559195
 20
32.3503572141349
 30
0.0
 10
243.4368102169186
 20
45.43869498864
 30
0.0
 10
248.6974677156033
 20
48.47593526565864
 30
0.0
 10
253.6105685477085
 20
51.94638665367979
 30
0.0
 10
258.1388593799099
 20
55.80140109716079
 30
0.0
 10
265.2885007670114
 20
61.88685304008362
 30
0.0
 10
266.1512188223512
 20
72.61602470406845
 30
0.0
 10
260.0657316016502
 20
79.76566609116998
 30
0.0
 10
258.8064207686317
 20
81.24521609079991
 30
0.0
 10
257.3128302134496
 20
82.47916220160225
 30
0.0
 10
255.6301860472033
 20
83.45064164580397
 30
0.0
  0
SPLINE
  5
8A
330
1F
100
AcDbEntity
  8
_U+30EC_U+30A4_U+30E4_U+30FC 1
 62
   250
420
  2234388
370
    18
100
AcDbSpline
210
0.0
220
0.0
230
1.0
 70
    11
 71
     3
 72
    32
 73
    28
 74
     0
 42
0.0000000001
 43
0.0000000001
 12
1.0
 22
0.0
 32
0.0
 13
1.0
 23
0.0
 33
0.0
 40
0.0
 40
0.0
 40
0.0
 40
0.0
 40
1.0
 40
1.0
 40
1.0
 40
2.0
 40
2.0
 40
2.0
 40
3.0
 40
3.0
 40
3.0
 40
4.0
 40
4.0
 40
4.0
 40
5.0
 40
5.0
 40
5.0
 40
6.0
 40
6.0
 40
6.0
 40
7.0
 40
7.0
 40
7.0
 40
8.0
 40
8.0
 40
8.0
 40
9.0
 40
9.0
 40
9.0
 40
9.0
 10
204.4210608620326
 20
206.7335985594276
 30
0.0
 10
204.3918508627778
 20
136.0659655215391
 30
0.0
 10
265.6170779891513
 20
100.7635638636983
 30
0.0
 10
265.6302013224816
 20
100.7711485859182
 30
0.0
 10
273.761164653782
 20
96.0767346982027
 30
0.0
 10
284.1581960400719
 20
98.86262080861763
 30
0.0
 10
288.8526452055649
 20
106.9935841399181
 30
0.0
 10
289.8240893719885
 20
108.6761930283862
 30
0.0
 10
290.4999410384864
 20
110.5129305279271
 30
0.0
 10
290.8507432606208
 20
112.4238924718939
 30
0.0
 10
290.8507432606208
 20
112.4238924718939
 30
0.0
 10
290.8440757606221
 20
112.4278083052261
 30
0.0
 10
290.8440757606221
 20
112.4278083052261
 30
0.0
 10
293.4857110377396
 20
126.6125441350137
 30
0.0
 10
292.9426802045419
 20
141.3242241313358
 30
0.0
 10
289.0977552055034
 20
155.6736013499707
 30
0.0
 10
282.3228343738638
 20
180.9583841214272
 30
0.0
 10
266.1067688223623
 20
202.0913957828105
 30
0.0
 10
243.4370924391407
 20
215.1797688350938
 30
0.0
 10
238.176434940456
 20
218.2170091121124
 30
0.0
 10
232.7143766084881
 20
220.7366891114827
 30
0.0
 10
227.111701054333
 20
222.7307654998731
 30
0.0
 10
218.266715500989
 20
225.8798363324191
 30
0.0
 10
208.5436307811976
 20
221.2623632780177
 30
0.0
 10
205.3945863927515
 20
212.4173777246737
 30
0.0
 10
204.7429000204885
 20
210.5869902251312
 30
0.0
 10
204.4210608620326
 20
208.6765221700529
 30
0.0
 10
204.4210608620326
 20
206.7335985594276
 30
0.0
  0
SPLINE
  5
8B
330
1F
100
AcDbEntity
  8
_U+30EC_U+30A4_U+30E4_U+30FC 1
 62
   250
420
  2234388
370
    18
100
AcDbSpline
210
0.0
220
0.0
230
1.0
 70
    11
 71
     3
 72
    32
 73
    28
 74
     0
 42
0.0000000001
 43
0.0000000001
 12
1.0
 22
0.0
 32
0.0
 13
1.0
 23
0.0
 33
0.0
 40
0.0
 40
0.0
 40
0.0
 40
0.0
 40
1.0
 40
1.0
 40
1.0
 40
2.0
 40
2.0
 40
2.0
 40
3.0
 40
3.0
 40
3.0
 40
4.0
 40
4.0
 40
4.0
 40
5.0
 40
5.0
 40
5.0
 40
6.0
 40
6.0
 40
6.0
 40
7.0
 40
7.0
 40
7.0
 40
8.0
 40
8.0
 40
8.0
 40
9.0
 40
9.0
 40
9.0
 40
9.0
 10
-147.4560134353583
 20
100.7437024748143
 30
0.0
 10
-86.24143283366048
 20
136.0522424659871
 30
0.0
 10
-86.28126144375548
 20
206.726013837207
 30
0.0
 10
-86.29442005453089
 20
206.7335985594276
 30
0.0
 10
-86.29442005453089
 20
216.122426334858
 30
0.0
 10
-93.90556386541262
 20
223.7336068885111
 30
0.0
 10
-103.2944279541579
 20
223.7336068885111
 30
0.0
 10
-105.2373515157009
 20
223.7336068885111
 30
0.0
 10
-107.1658817442778
 20
223.4005141108166
 30
0.0
 10
-108.9962691975807
 20
222.7488629998684
 30
0.0
 10
-108.9962691975807
 20
222.7488629998684
 30
0.0
 10
-108.9963044753576
 20
222.7411018887595
 30
0.0
 10
-108.9963044753576
 20
222.7411018887595
 30
0.0
 10
-122.6014960804606
 20
217.9364802232935
 30
0.0
 10
-135.0706382995658
 20
210.1103521696948
 30
0.0
 10
-145.5751152136063
 20
199.605864672321
 30
0.0
 10
-164.0849171812009
 20
181.0962143991705
 30
0.0
 10
-174.2786074564304
 20
156.4861896831005
 30
0.0
 10
-174.2786074564304
 20
130.3094788563114
 30
0.0
 10
-174.2786074564304
 20
124.2349983022748
 30
0.0
 10
-173.7296852343453
 20
118.2448669148834
 30
0.0
 10
-172.6553005123916
 20
112.3957760830119
 30
0.0
 10
-170.9599563461488
 20
103.1612885853207
 30
0.0
 10
-162.0995544039197
 20
97.04955469795979
 30
0.0
 10
-152.8650669062282
 20
98.7448988642029
 30
0.0
 10
-150.9540696844839
 20
99.0957363641148
 30
0.0
 10
-149.1386399627152
 20
99.7722583083901
 30
0.0
 10
-147.4560134353583
 20
100.7437024748143
 30
0.0
  0
SPLINE
  5
8C
330
1F
100
AcDbEntity
  8
_U+30EC_U+30A4_U+30E4_U+30FC 1
 62
   250
420
  2234388
370
    18
100
AcDbSpline
210
0.0
220
0.0
230
1.0
 70
    11
 71
     3
 72
    32
 73
    28
 74
     0
 42
0.0000000001
 43
0.0000000001
 12
1.0
 22
0.0
 32
0.0
 13
1.0
 23
0.0
 33
0.0
 40
0.0
 40
0.0
 40
0.0
 40
0.0
 40
1.0
 40
1.0
 40
1.0
 40
2.0
 40
2.0
 40
2.0
 40
3.0
 40
3.0
 40
3.0
 40
4.0
 40
4.0
 40
4.0
 40
5.0
 40
5.0
 40
5.0
 40
6.0
 40
6.0
 40
6.0
 40
7.0
 40
7.0
 40
7.0
 40
8.0
 40
8.0
 40
8.0
 40
9.0
 40
9.0
 40
9.0
 40
9.0
 10
-15.08527492678308
 20
83.45064164580397
 30
0.0
 10
-76.270663088036
 20
118.8097699702978
 30
0.0
 10
-137.4560157989694
 20
83.43836497914056
 30
0.0
 10
-137.4560157989694
 20
83.42319553470003
 30
0.0
 10
-145.5869861858256
 20
78.7287816469845
 30
0.0
 10
-148.3728652406845
 20
68.3317502606947
 30
0.0
 10
-143.6784442974136
 20
60.20078692939423
 30
0.0
 10
-142.7069789643233
 20
58.51814276314796
 30
0.0
 10
-141.4542580201921
 20
57.01449804130218
 30
0.0
 10
-139.9747080205618
 20
55.75518720828367
 30
0.0
 10
-139.9747080205618
 20
55.75518720828367
 30
0.0
 10
-139.9679699650081
 20
55.75903248606024
 30
0.0
 10
-139.9679699650081
 20
55.75903248606024
 30
0.0
 10
-129.0044480233043
 20
46.37891832173873
 30
0.0
 10
-115.9922396932243
 20
39.49336637901527
 30
0.0
 10
-101.6428635518484
 20
35.64847665775486
 30
0.0
 10
-76.35815197469287
 20
28.87334415944828
 30
0.0
 10
-49.94839443195743
 20
32.3503572141349
 30
0.0
 10
-27.27868572681437
 20
45.43869498864
 30
0.0
 10
-22.01802836102492
 20
48.47593526565864
 30
0.0
 10
-17.10489237525835
 20
51.94638665367979
 30
0.0
 10
-12.57663693522822
 20
55.80140109716079
 30
0.0
 10
-5.426995728741869
 20
61.88685304008362
 30
0.0
 10
-4.564277695196084
 20
72.61602470406845
 30
0.0
 10
-10.64972948438772
 20
79.76566609116998
 30
0.0
 10
-11.90907221924489
 20
81.24521609079991
 30
0.0
 10
-13.40266608082112
 20
82.47916220160225
 30
0.0
 10
-15.08527492678308
 20
83.45064164580397
 30
0.0
  0
SPLINE
  5
8D
330
1F
100
AcDbEntity
  8
_U+30EC_U+30A4_U+30E4_U+30FC 1
 62
   250
420
  2234388
370
    18
100
AcDbSpline
210
0.0
220
0.0
230
1.0
 70
    11
 71
     3
 72
    32
 73
    28
 74
     0
 42
0.0000000001
 43
0.0000000001
 12
1.0
 22
0.0
 32
0.0
 13
1.0
 23
0.0
 33
0.0
 40
0.0
 40
0.0
 40
0.0
 40
0.0
 40
1.0
 40
1.0
 40
1.0
 40
2.0
 40
2.0
 40
2.0
 40
3.0
 40
3.0
 40
3.0
 40
4.0
 40
4.0
 40
4.0
 40
5.0
 40
5.0
 40
5.0
 40
6.0
 40
6.0
 40
6.0
 40
7.0
 40
7.0
 40
7.0
 40
8.0
 40
8.0
 40
8.0
 40
9.0
 40
9.0
 40
9.0
 40
9.0
 10
-66.29442528699548
 20
206.7335985594276
 30
0.0
 10
-66.32363331675239
 20
136.0659655215391
 30
0.0
 10
-5.098418514902351
 20
100.7635638636983
 30
0.0
 10
-5.085291665395652
 20
100.7711485859182
 30
0.0
 10
3.045667943991361
 20
96.0767346982027
 30
0.0
 10
13.44273434540677
 20
98.86262080861763
 30
0.0
 10
18.13714811453118
 20
106.9935841399181
 30
0.0
 10
19.10859225641424
 20
108.6761930283862
 30
0.0
 10
19.7844439058385
 20
110.5129305279271
 30
0.0
 10
20.13528139688789
 20
112.4238924718939
 30
0.0
 10
20.13528139688789
 20
112.4238924718939
 30
0.0
 10
20.12857861928111
 20
112.4278083052261
 30
0.0
 10
20.12857861928111
 20
112.4278083052261
 30
0.0
 10
22.77021382966516
 20
126.6125441350137
 30
0.0
 10
22.2271830101857
 20
141.3242241313358
 30
0.0
 10
18.38225810827791
 20
155.6736013499707
 30
0.0
 10
11.60737272556407
 20
180.9583841214272
 30
0.0
 10
-4.608727694062071
 20
202.0913957828105
 30
0.0
 10
-27.27840350459935
 20
215.1797688350938
 30
0.0
 10
-32.53906087038879
 20
218.2170091121124
 30
0.0
 10
-38.00111906437341
 20
220.7366891114827
 30
0.0
 10
-43.60379447699281
 20
222.7307654998731
 30
0.0
 10
-52.448779806894
 20
225.8798363324191
 30
0.0
 10
-62.17186428105966
 20
221.2623632780177
 30
0.0
 10
-65.32089975627663
 20
212.4173777246737
 30
0.0
 10
-65.97258612853962
 20
210.5869902251312
 30
0.0
 10
-66.29442528699548
 20
208.6765221700529
 30
0.0
 10
-66.29442528699548
 20
206.7335985594276
 30
0.0
  0
SPLINE
  5
8E
330
1F
100
AcDbEntity
  8
_U+30EC_U+30A4_U+30E4_U+30FC 1
 62
   250
420
  2234388
370
    18
100
AcDbSpline
210
0.0
220
0.0
230
1.0
 70
     8
 71
     3
 72
    11
 73
     7
 74
     0
 42
0.0000000001
 43
0.0000000001
 12
1.0
 22
0.0
 32
0.0
 13
1.0
 23
0.0
 33
0.0
 40
0.0
 40
0.0
 40
0.0
 40
0.0
 40
1.0
 40
1.0
 40
1.0
 40
2.0
 40
2.0
 40
2.0
 40
2.0
 10
-43.5211361002309
 20
222.7343991109833
 30
0.0
 10
-53.89495699222116
 20
226.4003246656221
 30
0.0
 10
-64.92959865514844
 20
228.3093463318118
 30
0.0
 10
-76.25761031059123
 20
228.3093463318118
 30
0.0
 10
-87.58562196603403
 20
228.3093463318118
 30
0.0
 10
-98.62026362896131
 20
226.4003246656221
 30
0.0
 10
-108.9941172531911
 20
222.7343991109833
 30
0.0
  0
SPLINE
  5
8F
330
1F
100
AcDbEntity
  8
_U+30EC_U+30A4_U+30E4_U+30FC 1
 62
   250
420
  2234388
370
    18
100
AcDbSpline
210
0.0
220
0.0
230
1.0
 70
     8
 71
     3
 72
    11
 73
     7
 74
     0
 42
0.0000000001
 43
0.0000000001
 12
1.0
 22
0.0
 32
0.0
 13
1.0
 23
0.0
 33
0.0
 40
0.0
 40
0.0
 40
0.0
 40
0.0
 40
1.0
 40
1.0
 40
1.0
 40
2.0
 40
2.0
 40
2.0
 40
2.0
 10
-172.668106345722
 20
112.4472463607773
 30
0.0
 10
-170.655932457336
 20
101.6303035857036
 30
0.0
 10
-166.7918869027465
 20
91.11950136610879
 30
0.0
 10
-161.1278985708291
 20
81.30913942411694
 30
0.0
 10
-155.4638749611342
 20
71.49881275990325
 30
0.0
 10
-148.2932785740379
 20
62.8970322064982
 30
0.0
 10
-139.9315985761282
 20
55.74597970828563
 30
0.0
  0
SPLINE
  5
90
330
1F
100
AcDbEntity
  8
_U+30EC_U+30A4_U+30E4_U+30FC 1
 62
   250
420
  2234388
370
    18
100
AcDbSpline
210
0.0
220
0.0
230
1.0
 70
     8
 71
     3
 72
    11
 73
     7
 74
     0
 42
0.0000000001
 43
0.0000000001
 12
1.0
 22
0.0
 32
0.0
 13
1.0
 23
0.0
 33
0.0
 40
0.0
 40
0.0
 40
0.0
 40
0.0
 40
1.0
 40
1.0
 40
1.0
 40
2.0
 40
2.0
 40
2.0
 40
2.0
 10
-12.58312804617372
 20
55.74626193050771
 30
0.0
 10
-4.221448259497948
 20
62.89734970649781
 30
0.0
 10
2.949147946453791
 20
71.49909498212533
 30
0.0
 10
8.613171413063625
 20
81.30945692411719
 30
0.0
 10
14.27715960189658
 20
91.11978358833152
 30
0.0
 10
18.14120505887212
 20
101.6305858079256
 30
0.0
 10
20.15337889642618
 20
112.4475638607769
 30
0.0
  0
INSERT
  5
92
330
1F
100
AcDbEntity
  8
_U+30EC_U+30A4_U+30E4_U+30FC 1
100
AcDbBlockReference
  2
block 16
 10
0.0
 20
0.0
 30
0.0
  0
SPLINE
  5
96
330
1F
100
AcDbEntity
  8
_U+30EC_U+30A4_U+30E4_U+30FC 1
 62
   250
420
  2234388
370
    18
100
AcDbSpline
210
0.0
220
0.0
230
1.0
 70
    11
 71
     3
 72
   167
 73
   163
 74
     0
 42
0.0000000001
 43
0.0000000001
 12
1.0
 22
0.0
 32
0.0
 13
1.0
 23
0.0
 33
0.0
 40
0.0
 40
0.0
 40
0.0
 40
0.0
 40
1.0
 40
1.0
 40
1.0
 40
2.0
 40
2.0
 40
2.0
 40
3.0
 40
3.0
 40
3.0
 40
4.0
 40
4.0
 40
4.0
 40
5.0
 40
5.0
 40
5.0
 40
6.0
 40
6.0
 40
6.0
 40
7.0
 40
7.0
 40
7.0
 40
8.0
 40
8.0
 40
8.0
 40
9.0
 40
9.0
 40
9.0
 40
10.0
 40
10.0
 40
10.0
 40
11.0
 40
11.0
 40
11.0
 40
12.0
 40
12.0
 40
12.0
 40
13.0
 40
13.0
 40
13.0
 40
14.0
 40
14.0
 40
14.0
 40
15.0
 40
15.0
 40
15.0
 40
16.0
 40
16.0
 40
16.0
 40
17.0
 40
17.0
 40
17.0
 40
18.0
 40
18.0
 40
18.0
 40
19.0
 40
19.0
 40
19.0
 40
20.0
 40
20.0
 40
20.0
 40
21.0
 40
21.0
 40
21.0
 40
22.0
 40
22.0
 40
22.0
 40
23.0
 40
23.0
 40
23.0
 40
24.0
 40
24.0
 40
24.0
 40
25.0
 40
25.0
 40
25.0
 40
26.0
 40
26.0
 40
26.0
 40
27.0
 40
27.0
 40
27.0
 40
28.0
 40
28.0
 40
28.0
 40
29.0
 40
29.0
 40
29.0
 40
30.0
 40
30.0
 40
30.0
 40
31.0
 40
31.0
 40
31.0
 40
32.0
 40
32.0
 40
32.0
 40
33.0
 40
33.0
 40
33.0
 40
34.0
 40
34.0
 40
34.0
 40
35.0
 40
35.0
 40
35.0
 40
36.0
 40
36.0
 40
36.0
 40
37.0
 40
37.0
 40
37.0
 40
38.0
 40
38.0
 40
38.0
 40
39.0
 40
39.0
 40
39.0
 40
40.0
 40
40.0
 40
40.0
 40
41.0
 40
41.0
 40
41.0
 40
42.0
 40
42.0
 40
42.0
 40
43.0
 40
43.0
 40
43.0
 40
44.0
 40
44.0
 40
44.0
 40
45.0
 40
45.0
 40
45.0
 40
46.0
 40
46.0
 40
46.0
 40
47.0
 40
47.0
 40
47.0
 40
48.0
 40
48.0
 40
48.0
 40
49.0
 40
49.0
 40
49.0
 40
50.0
 40
50.0
 40
50.0
 40
51.0
 40
51.0
 40
51.0
 40
52.0
 40
52.0
 40
52.0
 40
53.0
 40
53.0
 40
53.0
 40
54.0
 40
54.0
 40
54.0
 40
54.0
 10
206.6884694152973
 20
-350.512838523483
 30
0.0
 10
206.6884694152973
 20
-350.512838523483
 30
0.0
 10
206.6884694152973
 20
-435.512844891122
 30
0.0
 10
206.6884694152973
 20
-435.512844891122
 30
0.0
 10
206.6884694152973
 20
-449.3199673876698
 30
0.0
 10
195.4956069230733
 20
-460.5128301626495
 30
0.0
 10
181.6884847753223
 20
-460.5128301626495
 30
0.0
 10
181.6884847753223
 20
-460.5128301626495
 30
0.0
 10
77.17108577511662
 20
-460.5128301626495
 30
0.0
 10
77.17108577511662
 20
-460.5128301626495
 30
0.0
 10
63.97762055615441
 20
-459.7105782184055
 30
0.0
 10
53.68846887420809
 20
-448.7767601655839
 30
0.0
 10
53.68846887420809
 20
-435.5589176688885
 30
0.0
 10
53.68846887420809
 20
-435.5589176688885
 30
0.0
 10
53.68846887420809
 20
-350.512838523483
 30
0.0
 10
53.68846887420809
 20
-350.512838523483
 30
0.0
 10
53.68846887420809
 20
-350.512838523483
 30
0.0
 10
53.6295902645991
 20
-347.8258360241546
 30
0.0
 10
53.6295902645991
 20
-347.8258360241546
 30
0.0
 10
53.6295902645991
 20
-347.8258360241546
 30
0.0
 10
53.45408332463221
 20
-345.321360747003
 30
0.0
 10
53.45408332463221
 20
-345.321360747003
 30
0.0
 10
53.45408332463221
 20
-345.321360747003
 30
0.0
 10
53.16522888755706
 20
-342.9963788031397
 30
0.0
 10
53.16522888755706
 20
-342.9963788031397
 30
0.0
 10
53.16522888755706
 20
-342.9963788031397
 30
0.0
 10
52.76835389768218
 20
-340.8456690814552
 30
0.0
 10
52.76835389768218
 20
-340.8456690814552
 30
0.0
 10
52.76835389768218
 20
-340.8456690814552
 30
0.0
 10
52.27030224372187
 20
-338.8619290819512
 30
0.0
 10
52.27030224372187
 20
-338.8619290819512
 30
0.0
 10
52.27030224372187
 20
-338.8619290819512
 30
0.0
 10
51.67964642545742
 20
-337.0356338046299
 30
0.0
 10
51.67964642545742
 20
-337.0356338046299
 30
0.0
 10
51.67964642545742
 20
-337.0356338046299
 30
0.0
 10
51.0061231093071
 20
-335.3548593606056
 30
0.0
 10
51.0061231093071
 20
-335.3548593606056
 30
0.0
 10
51.0061231093071
 20
-335.3548593606056
 30
0.0
 10
50.26070368387989
 20
-333.8053182498816
 30
0.0
 10
50.26070368387989
 20
-333.8053182498816
 30
0.0
 10
50.26070368387989
 20
-333.8053182498816
 30
0.0
 10
48.60303622617051
 20
-331.0290982505763
 30
0.0
 10
48.60303622617051
 20
-331.0290982505763
 30
0.0
 10
48.60303622617051
 20
-331.0290982505763
 30
0.0
 10
46.81251266073946
 20
-328.5356296400885
 30
0.0
 10
46.81251266073946
 20
-328.5356296400885
 30
0.0
 10
46.81251266073946
 20
-328.5356296400885
 30
0.0
 10
45.00237465136438
 20
-326.1113760295834
 30
0.0
 10
45.00237465136438
 20
-326.1113760295834
 30
0.0
 10
45.00237465136438
 20
-326.1113760295834
 30
0.0
 10
43.28152469526692
 20
-323.520893530231
 30
0.0
 10
43.28152469526692
 20
-323.520893530231
 30
0.0
 10
43.28152469526692
 20
-323.520893530231
 30
0.0
 10
41.74045029013855
 20
-320.5340299198663
 30
0.0
 10
41.74045029013855
 20
-320.5340299198663
 30
0.0
 10
41.74045029013855
 20
-320.5340299198663
 30
0.0
 10
41.05711975201621
 20
-318.8281024202929
 30
0.0
 10
41.05711975201621
 20
-318.8281024202929
 30
0.0
 10
41.05711975201621
 20
-318.8281024202929
 30
0.0
 10
40.43771254559638
 20
-316.9519596429843
 30
0.0
 10
40.43771254559638
 20
-316.9519596429843
 30
0.0
 10
40.43771254559638
 20
-316.9519596429843
 30
0.0
 10
39.8839220041692
 20
-314.8876451990559
 30
0.0
 10
39.8839220041692
 20
-314.8876451990559
 30
0.0
 10
39.8839220041692
 20
-314.8876451990559
 30
0.0
 10
39.3955364610734
 20
-312.6195663107338
 30
0.0
 10
39.3955364610734
 20
-312.6195663107338
 30
0.0
 10
39.3955364610734
 20
-312.6195663107338
 30
0.0
 10
38.97103897190323
 20
-310.1341410335775
 30
0.0
 10
38.97103897190323
 20
-310.1341410335775
 30
0.0
 10
38.97103897190323
 20
-310.1341410335775
 30
0.0
 10
38.60767787006224
 20
-307.4196218675895
 30
0.0
 10
38.60767787006224
 20
-307.4196218675895
 30
0.0
 10
38.60767787006224
 20
-307.4196218675895
 30
0.0
 10
38.30189010008576
 20
-304.4658840905504
 30
0.0
 10
38.30189010008576
 20
-304.4658840905504
 30
0.0
 10
38.30189010008576
 20
-304.4658840905504
 30
0.0
 10
38.04958343985597
 20
-301.2642493691283
 30
0.0
 10
38.04958343985597
 20
-301.2642493691283
 30
0.0
 10
38.04958343985597
 20
-301.2642493691283
 30
0.0
 10
37.84638344504003
 20
-297.807238814437
 30
0.0
 10
37.84638344504003
 20
-297.807238814437
 30
0.0
 10
37.84638344504003
 20
-297.807238814437
 30
0.0
 10
37.84638344504003
 20
-255.5900752138807
 30
0.0
 10
37.84638344504003
 20
-255.5900752138807
 30
0.0
 10
37.84638344504003
 20
-250.0245824374942
 30
0.0
 10
42.35812888549137
 20
-245.5128368830662
 30
0.0
 10
47.9236215212816
 20
-245.5128368830662
 30
0.0
 10
47.9236215212816
 20
-245.5128368830662
 30
0.0
 10
212.4533257802201
 20
-245.5128368830662
 30
0.0
 10
212.4533257802201
 20
-245.5128368830662
 30
0.0
 10
218.0188185566066
 20
-245.5128368830662
 30
0.0
 10
222.530564111034
 20
-250.0245824374942
 30
0.0
 10
222.530564111034
 20
-255.5900752138807
 30
0.0
 10
222.530564111034
 20
-255.5900752138807
 30
0.0
 10
222.530564111034
 20
-297.807238814437
 30
0.0
 10
222.530564111034
 20
-297.807238814437
 30
0.0
 10
222.530564111034
 20
-297.807238814437
 30
0.0
 10
222.3273288333069
 20
-301.2642493691283
 30
0.0
 10
222.3273288333069
 20
-301.2642493691283
 30
0.0
 10
222.3273288333069
 20
-301.2642493691283
 30
0.0
 10
222.0750574444813
 20
-304.4658840905504
 30
0.0
 10
222.0750574444813
 20
-304.4658840905504
 30
0.0
 10
222.0750574444813
 20
-304.4658840905504
 30
0.0
 10
221.76926966678
 20
-307.4196218675895
 30
0.0
 10
221.76926966678
 20
-307.4196218675895
 30
0.0
 10
221.76926966678
 20
-307.4196218675895
 30
0.0
 10
221.4059085557595
 20
-310.1341410335775
 30
0.0
 10
221.4059085557595
 20
-310.1341410335775
 30
0.0
 10
221.4059085557595
 20
-310.1341410335775
 30
0.0
 10
220.9814110558659
 20
-312.6195663107338
 30
0.0
 10
220.9814110558659
 20
-312.6195663107338
 30
0.0
 10
220.9814110558659
 20
-312.6195663107338
 30
0.0
 10
220.4930255004322
 20
-314.8876451990559
 30
0.0
 10
220.4930255004322
 20
-314.8876451990559
 30
0.0
 10
220.4930255004322
 20
-314.8876451990559
 30
0.0
 10
219.9391996672378
 20
-316.9519596429843
 30
0.0
 10
219.9391996672378
 20
-316.9519596429843
 30
0.0
 10
219.9391996672378
 20
-316.9519596429843
 30
0.0
 10
219.3198277229477
 20
-318.8281024202929
 30
0.0
 10
219.3198277229477
 20
-318.8281024202929
 30
0.0
 10
219.3198277229477
 20
-318.8281024202929
 30
0.0
 10
218.636497167563
 20
-320.5340299198663
 30
0.0
 10
218.636497167563
 20
-320.5340299198663
 30
0.0
 10
218.636497167563
 20
-320.5340299198663
 30
0.0
 10
217.095422723504
 20
-323.520893530231
 30
0.0
 10
217.095422723504
 20
-323.520893530231
 30
0.0
 10
217.095422723504
 20
-323.520893530231
 30
0.0
 10
215.374572723934
 20
-326.1113760295834
 30
0.0
 10
215.374572723934
 20
-326.1113760295834
 30
0.0
 10
215.374572723934
 20
-326.1113760295834
 30
0.0
 10
213.5644346688308
 20
-328.5356296400885
 30
0.0
 10
213.5644346688308
 20
-328.5356296400885
 30
0.0
 10
213.5644346688308
 20
-328.5356296400885
 30
0.0
 10
211.7739110581677
 20
-331.0290982505763
 30
0.0
 10
211.7739110581677
 20
-331.0290982505763
 30
0.0
 10
211.7739110581677
 20
-331.0290982505763
 30
0.0
 10
210.1162435585823
 20
-333.8053182498816
 30
0.0
 10
210.1162435585823
 20
-333.8053182498816
 30
0.0
 10
210.1162435585823
 20
-333.8053182498816
 30
0.0
 10
209.3708241143238
 20
-335.3548593606056
 30
0.0
 10
209.3708241143238
 20
-335.3548593606056
 30
0.0
 10
209.3708241143238
 20
-335.3548593606056
 30
0.0
 10
208.6973007811588
 20
-337.0356338046299
 30
0.0
 10
208.6973007811588
 20
-337.0356338046299
 30
0.0
 10
208.6973007811588
 20
-337.0356338046299
 30
0.0
 10
208.1066360457835
 20
-338.8619290819512
 30
0.0
 10
208.1066360457835
 20
-338.8619290819512
 30
0.0
 10
208.1066360457835
 20
-338.8619290819512
 30
0.0
 10
207.6086196696001
 20
-340.8456690814552
 30
0.0
 10
207.6086196696001
 20
-340.8456690814552
 30
0.0
 10
207.6086196696001
 20
-340.8456690814552
 30
0.0
 10
207.2117094019484
 20
-342.9963788031397
 30
0.0
 10
207.2117094019484
 20
-342.9963788031397
 30
0.0
 10
207.2117094019484
 20
-342.9963788031397
 30
0.0
 10
206.9228902426501
 20
-345.321360747003
 30
0.0
 10
206.9228902426501
 20
-345.321360747003
 30
0.0
 10
206.9228902426501
 20
-345.321360747003
 30
0.0
 10
206.7473480249063
 20
-347.8258360241546
 30
0.0
 10
206.7473480249063
 20
-347.8258360241546
 30
0.0
 10
206.7473480249063
 20
-347.8258360241546
 30
0.0
 10
206.6884694152973
 20
-350.512838523483
 30
0.0
 10
206.6884694152973
 20
-350.512838523483
 30
0.0
  0
SPLINE
  5
97
330
1F
100
AcDbEntity
  8
_U+30EC_U+30A4_U+30E4_U+30FC 1
 62
   250
420
  2234388
370
    18
100
AcDbSpline
210
0.0
220
0.0
230
1.0
 70
    11
 71
     3
 72
    23
 73
    19
 74
     0
 42
0.0000000001
 43
0.0000000001
 12
1.0
 22
0.0
 32
0.0
 13
1.0
 23
0.0
 33
0.0
 40
0.0
 40
0.0
 40
0.0
 40
0.0
 40
1.0
 40
1.0
 40
1.0
 40
2.0
 40
2.0
 40
2.0
 40
3.0
 40
3.0
 40
3.0
 40
4.0
 40
4.0
 40
4.0
 40
5.0
 40
5.0
 40
5.0
 40
6.0
 40
6.0
 40
6.0
 40
6.0
 10
165.1867832920364
 20
-158.068433293816
 30
0.0
 10
165.1867832920364
 20
-158.068433293816
 30
0.0
 10
219.4535657784698
 20
-158.068433293816
 30
0.0
 10
219.4535657784698
 20
-158.068433293816
 30
0.0
 10
225.1052774437235
 20
-158.068433293816
 30
0.0
 10
229.6869082759117
 20
-153.4868024616285
 30
0.0
 10
229.6869082759117
 20
-147.8350907963748
 30
0.0
 10
229.6869082759117
 20
-147.8350907963748
 30
0.0
 10
229.6869082759117
 20
-20.64603721706066
 30
0.0
 10
229.6869082759117
 20
-20.64603721706066
 30
0.0
 10
229.6869082759117
 20
-14.99432555180698
 30
0.0
 10
225.1052774437235
 20
-10.41272999739697
 30
0.0
 10
219.4535657784698
 20
-10.41272999739697
 30
0.0
 10
219.4535657784698
 20
-10.41272999739697
 30
0.0
 10
165.1867832920364
 20
-10.41272999739697
 30
0.0
 10
165.1867832920364
 20
-10.41272999739697
 30
0.0
 10
165.1867832920364
 20
-10.41272999739697
 30
0.0
 10
165.1867832920364
 20
-158.068433293816
 30
0.0
 10
165.1867832920364
 20
-158.068433293816
 30
0.0
  0
SPLINE
  5
98
330
1F
100
AcDbEntity
  8
_U+30EC_U+30A4_U+30E4_U+30FC 1
 62
   250
420
  2234388
370
    18
100
AcDbSpline
210
0.0
220
0.0
230
1.0
 70
    11
 71
     3
 72
    23
 73
    19
 74
     0
 42
0.0000000001
 43
0.0000000001
 12
1.0
 22
0.0
 32
0.0
 13
1.0
 23
0.0
 33
0.0
 40
0.0
 40
0.0
 40
0.0
 40
0.0
 40
1.0
 40
1.0
 40
1.0
 40
2.0
 40
2.0
 40
2.0
 40
3.0
 40
3.0
 40
3.0
 40
4.0
 40
4.0
 40
4.0
 40
5.0
 40
5.0
 40
5.0
 40
6.0
 40
6.0
 40
6.0
 40
6.0
 10
-105.5076145643615
 20
-158.068433293816
 30
0.0
 10
-105.5076145643615
 20
-158.068433293816
 30
0.0
 10
-51.2407981710455
 20
-158.068433293816
 30
0.0
 10
-51.2407981710455
 20
-158.068433293816
 30
0.0
 10
-45.58908664856601
 20
-158.068433293816
 30
0.0
 10
-41.00749120989669
 20
-153.4868024616285
 30
0.0
 10
-41.00749120989669
 20
-147.8350907963748
 30
0.0
 10
-41.00749120989669
 20
-147.8350907963748
 30
0.0
 10
-41.00749120989669
 20
-20.64603721706066
 30
0.0
 10
-41.00749120989669
 20
-20.64603721706066
 30
0.0
 10
-41.00749120989669
 20
-14.99432555180698
 30
0.0
 10
-45.58908664856601
 20
-10.41272999739697
 30
0.0
 10
-51.2407981710455
 20
-10.41272999739697
 30
0.0
 10
-51.2407981710455
 20
-10.41272999739697
 30
0.0
 10
-105.5076145643615
 20
-10.41272999739697
 30
0.0
 10
-105.5076145643615
 20
-10.41272999739697
 30
0.0
 10
-105.5076145643615
 20
-10.41272999739697
 30
0.0
 10
-105.5076145643615
 20
-158.068433293816
 30
0.0
 10
-105.5076145643615
 20
-158.068433293816
 30
0.0
  0
POLYLINE
  5
99
330
1F
100
AcDbEntity
  8
_U+30EC_U+30A4_U+30E4_U+30FC 1
 62
   250
420
  2234388
370
    18
100
AcDb2dPolyline
 66
     1
 10
0.0
 20
0.0
 30
0.0
  0
VERTEX
  5
9A
330
99
100
AcDbEntity
  8
_U+30EC_U+30A4_U+30E4_U+30FC 1
 62
   250
420
  2234388
370
    18
100
AcDbVertex
100
AcDb2dVertex
 10
87.6884846734621
 20
-285.0129765954133
 30
0.0
  0
VERTEX
  5
9B
330
99
100
AcDbEntity
  8
_U+30EC_U+30A4_U+30E4_U+30FC 1
 62
   250
420
  2234388
370
    18
100
AcDbVertex
100
AcDb2dVertex
 10
172.6884536160433
 20
-285.0129765954133
 30
0.0
  0
VERTEX
  5
9C
330
99
100
AcDbEntity
  8
_U+30EC_U+30A4_U+30E4_U+30FC 1
 62
   250
420
  2234388
370
    18
100
AcDbVertex
100
AcDb2dVertex
 10
172.6884536160433
 20
-296.0128346482192
 30
0.0
  0
VERTEX
  5
9D
330
99
100
AcDbEntity
  8
_U+30EC_U+30A4_U+30E4_U+30FC 1
 62
   250
420
  2234388
370
    18
100
AcDbVertex
100
AcDb2dVertex
 10
87.6884846734621
 20
-296.0128346482192
 30
0.0
  0
VERTEX
  5
9E
330
99
100
AcDbEntity
  8
_U+30EC_U+30A4_U+30E4_U+30FC 1
 62
   250
420
  2234388
370
    18
100
AcDbVertex
100
AcDb2dVertex
 10
87.6884846734621
 20
-285.0129765954133
 30
0.0
  0
SEQEND
  5
9F
330
99
100
AcDbEntity
  8
_U+30EC_U+30A4_U+30E4_U+30FC 1
 62
   250
420
  2234388
370
    18
  0
INSERT
  5
A1
330
1F
100
AcDbEntity
  8
_U+30EC_U+30A4_U+30E4_U+30FC 1
100
AcDbBlockReference
  2
block 17
 10
0.0
 20
0.0
 30
0.0
  0
SPLINE
  5
A5
330
1F
100
AcDbEntity
  8
_U+30EC_U+30A4_U+30E4_U+30FC 1
 62
   250
420
  2234388
370
    18
100
AcDbSpline
210
0.0
220
0.0
230
1.0
 70
    11
 71
     3
 72
   167
 73
   163
 74
     0
 42
0.0000000001
 43
0.0000000001
 12
1.0
 22
0.0
 32
0.0
 13
1.0
 23
0.0
 33
0.0
 40
0.0
 40
0.0
 40
0.0
 40
0.0
 40
1.0
 40
1.0
 40
1.0
 40
2.0
 40
2.0
 40
2.0
 40
3.0
 40
3.0
 40
3.0
 40
4.0
 40
4.0
 40
4.0
 40
5.0
 40
5.0
 40
5.0
 40
6.0
 40
6.0
 40
6.0
 40
7.0
 40
7.0
 40
7.0
 40
8.0
 40
8.0
 40
8.0
 40
9.0
 40
9.0
 40
9.0
 40
10.0
 40
10.0
 40
10.0
 40
11.0
 40
11.0
 40
11.0
 40
12.0
 40
12.0
 40
12.0
 40
13.0
 40
13.0
 40
13.0
 40
14.0
 40
14.0
 40
14.0
 40
15.0
 40
15.0
 40
15.0
 40
16.0
 40
16.0
 40
16.0
 40
17.0
 40
17.0
 40
17.0
 40
18.0
 40
18.0
 40
18.0
 40
19.0
 40
19.0
 40
19.0
 40
20.0
 40
20.0
 40
20.0
 40
21.0
 40
21.0
 40
21.0
 40
22.0
 40
22.0
 40
22.0
 40
23.0
 40
23.0
 40
23.0
 40
24.0
 40
24.0
 40
24.0
 40
25.0
 40
25.0
 40
25.0
 40
26.0
 40
26.0
 40
26.0
 40
27.0
 40
27.0
 40
27.0
 40
28.0
 40
28.0
 40
28.0
 40
29.0
 40
29.0
 40
29.0
 40
30.0
 40
30.0
 40
30.0
 40
31.0
 40
31.0
 40
31.0
 40
32.0
 40
32.0
 40
32.0
 40
33.0
 40
33.0
 40
33.0
 40
34.0
 40
34.0
 40
34.0
 40
35.0
 40
35.0
 40
35.0
 40
36.0
 40
36.0
 40
36.0
 40
37.0
 40
37.0
 40
37.0
 40
38.0
 40
38.0
 40
38.0
 40
39.0
 40
39.0
 40
39.0
 40
40.0
 40
40.0
 40
40.0
 40
41.0
 40
41.0
 40
41.0
 40
42.0
 40
42.0
 40
42.0
 40
43.0
 40
43.0
 40
43.0
 40
44.0
 40
44.0
 40
44.0
 40
45.0
 40
45.0
 40
45.0
 40
46.0
 40
46.0
 40
46.0
 40
47.0
 40
47.0
 40
47.0
 40
48.0
 40
48.0
 40
48.0
 40
49.0
 40
49.0
 40
49.0
 40
50.0
 40
50.0
 40
50.0
 40
51.0
 40
51.0
 40
51.0
 40
52.0
 40
52.0
 40
52.0
 40
53.0
 40
53.0
 40
53.0
 40
54.0
 40
54.0
 40
54.0
 40
54.0
 10
0.2425663488377738
 20
-350.512838523483
 30
0.0
 10
0.2425663488377738
 20
-350.512838523483
 30
0.0
 10
0.2425663488377738
 20
-435.512844891122
 30
0.0
 10
0.2425663488377738
 20
-435.512844891122
 30
0.0
 10
0.2425663488377738
 20
-449.3199673876698
 30
0.0
 10
-10.95033142116317
 20
-460.5128301626495
 30
0.0
 10
-24.75745356891414
 20
-460.5128301626495
 30
0.0
 10
-24.75745356891414
 20
-460.5128301626495
 30
0.0
 10
-129.2748169121257
 20
-460.5128301626495
 30
0.0
 10
-129.2748169121257
 20
-460.5128301626495
 30
0.0
 10
-142.468296575494
 20
-459.7105782184055
 30
0.0
 10
-152.7574344062552
 20
-448.7767601655839
 30
0.0
 10
-152.7574344062552
 20
-435.5589176688885
 30
0.0
 10
-152.7574344062552
 20
-435.5589176688885
 30
0.0
 10
-152.7574344062552
 20
-350.512838523483
 30
0.0
 10
-152.7574344062552
 20
-350.512838523483
 30
0.0
 10
-152.7574344062552
 20
-350.512838523483
 30
0.0
 10
-152.8163130173513
 20
-347.8258360241546
 30
0.0
 10
-152.8163130173513
 20
-347.8258360241546
 30
0.0
 10
-152.8163130173513
 20
-347.8258360241546
 30
0.0
 10
-152.9918552395299
 20
-345.321360747003
 30
0.0
 10
-152.9918552395299
 20
-345.321360747003
 30
0.0
 10
-152.9918552395299
 20
-345.321360747003
 30
0.0
 10
-153.2806744061243
 20
-342.9963788031397
 30
0.0
 10
-153.2806744061243
 20
-342.9963788031397
 30
0.0
 10
-153.2806744061243
 20
-342.9963788031397
 30
0.0
 10
-153.6775846838029
 20
-340.8456690814552
 30
0.0
 10
-153.6775846838029
 20
-340.8456690814552
 30
0.0
 10
-153.6775846838029
 20
-340.8456690814552
 30
0.0
 10
-154.1756010725672
 20
-338.8619290819512
 30
0.0
 10
-154.1756010725672
 20
-338.8619290819512
 30
0.0
 10
-154.1756010725672
 20
-338.8619290819512
 30
0.0
 10
-154.766256905753
 20
-337.0356338046299
 30
0.0
 10
-154.766256905753
 20
-337.0356338046299
 30
0.0
 10
-154.766256905753
 20
-337.0356338046299
 30
0.0
 10
-155.4397802389177
 20
-335.3548593606056
 30
0.0
 10
-155.4397802389177
 20
-335.3548593606056
 30
0.0
 10
-155.4397802389177
 20
-335.3548593606056
 30
0.0
 10
-156.1851996831759
 20
-333.8053182498816
 30
0.0
 10
-156.1851996831759
 20
-333.8053182498816
 30
0.0
 10
-156.1851996831759
 20
-333.8053182498816
 30
0.0
 10
-157.8428671827616
 20
-331.0290982505763
 30
0.0
 10
-157.8428671827616
 20
-331.0290982505763
 30
0.0
 10
-157.8428671827616
 20
-331.0290982505763
 30
0.0
 10
-159.6334260712029
 20
-328.5356296400885
 30
0.0
 10
-159.6334260712029
 20
-328.5356296400885
 30
0.0
 10
-159.6334260712029
 20
-328.5356296400885
 30
0.0
 10
-161.4435288485279
 20
-326.1113760295834
 30
0.0
 10
-161.4435288485279
 20
-326.1113760295834
 30
0.0
 10
-161.4435288485279
 20
-326.1113760295834
 30
0.0
 10
-163.1643788480979
 20
-323.520893530231
 30
0.0
 10
-163.1643788480979
 20
-323.520893530231
 30
0.0
 10
-163.1643788480979
 20
-323.520893530231
 30
0.0
 10
-164.7054532921569
 20
-320.5340299198663
 30
0.0
 10
-164.7054532921569
 20
-320.5340299198663
 30
0.0
 10
-164.7054532921569
 20
-320.5340299198663
 30
0.0
 10
-165.3887838475416
 20
-318.8281024202929
 30
0.0
 10
-165.3887838475416
 20
-318.8281024202929
 30
0.0
 10
-165.3887838475416
 20
-318.8281024202929
 30
0.0
 10
-166.0081910696092
 20
-316.9519596429843
 30
0.0
 10
-166.0081910696092
 20
-316.9519596429843
 30
0.0
 10
-166.0081910696092
 20
-316.9519596429843
 30
0.0
 10
-166.5619816250261
 20
-314.8876451990559
 30
0.0
 10
-166.5619816250261
 20
-314.8876451990559
 30
0.0
 10
-166.5619816250261
 20
-314.8876451990559
 30
0.0
 10
-167.0503671804595
 20
-312.6195663107338
 30
0.0
 10
-167.0503671804595
 20
-312.6195663107338
 30
0.0
 10
-167.0503671804595
 20
-312.6195663107338
 30
0.0
 10
-167.4748646803534
 20
-310.1341410335775
 30
0.0
 10
-167.4748646803534
 20
-310.1341410335775
 30
0.0
 10
-167.4748646803534
 20
-310.1341410335775
 30
0.0
 10
-167.8382610691515
 20
-307.4196218675895
 30
0.0
 10
-167.8382610691515
 20
-307.4196218675895
 30
0.0
 10
-167.8382610691515
 20
-307.4196218675895
 30
0.0
 10
-168.1440135690752
 20
-304.4658840905504
 30
0.0
 10
-168.1440135690752
 20
-304.4658840905504
 30
0.0
 10
-168.1440135690752
 20
-304.4658840905504
 30
0.0
 10
-168.3963202356786
 20
-301.2642493691283
 30
0.0
 10
-168.3963202356786
 20
-301.2642493691283
 30
0.0
 10
-168.3963202356786
 20
-301.2642493691283
 30
0.0
 10
-168.5995202356279
 20
-297.807238814437
 30
0.0
 10
-168.5995202356279
 20
-297.807238814437
 30
0.0
 10
-168.5995202356279
 20
-297.807238814437
 30
0.0
 10
-168.5995202356279
 20
-255.5900752138807
 30
0.0
 10
-168.5995202356279
 20
-255.5900752138807
 30
0.0
 10
-168.5995202356279
 20
-250.0245824374942
 30
0.0
 10
-164.087809958978
 20
-245.5128368830662
 30
0.0
 10
-158.522281904814
 20
-245.5128368830662
 30
0.0
 10
-158.522281904814
 20
-245.5128368830662
 30
0.0
 10
6.007413701764265
 20
-245.5128368830662
 30
0.0
 10
6.007413701764265
 20
-245.5128368830662
 30
0.0
 10
11.5729063375545
 20
-245.5128368830662
 30
0.0
 10
16.08465177800583
 20
-250.0245824374942
 30
0.0
 10
16.08465177800583
 20
-255.5900752138807
 30
0.0
 10
16.08465177800583
 20
-255.5900752138807
 30
0.0
 10
16.08465177800583
 20
-297.807238814437
 30
0.0
 10
16.08465177800583
 20
-297.807238814437
 30
0.0
 10
16.08465177800583
 20
-297.807238814437
 30
0.0
 10
15.88141650541302
 20
-301.2642493691283
 30
0.0
 10
15.88141650541302
 20
-301.2642493691283
 30
0.0
 10
15.88141650541302
 20
-301.2642493691283
 30
0.0
 10
15.62914512296011
 20
-304.4658840905504
 30
0.0
 10
15.62914512296011
 20
-304.4658840905504
 30
0.0
 10
15.62914512296011
 20
-304.4658840905504
 30
0.0
 10
15.32335735298363
 20
-307.4196218675895
 30
0.0
 10
15.32335735298363
 20
-307.4196218675895
 30
0.0
 10
15.32335735298363
 20
-307.4196218675895
 30
0.0
 10
14.95999625114263
 20
-310.1341410335775
 30
0.0
 10
14.95999625114263
 20
-310.1341410335775
 30
0.0
 10
14.95999625114263
 20
-310.1341410335775
 30
0.0
 10
14.53546348419559
 20
-312.6195663107338
 30
0.0
 10
14.53546348419559
 20
-312.6195663107338
 30
0.0
 10
14.53546348419559
 20
-312.6195663107338
 30
0.0
 10
14.04711321887666
 20
-314.8876451990559
 30
0.0
 10
14.04711321887666
 20
-314.8876451990559
 30
0.0
 10
14.04711321887666
 20
-314.8876451990559
 30
0.0
 10
13.4932873996726
 20
-316.9519596429843
 30
0.0
 10
13.4932873996726
 20
-316.9519596429843
 30
0.0
 10
13.4932873996726
 20
-316.9519596429843
 30
0.0
 10
12.8739194412261
 20
-318.8281024202929
 30
0.0
 10
12.8739194412261
 20
-318.8281024202929
 30
0.0
 10
12.8739194412261
 20
-318.8281024202929
 30
0.0
 10
12.19058888584142
 20
-320.5340299198663
 30
0.0
 10
12.19058888584142
 20
-320.5340299198663
 30
0.0
 10
12.19058888584142
 20
-320.5340299198663
 30
0.0
 10
10.64951052777895
 20
-323.520893530231
 30
0.0
 10
10.64951052777895
 20
-323.520893530231
 30
0.0
 10
10.64951052777895
 20
-323.520893530231
 30
0.0
 10
8.928625293904615
 20
-326.1113760295834
 30
0.0
 10
8.928625293904615
 20
-326.1113760295834
 30
0.0
 10
8.928625293904615
 20
-326.1113760295834
 30
0.0
 10
7.118522562306405
 20
-328.5356296400885
 30
0.0
 10
7.118522562306405
 20
-328.5356296400885
 30
0.0
 10
7.118522562306405
 20
-328.5356296400885
 30
0.0
 10
5.328002776445479
 20
-331.0290982505763
 30
0.0
 10
5.328002776445479
 20
-331.0290982505763
 30
0.0
 10
5.328002776445479
 20
-331.0290982505763
 30
0.0
 10
3.670331539165976
 20
-333.8053182498816
 30
0.0
 10
3.670331539165976
 20
-333.8053182498816
 30
0.0
 10
3.670331539165976
 20
-333.8053182498816
 30
0.0
 10
2.924912113738765
 20
-335.3548593606056
 30
0.0
 10
2.924912113738765
 20
-335.3548593606056
 30
0.0
 10
2.924912113738765
 20
-335.3548593606056
 30
0.0
 10
2.251388797588444
 20
-337.0356338046299
 30
0.0
 10
2.251388797588444
 20
-337.0356338046299
 30
0.0
 10
2.251388797588444
 20
-337.0356338046299
 30
0.0
 10
1.660697701547118
 20
-338.8619290819512
 30
0.0
 10
1.660697701547118
 20
-338.8619290819512
 30
0.0
 10
1.660697701547118
 20
-338.8619290819512
 30
0.0
 10
1.162681325363685
 20
-340.8456690814552
 30
0.0
 10
1.162681325363685
 20
-340.8456690814552
 30
0.0
 10
1.162681325363685
 20
-340.8456690814552
 30
0.0
 10
0.7658063354888096
 20
-342.9963788031397
 30
0.0
 10
0.7658063354888096
 20
-342.9963788031397
 30
0.0
 10
0.7658063354888096
 20
-342.9963788031397
 30
0.0
 10
0.4769555554365888
 20
-345.321360747003
 30
0.0
 10
0.4769555554365888
 20
-345.321360747003
 30
0.0
 10
0.4769555554365888
 20
-345.321360747003
 30
0.0
 10
0.3014449584467664
 20
-347.8258360241546
 30
0.0
 10
0.3014449584467664
 20
-347.8258360241546
 30
0.0
 10
0.3014449584467664
 20
-347.8258360241546
 30
0.0
 10
0.2425663488377738
 20
-350.512838523483
 30
0.0
 10
0.2425663488377738
 20
-350.512838523483
 30
0.0
  0
SPLINE
  5
A6
330
1F
100
AcDbEntity
  8
_U+30EC_U+30A4_U+30E4_U+30FC 1
 62
   250
420
  2234388
370
    18
100
AcDbSpline
210
0.0
220
0.0
230
1.0
 70
     8
 71
     3
 72
   134
 73
   130
 74
     0
 42
0.0000000001
 43
0.0000000001
 12
1.0
 22
0.0
 32
0.0
 13
1.0
 23
0.0
 33
0.0
 40
0.0
 40
0.0
 40
0.0
 40
0.0
 40
1.0
 40
1.0
 40
1.0
 40
2.0
 40
2.0
 40
2.0
 40
3.0
 40
3.0
 40
3.0
 40
4.0
 40
4.0
 40
4.0
 40
5.0
 40
5.0
 40
5.0
 40
6.0
 40
6.0
 40
6.0
 40
7.0
 40
7.0
 40
7.0
 40
8.0
 40
8.0
 40
8.0
 40
9.0
 40
9.0
 40
9.0
 40
10.0
 40
10.0
 40
10.0
 40
11.0
 40
11.0
 40
11.0
 40
12.0
 40
12.0
 40
12.0
 40
13.0
 40
13.0
 40
13.0
 40
14.0
 40
14.0
 40
14.0
 40
15.0
 40
15.0
 40
15.0
 40
16.0
 40
16.0
 40
16.0
 40
17.0
 40
17.0
 40
17.0
 40
18.0
 40
18.0
 40
18.0
 40
19.0
 40
19.0
 40
19.0
 40
20.0
 40
20.0
 40
20.0
 40
21.0
 40
21.0
 40
21.0
 40
22.0
 40
22.0
 40
22.0
 40
23.0
 40
23.0
 40
23.0
 40
24.0
 40
24.0
 40
24.0
 40
25.0
 40
25.0
 40
25.0
 40
26.0
 40
26.0
 40
26.0
 40
27.0
 40
27.0
 40
27.0
 40
28.0
 40
28.0
 40
28.0
 40
29.0
 40
29.0
 40
29.0
 40
30.0
 40
30.0
 40
30.0
 40
31.0
 40
31.0
 40
31.0
 40
32.0
 40
32.0
 40
32.0
 40
33.0
 40
33.0
 40
33.0
 40
34.0
 40
34.0
 40
34.0
 40
35.0
 40
35.0
 40
35.0
 40
36.0
 40
36.0
 40
36.0
 40
37.0
 40
37.0
 40
37.0
 40
38.0
 40
38.0
 40
38.0
 40
39.0
 40
39.0
 40
39.0
 40
40.0
 40
40.0
 40
40.0
 40
41.0
 40
41.0
 40
41.0
 40
42.0
 40
42.0
 40
42.0
 40
43.0
 40
43.0
 40
43.0
 40
43.0
 10
236.9368443852101
 20
-195.1905685623133
 30
0.0
 10
236.9368443852101
 20
-195.1905685623133
 30
0.0
 10
236.9368443852101
 20
-200.6905857831604
 30
0.0
 10
236.9368443852101
 20
-200.6905857831604
 30
0.0
 10
236.9368443852101
 20
-200.6905857831604
 30
0.0
 10
151.9368305343502
 20
-200.6905857831604
 30
0.0
 10
151.9368305343502
 20
-200.6905857831604
 30
0.0
 10
151.9368305343502
 20
-200.6905857831604
 30
0.0
 10
151.9368305343502
 20
-195.1905685623133
 30
0.0
 10
151.9368305343502
 20
-195.1905685623133
 30
0.0
 10
151.9368305343502
 20
-195.1905685623133
 30
0.0
 10
151.936019145482
 20
-195.1905685623133
 30
0.0
 10
151.936019145482
 20
-195.1905685623133
 30
0.0
 10
151.936019145482
 20
-195.1905685623133
 30
0.0
 10
102.0947293059282
 20
-195.1905685623133
 30
0.0
 10
102.0947293059282
 20
-195.1905685623133
 30
0.0
 10
102.0947293059282
 20
-195.1905685623133
 30
0.0
 10
102.0947293059282
 20
-187.8992163419144
 30
0.0
 10
102.0947293059282
 20
-187.8992163419144
 30
0.0
 10
102.0947293059282
 20
-175.3104824561725
 30
0.0
 10
105.0655767301355
 20
-162.8994427370533
 30
0.0
 10
110.7657599180451
 20
-151.6751827398592
 30
0.0
 10
116.4659431059546
 20
-140.4509227426651
 30
0.0
 10
119.4368258079389
 20
-128.0398830235458
 30
0.0
 10
119.4368258079389
 20
-115.4511491378039
 30
0.0
 10
119.4368258079389
 20
-115.4511491378039
 30
0.0
 10
119.4368258079389
 20
7.167103887096866
 30
0.0
 10
119.4368258079389
 20
7.167103887096866
 30
0.0
 10
119.4368258079389
 20
24.17190999395696
 30
0.0
 10
114.0183356683983
 20
40.73436804537219
 30
0.0
 10
103.9676617581457
 20
54.45103831972028
 30
0.0
 10
103.3240539967877
 20
55.21963526397271
 30
0.0
 10
102.6902534574018
 20
55.99641665266741
 30
0.0
 10
102.0664365288722
 20
56.78113554136046
 30
0.0
 10
99.19517826879077
 20
60.3930860960126
 30
0.0
 10
95.16338698276145
 20
62.90112442871934
 30
0.0
 10
90.65436386622528
 20
63.88022387291852
 30
0.0
 10
90.41986654822318
 20
63.9311297062391
 30
0.0
 10
90.18799164411962
 20
63.99328915066861
 30
0.0
 10
89.95945628219144
 20
64.06641998398368
 30
0.0
 10
86.0144836050583
 20
65.32911748366779
 30
0.0
 10
83.84010831237305
 20
69.55080914927923
 30
0.0
 10
85.10280001720618
 20
73.4957819260708
 30
0.0
 10
86.5093955368765
 20
77.89026414719437
 30
0.0
 10
86.3532560964155
 20
82.63593664600761
 30
0.0
 10
84.6608753062584
 20
86.9284660893793
 30
0.0
 10
73.69544864156529
 20
114.7406546935374
 30
0.0
 10
73.69544864156529
 20
145.6782074635802
 30
0.0
 10
84.6608753062584
 20
173.4903960677383
 30
0.0
 10
86.3532560964155
 20
177.7829255111099
 30
0.0
 10
86.5093955368765
 20
182.5285980099232
 30
0.0
 10
85.10280001720618
 20
186.9230802310468
 30
0.0
 10
85.02967497874275
 20
187.1516096754343
 30
0.0
 10
84.96754502065683
 20
187.3834905087099
 30
0.0
 10
84.91660391084532
 20
187.6179466197624
 30
0.0
 10
84.03766386787967
 20
191.6657541187503
 30
0.0
 10
86.60655053439787
 20
195.6596924510848
 30
0.0
 10
90.65436386622528
 20
196.5386382841984
 30
0.0
 10
95.16338698276145
 20
197.5177377283982
 30
0.0
 10
99.19517826879077
 20
200.0257760611043
 30
0.0
 10
102.0664365288722
 20
203.6376913379796
 30
0.0
 10
120.6697841098168
 20
227.0401224432397
 30
0.0
 10
147.4625221853569
 20
242.5088988282614
 30
0.0
 10
177.031253783027
 20
246.9186563271594
 30
0.0
 10
181.5948928332656
 20
247.5992704936558
 30
0.0
 10
185.7828235597559
 20
249.836904659763
 30
0.0
 10
188.8852570917173
 20
253.2522874366867
 30
0.0
 10
189.0466176431563
 20
253.4298757699761
 30
0.0
 10
189.2163743054921
 20
253.5996324365998
 30
0.0
 10
189.3939626342947
 20
253.7609577143379
 30
0.0
 10
192.4599895005183
 20
256.546067713641
 30
0.0
 10
197.2032629906184
 20
256.3183143803647
 30
0.0
 10
199.9883729195644
 20
253.2522874366867
 30
0.0
 10
203.0908064515258
 20
249.836904659763
 30
0.0
 10
207.2787371780161
 20
247.5992704936558
 30
0.0
 10
211.8423852248174
 20
246.9186563271594
 30
0.0
 10
241.4111249396474
 20
242.5088988282614
 30
0.0
 10
268.2038563218379
 20
227.0401224432397
 30
0.0
 10
286.8072043727429
 20
203.6376913379796
 30
0.0
 10
289.6784627053582
 20
200.0257760611043
 30
0.0
 10
293.7102540932393
 20
197.5177377283982
 30
0.0
 10
298.2192832587784
 20
196.5386382841984
 30
0.0
 10
298.4537746476091
 20
196.4877324508778
 30
0.0
 10
298.6856554808841
 20
196.425573006449
 30
0.0
 10
298.9141849252716
 20
196.3524421731339
 30
0.0
 10
302.8591577020632
 20
195.0897093956723
 30
0.0
 10
305.0335388126306
 20
190.8680530078383
 30
0.0
 10
303.7708413129465
 20
186.9230802310468
 30
0.0
 10
302.3642457577421
 20
182.5285980099232
 30
0.0
 10
302.5203852021476
 20
177.7829255111099
 30
0.0
 10
304.2127660350579
 20
173.4903960677383
 30
0.0
 10
315.1781576989834
 20
145.6782074635802
 30
0.0
 10
315.1781576989834
 20
114.7406546935374
 30
0.0
 10
304.2127660350579
 20
86.9284660893793
 30
0.0
 10
302.5203852021476
 20
82.63593664600761
 30
0.0
 10
302.3642457577421
 20
77.89026414719437
 30
0.0
 10
303.7708413129465
 20
73.4957819260708
 30
0.0
 10
303.8439721462615
 20
73.26725248168326
 30
0.0
 10
303.9060963129123
 20
73.03537164840763
 30
0.0
 10
303.957037424011
 20
72.8008802595776
 30
0.0
 10
304.6424846460616
 20
69.64411887147789
 30
0.0
 10
303.230985479748
 20
66.5200952611479
 30
0.0
 10
300.6563427026135
 20
64.88080748377979
 30
0.0
 10
299.9296557583506
 20
64.41810415056246
 30
0.0
 10
299.110294091889
 20
64.07368720620401
 30
0.0
 10
298.2192832587784
 20
63.88022387291852
 30
0.0
 10
293.7102540932393
 20
62.90112442871934
 30
0.0
 10
289.6784627053582
 20
60.3930860960126
 30
0.0
 10
286.8072043727429
 20
56.78113554136046
 30
0.0
 10
286.1833874284545
 20
55.99641665266741
 30
0.0
 10
285.5495868730569
 20
55.21963526397271
 30
0.0
 10
284.9059790954402
 20
54.45103831972028
 30
0.0
 10
274.8553049312859
 20
40.73436804537219
 30
0.0
 10
269.4368146548632
 20
24.17190999395696
 30
0.0
 10
269.4368146548632
 20
7.167103887096866
 30
0.0
 10
269.4368146548632
 20
7.167103887096866
 30
0.0
 10
269.4368146548632
 20
-115.4511491378039
 30
0.0
 10
269.4368146548632
 20
-115.4511491378039
 30
0.0
 10
269.4368146548632
 20
-128.0398830235458
 30
0.0
 10
272.407697431898
 20
-140.4509227426651
 30
0.0
 10
278.1078807638061
 20
-151.6751827398592
 30
0.0
 10
283.8080640957148
 20
-162.8994427370533
 30
0.0
 10
286.7789115949721
 20
-175.3104824561725
 30
0.0
 10
286.7789115949721
 20
-187.8992163419144
 30
0.0
 10
286.7789115949721
 20
-187.8992163419144
 30
0.0
 10
286.7789115949721
 20
-195.1905685623133
 30
0.0
 10
286.7789115949721
 20
-195.1905685623133
 30
0.0
 10
286.7789115949721
 20
-195.1905685623133
 30
0.0
 10
236.9395607740984
 20
-195.1905685623133
 30
0.0
 10
236.9395607740984
 20
-195.1905685623133
 30
0.0
  0
SPLINE
  5
A7
330
1F
100
AcDbEntity
  8
_U+30EC_U+30A4_U+30E4_U+30FC 1
 62
   250
420
  2234388
370
    18
100
AcDbSpline
210
0.0
220
0.0
230
1.0
 70
     8
 71
     3
 72
   131
 73
   127
 74
     0
 42
0.0000000001
 43
0.0000000001
 12
1.0
 22
0.0
 32
0.0
 13
1.0
 23
0.0
 33
0.0
 40
0.0
 40
0.0
 40
0.0
 40
0.0
 40
1.0
 40
1.0
 40
1.0
 40
2.0
 40
2.0
 40
2.0
 40
3.0
 40
3.0
 40
3.0
 40
4.0
 40
4.0
 40
4.0
 40
5.0
 40
5.0
 40
5.0
 40
6.0
 40
6.0
 40
6.0
 40
7.0
 40
7.0
 40
7.0
 40
8.0
 40
8.0
 40
8.0
 40
9.0
 40
9.0
 40
9.0
 40
10.0
 40
10.0
 40
10.0
 40
11.0
 40
11.0
 40
11.0
 40
12.0
 40
12.0
 40
12.0
 40
13.0
 40
13.0
 40
13.0
 40
14.0
 40
14.0
 40
14.0
 40
15.0
 40
15.0
 40
15.0
 40
16.0
 40
16.0
 40
16.0
 40
17.0
 40
17.0
 40
17.0
 40
18.0
 40
18.0
 40
18.0
 40
19.0
 40
19.0
 40
19.0
 40
20.0
 40
20.0
 40
20.0
 40
21.0
 40
21.0
 40
21.0
 40
22.0
 40
22.0
 40
22.0
 40
23.0
 40
23.0
 40
23.0
 40
24.0
 40
24.0
 40
24.0
 40
25.0
 40
25.0
 40
25.0
 40
26.0
 40
26.0
 40
26.0
 40
27.0
 40
27.0
 40
27.0
 40
28.0
 40
28.0
 40
28.0
 40
29.0
 40
29.0
 40
29.0
 40
30.0
 40
30.0
 40
30.0
 40
31.0
 40
31.0
 40
31.0
 40
32.0
 40
32.0
 40
32.0
 40
33.0
 40
33.0
 40
33.0
 40
34.0
 40
34.0
 40
34.0
 40
35.0
 40
35.0
 40
35.0
 40
36.0
 40
36.0
 40
36.0
 40
37.0
 40
37.0
 40
37.0
 40
38.0
 40
38.0
 40
38.0
 40
39.0
 40
39.0
 40
39.0
 40
40.0
 40
40.0
 40
40.0
 40
41.0
 40
41.0
 40
41.0
 40
42.0
 40
42.0
 40
42.0
 40
42.0
 10
-118.7769263591946
 20
-195.1905685623133
 30
0.0
 10
-118.7769263591946
 20
-195.1905685623133
 30
0.0
 10
-118.7769263591946
 20
-200.6905857831604
 30
0.0
 10
-118.7769263591946
 20
-200.6905857831604
 30
0.0
 10
-118.7769263591946
 20
-200.6905857831604
 30
0.0
 10
-33.77692278325275
 20
-200.6905857831604
 30
0.0
 10
-33.77692278325275
 20
-200.6905857831604
 30
0.0
 10
-33.77692278325275
 20
-200.6905857831604
 30
0.0
 10
-33.77692278325275
 20
-195.1905685623133
 30
0.0
 10
-33.77678167214524
 20
-195.1905685623133
 30
0.0
 10
-33.77678167214524
 20
-195.1905685623133
 30
0.0
 10
16.08454999597856
 20
-195.1905685623133
 30
0.0
 10
16.08454999597856
 20
-195.1905685623133
 30
0.0
 10
16.08454999597856
 20
-195.1905685623133
 30
0.0
 10
16.08454999597856
 20
-187.8992163419144
 30
0.0
 10
16.08454999597856
 20
-187.8992163419144
 30
0.0
 10
16.08454999597856
 20
-175.3104824561725
 30
0.0
 10
13.11366324269096
 20
-162.8994427370533
 30
0.0
 10
7.413515332558291
 20
-151.6751827398592
 30
0.0
 10
1.713332144648746
 20
-140.4509227426651
 30
0.0
 10
-1.2575505573355
 20
-128.0398830235458
 30
0.0
 10
-1.2575505573355
 20
-115.4511491378039
 30
0.0
 10
-1.2575505573355
 20
-115.4511491378039
 30
0.0
 10
-1.2575505573355
 20
7.167103887096866
 30
0.0
 10
-1.2575505573355
 20
7.167103887096866
 30
0.0
 10
-1.2575505573355
 20
24.17190999395696
 30
0.0
 10
4.160939582205078
 20
40.73436804537219
 30
0.0
 10
14.21161349245769
 20
54.45103831972028
 30
0.0
 10
14.85522125381567
 20
55.21963526397271
 30
0.0
 10
15.48902179320162
 20
55.99641665266741
 30
0.0
 10
16.11283872173117
 20
56.78113554136046
 30
0.0
 10
18.98406170403573
 20
60.3930860960126
 30
0.0
 10
23.01588826784193
 20
62.90112442871934
 30
0.0
 10
27.52491731947368
 20
63.88022387291852
 30
0.0
 10
28.41592813007543
 20
64.07368720620401
 30
0.0
 10
29.23528977583844
 20
64.41810415056246
 30
0.0
 10
29.96197670174356
 20
64.88080748377979
 30
0.0
 10
32.53661941383673
 20
66.5200952611479
 30
0.0
 10
33.94811854449306
 20
69.64411887147789
 30
0.0
 10
33.26267133975804
 20
72.8008802595776
 30
0.0
 10
33.21173022994655
 20
73.03537164840763
 30
0.0
 10
33.14960606486481
 20
73.26725248168326
 30
0.0
 10
33.0764752333972
 20
73.4957819260708
 30
0.0
 10
31.66987971372688
 20
77.89026414719437
 30
0.0
 10
31.825983876411
 20
82.63593664600761
 30
0.0
 10
33.51839994434498
 20
86.9284660893793
 30
0.0
 10
44.4837913312612
 20
114.7406546935374
 30
0.0
 10
44.4837913312612
 20
145.6782074635802
 30
0.0
 10
33.51839994434498
 20
173.4903960677383
 30
0.0
 10
31.825983876411
 20
177.7829255111099
 30
0.0
 10
31.66987971372688
 20
182.5285980099232
 30
0.0
 10
33.0764752333972
 20
186.9230802310468
 30
0.0
 10
34.3391727011831
 20
190.8680530078383
 30
0.0
 10
32.16479164554507
 20
195.0897093956723
 30
0.0
 10
28.21978369063505
 20
196.3524421731339
 30
0.0
 10
27.99128952979776
 20
196.425573006449
 30
0.0
 10
27.7594087023802
 20
196.4877324508778
 30
0.0
 10
27.52491731947368
 20
196.5386382841984
 30
0.0
 10
23.01588826784193
 20
197.5177377283982
 30
0.0
 10
18.98406170403573
 20
200.0257760611043
 30
0.0
 10
16.11283872173117
 20
203.6376913379796
 30
0.0
 10
-2.490508859213446
 20
227.0401224432397
 30
0.0
 10
-29.28323956456283
 20
242.5088988282614
 30
0.0
 10
-58.85197853242367
 20
246.9186563271594
 30
0.0
 10
-63.41561758266221
 20
247.5992704936558
 30
0.0
 10
-67.60354830915253
 20
249.836904659763
 30
0.0
 10
-70.70601711889084
 20
253.2522874366867
 30
0.0
 10
-73.4910917700599
 20
256.3183143803647
 30
0.0
 10
-78.23436526016002
 20
256.546067713641
 30
0.0
 10
-81.3003921263836
 20
253.7609577143379
 30
0.0
 10
-81.47801573296316
 20
253.5996324365998
 30
0.0
 10
-81.64777239529897
 20
253.4298757699761
 30
0.0
 10
-81.80909766896099
 20
253.2522874366867
 30
0.0
 10
-84.91153120092243
 20
249.836904659763
 30
0.0
 10
-89.09946192741275
 20
247.5992704936558
 30
0.0
 10
-93.66310097765128
 20
246.9186563271594
 30
0.0
 10
-123.2318394136364
 20
242.5088988282614
 30
0.0
 10
-150.0245707958271
 20
227.0401224432397
 30
0.0
 10
-168.6279188467319
 20
203.6376913379796
 30
0.0
 10
-171.4991771793474
 20
200.0257760611043
 30
0.0
 10
-175.5309685672285
 20
197.5177377283982
 30
0.0
 10
-180.0399977327676
 20
196.5386382841984
 30
0.0
 10
-184.0878052317558
 20
195.6596924510848
 30
0.0
 10
-186.6566977311136
 20
191.6657541187503
 30
0.0
 10
-185.7777518979999
 20
187.6179466197624
 30
0.0
 10
-185.7268460646794
 20
187.3834905087099
 30
0.0
 10
-185.6646866202505
 20
187.1516096754343
 30
0.0
 10
-185.5915557869354
 20
186.9230802310468
 30
0.0
 10
-184.1849602317317
 20
182.5285980099232
 30
0.0
 10
-184.3410996761369
 20
177.7829255111099
 30
0.0
 10
-186.0334805090472
 20
173.4903960677383
 30
0.0
 10
-196.9989074507502
 20
145.6782074635802
 30
0.0
 10
-196.9989074507502
 20
114.7406546935374
 30
0.0
 10
-186.0334805090472
 20
86.9284660893793
 30
0.0
 10
-184.3410996761369
 20
82.63593664600761
 30
0.0
 10
-184.1849602317317
 20
77.89026414719437
 30
0.0
 10
-185.5915557869354
 20
73.4957819260708
 30
0.0
 10
-186.8542532866199
 20
69.55080914927923
 30
0.0
 10
-184.6798721760524
 20
65.32911748366779
 30
0.0
 10
-180.7348993992608
 20
64.06641998398368
 30
0.0
 10
-180.5063699548733
 20
63.99328915066861
 30
0.0
 10
-180.274489121598
 20
63.9311297062391
 30
0.0
 10
-180.0399977327676
 20
63.88022387291852
 30
0.0
 10
-175.5309685672285
 20
62.90112442871934
 30
0.0
 10
-171.4991771793474
 20
60.3930860960126
 30
0.0
 10
-168.6279188467319
 20
56.78113554136046
 30
0.0
 10
-168.0041019024435
 20
55.99641665266741
 30
0.0
 10
-167.3703013470462
 20
55.21963526397271
 30
0.0
 10
-166.7266935694295
 20
54.45103831972028
 30
0.0
 10
-156.6760194052755
 20
40.73436804537219
 30
0.0
 10
-151.2575291288522
 20
24.17190999395696
 30
0.0
 10
-151.2575291288522
 20
7.167103887096866
 30
0.0
 10
-151.2575291288522
 20
7.167103887096866
 30
0.0
 10
-151.2575291288522
 20
-115.4511491378039
 30
0.0
 10
-151.2575291288522
 20
-115.4511491378039
 30
0.0
 10
-151.2575291288522
 20
-128.0398830235458
 30
0.0
 10
-154.2284119058873
 20
-140.4509227426651
 30
0.0
 10
-159.9285952377957
 20
-151.6751827398592
 30
0.0
 10
-165.6287785697038
 20
-162.8994427370533
 30
0.0
 10
-168.5996260689611
 20
-175.3104824561725
 30
0.0
 10
-168.5996260689611
 20
-187.8992163419144
 30
0.0
 10
-168.5996260689611
 20
-187.8992163419144
 30
0.0
 10
-168.5996260689611
 20
-195.1905685623133
 30
0.0
 10
-168.5996260689611
 20
-195.1905685623133
 30
0.0
 10
-168.5996260689611
 20
-195.1905685623133
 30
0.0
 10
-118.7773144147502
 20
-195.1905685623133
 30
0.0
 10
-118.7773144147502
 20
-195.1905685623133
 30
0.0
  0
SPLINE
  5
A8
330
1F
100
AcDbEntity
  8
_U+30EC_U+30A4_U+30E4_U+30FC 1
 62
   250
420
  2234388
370
    18
100
AcDbSpline
210
0.0
220
0.0
230
1.0
 70
    11
 71
     3
 72
    23
 73
    19
 74
     0
 42
0.0000000001
 43
0.0000000001
 12
1.0
 22
0.0
 32
0.0
 13
1.0
 23
0.0
 33
0.0
 40
0.0
 40
0.0
 40
0.0
 40
0.0
 40
1.0
 40
1.0
 40
1.0
 40
2.0
 40
2.0
 40
2.0
 40
3.0
 40
3.0
 40
3.0
 40
4.0
 40
4.0
 40
4.0
 40
5.0
 40
5.0
 40
5.0
 40
6.0
 40
6.0
 40
6.0
 40
6.0
 10
360.6116668542915
 20
77.67023664724935
 30
0.0
 10
360.6116668542915
 20
77.67023664724935
 30
0.0
 10
360.6116668542915
 20
134.273113577543
 30
0.0
 10
360.6116668542915
 20
134.273113577543
 30
0.0
 10
360.6116668542915
 20
148.379356351794
 30
0.0
 10
379.1308068496615
 20
153.6077346838206
 30
0.0
 10
386.5078487922622
 20
141.5841860757152
 30
0.0
 10
386.5078487922622
 20
141.5841860757152
 30
0.0
 10
421.236563228024
 20
84.98130914542153
 30
0.0
 10
421.236563228024
 20
84.98130914542153
 30
0.0
 10
426.9518454488176
 20
75.66624720330537
 30
0.0
 10
420.2491382282712
 20
63.69011192852177
 30
0.0
 10
409.320541286559
 20
63.69011192852177
 30
0.0
 10
409.320541286559
 20
63.69011192852177
 30
0.0
 10
374.5918268507966
 20
63.69011192852177
 30
0.0
 10
374.5918268507966
 20
63.69011192852177
 30
0.0
 10
366.8707912971715
 20
63.69011192852177
 30
0.0
 10
360.6116668542915
 20
69.94920109362361
 30
0.0
 10
360.6116668542915
 20
77.67023664724935
 30
0.0
  0
POLYLINE
  5
A9
330
1F
100
AcDbEntity
  8
_U+30EC_U+30A4_U+30E4_U+30FC 1
 62
   250
420
  2234388
370
    18
100
AcDb2dPolyline
 66
     1
 10
0.0
 20
0.0
 30
0.0
  0
VERTEX
  5
AA
330
A9
100
AcDbEntity
  8
_U+30EC_U+30A4_U+30E4_U+30FC 1
 62
   250
420
  2234388
370
    18
100
AcDbVertex
100
AcDb2dVertex
 10
258.6886282686613
 20
-48.12788471019003
 30
0.0
  0
VERTEX
  5
AB
330
A9
100
AcDbEntity
  8
_U+30EC_U+30A4_U+30E4_U+30FC 1
 62
   250
420
  2234388
370
    18
100
AcDbVertex
100
AcDb2dVertex
 10
247.6884527158558
 20
-48.12788471019003
 30
0.0
  0
VERTEX
  5
AC
330
A9
100
AcDbEntity
  8
_U+30EC_U+30A4_U+30E4_U+30FC 1
 62
   250
420
  2234388
370
    18
100
AcDbVertex
100
AcDb2dVertex
 10
247.6884527158558
 20
10.65268944178103
 30
0.0
  0
VERTEX
  5
AD
330
A9
100
AcDbEntity
  8
_U+30EC_U+30A4_U+30E4_U+30FC 1
 62
   250
420
  2234388
370
    18
100
AcDbVertex
100
AcDb2dVertex
 10
258.6886282686613
 20
10.65268944178103
 30
0.0
  0
VERTEX
  5
AE
330
A9
100
AcDbEntity
  8
_U+30EC_U+30A4_U+30E4_U+30FC 1
 62
   250
420
  2234388
370
    18
100
AcDbVertex
100
AcDb2dVertex
 10
258.6886282686613
 20
-48.12788471019003
 30
0.0
  0
SEQEND
  5
AF
330
A9
100
AcDbEntity
  8
_U+30EC_U+30A4_U+30E4_U+30FC 1
 62
   250
420
  2234388
370
    18
  0
POLYLINE
  5
B0
330
1F
100
AcDbEntity
  8
_U+30EC_U+30A4_U+30E4_U+30FC 1
 62
   250
420
  2234388
370
    18
100
AcDb2dPolyline
 66
     1
 10
0.0
 20
0.0
 30
0.0
  0
VERTEX
  5
B1
330
B0
100
AcDbEntity
  8
_U+30EC_U+30A4_U+30E4_U+30FC 1
 62
   250
420
  2234388
370
    18
100
AcDbVertex
100
AcDb2dVertex
 10
258.6886282686613
 20
-177.5973291222671
 30
0.0
  0
VERTEX
  5
B2
330
B0
100
AcDbEntity
  8
_U+30EC_U+30A4_U+30E4_U+30FC 1
 62
   250
420
  2234388
370
    18
100
AcDbVertex
100
AcDb2dVertex
 10
247.6884527158558
 20
-177.5973291222671
 30
0.0
  0
VERTEX
  5
B3
330
B0
100
AcDbEntity
  8
_U+30EC_U+30A4_U+30E4_U+30FC 1
 62
   250
420
  2234388
370
    18
100
AcDbVertex
100
AcDb2dVertex
 10
247.6884527158558
 20
-118.8167549702961
 30
0.0
  0
VERTEX
  5
B4
330
B0
100
AcDbEntity
  8
_U+30EC_U+30A4_U+30E4_U+30FC 1
 62
   250
420
  2234388
370
    18
100
AcDbVertex
100
AcDb2dVertex
 10
258.6886282686613
 20
-118.8167549702961
 30
0.0
  0
VERTEX
  5
B5
330
B0
100
AcDbEntity
  8
_U+30EC_U+30A4_U+30E4_U+30FC 1
 62
   250
420
  2234388
370
    18
100
AcDbVertex
100
AcDb2dVertex
 10
258.6886282686613
 20
-177.5973291222671
 30
0.0
  0
SEQEND
  5
B6
330
B0
100
AcDbEntity
  8
_U+30EC_U+30A4_U+30E4_U+30FC 1
 62
   250
420
  2234388
370
    18
  0
POLYLINE
  5
B7
330
1F
100
AcDbEntity
  8
_U+30EC_U+30A4_U+30E4_U+30FC 1
 62
   250
420
  2234388
370
    18
100
AcDb2dPolyline
 66
     1
 10
0.0
 20
0.0
 30
0.0
  0
VERTEX
  5
B8
330
B7
100
AcDbEntity
  8
_U+30EC_U+30A4_U+30E4_U+30FC 1
 62
   250
420
  2234388
370
    18
100
AcDbVertex
100
AcDb2dVertex
 10
141.1886444196704
 20
-48.12788471019003
 30
0.0
  0
VERTEX
  5
B9
330
B7
100
AcDbEntity
  8
_U+30EC_U+30A4_U+30E4_U+30FC 1
 62
   250
420
  2234388
370
    18
100
AcDbVertex
100
AcDb2dVertex
 10
130.1884338669758
 20
-48.12788471019003
 30
0.0
  0
VERTEX
  5
BA
330
B7
100
AcDbEntity
  8
_U+30EC_U+30A4_U+30E4_U+30FC 1
 62
   250
420
  2234388
370
    18
100
AcDbVertex
100
AcDb2dVertex
 10
130.1884338669758
 20
10.65268944178103
 30
0.0
  0
VERTEX
  5
BB
330
B7
100
AcDbEntity
  8
_U+30EC_U+30A4_U+30E4_U+30FC 1
 62
   250
420
  2234388
370
    18
100
AcDbVertex
100
AcDb2dVertex
 10
141.1886444196704
 20
10.65268944178103
 30
0.0
  0
VERTEX
  5
BC
330
B7
100
AcDbEntity
  8
_U+30EC_U+30A4_U+30E4_U+30FC 1
 62
   250
420
  2234388
370
    18
100
AcDbVertex
100
AcDb2dVertex
 10
141.1886444196704
 20
-48.12788471019003
 30
0.0
  0
SEQEND
  5
BD
330
B7
100
AcDbEntity
  8
_U+30EC_U+30A4_U+30E4_U+30FC 1
 62
   250
420
  2234388
370
    18
  0
POLYLINE
  5
BE
330
1F
100
AcDbEntity
  8
_U+30EC_U+30A4_U+30E4_U+30FC 1
 62
   250
420
  2234388
370
    18
100
AcDb2dPolyline
 66
     1
 10
0.0
 20
0.0
 30
0.0
  0
VERTEX
  5
BF
330
BE
100
AcDbEntity
  8
_U+30EC_U+30A4_U+30E4_U+30FC 1
 62
   250
420
  2234388
370
    18
100
AcDbVertex
100
AcDb2dVertex
 10
141.1886444196704
 20
-177.5973291222671
 30
0.0
  0
VERTEX
  5
C0
330
BE
100
AcDbEntity
  8
_U+30EC_U+30A4_U+30E4_U+30FC 1
 62
   250
420
  2234388
370
    18
100
AcDbVertex
100
AcDb2dVertex
 10
130.1884338669758
 20
-177.5973291222671
 30
0.0
  0
VERTEX
  5
C1
330
BE
100
AcDbEntity
  8
_U+30EC_U+30A4_U+30E4_U+30FC 1
 62
   250
420
  2234388
370
    18
100
AcDbVertex
100
AcDb2dVertex
 10
130.1884338669758
 20
-118.8167549702961
 30
0.0
  0
VERTEX
  5
C2
330
BE
100
AcDbEntity
  8
_U+30EC_U+30A4_U+30E4_U+30FC 1
 62
   250
420
  2234388
370
    18
100
AcDbVertex
100
AcDb2dVertex
 10
141.1886444196704
 20
-118.8167549702961
 30
0.0
  0
VERTEX
  5
C3
330
BE
100
AcDbEntity
  8
_U+30EC_U+30A4_U+30E4_U+30FC 1
 62
   250
420
  2234388
370
    18
100
AcDbVertex
100
AcDb2dVertex
 10
141.1886444196704
 20
-177.5973291222671
 30
0.0
  0
SEQEND
  5
C4
330
BE
100
AcDbEntity
  8
_U+30EC_U+30A4_U+30E4_U+30FC 1
 62
   250
420
  2234388
370
    18
  0
POLYLINE
  5
C5
330
1F
100
AcDbEntity
  8
_U+30EC_U+30A4_U+30E4_U+30FC 1
 62
   250
420
  2234388
370
    18
100
AcDb2dPolyline
 66
     1
 10
0.0
 20
0.0
 30
0.0
  0
VERTEX
  5
C6
330
C5
100
AcDbEntity
  8
_U+30EC_U+30A4_U+30E4_U+30FC 1
 62
   250
420
  2234388
370
    18
100
AcDbVertex
100
AcDb2dVertex
 10
194.4385788944847
 20
-407.6531018425314
 30
0.0
  0
VERTEX
  5
C7
330
C5
100
AcDbEntity
  8
_U+30EC_U+30A4_U+30E4_U+30FC 1
 62
   250
420
  2234388
370
    18
100
AcDbVertex
100
AcDb2dVertex
 10
183.4383683417902
 20
-407.6531018425314
 30
0.0
  0
VERTEX
  5
C8
330
C5
100
AcDbEntity
  8
_U+30EC_U+30A4_U+30E4_U+30FC 1
 62
   250
420
  2234388
370
    18
100
AcDbVertex
100
AcDb2dVertex
 10
183.4383683417902
 20
-348.8725629683373
 30
0.0
  0
VERTEX
  5
C9
330
C5
100
AcDbEntity
  8
_U+30EC_U+30A4_U+30E4_U+30FC 1
 62
   250
420
  2234388
370
    18
100
AcDbVertex
100
AcDb2dVertex
 10
194.4385788944847
 20
-348.8725629683373
 30
0.0
  0
VERTEX
  5
CA
330
C5
100
AcDbEntity
  8
_U+30EC_U+30A4_U+30E4_U+30FC 1
 62
   250
420
  2234388
370
    18
100
AcDbVertex
100
AcDb2dVertex
 10
194.4385788944847
 20
-407.6531018425314
 30
0.0
  0
SEQEND
  5
CB
330
C5
100
AcDbEntity
  8
_U+30EC_U+30A4_U+30E4_U+30FC 1
 62
   250
420
  2234388
370
    18
  0
POLYLINE
  5
CC
330
1F
100
AcDbEntity
  8
_U+30EC_U+30A4_U+30E4_U+30FC 1
 62
   250
420
  2234388
370
    18
100
AcDb2dPolyline
 66
     1
 10
0.0
 20
0.0
 30
0.0
  0
VERTEX
  5
CD
330
CC
100
AcDbEntity
  8
_U+30EC_U+30A4_U+30E4_U+30FC 1
 62
   250
420
  2234388
370
    18
100
AcDbVertex
100
AcDb2dVertex
 10
76.93856994771527
 20
-407.6531018425314
 30
0.0
  0
VERTEX
  5
CE
330
CC
100
AcDbEntity
  8
_U+30EC_U+30A4_U+30E4_U+30FC 1
 62
   250
420
  2234388
370
    18
100
AcDbVertex
100
AcDb2dVertex
 10
65.9383999835155
 20
-407.6531018425314
 30
0.0
  0
VERTEX
  5
CF
330
CC
100
AcDbEntity
  8
_U+30EC_U+30A4_U+30E4_U+30FC 1
 62
   250
420
  2234388
370
    18
100
AcDbVertex
100
AcDb2dVertex
 10
65.9383999835155
 20
-348.8725629683373
 30
0.0
  0
VERTEX
  5
D0
330
CC
100
AcDbEntity
  8
_U+30EC_U+30A4_U+30E4_U+30FC 1
 62
   250
420
  2234388
370
    18
100
AcDbVertex
100
AcDb2dVertex
 10
76.93856994771527
 20
-348.8725629683373
 30
0.0
  0
VERTEX
  5
D1
330
CC
100
AcDbEntity
  8
_U+30EC_U+30A4_U+30E4_U+30FC 1
 62
   250
420
  2234388
370
    18
100
AcDbVertex
100
AcDb2dVertex
 10
76.93856994771527
 20
-407.6531018425314
 30
0.0
  0
SEQEND
  5
D2
330
CC
100
AcDbEntity
  8
_U+30EC_U+30A4_U+30E4_U+30FC 1
 62
   250
420
  2234388
370
    18
  0
SPLINE
  5
D3
330
1F
100
AcDbEntity
  8
_U+30EC_U+30A4_U+30E4_U+30FC 1
 62
   250
420
  2234388
370
    18
100
AcDbSpline
210
0.0
220
0.0
230
1.0
 70
     8
 71
     3
 72
    53
 73
    49
 74
     0
 42
0.0000000001
 43
0.0000000001
 12
1.0
 22
0.0
 32
0.0
 13
1.0
 23
0.0
 33
0.0
 40
0.0
 40
0.0
 40
0.0
 40
0.0
 40
1.0
 40
1.0
 40
1.0
 40
2.0
 40
2.0
 40
2.0
 40
3.0
 40
3.0
 40
3.0
 40
4.0
 40
4.0
 40
4.0
 40
5.0
 40
5.0
 40
5.0
 40
6.0
 40
6.0
 40
6.0
 40
7.0
 40
7.0
 40
7.0
 40
8.0
 40
8.0
 40
8.0
 40
9.0
 40
9.0
 40
9.0
 40
10.0
 40
10.0
 40
10.0
 40
11.0
 40
11.0
 40
11.0
 40
12.0
 40
12.0
 40
12.0
 40
13.0
 40
13.0
 40
13.0
 40
14.0
 40
14.0
 40
14.0
 40
15.0
 40
15.0
 40
15.0
 40
16.0
 40
16.0
 40
16.0
 40
16.0
 10
451.1660534983195
 20
32.74010610292605
 30
0.0
 10
451.1660534983195
 20
32.74010610292605
 30
0.0
 10
451.1660534983195
 20
27.24008888207899
 30
0.0
 10
451.1660534983195
 20
27.24008888207899
 30
0.0
 10
451.1660534983195
 20
27.24008888207899
 30
0.0
 10
392.3854793463484
 20
27.24008888207899
 30
0.0
 10
392.3854793463484
 20
27.24008888207899
 30
0.0
 10
392.3854793463484
 20
27.24008888207899
 30
0.0
 10
392.3854793463484
 20
32.74010610292605
 30
0.0
 10
392.3854793463484
 20
32.74010610292605
 30
0.0
 10
392.3854793463484
 20
32.74010610292605
 30
0.0
 10
392.3846679574597
 20
32.74010610292605
 30
0.0
 10
392.3846679574597
 20
32.74010610292605
 30
0.0
 10
392.3846679574597
 20
32.74010610292605
 30
0.0
 10
339.5257863040078
 20
32.74010610292605
 30
0.0
 10
339.5257863040078
 20
32.74010610292605
 30
0.0
 10
339.5257863040078
 20
32.74010610292605
 30
0.0
 10
339.5257863040078
 20
50.33323970963905
 30
0.0
 10
339.5257863040078
 20
50.33323970963905
 30
0.0
 10
339.5257863040078
 20
50.33323970963905
 30
0.0
 10
334.0258043609383
 20
50.33334554297225
 30
0.0
 10
334.0258043609383
 20
50.33334554297225
 30
0.0
 10
334.0258043609383
 20
50.33334554297225
 30
0.0
 10
334.0258043609383
 20
109.113919694944
 30
0.0
 10
334.0258043609383
 20
109.113919694944
 30
0.0
 10
334.0258043609383
 20
109.113919694944
 30
0.0
 10
339.5257863040078
 20
109.113919694944
 30
0.0
 10
339.5257863040078
 20
109.1140608060547
 30
0.0
 10
339.5257863040078
 20
109.1140608060547
 30
0.0
 10
339.5257863040078
 20
179.8027899550493
 30
0.0
 10
339.5257863040078
 20
179.8027899550493
 30
0.0
 10
339.5257863040078
 20
179.8027899550493
 30
0.0
 10
334.0258043609383
 20
179.8027899550493
 30
0.0
 10
334.0258043609383
 20
179.8027899550493
 30
0.0
 10
334.0258043609383
 20
179.8027899550493
 30
0.0
 10
334.0258043609383
 20
238.5833641070211
 30
0.0
 10
334.0258043609383
 20
238.5833641070211
 30
0.0
 10
334.0258043609383
 20
238.5833641070211
 30
0.0
 10
339.5257863040078
 20
238.5833641070211
 30
0.0
 10
339.5257863040078
 20
238.5833641070211
 30
0.0
 10
339.5257863040078
 20
238.5833641070211
 30
0.0
 10
339.5257863040078
 20
264.5873196560755
 30
0.0
 10
339.5257863040078
 20
264.5873196560755
 30
0.0
 10
339.5257863040078
 20
264.5873196560755
 30
0.0
 10
481.775769879556
 20
32.74010610292605
 30
0.0
 10
481.775769879556
 20
32.74010610292605
 30
0.0
 10
481.775769879556
 20
32.74010610292605
 30
0.0
 10
451.1640426649867
 20
32.74010610292605
 30
0.0
 10
451.1640426649867
 20
32.74010610292605
 30
0.0
  0
SPLINE
  5
D4
330
1F
100
AcDbEntity
  8
_U+30EC_U+30A4_U+30E4_U+30FC 1
 62
   250
420
  2234388
370
    18
100
AcDbSpline
210
0.0
220
0.0
230
1.0
 70
    11
 71
     3
 72
    23
 73
    19
 74
     0
 42
0.0000000001
 43
0.0000000001
 12
1.0
 22
0.0
 32
0.0
 13
1.0
 23
0.0
 33
0.0
 40
0.0
 40
0.0
 40
0.0
 40
0.0
 40
1.0
 40
1.0
 40
1.0
 40
2.0
 40
2.0
 40
2.0
 40
3.0
 40
3.0
 40
3.0
 40
4.0
 40
4.0
 40
4.0
 40
5.0
 40
5.0
 40
5.0
 40
6.0
 40
6.0
 40
6.0
 40
6.0
 10
360.6116668542915
 20
-176.7382799558156
 30
0.0
 10
360.6116668542915
 20
-176.7382799558156
 30
0.0
 10
360.6116668542915
 20
-120.1354383032995
 30
0.0
 10
360.6116668542915
 20
-120.1354383032995
 30
0.0
 10
360.6116668542915
 20
-106.0291602512703
 30
0.0
 10
379.1308068496615
 20
-100.8007819192444
 30
0.0
 10
386.5078487922622
 20
-112.8243305273492
 30
0.0
 10
386.5078487922622
 20
-112.8243305273492
 30
0.0
 10
421.236563228024
 20
-169.4272074576435
 30
0.0
 10
421.236563228024
 20
-169.4272074576435
 30
0.0
 10
426.9518454488176
 20
-178.742269399759
 30
0.0
 10
420.2491382282712
 20
-190.7184399523208
 30
0.0
 10
409.320541286559
 20
-190.7184399523208
 30
0.0
 10
409.320541286559
 20
-190.7184399523208
 30
0.0
 10
374.5918268507966
 20
-190.7184399523208
 30
0.0
 10
374.5918268507966
 20
-190.7184399523208
 30
0.0
 10
366.8707912971715
 20
-190.7184399523208
 30
0.0
 10
360.6116668542915
 20
-184.4593155094407
 30
0.0
 10
360.6116668542915
 20
-176.7382799558156
 30
0.0
  0
POLYLINE
  5
D5
330
1F
100
AcDbEntity
  8
_U+30EC_U+30A4_U+30E4_U+30FC 1
 62
   250
420
  2234388
370
    18
100
AcDb2dPolyline
 66
     1
 10
0.0
 20
0.0
 30
0.0
  0
VERTEX
  5
D6
330
D5
100
AcDbEntity
  8
_U+30EC_U+30A4_U+30E4_U+30FC 1
 62
   250
420
  2234388
370
    18
100
AcDbVertex
100
AcDb2dVertex
 10
451.1660534983195
 20
-221.6684457779165
 30
0.0
  0
VERTEX
  5
D7
330
D5
100
AcDbEntity
  8
_U+30EC_U+30A4_U+30E4_U+30FC 1
 62
   250
420
  2234388
370
    18
100
AcDbVertex
100
AcDb2dVertex
 10
451.1660534983195
 20
-227.1684277209854
 30
0.0
  0
VERTEX
  5
D8
330
D5
100
AcDbEntity
  8
_U+30EC_U+30A4_U+30E4_U+30FC 1
 62
   250
420
  2234388
370
    18
100
AcDbVertex
100
AcDb2dVertex
 10
392.3854793463484
 20
-227.1684277209854
 30
0.0
  0
VERTEX
  5
D9
330
D5
100
AcDbEntity
  8
_U+30EC_U+30A4_U+30E4_U+30FC 1
 62
   250
420
  2234388
370
    18
100
AcDbVertex
100
AcDb2dVertex
 10
392.3854793463484
 20
-221.6684457779165
 30
0.0
  0
VERTEX
  5
DA
330
D5
100
AcDbEntity
  8
_U+30EC_U+30A4_U+30E4_U+30FC 1
 62
   250
420
  2234388
370
    18
100
AcDbVertex
100
AcDb2dVertex
 10
392.3846679574597
 20
-221.6684105001383
 30
0.0
  0
VERTEX
  5
DB
330
D5
100
AcDbEntity
  8
_U+30EC_U+30A4_U+30E4_U+30FC 1
 62
   250
420
  2234388
370
    18
100
AcDbVertex
100
AcDb2dVertex
 10
339.5257863040078
 20
-221.6684105001383
 30
0.0
  0
VERTEX
  5
DC
330
D5
100
AcDbEntity
  8
_U+30EC_U+30A4_U+30E4_U+30FC 1
 62
   250
420
  2234388
370
    18
100
AcDbVertex
100
AcDb2dVertex
 10
339.5257863040078
 20
-204.0753121712034
 30
0.0
  0
VERTEX
  5
DD
330
D5
100
AcDbEntity
  8
_U+30EC_U+30A4_U+30E4_U+30FC 1
 62
   250
420
  2234388
370
    18
100
AcDbVertex
100
AcDb2dVertex
 10
334.0258043609383
 20
-204.0752063378703
 30
0.0
  0
VERTEX
  5
DE
330
D5
100
AcDbEntity
  8
_U+30EC_U+30A4_U+30E4_U+30FC 1
 62
   250
420
  2234388
370
    18
100
AcDbVertex
100
AcDb2dVertex
 10
334.0258043609383
 20
-145.294596908121
 30
0.0
  0
VERTEX
  5
DF
330
D5
100
AcDbEntity
  8
_U+30EC_U+30A4_U+30E4_U+30FC 1
 62
   250
420
  2234388
370
    18
100
AcDbVertex
100
AcDb2dVertex
 10
339.5257863040078
 20
-145.2944557970097
 30
0.0
  0
VERTEX
  5
E0
330
D5
100
AcDbEntity
  8
_U+30EC_U+30A4_U+30E4_U+30FC 1
 62
   250
420
  2234388
370
    18
100
AcDbVertex
100
AcDb2dVertex
 10
339.5257863040078
 20
-74.60572664801501
 30
0.0
  0
VERTEX
  5
E1
330
D5
100
AcDbEntity
  8
_U+30EC_U+30A4_U+30E4_U+30FC 1
 62
   250
420
  2234388
370
    18
100
AcDbVertex
100
AcDb2dVertex
 10
334.0258043609383
 20
-74.60572664801501
 30
0.0
  0
VERTEX
  5
E2
330
D5
100
AcDbEntity
  8
_U+30EC_U+30A4_U+30E4_U+30FC 1
 62
   250
420
  2234388
370
    18
100
AcDbVertex
100
AcDb2dVertex
 10
334.0258043609383
 20
-15.82515249604395
 30
0.0
  0
VERTEX
  5
E3
330
D5
100
AcDbEntity
  8
_U+30EC_U+30A4_U+30E4_U+30FC 1
 62
   250
420
  2234388
370
    18
100
AcDbVertex
100
AcDb2dVertex
 10
339.5257863040078
 20
-15.82515249604395
 30
0.0
  0
VERTEX
  5
E4
330
D5
100
AcDbEntity
  8
_U+30EC_U+30A4_U+30E4_U+30FC 1
 62
   250
420
  2234388
370
    18
100
AcDbVertex
100
AcDb2dVertex
 10
339.5257863040078
 20
10.17876777523293
 30
0.0
  0
VERTEX
  5
E5
330
D5
100
AcDbEntity
  8
_U+30EC_U+30A4_U+30E4_U+30FC 1
 62
   250
420
  2234388
370
    18
100
AcDbVertex
100
AcDb2dVertex
 10
481.775769879556
 20
-221.6684105001383
 30
0.0
  0
VERTEX
  5
E6
330
D5
100
AcDbEntity
  8
_U+30EC_U+30A4_U+30E4_U+30FC 1
 62
   250
420
  2234388
370
    18
100
AcDbVertex
100
AcDb2dVertex
 10
451.1640426649867
 20
-221.6684105001383
 30
0.0
  0
SEQEND
  5
E7
330
D5
100
AcDbEntity
  8
_U+30EC_U+30A4_U+30E4_U+30FC 1
 62
   250
420
  2234388
370
    18
  0
SPLINE
  5
E8
330
1F
100
AcDbEntity
  8
_U+30EC_U+30A4_U+30E4_U+30FC 1
 62
   250
420
  2234388
370
    18
100
AcDbSpline
210
0.0
220
0.0
230
1.0
 70
    11
 71
     3
 72
    23
 73
    19
 74
     0
 42
0.0000000001
 43
0.0000000001
 12
1.0
 22
0.0
 32
0.0
 13
1.0
 23
0.0
 33
0.0
 40
0.0
 40
0.0
 40
0.0
 40
0.0
 40
1.0
 40
1.0
 40
1.0
 40
2.0
 40
2.0
 40
2.0
 40
3.0
 40
3.0
 40
3.0
 40
4.0
 40
4.0
 40
4.0
 40
5.0
 40
5.0
 40
5.0
 40
6.0
 40
6.0
 40
6.0
 40
6.0
 10
470.6117643267913
 20
-40.25137998993743
 30
0.0
 10
470.6117643267913
 20
-40.25137998993743
 30
0.0
 10
470.6117643267913
 20
-96.8542569202311
 30
0.0
 10
470.6117643267913
 20
-96.8542569202311
 30
0.0
 10
470.6117643267913
 20
-110.9604996944821
 30
0.0
 10
452.0926596091988
 20
-116.188878026508
 30
0.0
 10
444.7156176665987
 20
-104.1653294184033
 30
0.0
 10
444.7156176665987
 20
-104.1653294184033
 30
0.0
 10
409.9868679530587
 20
-47.56245248810961
 30
0.0
 10
409.9868679530587
 20
-47.56245248810961
 30
0.0
 10
404.2716210100433
 20
-38.24739054599345
 30
0.0
 10
410.9743282305897
 20
-26.27125527120984
 30
0.0
 10
421.9029251723019
 20
-26.27125527120984
 30
0.0
 10
421.9029251723019
 20
-26.27125527120984
 30
0.0
 10
456.6316396080643
 20
-26.27125527120984
 30
0.0
 10
456.6316396080643
 20
-26.27125527120984
 30
0.0
 10
464.3526398839119
 20
-26.27125527120984
 30
0.0
 10
470.6117643267913
 20
-32.53034443631169
 30
0.0
 10
470.6117643267913
 20
-40.25137998993743
 30
0.0
  0
POLYLINE
  5
E9
330
1F
100
AcDbEntity
  8
_U+30EC_U+30A4_U+30E4_U+30FC 1
 62
   250
420
  2234388
370
    18
100
AcDb2dPolyline
 66
     1
 10
0.0
 20
0.0
 30
0.0
  0
VERTEX
  5
EA
330
E9
100
AcDbEntity
  8
_U+30EC_U+30A4_U+30E4_U+30FC 1
 62
   250
420
  2234388
370
    18
100
AcDbVertex
100
AcDb2dVertex
 10
380.0573776827633
 20
4.678750554385875
 30
0.0
  0
VERTEX
  5
EB
330
E9
100
AcDbEntity
  8
_U+30EC_U+30A4_U+30E4_U+30FC 1
 62
   250
420
  2234388
370
    18
100
AcDbVertex
100
AcDb2dVertex
 10
380.0573776827633
 20
10.17876777523293
 30
0.0
  0
VERTEX
  5
EC
330
E9
100
AcDbEntity
  8
_U+30EC_U+30A4_U+30E4_U+30FC 1
 62
   250
420
  2234388
370
    18
100
AcDbVertex
100
AcDb2dVertex
 10
438.837951834735
 20
10.17876777523293
 30
0.0
  0
VERTEX
  5
ED
330
E9
100
AcDbEntity
  8
_U+30EC_U+30A4_U+30E4_U+30FC 1
 62
   250
420
  2234388
370
    18
100
AcDbVertex
100
AcDb2dVertex
 10
438.837951834735
 20
4.678750554385875
 30
0.0
  0
VERTEX
  5
EE
330
E9
100
AcDbEntity
  8
_U+30EC_U+30A4_U+30E4_U+30FC 1
 62
   250
420
  2234388
370
    18
100
AcDbVertex
100
AcDb2dVertex
 10
438.8387985014012
 20
4.678750554385875
 30
0.0
  0
VERTEX
  5
EF
330
E9
100
AcDbEntity
  8
_U+30EC_U+30A4_U+30E4_U+30FC 1
 62
   250
420
  2234388
370
    18
100
AcDbVertex
100
AcDb2dVertex
 10
491.6976801548537
 20
4.678750554385875
 30
0.0
  0
VERTEX
  5
F0
330
E9
100
AcDbEntity
  8
_U+30EC_U+30A4_U+30E4_U+30FC 1
 62
   250
420
  2234388
370
    18
100
AcDbVertex
100
AcDb2dVertex
 10
491.6976801548537
 20
-12.91438305232713
 30
0.0
  0
VERTEX
  5
F1
330
E9
100
AcDbEntity
  8
_U+30EC_U+30A4_U+30E4_U+30FC 1
 62
   250
420
  2234388
370
    18
100
AcDbVertex
100
AcDb2dVertex
 10
497.1976620979226
 20
-12.91448888566033
 30
0.0
  0
VERTEX
  5
F2
330
E9
100
AcDbEntity
  8
_U+30EC_U+30A4_U+30E4_U+30FC 1
 62
   250
420
  2234388
370
    18
100
AcDbVertex
100
AcDb2dVertex
 10
497.1976620979226
 20
-71.69506303763202
 30
0.0
  0
VERTEX
  5
F3
330
E9
100
AcDbEntity
  8
_U+30EC_U+30A4_U+30E4_U+30FC 1
 62
   250
420
  2234388
370
    18
100
AcDbVertex
100
AcDb2dVertex
 10
491.6976801548537
 20
-71.69520414874275
 30
0.0
  0
VERTEX
  5
F4
330
E9
100
AcDbEntity
  8
_U+30EC_U+30A4_U+30E4_U+30FC 1
 62
   250
420
  2234388
370
    18
100
AcDbVertex
100
AcDb2dVertex
 10
491.6976801548537
 20
-142.3839332977374
 30
0.0
  0
VERTEX
  5
F5
330
E9
100
AcDbEntity
  8
_U+30EC_U+30A4_U+30E4_U+30FC 1
 62
   250
420
  2234388
370
    18
100
AcDbVertex
100
AcDb2dVertex
 10
497.1976620979226
 20
-142.3839332977374
 30
0.0
  0
VERTEX
  5
F6
330
E9
100
AcDbEntity
  8
_U+30EC_U+30A4_U+30E4_U+30FC 1
 62
   250
420
  2234388
370
    18
100
AcDbVertex
100
AcDb2dVertex
 10
497.1976620979226
 20
-201.1645074497091
 30
0.0
  0
VERTEX
  5
F7
330
E9
100
AcDbEntity
  8
_U+30EC_U+30A4_U+30E4_U+30FC 1
 62
   250
420
  2234388
370
    18
100
AcDbVertex
100
AcDb2dVertex
 10
491.6976801548537
 20
-201.1645074497091
 30
0.0
  0
VERTEX
  5
F8
330
E9
100
AcDbEntity
  8
_U+30EC_U+30A4_U+30E4_U+30FC 1
 62
   250
420
  2234388
370
    18
100
AcDbVertex
100
AcDb2dVertex
 10
491.6976801548537
 20
-227.1684277209854
 30
0.0
  0
VERTEX
  5
F9
330
E9
100
AcDbEntity
  8
_U+30EC_U+30A4_U+30E4_U+30FC 1
 62
   250
420
  2234388
370
    18
100
AcDbVertex
100
AcDb2dVertex
 10
349.4476613015273
 20
4.678750554385875
 30
0.0
  0
VERTEX
  5
FA
330
E9
100
AcDbEntity
  8
_U+30EC_U+30A4_U+30E4_U+30FC 1
 62
   250
420
  2234388
370
    18
100
AcDbVertex
100
AcDb2dVertex
 10
380.0594237938741
 20
4.678750554385875
 30
0.0
  0
SEQEND
  5
FB
330
E9
100
AcDbEntity
  8
_U+30EC_U+30A4_U+30E4_U+30FC 1
 62
   250
420
  2234388
370
    18
  0
SPLINE
  5
FC
330
1F
100
AcDbEntity
  8
_U+30EC_U+30A4_U+30E4_U+30FC 1
 62
   250
420
  2234388
370
    18
100
AcDbSpline
210
0.0
220
0.0
230
1.0
 70
    11
 71
     3
 72
    23
 73
    19
 74
     0
 42
0.0000000001
 43
0.0000000001
 12
1.0
 22
0.0
 32
0.0
 13
1.0
 23
0.0
 33
0.0
 40
0.0
 40
0.0
 40
0.0
 40
0.0
 40
1.0
 40
1.0
 40
1.0
 40
2.0
 40
2.0
 40
2.0
 40
3.0
 40
3.0
 40
3.0
 40
4.0
 40
4.0
 40
4.0
 40
5.0
 40
5.0
 40
5.0
 40
6.0
 40
6.0
 40
6.0
 40
6.0
 10
470.6117643267913
 20
214.1571366131276
 30
0.0
 10
470.6117643267913
 20
214.1571366131276
 30
0.0
 10
470.6117643267913
 20
157.5542949606114
 30
0.0
 10
470.6117643267913
 20
157.5542949606114
 30
0.0
 10
470.6117643267913
 20
143.4480169085823
 30
0.0
 10
452.0926596091988
 20
138.2196385765563
 30
0.0
 10
444.7156176665987
 20
150.2431871846617
 30
0.0
 10
444.7156176665987
 20
150.2431871846617
 30
0.0
 10
409.9868679530587
 20
206.8460641149554
 30
0.0
 10
409.9868679530587
 20
206.8460641149554
 30
0.0
 10
404.2716210100433
 20
216.1611260570709
 30
0.0
 10
410.9743282305897
 20
228.137296609632
 30
0.0
 10
421.9029251723019
 20
228.137296609632
 30
0.0
 10
421.9029251723019
 20
228.137296609632
 30
0.0
 10
456.6316396080643
 20
228.137296609632
 30
0.0
 10
456.6316396080643
 20
228.137296609632
 30
0.0
 10
464.3526398839119
 20
228.137296609632
 30
0.0
 10
470.6117643267913
 20
221.8781721667526
 30
0.0
 10
470.6117643267913
 20
214.1571366131276
 30
0.0
  0
POLYLINE
  5
FD
330
1F
100
AcDbEntity
  8
_U+30EC_U+30A4_U+30E4_U+30FC 1
 62
   250
420
  2234388
370
    18
100
AcDb2dPolyline
 66
     1
 10
0.0
 20
0.0
 30
0.0
  0
VERTEX
  5
FE
330
FD
100
AcDbEntity
  8
_U+30EC_U+30A4_U+30E4_U+30FC 1
 62
   250
420
  2234388
370
    18
100
AcDbVertex
100
AcDb2dVertex
 10
380.0574129605415
 20
259.0873024352284
 30
0.0
  0
VERTEX
  5
FF
330
FD
100
AcDbEntity
  8
_U+30EC_U+30A4_U+30E4_U+30FC 1
 62
   250
420
  2234388
370
    18
100
AcDbVertex
100
AcDb2dVertex
 10
380.0573776827633
 20
264.5872843782979
 30
0.0
  0
VERTEX
  5
100
330
FD
100
AcDbEntity
  8
_U+30EC_U+30A4_U+30E4_U+30FC 1
 62
   250
420
  2234388
370
    18
100
AcDbVertex
100
AcDb2dVertex
 10
438.837951834735
 20
264.5872843782979
 30
0.0
  0
VERTEX
  5
101
330
FD
100
AcDbEntity
  8
_U+30EC_U+30A4_U+30E4_U+30FC 1
 62
   250
420
  2234388
370
    18
100
AcDbVertex
100
AcDb2dVertex
 10
438.837951834735
 20
259.0873024352284
 30
0.0
  0
VERTEX
  5
102
330
FD
100
AcDbEntity
  8
_U+30EC_U+30A4_U+30E4_U+30FC 1
 62
   250
420
  2234388
370
    18
100
AcDbVertex
100
AcDb2dVertex
 10
438.8387985014012
 20
259.0872671574502
 30
0.0
  0
VERTEX
  5
103
330
FD
100
AcDbEntity
  8
_U+30EC_U+30A4_U+30E4_U+30FC 1
 62
   250
420
  2234388
370
    18
100
AcDbVertex
100
AcDb2dVertex
 10
491.6976801548537
 20
259.0872671574502
 30
0.0
  0
VERTEX
  5
104
330
FD
100
AcDbEntity
  8
_U+30EC_U+30A4_U+30E4_U+30FC 1
 62
   250
420
  2234388
370
    18
100
AcDbVertex
100
AcDb2dVertex
 10
491.6976801548537
 20
241.4941688285154
 30
0.0
  0
VERTEX
  5
105
330
FD
100
AcDbEntity
  8
_U+30EC_U+30A4_U+30E4_U+30FC 1
 62
   250
420
  2234388
370
    18
100
AcDbVertex
100
AcDb2dVertex
 10
497.1976620979226
 20
241.4940629951822
 30
0.0
  0
VERTEX
  5
106
330
FD
100
AcDbEntity
  8
_U+30EC_U+30A4_U+30E4_U+30FC 1
 62
   250
420
  2234388
370
    18
100
AcDbVertex
100
AcDb2dVertex
 10
497.1976620979226
 20
182.7134888432105
 30
0.0
  0
VERTEX
  5
107
330
FD
100
AcDbEntity
  8
_U+30EC_U+30A4_U+30E4_U+30FC 1
 62
   250
420
  2234388
370
    18
100
AcDbVertex
100
AcDb2dVertex
 10
491.6976801548537
 20
182.7133124543216
 30
0.0
  0
VERTEX
  5
108
330
FD
100
AcDbEntity
  8
_U+30EC_U+30A4_U+30E4_U+30FC 1
 62
   250
420
  2234388
370
    18
100
AcDbVertex
100
AcDb2dVertex
 10
491.6976801548537
 20
112.0245833053269
 30
0.0
  0
VERTEX
  5
109
330
FD
100
AcDbEntity
  8
_U+30EC_U+30A4_U+30E4_U+30FC 1
 62
   250
420
  2234388
370
    18
100
AcDbVertex
100
AcDb2dVertex
 10
497.1976620979226
 20
112.0245833053269
 30
0.0
  0
VERTEX
  5
10A
330
FD
100
AcDbEntity
  8
_U+30EC_U+30A4_U+30E4_U+30FC 1
 62
   250
420
  2234388
370
    18
100
AcDbVertex
100
AcDb2dVertex
 10
497.1976620979226
 20
53.24400915335588
 30
0.0
  0
VERTEX
  5
10B
330
FD
100
AcDbEntity
  8
_U+30EC_U+30A4_U+30E4_U+30FC 1
 62
   250
420
  2234388
370
    18
100
AcDbVertex
100
AcDb2dVertex
 10
491.6976801548537
 20
53.24400915335588
 30
0.0
  0
VERTEX
  5
10C
330
FD
100
AcDbEntity
  8
_U+30EC_U+30A4_U+30E4_U+30FC 1
 62
   250
420
  2234388
370
    18
100
AcDbVertex
100
AcDb2dVertex
 10
491.6976801548537
 20
27.24008888207899
 30
0.0
  0
VERTEX
  5
10D
330
FD
100
AcDbEntity
  8
_U+30EC_U+30A4_U+30E4_U+30FC 1
 62
   250
420
  2234388
370
    18
100
AcDbVertex
100
AcDb2dVertex
 10
349.4476613015273
 20
259.0872671574502
 30
0.0
  0
VERTEX
  5
10E
330
FD
100
AcDbEntity
  8
_U+30EC_U+30A4_U+30E4_U+30FC 1
 62
   250
420
  2234388
370
    18
100
AcDbVertex
100
AcDb2dVertex
 10
380.0594237938741
 20
259.0872671574502
 30
0.0
  0
SEQEND
  5
10F
330
FD
100
AcDbEntity
  8
_U+30EC_U+30A4_U+30E4_U+30FC 1
 62
   250
420
  2234388
370
    18
  0
ENDSEC
  0
SECTION
  2
OBJECTS
  0
DICTIONARY
  5
C
330
0
100
AcDbDictionary
281
     1
  3
ACAD_GROUP
350
D
  3
ACAD_LAYOUT
350
1A
  3
ACAD_MATERIAL
350
3B
  3
ACAD_MLEADERSTYLE
350
111
  3
ACAD_MLINESTYLE
350
17
  3
ACAD_PLOTSETTINGS
350
19
  3
ACAD_PLOTSTYLENAME
350
E
  3
ACAD_TABLESTYLE
350
110
  3
ACAD_VISUALSTYLE
350
2A
  0
SUN
  5
3F
330
29
100
AcDbSun
 90
        1
290
     0
 63
     7
421
 16777215
 40
1.0
291
     1
 91
  2455826
 92
 54000000
292
     0
 70
     2
 71
   256
280
     1
  0
DICTIONARY
  5
D
102
{ACAD_REACTORS
330
C
102
}
330
C
100
AcDbDictionary
281
     1
  0
DICTIONARY
  5
1A
102
{ACAD_REACTORS
330
C
102
}
330
C
100
AcDbDictionary
281
     1
  3
Layout1
350
1E
  3
Layout2
350
26
  3
Model
350
22
  0
DICTIONARY
  5
3B
102
{ACAD_REACTORS
330
C
102
}
330
C
100
AcDbDictionary
281
     1
  3
ByBlock
350
3D
  3
ByLayer
350
3C
  3
Global
350
3E
  0
DICTIONARY
  5
111
102
{ACAD_REACTORS
330
C
102
}
330
C
100
AcDbDictionary
281
     1
  0
DICTIONARY
  5
17
102
{ACAD_REACTORS
330
C
102
}
330
C
100
AcDbDictionary
281
     1
  3
Standard
350
18
  0
DICTIONARY
  5
19
102
{ACAD_REACTORS
330
C
102
}
330
C
100
AcDbDictionary
281
     1
  0
ACDBDICTIONARYWDFLT
  5
E
102
{ACAD_REACTORS
330
C
102
}
330
C
100
AcDbDictionary
281
     1
  3
Normal
350
F
100
AcDbDictionaryWithDefault
340
F
  0
DICTIONARY
  5
110
102
{ACAD_REACTORS
330
C
102
}
330
C
100
AcDbDictionary
281
     1
  0
DICTIONARY
  5
2A
102
{ACAD_REACTORS
330
C
102
}
330
C
100
AcDbDictionary
281
     1
  3
2dWireframe
350
2F
  3
3D Hidden
350
31
  3
3dWireframe
350
30
  3
Basic
350
32
  3
Brighten
350
36
  3
ColorChange
350
3A
  3
Conceptual
350
34
  3
Dim
350
35
  3
Facepattern
350
39
  3
Flat
350
2B
  3
FlatWithEdges
350
2C
  3
Gouraud
350
2D
  3
GouraudWithEdges
350
2E
  3
Linepattern
350
38
  3
Realistic
350
33
  3
Thicken
350
37
  0
LAYOUT
  5
1E
102
{ACAD_REACTORS
330
1A
102
}
330
1A
100
AcDbPlotSettings
  1

  2
none_device
  4

  6

 40
0.0
 41
0.0
 42
0.0
 43
0.0
 44
0.0
 45
0.0
 46
0.0
 47
0.0
 48
0.0
 49
0.0
140
0.0
141
0.0
142
1.0
143
1.0
 70
   688
 72
     0
 73
     0
 74
     5
  7

 75
    16
 76
     0
 77
     2
 78
   300
147
1.0
148
0.0
149
0.0
100
AcDbLayout
  1
Layout1
 70
     1
 71
     1
 10
0.0
 20
0.0
 11
12.0
 21
9.0
 12
0.0
 22
0.0
 32
0.0
 14
1.000000000000000E+20
 24
1.000000000000000E+20
 34
1.000000000000000E+20
 15
-1.000000000000000E+20
 25
-1.000000000000000E+20
 35
-1.000000000000000E+20
146
0.0
 13
0.0
 23
0.0
 33
0.0
 16
1.0
 26
0.0
 36
0.0
 17
0.0
 27
1.0
 37
0.0
 76
     0
330
1B
  0
LAYOUT
  5
26
102
{ACAD_REACTORS
330
1A
102
}
330
1A
100
AcDbPlotSettings
  1

  2
none_device
  4

  6

 40
0.0
 41
0.0
 42
0.0
 43
0.0
 44
0.0
 45
0.0
 46
0.0
 47
0.0
 48
0.0
 49
0.0
140
0.0
141
0.0
142
1.0
143
1.0
 70
   688
 72
     0
 73
     0
 74
     5
  7

 75
    16
 76
     0
 77
     2
 78
   300
147
1.0
148
0.0
149
0.0
100
AcDbLayout
  1
Layout2
 70
     1
 71
     2
 10
0.0
 20
0.0
 11
0.0
 21
0.0
 12
0.0
 22
0.0
 32
0.0
 14
0.0
 24
0.0
 34
0.0
 15
0.0
 25
0.0
 35
0.0
146
0.0
 13
0.0
 23
0.0
 33
0.0
 16
1.0
 26
0.0
 36
0.0
 17
0.0
 27
1.0
 37
0.0
 76
     0
330
23
  0
LAYOUT
  5
22
102
{ACAD_REACTORS
330
1A
102
}
330
1A
100
AcDbPlotSettings
  1

  2
none_device
  4

  6

 40
0.0
 41
0.0
 42
0.0
 43
0.0
 44
0.0
 45
0.0
 46
0.0
 47
0.0
 48
0.0
 49
0.0
140
0.0
141
0.0
142
1.0
143
1.0
 70
  1712
 72
     0
 73
     0
 74
     0
  7

 75
     0
 76
     0
 77
     2
 78
   300
147
1.0
148
0.0
149
0.0
100
AcDbLayout
  1
Model
 70
     1
 71
     0
 10
0.0
 20
0.0
 11
12.0
 21
9.0
 12
0.0
 22
0.0
 32
0.0
 14
1.000000000000000E+20
 24
1.000000000000000E+20
 34
1.000000000000000E+20
 15
-1.000000000000000E+20
 25
-1.000000000000000E+20
 35
-1.000000000000000E+20
146
0.0
 13
0.0
 23
0.0
 33
0.0
 16
1.0
 26
0.0
 36
0.0
 17
0.0
 27
1.0
 37
0.0
 76
     0
330
1F
331
29
  0
MATERIAL
  5
3D
102
{ACAD_REACTORS
330
3B
102
}
330
3B
100
AcDbMaterial
  1
ByBlock
 72
     1
 94
      127
  0
MATERIAL
  5
3C
102
{ACAD_REACTORS
330
3B
102
}
330
3B
100
AcDbMaterial
  1
ByLayer
 72
     1
 94
      127
  0
MATERIAL
  5
3E
102
{ACAD_REACTORS
330
3B
102
}
330
3B
100
AcDbMaterial
  1
Global
 72
     1
 94
      127
  0
MLINESTYLE
  5
18
102
{ACAD_REACTORS
330
17
102
}
330
17
100
AcDbMlineStyle
  2
Standard
 70
     0
  3

 62
   256
 51
90.0
 52
90.0
 71
     2
 49
0.5
 62
   256
  6
BYLAYER
 49
-0.5
 62
   256
  6
BYLAYER
  0
ACDBPLACEHOLDER
  5
F
102
{ACAD_REACTORS
330
E
102
}
330
E
  0
VISUALSTYLE
  5
2F
102
{ACAD_REACTORS
330
2A
102
}
330
2A
100
AcDbVisualStyle
  2
2dWireframe
 70
     4
177
     2
291
     0
 71
     0
176
     1
 72
     2
176
     1
 73
     0
176
     1
 90
        0
176
     1
 40
-0.6
176
     1
 41
-30.0
176
     1
 62
     5
 63
     7
421
 16777215
176
     1
 74
     1
176
     1
 91
        4
176
     1
 64
     7
176
     1
 65
   257
176
     1
 75
     1
176
     1
175
     1
176
     1
 42
1.0
176
     1
 92
        0
176
     1
 66
   257
176
     1
 43
1.0
176
     1
 76
     1
176
     1
 77
     6
176
     1
 78
     2
176
     1
 67
     7
176
     1
 79
     5
176
     1
170
     0
176
     1
171
     0
176
     1
290
     0
176
     1
 93
        1
176
     1
 44
0.0
176
     1
173
     0
176
     1
  0
VISUALSTYLE
  5
31
102
{ACAD_REACTORS
330
2A
102
}
330
2A
100
AcDbVisualStyle
  2
3D Hidden
 70
     6
177
     2
291
     0
 71
     1
176
     1
 72
     2
176
     1
 73
     2
176
     1
 90
        0
176
     1
 40
-0.6
176
     1
 41
-30.0
176
     1
 62
     5
 63
     7
421
 16777215
176
     1
 74
     2
176
     1
 91
        2
176
     1
 64
     7
176
     1
 65
   257
176
     1
 75
     2
176
     1
175
     1
176
     1
 42
40.0
176
     1
 92
        0
176
     1
 66
   257
176
     1
 43
1.0
176
     1
 76
     1
176
     1
 77
     6
176
     1
 78
     2
176
     1
 67
     7
176
     1
 79
     3
176
     1
170
     0
176
     1
171
     0
176
     1
290
     0
176
     1
 93
        1
176
     1
 44
0.0
176
     1
173
     0
176
     1
  0
VISUALSTYLE
  5
30
102
{ACAD_REACTORS
330
2A
102
}
330
2A
100
AcDbVisualStyle
  2
3dWireframe
 70
     5
177
     2
291
     0
 71
     0
176
     1
 72
     2
176
     1
 73
     0
176
     1
 90
        0
176
     1
 40
-0.6
176
     1
 41
-30.0
176
     1
 62
     5
 63
     7
421
 16777215
176
     1
 74
     1
176
     1
 91
        4
176
     1
 64
     7
176
     1
 65
   257
176
     1
 75
     1
176
     1
175
     1
176
     1
 42
1.0
176
     1
 92
        0
176
     1
 66
   257
176
     1
 43
1.0
176
     1
 76
     1
176
     1
 77
     6
176
     1
 78
     2
176
     1
 67
     7
176
     1
 79
     5
176
     1
170
     0
176
     1
171
     0
176
     1
290
     0
176
     1
 93
        1
176
     1
 44
0.0
176
     1
173
     0
176
     1
  0
VISUALSTYLE
  5
32
102
{ACAD_REACTORS
330
2A
102
}
330
2A
100
AcDbVisualStyle
  2
Basic
 70
     7
177
     2
291
     1
 71
     1
176
     1
 72
     0
176
     1
 73
     1
176
     1
 90
        0
176
     1
 40
-0.6
176
     1
 41
-30.0
176
     1
 62
     5
 63
     7
421
 16777215
176
     1
 74
     0
176
     1
 91
        4
176
     1
 64
     7
176
     1
 65
   257
176
     1
 75
     1
176
     1
175
     1
176
     1
 42
1.0
176
     1
 92
        8
176
     1
 66
     7
176
     1
 43
1.0
176
     1
 76
     1
176
     1
 77
     6
176
     1
 78
     2
176
     1
 67
     7
176
     1
 79
     5
176
     1
170
     0
176
     1
171
     0
176
     1
290
     0
176
     1
 93
        1
176
     1
 44
0.0
176
     1
173
     0
176
     1
  0
VISUALSTYLE
  5
36
102
{ACAD_REACTORS
330
2A
102
}
330
2A
100
AcDbVisualStyle
  2
Brighten
 70
    12
177
     2
291
     1
 71
     2
176
     1
 72
     2
176
     1
 73
     0
176
     1
 90
        0
176
     1
 40
-0.6
176
     1
 41
-30.0
176
     1
 62
     5
 63
     7
421
 16777215
176
     1
 74
     1
176
     1
 91
        4
176
     1
 64
     7
176
     1
 65
   257
176
     1
 75
     1
176
     1
175
     1
176
     1
 42
1.0
176
     1
 92
        8
176
     1
 66
     7
176
     1
 43
1.0
176
     1
 76
     1
176
     1
 77
     6
176
     1
 78
     2
176
     1
 67
     7
176
     1
 79
     5
176
     1
170
     0
176
     1
171
     0
176
     1
290
     0
176
     1
 93
        1
176
     1
 44
50.0
176
     1
173
     0
176
     1
  0
VISUALSTYLE
  5
3A
102
{ACAD_REACTORS
330
2A
102
}
330
2A
100
AcDbVisualStyle
  2
ColorChange
 70
    16
177
     2
291
     1
 71
     2
176
     1
 72
     2
176
     1
 73
     3
176
     1
 90
        0
176
     1
 40
-0.6
176
     1
 41
-30.0
176
     1
 62
     5
 63
     8
421
  8421504
176
     1
 74
     1
176
     1
 91
        4
176
     1
 64
     7
176
     1
 65
   257
176
     1
 75
     1
176
     1
175
     1
176
     1
 42
1.0
176
     1
 92
        8
176
     1
 66
     8
424
  8421504
176
     1
 43
1.0
176
     1
 76
     1
176
     1
 77
     6
176
     1
 78
     2
176
     1
 67
     7
176
     1
 79
     5
176
     1
170
     0
176
     1
171
     0
176
     1
290
     0
176
     1
 93
        1
176
     1
 44
0.0
176
     1
173
     0
176
     1
  0
VISUALSTYLE
  5
34
102
{ACAD_REACTORS
330
2A
102
}
330
2A
100
AcDbVisualStyle
  2
Conceptual
 70
     9
177
     2
291
     0
 71
     3
176
     1
 72
     2
176
     1
 73
     0
176
     1
 90
        0
176
     1
 40
-0.6
176
     1
 41
-30.0
176
     1
 62
     5
 63
     7
421
 16777215
176
     1
 74
     2
176
     1
 91
        2
176
     1
 64
     7
176
     1
 65
   257
176
     1
 75
     1
176
     1
175
     1
176
     1
 42
40.0
176
     1
 92
        8
176
     1
 66
     7
176
     1
 43
1.0
176
     1
 76
     1
176
     1
 77
     6
176
     1
 78
     2
176
     1
 67
     7
176
     1
 79
     3
176
     1
170
     0
176
     1
171
     0
176
     1
290
     0
176
     1
 93
        1
176
     1
 44
0.0
176
     1
173
     0
176
     1
  0
VISUALSTYLE
  5
35
102
{ACAD_REACTORS
330
2A
102
}
330
2A
100
AcDbVisualStyle
  2
Dim
 70
    11
177
     2
291
     1
 71
     2
176
     1
 72
     2
176
     1
 73
     0
176
     1
 90
        0
176
     1
 40
-0.6
176
     1
 41
-30.0
176
     1
 62
     5
 63
     7
421
 16777215
176
     1
 74
     1
176
     1
 91
        4
176
     1
 64
     7
176
     1
 65
   257
176
     1
 75
     1
176
     1
175
     1
176
     1
 42
1.0
176
     1
 92
        8
176
     1
 66
     7
176
     1
 43
1.0
176
     1
 76
     1
176
     1
 77
     6
176
     1
 78
     2
176
     1
 67
     7
176
     1
 79
     5
176
     1
170
     0
176
     1
171
     0
176
     1
290
     0
176
     1
 93
        1
176
     1
 44
-50.0
176
     1
173
     0
176
     1
  0
VISUALSTYLE
  5
39
102
{ACAD_REACTORS
330
2A
102
}
330
2A
100
AcDbVisualStyle
  2
Facepattern
 70
    15
177
     2
291
     1
 71
     2
176
     1
 72
     2
176
     1
 73
     0
176
     1
 90
        0
176
     1
 40
-0.6
176
     1
 41
-30.0
176
     1
 62
     5
 63
     7
421
 16777215
176
     1
 74
     1
176
     1
 91
        4
176
     1
 64
     7
176
     1
 65
   257
176
     1
 75
     1
176
     1
175
     1
176
     1
 42
1.0
176
     1
 92
        8
176
     1
 66
     7
176
     1
 43
1.0
176
     1
 76
     1
176
     1
 77
     6
176
     1
 78
     2
176
     1
 67
     7
176
     1
 79
     5
176
     1
170
     0
176
     1
171
     0
176
     1
290
     0
176
     1
 93
        1
176
     1
 44
0.0
176
     1
173
     0
176
     1
  0
VISUALSTYLE
  5
2B
102
{ACAD_REACTORS
330
2A
102
}
330
2A
100
AcDbVisualStyle
  2
Flat
 70
     0
177
     2
291
     1
 71
     2
176
     1
 72
     1
176
     1
 73
     1
176
     1
 90
        2
176
     1
 40
-0.6
176
     1
 41
30.0
176
     1
 62
     5
 63
     7
421
 16777215
176
     1
 74
     0
176
     1
 91
        4
176
     1
 64
     7
176
     1
 65
   257
176
     1
 75
     1
176
     1
175
     1
176
     1
 42
1.0
176
     1
 92
        8
176
     1
 66
     7
176
     1
 43
1.0
176
     1
 76
     1
176
     1
 77
     6
176
     1
 78
     2
176
     1
 67
     7
176
     1
 79
     5
176
     1
170
     0
176
     1
171
     0
176
     1
290
     0
176
     1
 93
       13
176
     1
 44
0.0
176
     1
173
     0
176
     1
  0
VISUALSTYLE
  5
2C
102
{ACAD_REACTORS
330
2A
102
}
330
2A
100
AcDbVisualStyle
  2
FlatWithEdges
 70
     1
177
     2
291
     1
 71
     2
176
     1
 72
     1
176
     1
 73
     1
176
     1
 90
        2
176
     1
 40
-0.6
176
     1
 41
30.0
176
     1
 62
     5
 63
     7
421
 16777215
176
     1
 74
     1
176
     1
 91
        4
176
     1
 64
     7
176
     1
 65
   257
176
     1
 75
     1
176
     1
175
     1
176
     1
 42
1.0
176
     1
 92
        0
176
     1
 66
   257
176
     1
 43
1.0
176
     1
 76
     1
176
     1
 77
     6
176
     1
 78
     2
176
     1
 67
     7
176
     1
 79
     5
176
     1
170
     0
176
     1
171
     0
176
     1
290
     0
176
     1
 93
       13
176
     1
 44
0.0
176
     1
173
     0
176
     1
  0
VISUALSTYLE
  5
2D
102
{ACAD_REACTORS
330
2A
102
}
330
2A
100
AcDbVisualStyle
  2
Gouraud
 70
     2
177
     2
291
     1
 71
     2
176
     1
 72
     2
176
     1
 73
     1
176
     1
 90
        2
176
     1
 40
-0.6
176
     1
 41
30.0
176
     1
 62
     5
 63
     7
421
 16777215
176
     1
 74
     0
176
     1
 91
        4
176
     1
 64
     7
176
     1
 65
   257
176
     1
 75
     1
176
     1
175
     1
176
     1
 42
1.0
176
     1
 92
        0
176
     1
 66
     7
176
     1
 43
1.0
176
     1
 76
     1
176
     1
 77
     6
176
     1
 78
     2
176
     1
 67
     7
176
     1
 79
     5
176
     1
170
     0
176
     1
171
     0
176
     1
290
     0
176
     1
 93
       13
176
     1
 44
0.0
176
     1
173
     0
176
     1
  0
VISUALSTYLE
  5
2E
102
{ACAD_REACTORS
330
2A
102
}
330
2A
100
AcDbVisualStyle
  2
GouraudWithEdges
 70
     3
177
     2
291
     1
 71
     2
176
     1
 72
     2
176
     1
 73
     1
176
     1
 90
        2
176
     1
 40
-0.6
176
     1
 41
30.0
176
     1
 62
     5
 63
     7
421
 16777215
176
     1
 74
     1
176
     1
 91
        4
176
     1
 64
     7
176
     1
 65
   257
176
     1
 75
     1
176
     1
175
     1
176
     1
 42
1.0
176
     1
 92
        0
176
     1
 66
   257
176
     1
 43
1.0
176
     1
 76
     1
176
     1
 77
     6
176
     1
 78
     2
176
     1
 67
     7
176
     1
 79
     5
176
     1
170
     0
176
     1
171
     0
176
     1
290
     0
176
     1
 93
       13
176
     1
 44
0.0
176
     1
173
     0
176
     1
  0
VISUALSTYLE
  5
38
102
{ACAD_REACTORS
330
2A
102
}
330
2A
100
AcDbVisualStyle
  2
Linepattern
 70
    14
177
     2
291
     1
 71
     2
176
     1
 72
     2
176
     1
 73
     0
176
     1
 90
        0
176
     1
 40
-0.6
176
     1
 41
-30.0
176
     1
 62
     5
 63
     7
421
 16777215
176
     1
 74
     1
176
     1
 91
        4
176
     1
 64
     7
176
     1
 65
   257
176
     1
 75
     7
176
     1
175
     7
176
     1
 42
1.0
176
     1
 92
        8
176
     1
 66
     7
176
     1
 43
1.0
176
     1
 76
     1
176
     1
 77
     6
176
     1
 78
     2
176
     1
 67
     7
176
     1
 79
     5
176
     1
170
     0
176
     1
171
     0
176
     1
290
     0
176
     1
 93
        1
176
     1
 44
0.0
176
     1
173
     0
176
     1
  0
VISUALSTYLE
  5
33
102
{ACAD_REACTORS
330
2A
102
}
330
2A
100
AcDbVisualStyle
  2
Realistic
 70
     8
177
     2
291
     0
 71
     2
176
     1
 72
     2
176
     1
 73
     0
176
     1
 90
        0
176
     1
 40
-0.6
176
     1
 41
-30.0
176
     1
 62
     5
 63
     7
421
 16777215
176
     1
 74
     1
176
     1
 91
        0
176
     1
 64
     7
176
     1
 65
   257
176
     1
 75
     1
176
     1
175
     1
176
     1
 42
1.0
176
     1
 92
        8
176
     1
 66
     8
424
  7895160
176
     1
 43
1.0
176
     1
 76
     1
176
     1
 77
     6
176
     1
 78
     2
176
     1
 67
     7
176
     1
 79
     5
176
     1
170
     0
176
     1
171
     0
176
     1
290
     0
176
     1
 93
       13
176
     1
 44
0.0
176
     1
173
     0
176
     1
  0
VISUALSTYLE
  5
37
102
{ACAD_REACTORS
330
2A
102
}
330
2A
100
AcDbVisualStyle
  2
Thicken
 70
    13
177
     2
291
     1
 71
     2
176
     1
 72
     2
176
     1
 73
     0
176
     1
 90
        0
176
     1
 40
-0.6
176
     1
 41
-30.0
176
     1
 62
     5
 63
     7
421
 16777215
176
     1
 74
     1
176
     1
 91
        4
176
     1
 64
     7
176
     1
 65
   257
176
     1
 75
     1
176
     1
175
     1
176
     1
 42
1.0
176
     1
 92
       12
176
     1
 66
     7
176
     1
 43
1.0
176
     1
 76
     1
176
     1
 77
     6
176
     1
 78
     2
176
     1
 67
     7
176
     1
 79
     5
176
     1
170
     0
176
     1
171
     0
176
     1
290
     0
176
     1
 93
        1
176
     1
 44
0.0
176
     1
173
     0
176
     1
  0
ENDSEC
  0
EOF
