# WaveFront *.obj file (generated by Autodesk ATF)

mtllib d426349c-ef55-4961-aa38-2ed5f97e32fd.mtl

g bottom_tube

v 8.077286 0.000000 -123.235577
v 9.352647 0.000000 -142.693826
v 9.352647 11.000000 -142.693826
v 8.306197 11.000000 -126.728083
v 8.306197 5.500000 -126.728083
v 8.077286 5.500000 -123.235577
v 0.000000 0.000000 -143.000000
v 0.000000 0.000000 -123.500000
v 0.000000 5.500000 -123.500000
v 0.000000 5.500000 -127.000000
v 0.000000 11.000000 -127.000000
v 0.000000 11.000000 -143.000000
v 2.694138 0.000000 -123.470610
v 5.386994 0.000000 -123.382455
v 5.386994 5.500000 -123.382455
v 2.694138 5.500000 -123.470610
v 3.119529 0.000000 -142.965970
v 6.237572 0.000000 -142.863896
v 6.237572 11.000000 -142.863896
v 3.119529 11.000000 -142.965970
v 2.770490 11.000000 -126.969777
v 5.539662 11.000000 -126.879124
v 5.539662 5.500000 -126.879124
v 2.770490 5.500000 -126.969777
vt 1.950000 4.550000 0.000000
vt 1.950000 5.100000 0.000000
vt 1.600000 4.550000 0.000000
vt 0.000000 5.100000 0.000000
vt 0.000000 4.000000 0.000000
vt 1.600000 4.000000 0.000000
vt 1.950000 4.000000 0.000000
vt 1.950000 5.100000 0.000000
vt 0.350000 4.550000 0.000000
vt -0.000000 5.100000 0.000000
vt -0.000000 4.550000 0.000000
vt 0.350000 4.000000 0.000000
vt 5.100000 -1.548923 0.000000
vt 5.100000 -1.279488 0.000000
vt 4.550000 -1.548923 0.000000
vt 4.550000 -1.279488 0.000000
vt 4.550000 -1.010053 0.000000
vt 5.100000 -1.010053 0.000000
vt 5.100000 -0.740618 0.000000
vt 4.550000 -0.740618 0.000000
vt -2.789792 13.911554 0.000000
vt -2.409365 11.999023 0.000000
vt -2.483169 13.969076 0.000000
vt -2.175364 14.019894 0.000000
vt -2.144555 12.048701 0.000000
vt -1.878724 12.092590 0.000000
vt -1.611998 12.130669 0.000000
vt -1.866525 14.063986 0.000000
vt 2.789792 13.911554 0.000000
vt 2.483169 13.969076 0.000000
vt 2.477647 12.342298 0.000000
vt 2.205332 12.393383 0.000000
vt 2.175364 14.019894 0.000000
vt 1.931967 12.438516 0.000000
vt 1.866525 14.063986 0.000000
vt 1.657683 12.477675 0.000000
vt 2.477647 12.455973 0.000000
vt 2.205332 12.507058 0.000000
vt 2.409365 12.112698 0.000000
vt 2.144555 12.162376 0.000000
vt 1.931967 12.552191 0.000000
vt 1.878724 12.206265 0.000000
vt 1.657683 12.591350 0.000000
vt 1.611998 12.244344 0.000000
vt -0.000000 10.398123 0.000000
vt -0.000000 10.710101 0.000000
vt -1.100000 10.398123 0.000000
vt -1.100000 10.710101 0.000000
vt -1.100000 11.022079 0.000000
vt -0.000000 11.022079 0.000000
vt -0.000000 11.334056 0.000000
vt -1.100000 11.334056 0.000000
vt 0.550000 17.455474 0.000000
vt 1.100000 17.455474 0.000000
vt 0.550000 17.732545 0.000000
vt 1.100000 17.732545 0.000000
vt 1.100000 18.009616 0.000000
vt 1.100000 18.286687 0.000000
vt 0.550000 18.286687 0.000000
vt 0.550000 18.009616 0.000000
vn 0.099786 0.000000 0.006540
vn 0.099786 0.000000 0.006540
vn 0.099786 0.000000 0.006540
vn 0.099786 0.000000 0.006540
vn 0.099786 0.000000 0.006540
vn 0.099786 0.000000 0.006540
vn -0.100000 0.000000 -0.000000
vn -0.100000 0.000000 -0.000000
vn -0.100000 0.000000 -0.000000
vn -0.100000 0.000000 -0.000000
vn -0.100000 0.000000 -0.000000
vn -0.100000 0.000000 -0.000000
vn -0.000000 0.000000 0.100000
vn -0.002181 0.000000 0.099976
vn -0.000000 0.000000 0.100000
vn -0.002181 0.000000 0.099976
vn -0.004362 0.000000 0.099905
vn -0.004362 0.000000 0.099905
vn -0.006540 0.000000 0.099786
vn -0.006540 0.000000 0.099786
vn 0.000000 -0.100000 0.000000
vn 0.000000 -0.100000 0.000000
vn 0.000000 -0.100000 0.000000
vn 0.000000 -0.100000 0.000000
vn 0.000000 -0.100000 0.000000
vn 0.000000 -0.100000 0.000000
vn 0.000000 -0.100000 0.000000
vn 0.000000 -0.100000 0.000000
vn 0.000000 0.100000 0.000000
vn 0.000000 0.100000 0.000000
vn 0.000000 0.100000 0.000000
vn 0.000000 0.100000 0.000000
vn 0.000000 0.100000 0.000000
vn 0.000000 0.100000 0.000000
vn 0.000000 0.100000 0.000000
vn 0.000000 0.100000 0.000000
vn 0.000000 0.100000 0.000000
vn 0.000000 0.100000 0.000000
vn 0.000000 0.100000 0.000000
vn 0.000000 0.100000 0.000000
vn 0.000000 0.100000 0.000000
vn 0.000000 0.100000 0.000000
vn 0.000000 0.100000 0.000000
vn 0.000000 0.100000 0.000000
vn 0.006540 0.000000 -0.099786
vn 0.004362 0.000000 -0.099905
vn 0.006540 0.000000 -0.099786
vn 0.004362 0.000000 -0.099905
vn 0.002181 0.000000 -0.099976
vn 0.002181 0.000000 -0.099976
vn -0.000000 0.000000 -0.100000
vn -0.000000 0.000000 -0.100000
vn -0.006540 0.000000 0.099786
vn -0.006540 0.000000 0.099786
vn -0.004362 0.000000 0.099905
vn -0.004362 0.000000 0.099905
vn -0.002181 0.000000 0.099976
vn -0.000000 0.000000 0.100000
vn -0.000000 0.000000 0.100000
vn -0.002181 0.000000 0.099976
usemtl プラスチック_-_マット(黒)
f 6/1/1 1/2/2 5/3/3
f 5/3/3 1/2/2 2/4/4
f 5/3/3 2/4/4 3/5/5
f 3/5/5 4/6/6 5/3/3
f 12/7/7 7/8/8 10/9/9
f 10/9/9 7/8/8 8/10/10
f 10/9/9 8/10/10 9/11/11
f 10/9/9 11/12/12 12/7/7
f 8/13/13 13/14/14 9/15/15
f 9/15/15 13/14/14 16/16/16
f 16/16/16 13/14/14 15/17/17
f 15/17/17 13/14/14 14/18/18
f 15/17/17 14/18/18 1/19/19
f 1/19/19 6/20/20 15/17/17
f 2/21/21 1/22/22 18/23/23
f 18/23/23 1/22/22 17/24/24
f 17/24/24 1/22/22 14/25/25
f 17/24/24 14/25/25 13/26/26
f 8/27/27 7/28/28 13/26/26
f 13/26/26 7/28/28 17/24/24
f 3/29/29 19/30/30 4/31/31
f 4/31/31 19/30/30 22/32/32
f 22/32/32 19/30/30 20/33/33
f 22/32/32 20/33/33 21/34/34
f 21/34/34 20/33/33 12/35/35
f 21/34/34 12/35/35 11/36/36
f 5/37/37 23/38/38 6/39/39
f 6/39/39 23/38/38 15/40/40
f 15/40/40 23/38/38 24/41/41
f 15/40/40 24/41/41 16/42/42
f 16/42/42 24/41/41 10/43/43
f 16/42/42 10/43/43 9/44/44
f 2/45/45 18/46/46 3/47/47
f 3/47/47 18/46/46 19/48/48
f 19/48/48 18/46/46 20/49/49
f 20/49/49 18/46/46 17/50/50
f 20/49/49 17/50/50 7/51/51
f 7/51/51 12/52/52 20/49/49
f 5/53/53 4/54/54 23/55/55
f 23/55/55 4/54/54 22/56/56
f 23/55/55 22/56/56 21/57/57
f 11/58/58 10/59/59 21/57/57
f 21/57/57 10/59/59 24/60/60
f 21/57/57 24/60/60 23/55/55

# 24 vertices
# 60 texture params
# 60 normals
# 44 facets

# 1 groups
