  0
SECTION
  2
HEADER
  9
$ACADVER
  1
AC1024
  9
$ACADMAINTVER
 70
     6
  9
$DWGCODEPAGE
  3
ANSI_932
  9
$INSBASE
 10
0.0
 20
0.0
 30
0.0
  9
$EXTMIN
 10
1.000000000000000E+20
 20
1.000000000000000E+20
 30
1.000000000000000E+20
  9
$EXTMAX
 10
-1.000000000000000E+20
 20
-1.000000000000000E+20
 30
-1.000000000000000E+20
  9
$LIMMIN
 10
0.0
 20
0.0
  9
$LIMMAX
 10
12.0
 20
9.0
  9
$ORTHOMODE
 70
     0
  9
$REGENMODE
 70
     1
  9
$FILLMODE
 70
     1
  9
$QTEXTMODE
 70
     0
  9
$MIRRTEXT
 70
     1
  9
$LTSCALE
 40
1.0
  9
$ATTMODE
 70
     1
  9
$TEXTSIZE
 40
0.2
  9
$TRACEWID
 40
0.05
  9
$TEXTSTYLE
  7
Standard
  9
$CLAYER
  8
0
  9
$CELTYPE
  6
ByLayer
  9
$CECOLOR
 62
   256
  9
$CELTSCALE
 40
1.0
  9
$DISPSILH
 70
     0
  9
$DIMSCALE
 40
1.0
  9
$DIMASZ
 40
0.18
  9
$DIMEXO
 40
0.0625
  9
$DIMDLI
 40
0.38
  9
$DIMRND
 40
0.0
  9
$DIMDLE
 40
0.0
  9
$DIMEXE
 40
0.18
  9
$DIMTP
 40
0.0
  9
$DIMTM
 40
0.0
  9
$DIMTXT
 40
0.18
  9
$DIMCEN
 40
0.09
  9
$DIMTSZ
 40
0.0
  9
$DIMTOL
 70
     0
  9
$DIMLIM
 70
     0
  9
$DIMTIH
 70
     1
  9
$DIMTOH
 70
     1
  9
$DIMSE1
 70
     0
  9
$DIMSE2
 70
     0
  9
$DIMTAD
 70
     0
  9
$DIMZIN
 70
     0
  9
$DIMBLK
  1

  9
$DIMASO
 70
     1
  9
$DIMSHO
 70
     1
  9
$DIMPOST
  1

  9
$DIMAPOST
  1

  9
$DIMALT
 70
     0
  9
$DIMALTD
 70
     2
  9
$DIMALTF
 40
25.4
  9
$DIMLFAC
 40
1.0
  9
$DIMTOFL
 70
     0
  9
$DIMTVP
 40
0.0
  9
$DIMTIX
 70
     0
  9
$DIMSOXD
 70
     0
  9
$DIMSAH
 70
     0
  9
$DIMBLK1
  1

  9
$DIMBLK2
  1

  9
$DIMSTYLE
  2
Standard
  9
$DIMCLRD
 70
     0
  9
$DIMCLRE
 70
     0
  9
$DIMCLRT
 70
     0
  9
$DIMTFAC
 40
1.0
  9
$DIMGAP
 40
0.09
  9
$DIMJUST
 70
     0
  9
$DIMSD1
 70
     0
  9
$DIMSD2
 70
     0
  9
$DIMTOLJ
 70
     1
  9
$DIMTZIN
 70
     0
  9
$DIMALTZ
 70
     0
  9
$DIMALTTZ
 70
     0
  9
$DIMUPT
 70
     0
  9
$DIMDEC
 70
     4
  9
$DIMTDEC
 70
     4
  9
$DIMALTU
 70
     2
  9
$DIMALTTD
 70
     2
  9
$DIMTXSTY
  7
Standard
  9
$DIMAUNIT
 70
     0
  9
$DIMADEC
 70
     0
  9
$DIMALTRND
 40
0.0
  9
$DIMAZIN
 70
     0
  9
$DIMDSEP
 70
    46
  9
$DIMATFIT
 70
     3
  9
$DIMFRAC
 70
     0
  9
$DIMLDRBLK
  1

  9
$DIMLUNIT
 70
     2
  9
$DIMLWD
 70
    -2
  9
$DIMLWE
 70
    -2
  9
$DIMTMOVE
 70
     0
  9
$DIMFXL
 40
1.0
  9
$DIMFXLON
 70
     0
  9
$DIMJOGANG
 40
0.7853981633974483
  9
$DIMTFILL
 70
     0
  9
$DIMTFILLCLR
 70
     0
  9
$DIMARCSYM
 70
     0
  9
$DIMLTYPE
  6

  9
$DIMLTEX1
  6

  9
$DIMLTEX2
  6

  9
$DIMTXTDIRECTION
 70
     0
  9
$LUNITS
 70
     2
  9
$LUPREC
 70
     4
  9
$SKETCHINC
 40
0.1
  9
$FILLETRAD
 40
0.5
  9
$AUNITS
 70
     0
  9
$AUPREC
 70
     0
  9
$MENU
  1
.
  9
$ELEVATION
 40
0.0
  9
$PELEVATION
 40
0.0
  9
$THICKNESS
 40
0.0
  9
$LIMCHECK
 70
     0
  9
$CHAMFERA
 40
0.5
  9
$CHAMFERB
 40
0.5
  9
$CHAMFERC
 40
1.0
  9
$CHAMFERD
 40
0.0
  9
$SKPOLY
 70
     0
  9
$TDCREATE
 40
2457911.687181088
  9
$TDUCREATE
 40
2457911.312181088
  9
$TDUPDATE
 40
2457911.687181227
  9
$TDUUPDATE
 40
2457911.312181227
  9
$TDINDWG
 40
0.0000000116
  9
$TDUSRTIMER
 40
0.0000000116
  9
$USRTIMER
 70
     1
  9
$ANGBASE
 50
0.0
  9
$ANGDIR
 70
     0
  9
$PDMODE
 70
     0
  9
$PDSIZE
 40
0.0
  9
$PLINEWID
 40
0.0
  9
$SPLFRAME
 70
     0
  9
$SPLINETYPE
 70
     6
  9
$SPLINESEGS
 70
     8
  9
$HANDSEED
  5
ED
  9
$SURFTAB1
 70
     6
  9
$SURFTAB2
 70
     6
  9
$SURFTYPE
 70
     6
  9
$SURFU
 70
     6
  9
$SURFV
 70
     6
  9
$UCSBASE
  2

  9
$UCSNAME
  2

  9
$UCSORG
 10
0.0
 20
0.0
 30
0.0
  9
$UCSXDIR
 10
1.0
 20
0.0
 30
0.0
  9
$UCSYDIR
 10
0.0
 20
1.0
 30
0.0
  9
$UCSORTHOREF
  2

  9
$UCSORTHOVIEW
 70
     0
  9
$UCSORGTOP
 10
0.0
 20
0.0
 30
0.0
  9
$UCSORGBOTTOM
 10
0.0
 20
0.0
 30
0.0
  9
$UCSORGLEFT
 10
0.0
 20
0.0
 30
0.0
  9
$UCSORGRIGHT
 10
0.0
 20
0.0
 30
0.0
  9
$UCSORGFRONT
 10
0.0
 20
0.0
 30
0.0
  9
$UCSORGBACK
 10
0.0
 20
0.0
 30
0.0
  9
$PUCSBASE
  2

  9
$PUCSNAME
  2

  9
$PUCSORG
 10
0.0
 20
0.0
 30
0.0
  9
$PUCSXDIR
 10
1.0
 20
0.0
 30
0.0
  9
$PUCSYDIR
 10
0.0
 20
1.0
 30
0.0
  9
$PUCSORTHOREF
  2

  9
$PUCSORTHOVIEW
 70
     0
  9
$PUCSORGTOP
 10
0.0
 20
0.0
 30
0.0
  9
$PUCSORGBOTTOM
 10
0.0
 20
0.0
 30
0.0
  9
$PUCSORGLEFT
 10
0.0
 20
0.0
 30
0.0
  9
$PUCSORGRIGHT
 10
0.0
 20
0.0
 30
0.0
  9
$PUCSORGFRONT
 10
0.0
 20
0.0
 30
0.0
  9
$PUCSORGBACK
 10
0.0
 20
0.0
 30
0.0
  9
$USERI1
 70
     0
  9
$USERI2
 70
     0
  9
$USERI3
 70
     0
  9
$USERI4
 70
     0
  9
$USERI5
 70
     0
  9
$USERR1
 40
0.0
  9
$USERR2
 40
0.0
  9
$USERR3
 40
0.0
  9
$USERR4
 40
0.0
  9
$USERR5
 40
0.0
  9
$WORLDVIEW
 70
     1
  9
$SHADEDGE
 70
     3
  9
$SHADEDIF
 70
    70
  9
$TILEMODE
 70
     1
  9
$MAXACTVP
 70
    64
  9
$PINSBASE
 10
0.0
 20
0.0
 30
0.0
  9
$PLIMCHECK
 70
     0
  9
$PEXTMIN
 10
1.000000000000000E+20
 20
1.000000000000000E+20
 30
1.000000000000000E+20
  9
$PEXTMAX
 10
-1.000000000000000E+20
 20
-1.000000000000000E+20
 30
-1.000000000000000E+20
  9
$PLIMMIN
 10
0.0
 20
0.0
  9
$PLIMMAX
 10
12.0
 20
9.0
  9
$UNITMODE
 70
     0
  9
$VISRETAIN
 70
     1
  9
$PLINEGEN
 70
     0
  9
$PSLTSCALE
 70
     1
  9
$TREEDEPTH
 70
  3020
  9
$CMLSTYLE
  2
Standard
  9
$CMLJUST
 70
     0
  9
$CMLSCALE
 40
1.0
  9
$PROXYGRAPHICS
 70
     1
  9
$MEASUREMENT
 70
     0
  9
$CELWEIGHT
370
    -1
  9
$ENDCAPS
280
     0
  9
$JOINSTYLE
280
     0
  9
$LWDISPLAY
290
     1
  9
$INSUNITS
 70
     1
  9
$HYPERLINKBASE
  1

  9
$STYLESHEET
  1

  9
$XEDIT
290
     1
  9
$CEPSNTYPE
380
     0
  9
$PSTYLEMODE
290
     1
  9
$FINGERPRINTGUID
  2
{D379CE79-C8A3-4852-B795-5AC6A2D87650}
  9
$VERSIONGUID
  2
{FAEB1C32-E019-11D5-929B-00C0DF256EC4}
  9
$EXTNAMES
290
     1
  9
$PSVPSCALE
 40
0.0
  9
$OLESTARTUP
290
     0
  9
$SORTENTS
280
   127
  9
$INDEXCTL
280
     0
  9
$HIDETEXT
280
     1
  9
$XCLIPFRAME
280
     2
  9
$HALOGAP
280
     0
  9
$OBSCOLOR
 70
   257
  9
$OBSLTYPE
280
     0
  9
$INTERSECTIONDISPLAY
280
     0
  9
$INTERSECTIONCOLOR
 70
   257
  9
$DIMASSOC
280
     2
  9
$PROJECTNAME
  1

  9
$CAMERADISPLAY
290
     0
  9
$LENSLENGTH
 40
50.0
  9
$CAMERAHEIGHT
 40
0.0
  9
$STEPSPERSEC
 40
2.0
  9
$STEPSIZE
 40
6.0
  9
$3DDWFPREC
 40
2.0
  9
$PSOLWIDTH
 40
0.25
  9
$PSOLHEIGHT
 40
4.0
  9
$LOFTANG1
 40
1.570796326794897
  9
$LOFTANG2
 40
1.570796326794897
  9
$LOFTMAG1
 40
0.0
  9
$LOFTMAG2
 40
0.0
  9
$LOFTPARAM
 70
     7
  9
$LOFTNORMALS
280
     1
  9
$LATITUDE
 40
37.795
  9
$LONGITUDE
 40
-122.394
  9
$NORTHDIRECTION
 40
0.0
  9
$TIMEZONE
 70
 -8000
  9
$LIGHTGLYPHDISPLAY
280
     1
  9
$TILEMODELIGHTSYNCH
280
     1
  9
$CMATERIAL
347
3C
  9
$SOLIDHIST
280
     1
  9
$SHOWHIST
280
     1
  9
$DWFFRAME
280
     2
  9
$DGNFRAME
280
     2
  9
$REALWORLDSCALE
290
     1
  9
$INTERFERECOLOR
 62
   256
  9
$CSHADOW
280
     0
  9
$SHADOWPLANELOCATION
 40
0.0
  0
ENDSEC
  0
SECTION
  2
CLASSES
  0
CLASS
  1
ACDBDICTIONARYWDFLT
  2
AcDbDictionaryWithDefault
  3
ObjectDBX Classes
 90
        0
 91
        4
280
     0
281
     0
  0
CLASS
  1
VISUALSTYLE
  2
AcDbVisualStyle
  3
ObjectDBX Classes
 90
     4095
 91
        4
280
     0
281
     0
  0
CLASS
  1
MATERIAL
  2
AcDbMaterial
  3
ObjectDBX Classes
 90
     1153
 91
        4
280
     0
281
     0
  0
CLASS
  1
SUN
  2
AcDbSun
  3
SCENEOE
 90
     1024
 91
        4
280
     0
281
     0
  0
ENDSEC
  0
SECTION
  2
TABLES
  0
TABLE
  2
VPORT
  5
8
330
0
100
AcDbSymbolTable
 70
     1
  0
VPORT
  5
29
330
8
100
AcDbSymbolTableRecord
100
AcDbViewportTableRecord
  2
*Active
 70
     0
 10
0.0
 20
0.0
 11
1.0
 21
1.0
 12
0.0
 22
0.0
 13
0.0
 23
0.0
 14
0.5
 24
0.5
 15
0.5
 25
0.5
 16
0.0
 26
0.0
 36
1.0
 17
201.4361110607521
 27
-145.6972221857979
 37
0.0
 40
704.8499998237876
 41
1.062062062062062
 42
50.0
 43
0.0
 44
0.0
 50
0.0
 51
0.0
 71
     0
 72
   100
 73
     1
 74
     3
 75
     0
 76
     0
 77
     0
 78
     0
281
     0
 65
     1
110
0.0
120
0.0
130
0.0
111
1.0
121
0.0
131
0.0
112
0.0
122
1.0
132
0.0
 79
     0
146
0.0
 60
     3
 61
     5
292
     1
282
     1
141
0.0
142
0.0
 63
   250
361
3F
  0
ENDTAB
  0
TABLE
  2
LTYPE
  5
5
330
0
100
AcDbSymbolTable
 70
     1
  0
LTYPE
  5
14
330
5
100
AcDbSymbolTableRecord
100
AcDbLinetypeTableRecord
  2
ByBlock
 70
     0
  3

 72
    65
 73
     0
 40
0.0
  0
LTYPE
  5
15
330
5
100
AcDbSymbolTableRecord
100
AcDbLinetypeTableRecord
  2
ByLayer
 70
     0
  3

 72
    65
 73
     0
 40
0.0
  0
LTYPE
  5
16
330
5
100
AcDbSymbolTableRecord
100
AcDbLinetypeTableRecord
  2
Continuous
 70
     0
  3
Solid line
 72
    65
 73
     0
 40
0.0
  0
ENDTAB
  0
TABLE
  2
LAYER
  5
2
330
0
100
AcDbSymbolTable
 70
     2
  0
LAYER
  5
10
330
2
100
AcDbSymbolTableRecord
100
AcDbLayerTableRecord
  2
0
 70
     0
 62
     7
  6
Continuous
370
    -3
390
F
347
3E
  0
LAYER
  5
40
330
2
100
AcDbSymbolTableRecord
100
AcDbLayerTableRecord
  2
_U+30EC_U+30A4_U+30E4_U+30FC 1
 70
     0
 62
     7
  6
Continuous
370
    -3
390
F
347
3E
  0
ENDTAB
  0
TABLE
  2
STYLE
  5
3
330
0
100
AcDbSymbolTable
 70
     1
  0
STYLE
  5
11
330
3
100
AcDbSymbolTableRecord
100
AcDbTextStyleTableRecord
  2
Standard
 70
     0
 40
0.0
 41
1.0
 50
0.0
 71
     0
 42
0.2
  3
txt
  4

  0
ENDTAB
  0
TABLE
  2
VIEW
  5
6
330
0
100
AcDbSymbolTable
 70
     0
  0
ENDTAB
  0
TABLE
  2
UCS
  5
7
330
0
100
AcDbSymbolTable
 70
     0
  0
ENDTAB
  0
TABLE
  2
APPID
  5
9
330
0
100
AcDbSymbolTable
 70
     1
  0
APPID
  5
12
330
9
100
AcDbSymbolTableRecord
100
AcDbRegAppTableRecord
  2
ACAD
 70
     0
  0
ENDTAB
  0
TABLE
  2
DIMSTYLE
  5
A
330
0
100
AcDbSymbolTable
 70
     1
100
AcDbDimStyleTable
  0
DIMSTYLE
105
27
330
A
100
AcDbSymbolTableRecord
100
AcDbDimStyleTableRecord
  2
Standard
 70
     0
178
     0
340
11
  0
ENDTAB
  0
TABLE
  2
BLOCK_RECORD
  5
1
330
0
100
AcDbSymbolTable
 70
    18
  0
BLOCK_RECORD
  5
1F
330
1
100
AcDbSymbolTableRecord
100
AcDbBlockTableRecord
  2
*Model_Space
340
22
 70
     0
280
     1
281
     0
  0
BLOCK_RECORD
  5
1B
330
1
100
AcDbSymbolTableRecord
100
AcDbBlockTableRecord
  2
*Paper_Space
340
1E
 70
     0
280
     1
281
     0
  0
BLOCK_RECORD
  5
23
330
1
100
AcDbSymbolTableRecord
100
AcDbBlockTableRecord
  2
*Paper_Space0
340
26
 70
     0
280
     1
281
     0
  0
BLOCK_RECORD
  5
41
330
1
100
AcDbSymbolTableRecord
100
AcDbBlockTableRecord
  2
block 2
340
0
102
{BLKREFS
331
42
102
}
 70
     0
280
     1
281
     0
  0
BLOCK_RECORD
  5
45
330
1
100
AcDbSymbolTableRecord
100
AcDbBlockTableRecord
  2
block 3
340
0
102
{BLKREFS
331
46
102
}
 70
     0
280
     1
281
     0
  0
BLOCK_RECORD
  5
53
330
1
100
AcDbSymbolTableRecord
100
AcDbBlockTableRecord
  2
block 4
340
0
102
{BLKREFS
331
54
102
}
 70
     0
280
     1
281
     0
  0
BLOCK_RECORD
  5
57
330
1
100
AcDbSymbolTableRecord
100
AcDbBlockTableRecord
  2
block 5
340
0
102
{BLKREFS
331
58
102
}
 70
     0
280
     1
281
     0
  0
BLOCK_RECORD
  5
63
330
1
100
AcDbSymbolTableRecord
100
AcDbBlockTableRecord
  2
block 6
340
0
102
{BLKREFS
331
64
102
}
 70
     0
280
     1
281
     0
  0
BLOCK_RECORD
  5
67
330
1
100
AcDbSymbolTableRecord
100
AcDbBlockTableRecord
  2
block 7
340
0
102
{BLKREFS
331
68
102
}
 70
     0
280
     1
281
     0
  0
BLOCK_RECORD
  5
6C
330
1
100
AcDbSymbolTableRecord
100
AcDbBlockTableRecord
  2
block 8
340
0
102
{BLKREFS
331
6D
102
}
 70
     0
280
     1
281
     0
  0
BLOCK_RECORD
  5
71
330
1
100
AcDbSymbolTableRecord
100
AcDbBlockTableRecord
  2
block 9
340
0
102
{BLKREFS
331
72
102
}
 70
     0
280
     1
281
     0
  0
BLOCK_RECORD
  5
7E
330
1
100
AcDbSymbolTableRecord
100
AcDbBlockTableRecord
  2
block 10
340
0
102
{BLKREFS
331
7F
102
}
 70
     0
280
     1
281
     0
  0
BLOCK_RECORD
  5
8B
330
1
100
AcDbSymbolTableRecord
100
AcDbBlockTableRecord
  2
block 11
340
0
102
{BLKREFS
331
8C
102
}
 70
     0
280
     1
281
     0
  0
BLOCK_RECORD
  5
98
330
1
100
AcDbSymbolTableRecord
100
AcDbBlockTableRecord
  2
block 12
340
0
102
{BLKREFS
331
99
102
}
 70
     0
280
     1
281
     0
  0
BLOCK_RECORD
  5
A5
330
1
100
AcDbSymbolTableRecord
100
AcDbBlockTableRecord
  2
block 13
340
0
102
{BLKREFS
331
A6
102
}
 70
     0
280
     1
281
     0
  0
BLOCK_RECORD
  5
B2
330
1
100
AcDbSymbolTableRecord
100
AcDbBlockTableRecord
  2
block 14
340
0
102
{BLKREFS
331
B3
102
}
 70
     0
280
     1
281
     0
  0
BLOCK_RECORD
  5
BF
330
1
100
AcDbSymbolTableRecord
100
AcDbBlockTableRecord
  2
block 15
340
0
102
{BLKREFS
331
C0
102
}
 70
     0
280
     1
281
     0
  0
BLOCK_RECORD
  5
C3
330
1
100
AcDbSymbolTableRecord
100
AcDbBlockTableRecord
  2
block 16
340
0
102
{BLKREFS
331
C4
102
}
 70
     0
280
     1
281
     0
  0
BLOCK_RECORD
  5
D6
330
1
100
AcDbSymbolTableRecord
100
AcDbBlockTableRecord
  2
block 17
340
0
102
{BLKREFS
331
D7
102
}
 70
     0
280
     1
281
     0
  0
BLOCK_RECORD
  5
DA
330
1
100
AcDbSymbolTableRecord
100
AcDbBlockTableRecord
  2
block 18
340
0
102
{BLKREFS
331
DB
102
}
 70
     0
280
     1
281
     0
  0
ENDTAB
  0
ENDSEC
  0
SECTION
  2
BLOCKS
  0
BLOCK
  5
20
330
1F
100
AcDbEntity
  8
0
100
AcDbBlockBegin
  2
*Model_Space
 70
     0
 10
0.0
 20
0.0
 30
0.0
  3
*Model_Space
  1

  0
ENDBLK
  5
21
330
1F
100
AcDbEntity
  8
0
100
AcDbBlockEnd
  0
BLOCK
  5
1C
330
1B
100
AcDbEntity
 67
     1
  8
0
100
AcDbBlockBegin
  2
*Paper_Space
 70
     0
 10
0.0
 20
0.0
 30
0.0
  3
*Paper_Space
  1

  0
ENDBLK
  5
1D
330
1B
100
AcDbEntity
 67
     1
  8
0
100
AcDbBlockEnd
  0
BLOCK
  5
24
330
23
100
AcDbEntity
  8
0
100
AcDbBlockBegin
  2
*Paper_Space0
 70
     0
 10
0.0
 20
0.0
 30
0.0
  3
*Paper_Space0
  1

  0
ENDBLK
  5
25
330
23
100
AcDbEntity
  8
0
100
AcDbBlockEnd
  0
BLOCK
  5
43
330
41
100
AcDbEntity
  8
0
100
AcDbBlockBegin
  2
block 2
 70
     0
 10
0.0
 20
0.0
 30
0.0
  3
block 2
  1

  0
INSERT
  5
46
330
41
100
AcDbEntity
  8
_U+30EC_U+30A4_U+30E4_U+30FC 1
100
AcDbBlockReference
  2
block 3
 10
0.0
 20
0.0
 30
0.0
  0
SPLINE
  5
4A
330
41
100
AcDbEntity
  8
_U+30EC_U+30A4_U+30E4_U+30FC 1
 62
   250
420
  2234388
370
    18
100
AcDbSpline
210
0.0
220
0.0
230
1.0
 70
    11
 71
     3
 72
    17
 73
    13
 74
     0
 42
0.0000000001
 43
0.0000000001
 12
1.0
 22
0.0
 32
0.0
 13
1.0
 23
0.0
 33
0.0
 40
0.0
 40
0.0
 40
0.0
 40
0.0
 40
1.0
 40
1.0
 40
1.0
 40
2.0
 40
2.0
 40
2.0
 40
3.0
 40
3.0
 40
3.0
 40
4.0
 40
4.0
 40
4.0
 40
4.0
 10
43.6215002760117
 20
-164.5100144033171
 30
0.0
 10
43.6215002760117
 20
-166.1668705140138
 30
0.0
 10
42.27833419916761
 20
-167.5100013470115
 30
0.0
 10
40.62147813032642
 20
-167.5100013470115
 30
0.0
 10
38.96465832359218
 20
-167.5100013470115
 30
0.0
 10
37.62149126241802
 20
-166.1668705140138
 30
0.0
 10
37.62149126241802
 20
-164.5100144033171
 30
0.0
 10
37.62149126241802
 20
-162.8531582926198
 30
0.0
 10
38.96465832359218
 20
-161.5099921818446
 30
0.0
 10
40.62147813032642
 20
-161.5099921818446
 30
0.0
 10
42.27833419916761
 20
-161.5099921818446
 30
0.0
 10
43.6215002760117
 20
-162.8531582926198
 30
0.0
 10
43.6215002760117
 20
-164.5100144033171
 30
0.0
  0
SPLINE
  5
4B
330
41
100
AcDbEntity
  8
_U+30EC_U+30A4_U+30E4_U+30FC 1
 62
   250
420
  2234388
370
    18
100
AcDbSpline
210
0.0
220
0.0
230
1.0
 70
    11
 71
     3
 72
    17
 73
    13
 74
     0
 42
0.0000000001
 43
0.0000000001
 12
1.0
 22
0.0
 32
0.0
 13
1.0
 23
0.0
 33
0.0
 40
0.0
 40
0.0
 40
0.0
 40
0.0
 40
1.0
 40
1.0
 40
1.0
 40
2.0
 40
2.0
 40
2.0
 40
3.0
 40
3.0
 40
3.0
 40
4.0
 40
4.0
 40
4.0
 40
4.0
 10
-79.12205831355296
 20
-231.9119129975776
 30
0.0
 10
-77.68716998057837
 20
-232.740341052926
 30
0.0
 10
-77.19553886959005
 20
-234.5751382746898
 30
0.0
 10
-78.02396692493838
 20
-236.0099913298862
 30
0.0
 10
-78.85239498028702
 20
-237.4448796628608
 30
0.0
 10
-80.68719220205055
 20
-237.9365107738494
 30
0.0
 10
-82.1220452572473
 20
-237.1080827185005
 30
0.0
 10
-83.55693359022187
 20
-236.2796546631521
 30
0.0
 10
-84.0485647012102
 20
-234.4448927191665
 30
0.0
 10
-83.22013664586154
 20
-233.0100043861919
 30
0.0
 10
-82.39170859051322
 20
-231.5751160532173
 30
0.0
 10
-80.55694664652752
 20
-231.0834849422293
 30
0.0
 10
-79.12205831355296
 20
-231.9119129975776
 30
0.0
  0
SPLINE
  5
4C
330
41
100
AcDbEntity
  8
_U+30EC_U+30A4_U+30E4_U+30FC 1
 62
   250
420
  2234388
370
    18
100
AcDbSpline
210
0.0
220
0.0
230
1.0
 70
    11
 71
     3
 72
    17
 73
    13
 74
     0
 42
0.0000000001
 43
0.0000000001
 12
1.0
 22
0.0
 32
0.0
 13
1.0
 23
0.0
 33
0.0
 40
0.0
 40
0.0
 40
0.0
 40
0.0
 40
1.0
 40
1.0
 40
1.0
 40
2.0
 40
2.0
 40
2.0
 40
3.0
 40
3.0
 40
3.0
 40
4.0
 40
4.0
 40
4.0
 40
4.0
 10
-82.1220452572473
 20
-371.9119151847996
 30
0.0
 10
-80.68719220205055
 20
-371.0834871294513
 30
0.0
 10
-78.85239498028702
 20
-371.5751182404393
 30
0.0
 10
-78.02396692493838
 20
-373.0100065734145
 30
0.0
 10
-77.19553886959005
 20
-374.444859628611
 30
0.0
 10
-77.68716998057837
 20
-376.2796568503748
 30
0.0
 10
-79.12205831355296
 20
-377.1080849057231
 30
0.0
 10
-80.55694664652752
 20
-377.9365129610715
 30
0.0
 10
-82.39170859051322
 20
-377.4448818500834
 30
0.0
 10
-83.22013664586154
 20
-376.0099935171089
 30
0.0
 10
-84.0485647012102
 20
-374.5751051841343
 30
0.0
 10
-83.55693359022187
 20
-372.7403432401486
 30
0.0
 10
-82.1220452572473
 20
-371.9119151847996
 30
0.0
  0
SPLINE
  5
4D
330
41
100
AcDbEntity
  8
_U+30EC_U+30A4_U+30E4_U+30FC 1
 62
   250
420
  2234388
370
    18
100
AcDbSpline
210
0.0
220
0.0
230
1.0
 70
    11
 71
     3
 72
    17
 73
    13
 74
     0
 42
0.0000000001
 43
0.0000000001
 12
1.0
 22
0.0
 32
0.0
 13
1.0
 23
0.0
 33
0.0
 40
0.0
 40
0.0
 40
0.0
 40
0.0
 40
1.0
 40
1.0
 40
1.0
 40
2.0
 40
2.0
 40
2.0
 40
3.0
 40
3.0
 40
3.0
 40
4.0
 40
4.0
 40
4.0
 40
4.0
 10
37.62149126241802
 20
-444.5099834999836
 30
0.0
 10
37.62149126241802
 20
-442.853127389287
 30
0.0
 10
38.96462206148523
 20
-441.5099965562893
 30
0.0
 10
40.62147813032642
 20
-441.5099965562893
 30
0.0
 10
42.27833419916761
 20
-441.5099965562893
 30
0.0
 10
43.6215002760117
 20
-442.853127389287
 30
0.0
 10
43.6215002760117
 20
-444.5099834999836
 30
0.0
 10
43.6215002760117
 20
-446.1668396106803
 30
0.0
 10
42.27833419916761
 20
-447.5100057214561
 30
0.0
 10
40.62147813032642
 20
-447.5100057214561
 30
0.0
 10
38.96462206148523
 20
-447.5100057214561
 30
0.0
 10
37.62149126241802
 20
-446.1668396106803
 30
0.0
 10
37.62149126241802
 20
-444.5099834999836
 30
0.0
  0
SPLINE
  5
4E
330
41
100
AcDbEntity
  8
_U+30EC_U+30A4_U+30E4_U+30FC 1
 62
   250
420
  2234388
370
    18
100
AcDbSpline
210
0.0
220
0.0
230
1.0
 70
    11
 71
     3
 72
    17
 73
    13
 74
     0
 42
0.0000000001
 43
0.0000000001
 12
1.0
 22
0.0
 32
0.0
 13
1.0
 23
0.0
 33
0.0
 40
0.0
 40
0.0
 40
0.0
 40
0.0
 40
1.0
 40
1.0
 40
1.0
 40
2.0
 40
2.0
 40
2.0
 40
3.0
 40
3.0
 40
3.0
 40
4.0
 40
4.0
 40
4.0
 40
4.0
 10
160.3650478531912
 20
-377.1080849057231
 30
0.0
 10
158.930159556465
 20
-376.2796568503748
 30
0.0
 10
158.4385284578964
 20
-374.444859628611
 30
0.0
 10
159.266956492317
 20
-373.0100065734145
 30
0.0
 10
160.0953845267376
 20
-371.5751182404393
 30
0.0
 10
161.9301464243734
 20
-371.0834871294513
 30
0.0
 10
163.3650388480478
 20
-371.9119151847996
 30
0.0
 10
164.7999230178259
 20
-372.7403432401486
 30
0.0
 10
165.2915582920103
 20
-374.5751051841343
 30
0.0
 10
164.4631260819739
 20
-376.0099935171089
 30
0.0
 10
163.6346980475533
 20
-377.4448818500834
 30
0.0
 10
161.7999361499175
 20
-377.9365129610715
 30
0.0
 10
160.3650478531912
 20
-377.1080849057231
 30
0.0
  0
SPLINE
  5
4F
330
41
100
AcDbEntity
  8
_U+30EC_U+30A4_U+30E4_U+30FC 1
 62
   250
420
  2234388
370
    18
100
AcDbSpline
210
0.0
220
0.0
230
1.0
 70
    11
 71
     3
 72
    17
 73
    13
 74
     0
 42
0.0000000001
 43
0.0000000001
 12
1.0
 22
0.0
 32
0.0
 13
1.0
 23
0.0
 33
0.0
 40
0.0
 40
0.0
 40
0.0
 40
0.0
 40
1.0
 40
1.0
 40
1.0
 40
2.0
 40
2.0
 40
2.0
 40
3.0
 40
3.0
 40
3.0
 40
4.0
 40
4.0
 40
4.0
 40
4.0
 10
163.3650388480478
 20
-237.1080827185005
 30
0.0
 10
161.9301817021502
 20
-237.9365107738494
 30
0.0
 10
160.0953845267376
 20
-237.4448796628608
 30
0.0
 10
159.266956492317
 20
-236.0099913298862
 30
0.0
 10
158.4385284578964
 20
-234.5751382746898
 30
0.0
 10
158.930159556465
 20
-232.740341052926
 30
0.0
 10
160.3650478531912
 20
-231.9119129975776
 30
0.0
 10
161.7999361499175
 20
-231.0834849422293
 30
0.0
 10
163.6346980475533
 20
-231.5751160532173
 30
0.0
 10
164.4631260819739
 20
-233.0100043861919
 30
0.0
 10
165.2915582920103
 20
-234.4448927191665
 30
0.0
 10
164.7999230178259
 20
-236.2796546631521
 30
0.0
 10
163.3650388480478
 20
-237.1080827185005
 30
0.0
  0
SPLINE
  5
50
330
41
100
AcDbEntity
  8
_U+30EC_U+30A4_U+30E4_U+30FC 1
 62
   250
420
  2234388
370
    18
100
AcDbSpline
210
0.0
220
0.0
230
1.0
 70
    11
 71
     3
 72
    32
 73
    28
 74
     0
 42
0.0000000001
 43
0.0000000001
 12
1.0
 22
0.0
 32
0.0
 13
1.0
 23
0.0
 33
0.0
 40
0.0
 40
0.0
 40
0.0
 40
0.0
 40
1.0
 40
1.0
 40
1.0
 40
2.0
 40
2.0
 40
2.0
 40
3.0
 40
3.0
 40
3.0
 40
4.0
 40
4.0
 40
4.0
 40
5.0
 40
5.0
 40
5.0
 40
6.0
 40
6.0
 40
6.0
 40
7.0
 40
7.0
 40
7.0
 40
8.0
 40
8.0
 40
8.0
 40
9.0
 40
9.0
 40
9.0
 40
9.0
 10
-49.51966359873133
 20
-341.9149385256327
 30
0.0
 10
27.98123971522685
 20
-297.2124554812525
 30
0.0
 10
27.93082777079507
 20
-207.7356991147325
 30
0.0
 10
27.91417665968812
 20
-207.7261035591798
 30
0.0
 10
27.91417665968812
 20
-195.8393268954844
 30
0.0
 10
18.2780516620973
 20
-186.2032018978939
 30
0.0
 10
6.391274998402248
 20
-186.2032018978939
 30
0.0
 10
3.931426110128159
 20
-186.2032018978939
 30
0.0
 10
1.489784082960783
 20
-186.6248771755661
 30
0.0
 10
-0.8275778609040753
 20
-187.4499185642488
 30
0.0
 10
-0.8275778609040753
 20
-187.4499185642488
 30
0.0
 10
-0.8276131386819157
 20
-187.459761064246
 30
0.0
 10
-0.8276131386819157
 20
-187.459761064246
 30
0.0
 10
-18.05248555104257
 20
-193.5426730071702
 30
0.0
 10
-33.83911471376254
 20
-203.4509660602484
 30
0.0
 10
-47.13834304377097
 20
-216.7501943902569
 30
0.0
 10
-70.57273581569025
 20
-240.1843754955097
 30
0.0
 10
-83.47851109024135
 20
-271.3419910432757
 30
0.0
 10
-83.47851109024135
 20
-304.4830996461012
 30
0.0
 10
-83.47851109024135
 20
-312.1737257552902
 30
0.0
 10
-82.7835388681931
 20
-319.7575307533943
 30
0.0
 10
-81.42329831297751
 20
-327.1627949182096
 30
0.0
 10
-79.27689248018095
 20
-338.8541679708424
 30
0.0
 10
-68.05919414965197
 20
-346.5919251911297
 30
0.0
 10
-56.3677858192413
 20
-344.445554636111
 30
0.0
 10
-53.94840054206855
 20
-344.0013721362217
 30
0.0
 10
-51.64994748708761
 20
-343.1448629697696
 30
0.0
 10
-49.51966359873133
 20
-341.9149385256327
 30
0.0
  0
SPLINE
  5
51
330
41
100
AcDbEntity
  8
_U+30EC_U+30A4_U+30E4_U+30FC 1
 62
   250
420
  2234388
370
    18
100
AcDbSpline
210
0.0
220
0.0
230
1.0
 70
    11
 71
     3
 72
    32
 73
    28
 74
     0
 42
0.0000000001
 43
0.0000000001
 12
1.0
 22
0.0
 32
0.0
 13
1.0
 23
0.0
 33
0.0
 40
0.0
 40
0.0
 40
0.0
 40
0.0
 40
1.0
 40
1.0
 40
1.0
 40
2.0
 40
2.0
 40
2.0
 40
3.0
 40
3.0
 40
3.0
 40
4.0
 40
4.0
 40
4.0
 40
5.0
 40
5.0
 40
5.0
 40
6.0
 40
6.0
 40
6.0
 40
7.0
 40
7.0
 40
7.0
 40
8.0
 40
8.0
 40
8.0
 40
9.0
 40
9.0
 40
9.0
 40
9.0
 10
118.0687249704828
 20
-363.8088918534922
 30
0.0
 10
40.60479174186324
 20
-319.0423443646836
 30
0.0
 10
-36.85913943522976
 20
-363.8244140757105
 30
0.0
 10
-36.85913943522976
 20
-363.8436051868171
 30
0.0
 10
-47.15337137710046
 20
-369.7869935186642
 30
0.0
 10
-50.68044359844109
 20
-382.9501907375956
 30
0.0
 10
-44.73705526659341
 20
-393.2444579572442
 30
0.0
 10
-43.50713082245652
 20
-395.3747418456005
 30
0.0
 10
-41.92111248951981
 20
-397.2784365673469
 30
0.0
 10
-40.04793304554366
 20
-398.8728157336151
 30
0.0
 10
-40.04793304554366
 20
-398.8728157336151
 30
0.0
 10
-40.03939582332363
 20
-398.8679474002834
 30
0.0
 10
-40.03939582332363
 20
-398.8679474002834
 30
0.0
 10
-26.15900138234912
 20
-410.7436468417587
 30
0.0
 10
-9.684843608689803
 20
-419.4611032284682
 30
0.0
 10
8.482224164546135
 20
-424.3289779494733
 30
0.0
 10
40.49401952246705
 20
-432.9066637806625
 30
0.0
 10
73.93019061388371
 20
-428.5045615595408
 30
0.0
 10
102.631237381659
 20
-411.9340248970165
 30
0.0
 10
109.291505267297
 20
-408.088711842422
 30
0.0
 10
115.5117916377889
 20
-403.6949351768539
 30
0.0
 10
121.2448155178982
 20
-398.8143251780739
 30
0.0
 10
130.2966344536337
 20
-391.1097996244447
 30
0.0
 10
131.3888697035462
 20
-377.5260912945076
 30
0.0
 10
123.6843443445495
 20
-368.4742368523257
 30
0.0
 10
122.0900004963357
 20
-366.6010574083499
 30
0.0
 10
120.1990058223568
 20
-365.0388162976291
 30
0.0
 10
118.0687249704828
 20
-363.8088918534922
 30
0.0
  0
SPLINE
  5
52
330
41
100
AcDbEntity
  8
_U+30EC_U+30A4_U+30E4_U+30FC 1
 62
   250
420
  2234388
370
    18
100
AcDbSpline
210
0.0
220
0.0
230
1.0
 70
    11
 71
     3
 72
    32
 73
    28
 74
     0
 42
0.0000000001
 43
0.0000000001
 12
1.0
 22
0.0
 32
0.0
 13
1.0
 23
0.0
 33
0.0
 40
0.0
 40
0.0
 40
0.0
 40
0.0
 40
1.0
 40
1.0
 40
1.0
 40
2.0
 40
2.0
 40
2.0
 40
3.0
 40
3.0
 40
3.0
 40
4.0
 40
4.0
 40
4.0
 40
5.0
 40
5.0
 40
5.0
 40
6.0
 40
6.0
 40
6.0
 40
7.0
 40
7.0
 40
7.0
 40
8.0
 40
8.0
 40
8.0
 40
9.0
 40
9.0
 40
9.0
 40
9.0
 10
53.23525891963317
 20
-207.7261035591798
 30
0.0
 10
53.1982525316884
 20
-297.1950988145904
 30
0.0
 10
130.7126333006553
 20
-341.8897854700829
 30
0.0
 10
130.7292458314857
 20
-341.8801899145303
 30
0.0
 10
141.0235127910794
 20
-347.8235782463773
 30
0.0
 10
154.1867096774804
 20
-344.296506025037
 30
0.0
 10
160.1300978591853
 20
-334.002274083166
 30
0.0
 10
161.3600222722518
 20
-331.8719901948097
 30
0.0
 10
162.2156494726451
 20
-329.5466201953911
 30
0.0
 10
162.659836070446
 20
-327.1271996404402
 30
0.0
 10
162.659836070446
 20
-327.1271996404402
 30
0.0
 10
162.6513300170855
 20
-327.1222254737753
 30
0.0
 10
162.6513300170855
 20
-327.1222254737753
 30
0.0
 10
165.9958396539822
 20
-309.1636140893759
 30
0.0
 10
165.3082757826345
 20
-290.5378293718099
 30
0.0
 10
160.440436462379
 20
-272.3707615985739
 30
0.0
 10
151.8630330700957
 20
-240.3588946621325
 30
0.0
 10
131.3326369272031
 20
-213.6033460577101
 30
0.0
 10
102.6315901594278
 20
-197.0328093951864
 30
0.0
 10
95.97132227378981
 20
-193.1874963405919
 30
0.0
 10
89.05606661687935
 20
-189.9974680080565
 30
0.0
 10
81.96279929784367
 20
-187.4728138420207
 30
0.0
 10
70.76457458353418
 20
-183.4859663430177
 30
0.0
 10
58.45460600869876
 20
-189.3319174526667
 30
0.0
 10
54.46775861041171
 20
-200.5301424498673
 30
0.0
 10
53.64271724257138
 20
-202.8475043937325
 30
0.0
 10
53.23525891963317
 20
-205.2662546709054
 30
0.0
 10
53.23525891963317
 20
-207.7261035591798
 30
0.0
  0
ENDBLK
  5
44
330
41
100
AcDbEntity
  8
0
100
AcDbBlockEnd
  0
BLOCK
  5
47
330
45
100
AcDbEntity
  8
0
100
AcDbBlockBegin
  2
block 3
 70
     0
 10
0.0
 20
0.0
 30
0.0
  3
block 3
  1

  0
SPLINE
  5
49
330
45
100
AcDbEntity
  8
_U+30EC_U+30A4_U+30E4_U+30FC 1
 62
   250
420
  2234388
370
    18
100
AcDbSpline
210
0.0
220
0.0
230
1.0
 70
    11
 71
     3
 72
    95
 73
    91
 74
     0
 42
0.0000000001
 43
0.0000000001
 12
1.0
 22
0.0
 32
0.0
 13
1.0
 23
0.0
 33
0.0
 40
0.0
 40
0.0
 40
0.0
 40
0.0
 40
1.0
 40
1.0
 40
1.0
 40
2.0
 40
2.0
 40
2.0
 40
3.0
 40
3.0
 40
3.0
 40
4.0
 40
4.0
 40
4.0
 40
5.0
 40
5.0
 40
5.0
 40
6.0
 40
6.0
 40
6.0
 40
7.0
 40
7.0
 40
7.0
 40
8.0
 40
8.0
 40
8.0
 40
9.0
 40
9.0
 40
9.0
 40
10.0
 40
10.0
 40
10.0
 40
11.0
 40
11.0
 40
11.0
 40
12.0
 40
12.0
 40
12.0
 40
13.0
 40
13.0
 40
13.0
 40
14.0
 40
14.0
 40
14.0
 40
15.0
 40
15.0
 40
15.0
 40
16.0
 40
16.0
 40
16.0
 40
17.0
 40
17.0
 40
17.0
 40
18.0
 40
18.0
 40
18.0
 40
19.0
 40
19.0
 40
19.0
 40
20.0
 40
20.0
 40
20.0
 40
21.0
 40
21.0
 40
21.0
 40
22.0
 40
22.0
 40
22.0
 40
23.0
 40
23.0
 40
23.0
 40
24.0
 40
24.0
 40
24.0
 40
25.0
 40
25.0
 40
25.0
 40
26.0
 40
26.0
 40
26.0
 40
27.0
 40
27.0
 40
27.0
 40
28.0
 40
28.0
 40
28.0
 40
29.0
 40
29.0
 40
29.0
 40
30.0
 40
30.0
 40
30.0
 40
30.0
 10
-84.88454220100094
 20
-383.2203832375282
 30
0.0
 10
-80.2901760910384
 20
-384.2809390705967
 30
0.0
 10
-76.2149224809463
 20
-386.9229271254914
 30
0.0
 10
-73.37146303721275
 20
-390.6842790689954
 30
0.0
 10
-50.08671859858953
 20
-421.4857654501843
 30
0.0
 10
-15.32833555172337
 20
-441.5535293340563
 30
0.0
 10
22.98890499425273
 20
-446.3179696106427
 30
0.0
 10
27.6680436041942
 20
-446.8997707216083
 30
0.0
 10
31.99373415866809
 20
-449.1080890543895
 30
0.0
 10
35.20937415786425
 20
-452.5566329424165
 30
0.0
 10
37.99652930840556
 20
-455.5456837750027
 30
0.0
 10
42.67908974449904
 20
-455.7093373860725
 30
0.0
 10
45.66814165524978
 20
-452.9221459978804
 30
0.0
 10
45.79422327613648
 20
-452.8046004423545
 30
0.0
 10
45.91614443296539
 20
-452.6826804423848
 30
0.0
 10
46.03368882558276
 20
-452.5566329424165
 30
0.0
 10
49.24932874354495
 20
-449.1080890543895
 30
0.0
 10
53.57498391096607
 20
-446.8997707216083
 30
0.0
 10
58.25412240270241
 20
-446.3179696106427
 30
0.0
 10
96.57139725848062
 20
-441.5535293340563
 30
0.0
 10
131.329779427276
 20
-421.4857654501843
 30
0.0
 10
154.6145232776771
 20
-390.6842790689954
 30
0.0
 10
157.457947371802
 20
-386.9229271254914
 30
0.0
 10
161.5332361567216
 20
-384.2809390705967
 30
0.0
 10
166.1275668728438
 20
-383.2203832375282
 30
0.0
 10
170.109757604583
 20
-382.3011501822024
 30
0.0
 10
172.5927839301246
 20
-378.3277435165293
 30
0.0
 10
171.6735508980206
 20
-374.3455526841916
 30
0.0
 10
171.634780621232
 20
-374.1776304620112
 30
0.0
 10
171.5901542334816
 20
-374.0110840731643
 30
0.0
 10
171.5397422903232
 20
-373.8462310176498
 30
0.0
 10
170.1610514921632
 20
-369.3371312965544
 30
0.0
 10
170.4114221796192
 20
-364.4868601866561
 30
0.0
 10
172.2471322722762
 20
-360.1437071321865
 30
0.0
 10
187.2796632776533
 20
-324.5777804744112
 30
0.0
 10
187.2796632776533
 20
-284.4422174288896
 30
0.0
 10
172.2471322722762
 20
-248.8762907711142
 30
0.0
 10
170.4114221796192
 20
-244.5331377166447
 30
0.0
 10
170.1610514921632
 20
-239.6828666067457
 30
0.0
 10
171.5397422903232
 20
-235.1737668856509
 30
0.0
 10
172.7347417042807
 20
-231.2654477199613
 30
0.0
 10
170.5352075937288
 20
-227.1284227209959
 30
0.0
 10
166.6269238045486
 20
-225.9333879990722
 30
0.0
 10
166.4620749583844
 20
-225.8830113324183
 30
0.0
 10
166.2955243685588
 20
-225.8383849435404
 30
0.0
 10
166.1275668728438
 20
-225.7996146657725
 30
0.0
 10
161.5332361567216
 20
-224.739058832704
 30
0.0
 10
157.457947371802
 20
-222.0970707778094
 30
0.0
 10
154.6145232776771
 20
-218.3357188343048
 30
0.0
 10
131.329779427276
 20
-187.534197175339
 30
0.0
 10
96.57139725848062
 20
-167.4664332914669
 30
0.0
 10
58.25412240270241
 20
-162.702028292658
 30
0.0
 10
53.57498391096607
 20
-162.1202271816924
 30
0.0
 10
49.24932874354495
 20
-159.9119088489112
 30
0.0
 10
46.03368882558276
 20
-156.4633649608843
 30
0.0
 10
43.24649750780105
 20
-153.474314128298
 30
0.0
 10
38.56393707170756
 20
-153.3106605172276
 30
0.0
 10
35.57488631463126
 20
-156.0978166276422
 30
0.0
 10
35.448838817847
 20
-156.2153974609462
 30
0.0
 10
35.32691882095744
 20
-156.337317460916
 30
0.0
 10
35.20937415786425
 20
-156.4633649608843
 30
0.0
 10
31.99373415866809
 20
-159.9119088489112
 30
0.0
 10
27.6680436041942
 20
-162.1202271816924
 30
0.0
 10
22.98890499425273
 20
-162.702028292658
 30
0.0
 10
-15.32833555172337
 20
-167.4664332914669
 30
0.0
 10
-50.08671859858953
 20
-187.5342324531165
 30
0.0
 10
-73.37146303721275
 20
-218.3357188343048
 30
0.0
 10
-76.2149224809463
 20
-222.0970707778094
 30
0.0
 10
-80.2901760910384
 20
-224.739058832704
 30
0.0
 10
-84.88454220100094
 20
-225.7996146657725
 30
0.0
 10
-88.86673303333896
 20
-226.7188477210983
 30
0.0
 10
-91.34972414382914
 20
-230.6922543867714
 30
0.0
 10
-90.43049108850336
 20
-234.6744099413316
 30
0.0
 10
-90.39172081073546
 20
-234.8423674412896
 30
0.0
 10
-90.34709442185762
 20
-235.0089138301365
 30
0.0
 10
-90.29668247742585
 20
-235.1737668856509
 30
0.0
 10
-88.91799164443731
 20
-239.6828666067457
 30
0.0
 10
-89.16839331104124
 20
-244.5331377166447
 30
0.0
 10
-91.00407247724885
 20
-248.8762907711142
 30
0.0
 10
-106.0366038623799
 20
-284.4422174288896
 30
0.0
 10
-106.0366038623799
 20
-324.5777804744112
 30
0.0
 10
-91.00407247724885
 20
-360.1437071321865
 30
0.0
 10
-89.16839331104124
 20
-364.4868601866561
 30
0.0
 10
-88.91799164443731
 20
-369.3371312965544
 30
0.0
 10
-90.29668247742585
 20
-373.8462310176498
 30
0.0
 10
-91.49171719934924
 20
-377.7545501833395
 30
0.0
 10
-89.2921477554548
 20
-381.8915751823048
 30
0.0
 10
-85.38386386754306
 20
-383.0865746264504
 30
0.0
 10
-85.21901081202863
 20
-383.1369865708825
 30
0.0
 10
-85.05249970095923
 20
-383.1816129597603
 30
0.0
 10
-84.88454220100094
 20
-383.2203832375282
 30
0.0
  0
ENDBLK
  5
48
330
45
100
AcDbEntity
  8
0
100
AcDbBlockEnd
  0
BLOCK
  5
55
330
53
100
AcDbEntity
  8
0
100
AcDbBlockBegin
  2
block 4
 70
     0
 10
0.0
 20
0.0
 30
0.0
  3
block 4
  1

  0
INSERT
  5
58
330
53
100
AcDbEntity
  8
_U+30EC_U+30A4_U+30E4_U+30FC 1
100
AcDbBlockReference
  2
block 5
 10
0.0
 20
0.0
 30
0.0
  0
SPLINE
  5
5C
330
53
100
AcDbEntity
  8
_U+30EC_U+30A4_U+30E4_U+30FC 1
 62
   250
420
  2234388
370
    18
100
AcDbSpline
210
0.0
220
0.0
230
1.0
 70
    11
 71
     3
 72
    20
 73
    16
 74
     0
 42
0.0000000001
 43
0.0000000001
 12
1.0
 22
0.0
 32
0.0
 13
1.0
 23
0.0
 33
0.0
 40
0.0
 40
0.0
 40
0.0
 40
0.0
 40
1.0
 40
1.0
 40
1.0
 40
2.0
 40
2.0
 40
2.0
 40
3.0
 40
3.0
 40
3.0
 40
4.0
 40
4.0
 40
4.0
 40
5.0
 40
5.0
 40
5.0
 40
5.0
 10
-86.47846275615817
 20
13.59813694104494
 30
0.0
 10
-86.47846275615817
 20
83.7935042511385
 30
0.0
 10
-29.57381971482871
 20
140.6981105771588
 30
0.0
 10
40.62154868588018
 20
140.6981105771588
 30
0.0
 10
110.8169516172685
 20
140.6981105771588
 30
0.0
 10
167.7215579432888
 20
83.7935042511385
 30
0.0
 10
167.7215579432888
 20
13.59813694104494
 30
0.0
 10
167.7215579432888
 20
-56.5972677636286
 30
0.0
 10
110.8169516172685
 20
-113.5018755271802
 30
0.0
 10
40.62154868588018
 20
-113.5018755271802
 30
0.0
 10
-29.57381971482871
 20
-113.5018755271802
 30
0.0
 10
-86.47846275615817
 20
-56.5972677636286
 30
0.0
 10
-86.47846275615817
 20
13.59813694104494
 30
0.0
 10
-86.47846275615817
 20
13.59813694104494
 30
0.0
 10
-86.47846275615817
 20
13.59813694104494
 30
0.0
 10
-86.47846275615817
 20
13.59813694104494
 30
0.0
  0
SPLINE
  5
5D
330
53
100
AcDbEntity
  8
_U+30EC_U+30A4_U+30E4_U+30FC 1
 62
   250
420
  2234388
370
    18
100
AcDbSpline
210
0.0
220
0.0
230
1.0
 70
    11
 71
     3
 72
    17
 73
    13
 74
     0
 42
0.0000000001
 43
0.0000000001
 12
1.0
 22
0.0
 32
0.0
 13
1.0
 23
0.0
 33
0.0
 40
0.0
 40
0.0
 40
0.0
 40
0.0
 40
1.0
 40
1.0
 40
1.0
 40
2.0
 40
2.0
 40
2.0
 40
3.0
 40
3.0
 40
3.0
 40
4.0
 40
4.0
 40
4.0
 40
4.0
 10
43.62157083156546
 20
153.5981352480518
 30
0.0
 10
43.62157083156546
 20
151.9412791792106
 30
0.0
 10
42.27840475472136
 20
150.5981131023665
 30
0.0
 10
40.62154868588018
 20
150.5981131023665
 30
0.0
 10
38.96469261703898
 20
150.5981131023665
 30
0.0
 10
37.62156181797177
 20
151.9412791792106
 30
0.0
 10
37.62156181797177
 20
153.5981352480518
 30
0.0
 10
37.62156181797177
 20
155.254991316893
 30
0.0
 10
38.96469261703898
 20
156.5981221159602
 30
0.0
 10
40.62154868588018
 20
156.5981221159602
 30
0.0
 10
42.27840475472136
 20
156.5981221159602
 30
0.0
 10
43.62157083156546
 20
155.254991316893
 30
0.0
 10
43.62157083156546
 20
153.5981352480518
 30
0.0
  0
SPLINE
  5
5E
330
53
100
AcDbEntity
  8
_U+30EC_U+30A4_U+30E4_U+30FC 1
 62
   250
420
  2234388
370
    18
100
AcDbSpline
210
0.0
220
0.0
230
1.0
 70
    11
 71
     3
 72
    17
 73
    13
 74
     0
 42
0.0000000001
 43
0.0000000001
 12
1.0
 22
0.0
 32
0.0
 13
1.0
 23
0.0
 33
0.0
 40
0.0
 40
0.0
 40
0.0
 40
0.0
 40
1.0
 40
1.0
 40
1.0
 40
2.0
 40
2.0
 40
2.0
 40
3.0
 40
3.0
 40
3.0
 40
4.0
 40
4.0
 40
4.0
 40
4.0
 10
-79.12198775799727
 20
86.19620307872944
 30
0.0
 10
-77.6870994250227
 20
85.36777504430884
 30
0.0
 10
-77.19546831403437
 20
83.53301314667307
 30
0.0
 10
-78.02389636938301
 20
82.09812484994679
 30
0.0
 10
-78.85232442473134
 20
80.6632365532205
 30
0.0
 10
-80.68712164649487
 20
80.17160545465194
 30
0.0
 10
-82.12197470169161
 20
81.00003348907254
 30
0.0
 10
-83.5568630346665
 20
81.82846152349313
 30
0.0
 10
-84.04849414565452
 20
83.66325869890578
 30
0.0
 10
-83.22006609030619
 20
85.09811386761434
 30
0.0
 10
-82.39163803495754
 20
86.53300001458148
 30
0.0
 10
-80.55687609097184
 20
87.02463331157725
 30
0.0
 10
-79.12198775799727
 20
86.19620307872944
 30
0.0
  0
SPLINE
  5
5F
330
53
100
AcDbEntity
  8
_U+30EC_U+30A4_U+30E4_U+30FC 1
 62
   250
420
  2234388
370
    18
100
AcDbSpline
210
0.0
220
0.0
230
1.0
 70
    11
 71
     3
 72
    17
 73
    13
 74
     0
 42
0.0000000001
 43
0.0000000001
 12
1.0
 22
0.0
 32
0.0
 13
1.0
 23
0.0
 33
0.0
 40
0.0
 40
0.0
 40
0.0
 40
0.0
 40
1.0
 40
1.0
 40
1.0
 40
2.0
 40
2.0
 40
2.0
 40
3.0
 40
3.0
 40
3.0
 40
4.0
 40
4.0
 40
4.0
 40
4.0
 10
-82.12197470169161
 20
-53.8037969309934
 30
0.0
 10
-80.68712164649487
 20
-52.97536887564507
 30
0.0
 10
-78.85232442473134
 20
-53.4669999866334
 30
0.0
 10
-78.02389636938301
 20
-54.90185304183013
 30
0.0
 10
-77.19546831403437
 20
-56.33674137480471
 30
0.0
 10
-77.6870994250227
 20
-58.1715033187904
 30
0.0
 10
-79.12198775799727
 20
-58.99993137413905
 30
0.0
 10
-80.55687609097184
 20
-59.82835942948737
 30
0.0
 10
-82.39163803495754
 20
-59.33672831849906
 30
0.0
 10
-83.22006609030619
 20
-57.90187526330232
 30
0.0
 10
-84.04849414565452
 20
-56.46698693032774
 30
0.0
 10
-83.5568630346665
 20
-54.63222498634205
 30
0.0
 10
-82.12197470169161
 20
-53.8037969309934
 30
0.0
  0
SPLINE
  5
60
330
53
100
AcDbEntity
  8
_U+30EC_U+30A4_U+30E4_U+30FC 1
 62
   250
420
  2234388
370
    18
100
AcDbSpline
210
0.0
220
0.0
230
1.0
 70
    11
 71
     3
 72
    17
 73
    13
 74
     0
 42
0.0000000001
 43
0.0000000001
 12
1.0
 22
0.0
 32
0.0
 13
1.0
 23
0.0
 33
0.0
 40
0.0
 40
0.0
 40
0.0
 40
0.0
 40
1.0
 40
1.0
 40
1.0
 40
2.0
 40
2.0
 40
2.0
 40
3.0
 40
3.0
 40
3.0
 40
4.0
 40
4.0
 40
4.0
 40
4.0
 10
37.62156181797177
 20
-126.4018652461774
 30
0.0
 10
37.62156181797177
 20
-124.7450091354804
 30
0.0
 10
38.96469261703898
 20
-123.401878302483
 30
0.0
 10
40.62154868588018
 20
-123.401878302483
 30
0.0
 10
42.27840475472136
 20
-123.401878302483
 30
0.0
 10
43.62157083156546
 20
-124.7450091354804
 30
0.0
 10
43.62157083156546
 20
-126.4018652461774
 30
0.0
 10
43.62157083156546
 20
-128.0587213568743
 30
0.0
 10
42.27840475472136
 20
-129.4018521898717
 30
0.0
 10
40.62154868588018
 20
-129.4018521898717
 30
0.0
 10
38.96469261703898
 20
-129.4018521898717
 30
0.0
 10
37.62156181797177
 20
-128.0587213568743
 30
0.0
 10
37.62156181797177
 20
-126.4018652461774
 30
0.0
  0
SPLINE
  5
61
330
53
100
AcDbEntity
  8
_U+30EC_U+30A4_U+30E4_U+30FC 1
 62
   250
420
  2234388
370
    18
100
AcDbSpline
210
0.0
220
0.0
230
1.0
 70
    11
 71
     3
 72
    17
 73
    13
 74
     0
 42
0.0000000001
 43
0.0000000001
 12
1.0
 22
0.0
 32
0.0
 13
1.0
 23
0.0
 33
0.0
 40
0.0
 40
0.0
 40
0.0
 40
0.0
 40
1.0
 40
1.0
 40
1.0
 40
2.0
 40
2.0
 40
2.0
 40
3.0
 40
3.0
 40
3.0
 40
4.0
 40
4.0
 40
4.0
 40
4.0
 10
160.365118408745
 20
-58.99993137413905
 30
0.0
 10
158.9302301120187
 20
-58.1715033187904
 30
0.0
 10
158.4385990134501
 20
-56.33674137480471
 30
0.0
 10
159.2670270478707
 20
-54.90185304183013
 30
0.0
 10
160.0954550822913
 20
-53.4669999866334
 30
0.0
 10
161.9302169799271
 20
-52.97536887564507
 30
0.0
 10
163.3651052766534
 20
-53.8037969309934
 30
0.0
 10
164.7999935733797
 20
-54.63222498634205
 30
0.0
 10
165.2916246719482
 20
-56.46698693032774
 30
0.0
 10
164.4631966375276
 20
-57.90187526330232
 30
0.0
 10
163.634768603107
 20
-59.33672831849906
 30
0.0
 10
161.8000067054713
 20
-59.82835942948737
 30
0.0
 10
160.365118408745
 20
-58.99993137413905
 30
0.0
  0
SPLINE
  5
62
330
53
100
AcDbEntity
  8
_U+30EC_U+30A4_U+30E4_U+30FC 1
 62
   250
420
  2234388
370
    18
100
AcDbSpline
210
0.0
220
0.0
230
1.0
 70
    11
 71
     3
 72
    17
 73
    13
 74
     0
 42
0.0000000001
 43
0.0000000001
 12
1.0
 22
0.0
 32
0.0
 13
1.0
 23
0.0
 33
0.0
 40
0.0
 40
0.0
 40
0.0
 40
0.0
 40
1.0
 40
1.0
 40
1.0
 40
2.0
 40
2.0
 40
2.0
 40
3.0
 40
3.0
 40
3.0
 40
4.0
 40
4.0
 40
4.0
 40
4.0
 10
163.3651052766534
 20
81.00003348907254
 30
0.0
 10
161.930252257704
 20
80.17160545465194
 30
0.0
 10
160.0954550822913
 20
80.6632365532205
 30
0.0
 10
159.2670270478707
 20
82.09812484994679
 30
0.0
 10
158.4385990134501
 20
83.53301314667307
 30
0.0
 10
158.9302301120187
 20
85.36777504430884
 30
0.0
 10
160.365118408745
 20
86.19620307872944
 30
0.0
 10
161.8000067054713
 20
87.02463331157725
 30
0.0
 10
163.634768603107
 20
86.53300001458148
 30
0.0
 10
164.4631966375276
 20
85.09811386761434
 30
0.0
 10
165.2916246719482
 20
83.66325869890578
 30
0.0
 10
164.7999935733797
 20
81.82846152349313
 30
0.0
 10
163.3651052766534
 20
81.00003348907254
 30
0.0
  0
ENDBLK
  5
56
330
53
100
AcDbEntity
  8
0
100
AcDbBlockEnd
  0
BLOCK
  5
59
330
57
100
AcDbEntity
  8
0
100
AcDbBlockBegin
  2
block 5
 70
     0
 10
0.0
 20
0.0
 30
0.0
  3
block 5
  1

  0
SPLINE
  5
5B
330
57
100
AcDbEntity
  8
_U+30EC_U+30A4_U+30E4_U+30FC 1
 62
   250
420
  2234388
370
    18
100
AcDbSpline
210
0.0
220
0.0
230
1.0
 70
    11
 71
     3
 72
    95
 73
    91
 74
     0
 42
0.0000000001
 43
0.0000000001
 12
1.0
 22
0.0
 32
0.0
 13
1.0
 23
0.0
 33
0.0
 40
0.0
 40
0.0
 40
0.0
 40
0.0
 40
1.0
 40
1.0
 40
1.0
 40
2.0
 40
2.0
 40
2.0
 40
3.0
 40
3.0
 40
3.0
 40
4.0
 40
4.0
 40
4.0
 40
5.0
 40
5.0
 40
5.0
 40
6.0
 40
6.0
 40
6.0
 40
7.0
 40
7.0
 40
7.0
 40
8.0
 40
8.0
 40
8.0
 40
9.0
 40
9.0
 40
9.0
 40
10.0
 40
10.0
 40
10.0
 40
11.0
 40
11.0
 40
11.0
 40
12.0
 40
12.0
 40
12.0
 40
13.0
 40
13.0
 40
13.0
 40
14.0
 40
14.0
 40
14.0
 40
15.0
 40
15.0
 40
15.0
 40
16.0
 40
16.0
 40
16.0
 40
17.0
 40
17.0
 40
17.0
 40
18.0
 40
18.0
 40
18.0
 40
19.0
 40
19.0
 40
19.0
 40
20.0
 40
20.0
 40
20.0
 40
21.0
 40
21.0
 40
21.0
 40
22.0
 40
22.0
 40
22.0
 40
23.0
 40
23.0
 40
23.0
 40
24.0
 40
24.0
 40
24.0
 40
25.0
 40
25.0
 40
25.0
 40
26.0
 40
26.0
 40
26.0
 40
27.0
 40
27.0
 40
27.0
 40
28.0
 40
28.0
 40
28.0
 40
29.0
 40
29.0
 40
29.0
 40
30.0
 40
30.0
 40
30.0
 40
30.0
 10
171.5397775681001
 20
-55.73811276384329
 30
0.0
 10
171.5901895112584
 20
-55.90293054157988
 30
0.0
 10
171.6348158990088
 20
-56.06947693042711
 30
0.0
 10
171.6735861757975
 20
-56.23743443038507
 30
0.0
 10
172.5928192079015
 20
-60.21962526272277
 30
0.0
 10
170.1097971796948
 20
-64.19303192839621
 30
0.0
 10
166.1276021506207
 20
-65.11226498372197
 30
0.0
 10
161.5332714344985
 20
-66.17282081679018
 30
0.0
 10
157.4579826495789
 20
-68.81480887168516
 30
0.0
 10
154.614558555454
 20
-72.57612553741158
 30
0.0
 10
131.3298147050529
 20
-103.3776471963777
 30
0.0
 10
96.5714325362575
 20
-123.4454110802498
 30
0.0
 10
58.25415768047929
 20
-128.2098513568365
 30
0.0
 10
53.57501918874294
 20
-128.7916524678021
 30
0.0
 10
49.24936402132182
 20
-130.9999355228055
 30
0.0
 10
46.03372410335963
 20
-134.4485146886102
 30
0.0
 10
45.91617855080292
 20
-134.5745621885786
 30
0.0
 10
45.79425855391335
 20
-134.696482188548
 30
0.0
 10
45.66817577935222
 20
-134.8140277440741
 30
0.0
 10
42.67912502227592
 20
-137.6012191322663
 30
0.0
 10
37.99656458618244
 20
-137.4375655211962
 30
0.0
 10
35.20937415786425
 20
-134.4485146886102
 30
0.0
 10
31.99376943644593
 20
-130.9999355228055
 30
0.0
 10
27.66807888197172
 20
-128.7916524678021
 30
0.0
 10
22.98894027203057
 20
-128.2098513568365
 30
0.0
 10
-15.32830027394585
 20
-123.4454110802498
 30
0.0
 10
-50.08671859858953
 20
-103.3776471963777
 30
0.0
 10
-73.37146303721275
 20
-72.57612553741158
 30
0.0
 10
-76.21488720316846
 20
-68.81480887168516
 30
0.0
 10
-80.29014081326089
 20
-66.17282081679018
 30
0.0
 10
-84.88450692322343
 20
-65.11226498372197
 30
0.0
 10
-85.05246442318139
 20
-65.07349470595376
 30
0.0
 10
-85.21901081202863
 20
-65.02886831707625
 30
0.0
 10
-85.38382858976522
 20
-64.97845637264413
 30
0.0
 10
-89.2921477554548
 20
-63.78345692849858
 30
0.0
 10
-91.4916819215714
 20
-59.64639665175504
 30
0.0
 10
-90.29668247742585
 20
-55.73811276384329
 30
0.0
 10
-88.91795636665947
 20
-51.22901304274818
 30
0.0
 10
-89.1683580332634
 20
-46.37874193284985
 30
0.0
 10
-91.00407247724885
 20
-42.03555360060214
 30
0.0
 10
-106.0365685846021
 20
-6.469626942827089
 30
0.0
 10
-106.0365685846021
 20
33.66590082491696
 30
0.0
 10
-91.00407247724885
 20
69.23182573374898
 30
0.0
 10
-89.1683580332634
 20
73.57498053716188
 30
0.0
 10
-88.91795636665947
 20
78.42528494364873
 30
0.0
 10
-90.29668247742585
 20
82.93438455083424
 30
0.0
 10
-90.34705914407978
 20
83.09920232440717
 30
0.0
 10
-90.39168553295762
 20
83.2657487090471
 30
0.0
 10
-90.43045581072585
 20
83.43370831247495
 30
0.0
 10
-91.34968886605162
 20
87.41589693650134
 30
0.0
 10
-88.86669775556112
 20
91.38926822402108
 30
0.0
 10
-84.88450692322343
 20
92.30850125612506
 30
0.0
 10
-80.29014081326089
 20
93.36905706240135
 30
0.0
 10
-76.21488720316846
 20
96.01104505055417
 30
0.0
 10
-73.37146303721275
 20
99.77239689903854
 30
0.0
 10
-50.08671859858953
 20
130.573917779893
 30
0.0
 10
-15.32830027394585
 20
150.6416811568105
 30
0.0
 10
22.98894027203057
 20
155.4060860352604
 30
0.0
 10
27.66807888197172
 20
155.9879224093054
 30
0.0
 10
31.99376943644593
 20
158.196205408523
 30
0.0
 10
35.20937415786425
 20
161.6447492094322
 30
0.0
 10
35.32695409873432
 20
161.7708360706685
 30
0.0
 10
35.44887499113766
 20
161.8927519808829
 30
0.0
 10
35.57492159240814
 20
162.0102975334396
 30
0.0
 10
38.56397234948443
 20
164.7974535734445
 30
0.0
 10
43.24653278557792
 20
164.6337999665085
 30
0.0
 10
46.03372410335963
 20
161.6447492094322
 30
0.0
 10
49.24936402132182
 20
158.196205408523
 30
0.0
 10
53.57501918874294
 20
155.9879224093054
 30
0.0
 10
58.25415768047929
 20
155.4060860352604
 30
0.0
 10
96.5714325362575
 20
150.6416811568105
 30
0.0
 10
131.3298147050529
 20
130.573917779893
 30
0.0
 10
154.614558555454
 20
99.77239689903854
 30
0.0
 10
157.4579826495789
 20
96.01104505055417
 30
0.0
 10
161.5332714344985
 20
93.36905706240135
 30
0.0
 10
166.1276021506207
 20
92.30850125612506
 30
0.0
 10
166.295563847315
 20
92.26973331026579
 30
0.0
 10
166.4621060309757
 20
92.225104591586
 30
0.0
 10
166.6269238045486
 20
92.17472792620455
 30
0.0
 10
170.5352471795885
 20
90.97972851224709
 30
0.0
 10
172.7347769820576
 20
86.84266834001451
 30
0.0
 10
171.5397775681001
 20
82.93438455083424
 30
0.0
 10
170.1610514921632
 20
78.42528494364873
 30
0.0
 10
170.4114531524416
 20
73.57498053716188
 30
0.0
 10
172.2471675500531
 20
69.23182573374898
 30
0.0
 10
187.2796632776533
 20
33.66590082491696
 30
0.0
 10
187.2796632776533
 20
-6.469626942827089
 30
0.0
 10
172.2471675500531
 20
-42.03558887837998
 30
0.0
 10
170.4114531524416
 20
-46.37874193284985
 30
0.0
 10
170.1610514921632
 20
-51.22901304274818
 30
0.0
 10
171.5397775681001
 20
-55.73811276384329
 30
0.0
  0
ENDBLK
  5
5A
330
57
100
AcDbEntity
  8
0
100
AcDbBlockEnd
  0
BLOCK
  5
65
330
63
100
AcDbEntity
  8
0
100
AcDbBlockBegin
  2
block 6
 70
     0
 10
0.0
 20
0.0
 30
0.0
  3
block 6
  1

  0
INSERT
  5
68
330
63
100
AcDbEntity
  8
_U+30EC_U+30A4_U+30E4_U+30FC 1
100
AcDbBlockReference
  2
block 7
 10
0.0
 20
0.0
 30
0.0
  0
INSERT
  5
6D
330
63
100
AcDbEntity
  8
_U+30EC_U+30A4_U+30E4_U+30FC 1
100
AcDbBlockReference
  2
block 8
 10
0.0
 20
0.0
 30
0.0
  0
INSERT
  5
72
330
63
100
AcDbEntity
  8
_U+30EC_U+30A4_U+30E4_U+30FC 1
100
AcDbBlockReference
  2
block 9
 10
0.0
 20
0.0
 30
0.0
  0
INSERT
  5
7F
330
63
100
AcDbEntity
  8
_U+30EC_U+30A4_U+30E4_U+30FC 1
100
AcDbBlockReference
  2
block 10
 10
0.0
 20
0.0
 30
0.0
  0
INSERT
  5
8C
330
63
100
AcDbEntity
  8
_U+30EC_U+30A4_U+30E4_U+30FC 1
100
AcDbBlockReference
  2
block 11
 10
0.0
 20
0.0
 30
0.0
  0
INSERT
  5
99
330
63
100
AcDbEntity
  8
_U+30EC_U+30A4_U+30E4_U+30FC 1
100
AcDbBlockReference
  2
block 12
 10
0.0
 20
0.0
 30
0.0
  0
INSERT
  5
A6
330
63
100
AcDbEntity
  8
_U+30EC_U+30A4_U+30E4_U+30FC 1
100
AcDbBlockReference
  2
block 13
 10
0.0
 20
0.0
 30
0.0
  0
INSERT
  5
B3
330
63
100
AcDbEntity
  8
_U+30EC_U+30A4_U+30E4_U+30FC 1
100
AcDbBlockReference
  2
block 14
 10
0.0
 20
0.0
 30
0.0
  0
ENDBLK
  5
66
330
63
100
AcDbEntity
  8
0
100
AcDbBlockEnd
  0
BLOCK
  5
69
330
67
100
AcDbEntity
  8
0
100
AcDbBlockBegin
  2
block 7
 70
     0
 10
0.0
 20
0.0
 30
0.0
  3
block 7
  1

  0
SPLINE
  5
6B
330
67
100
AcDbEntity
  8
_U+30EC_U+30A4_U+30E4_U+30FC 1
 62
   250
420
  2234388
370
    18
100
AcDbSpline
210
0.0
220
0.0
230
1.0
 70
    11
 71
     3
 72
    20
 73
    16
 74
     0
 42
0.0000000001
 43
0.0000000001
 12
1.0
 22
0.0
 32
0.0
 13
1.0
 23
0.0
 33
0.0
 40
0.0
 40
0.0
 40
0.0
 40
0.0
 40
1.0
 40
1.0
 40
1.0
 40
2.0
 40
2.0
 40
2.0
 40
3.0
 40
3.0
 40
3.0
 40
4.0
 40
4.0
 40
4.0
 40
5.0
 40
5.0
 40
5.0
 40
5.0
 10
236.2669193853778
 20
18.22460582877703
 30
0.0
 10
236.2669193853778
 20
89.46934577300239
 30
0.0
 10
294.0221727766472
 20
147.2246051328763
 30
0.0
 10
365.2669224086832
 20
147.2246051328763
 30
0.0
 10
436.5116293353163
 20
147.2246051328763
 30
0.0
 10
494.2669254319886
 20
89.46934577300239
 30
0.0
 10
494.2669254319886
 20
18.22460582877703
 30
0.0
 10
494.2669254319886
 20
-53.02010109785611
 30
0.0
 10
436.5116293353163
 20
-110.7753971945284
 30
0.0
 10
365.2669224086832
 20
-110.7753971945284
 30
0.0
 10
294.0221727766472
 20
-110.7753971945284
 30
0.0
 10
236.2669193853778
 20
-53.02010109785611
 30
0.0
 10
236.2669193853778
 20
18.22460582877703
 30
0.0
 10
236.2669193853778
 20
18.22460582877703
 30
0.0
 10
236.2669193853778
 20
18.22460582877703
 30
0.0
 10
236.2669193853778
 20
18.22460582877703
 30
0.0
  0
ENDBLK
  5
6A
330
67
100
AcDbEntity
  8
0
100
AcDbBlockEnd
  0
BLOCK
  5
6E
330
6C
100
AcDbEntity
  8
0
100
AcDbBlockBegin
  2
block 8
 70
     0
 10
0.0
 20
0.0
 30
0.0
  3
block 8
  1

  0
SPLINE
  5
70
330
6C
100
AcDbEntity
  8
_U+30EC_U+30A4_U+30E4_U+30FC 1
 62
   250
420
  2234388
370
    18
100
AcDbSpline
210
0.0
220
0.0
230
1.0
 70
    11
 71
     3
 72
    95
 73
    91
 74
     0
 42
0.0000000001
 43
0.0000000001
 12
1.0
 22
0.0
 32
0.0
 13
1.0
 23
0.0
 33
0.0
 40
0.0
 40
0.0
 40
0.0
 40
0.0
 40
1.0
 40
1.0
 40
1.0
 40
2.0
 40
2.0
 40
2.0
 40
3.0
 40
3.0
 40
3.0
 40
4.0
 40
4.0
 40
4.0
 40
5.0
 40
5.0
 40
5.0
 40
6.0
 40
6.0
 40
6.0
 40
7.0
 40
7.0
 40
7.0
 40
8.0
 40
8.0
 40
8.0
 40
9.0
 40
9.0
 40
9.0
 40
10.0
 40
10.0
 40
10.0
 40
11.0
 40
11.0
 40
11.0
 40
12.0
 40
12.0
 40
12.0
 40
13.0
 40
13.0
 40
13.0
 40
14.0
 40
14.0
 40
14.0
 40
15.0
 40
15.0
 40
15.0
 40
16.0
 40
16.0
 40
16.0
 40
17.0
 40
17.0
 40
17.0
 40
18.0
 40
18.0
 40
18.0
 40
19.0
 40
19.0
 40
19.0
 40
20.0
 40
20.0
 40
20.0
 40
21.0
 40
21.0
 40
21.0
 40
22.0
 40
22.0
 40
22.0
 40
23.0
 40
23.0
 40
23.0
 40
24.0
 40
24.0
 40
24.0
 40
25.0
 40
25.0
 40
25.0
 40
26.0
 40
26.0
 40
26.0
 40
27.0
 40
27.0
 40
27.0
 40
28.0
 40
28.0
 40
28.0
 40
29.0
 40
29.0
 40
29.0
 40
30.0
 40
30.0
 40
30.0
 40
30.0
 10
239.7383524948762
 20
-60.58319804040968
 30
0.0
 10
244.3098584893585
 20
-61.63849748459025
 30
0.0
 10
248.3648625525734
 20
-64.26732692837776
 30
0.0
 10
251.1941402581703
 20
-68.00994637188636
 30
0.0
 10
274.4951824414889
 20
-98.83302275306961
 30
0.0
 10
309.2778709985531
 20
-118.9148271924935
 30
0.0
 10
347.6219569647583
 20
-123.6825835801905
 30
0.0
 10
352.2778121237554
 20
-124.2615271911568
 30
0.0
 10
356.5819568552988
 20
-126.4588035794965
 30
0.0
 10
359.7816160211657
 20
-129.8902024675273
 30
0.0
 10
362.6064487982374
 20
-132.919646355659
 30
0.0
 10
367.3522976859396
 20
-133.0855224667285
 30
0.0
 10
370.3817415740712
 20
-130.2606896896571
 30
0.0
 10
370.5095176851502
 20
-130.1415566341313
 30
0.0
 10
370.6330604628974
 20
-130.0179785786067
 30
0.0
 10
370.7522287962007
 20
-129.8902024675273
 30
0.0
 10
373.95185268429
 20
-126.4588035794965
 30
0.0
 10
378.2559885165472
 20
-124.2615271911568
 30
0.0
 10
382.9118437931612
 20
-123.6825835801905
 30
0.0
 10
421.2559307280196
 20
-118.9148271924935
 30
0.0
 10
456.0386554415461
 20
-98.83302275306961
 30
0.0
 10
479.3396982134985
 20
-68.00994637188636
 30
0.0
 10
482.1689759905691
 20
-64.26732692837776
 30
0.0
 10
486.2239801562216
 20
-61.63849748459025
 30
0.0
 10
490.7954509884123
 20
-60.58319804040968
 30
0.0
 10
494.8314757096252
 20
-59.65154720730946
 30
0.0
 10
497.3480159867739
 20
-55.62444776387152
 30
0.0
 10
496.416365153674
 20
-51.5884583204361
 30
0.0
 10
496.3770657092394
 20
-51.41824304270086
 30
0.0
 10
496.3318395981393
 20
-51.24943887607665
 30
0.0
 10
496.2807573759298
 20
-51.08239859834061
 30
0.0
 10
494.9089104318285
 20
-46.59573554390671
 30
0.0
 10
495.1580773762106
 20
-41.76955915622423
 30
0.0
 10
496.9846195979758
 20
-37.44803137952682
 30
0.0
 10
512.0276637608818
 20
-1.857184499535819
 30
0.0
 10
512.0276637608818
 20
38.30640930049986
 30
0.0
 10
496.9846195979758
 20
73.89724117027987
 30
0.0
 10
495.1580773762106
 20
78.21880411558317
 30
0.0
 10
494.9089104318285
 20
83.04494720146107
 30
0.0
 10
496.2807573759298
 20
87.53160804466042
 30
0.0
 10
497.4919140422935
 20
91.49273794360357
 30
0.0
 10
495.2626407095175
 20
95.68568053163402
 30
0.0
 10
491.301545988286
 20
96.89683475017802
 30
0.0
 10
491.1344704327718
 20
96.9479194202075
 30
0.0
 10
490.9657015439251
 20
96.99314308105433
 30
0.0
 10
490.7954509884123
 20
97.03244252449616
 30
0.0
 10
486.2239801562216
 20
98.08770666424078
 30
0.0
 10
482.1689759905691
 20
100.7165713193951
 30
0.0
 10
479.3396982134985
 20
104.4591906683574
 30
0.0
 10
456.0386554415461
 20
135.2822662708841
 30
0.0
 10
421.2559307280196
 20
155.364070202999
 30
0.0
 10
382.9118437931612
 20
160.1318305155227
 30
0.0
 10
378.2559885165472
 20
160.7107388487112
 30
0.0
 10
373.95185268429
 20
162.908046399425
 30
0.0
 10
370.7522287962007
 20
166.3394452007716
 30
0.0
 10
367.9273607413514
 20
169.368889012373
 30
0.0
 10
363.1815471314268
 20
169.5347694020607
 30
0.0
 10
360.1520679655177
 20
166.7098971357651
 30
0.0
 10
360.0243271322162
 20
166.5907640832489
 30
0.0
 10
359.9007490766915
 20
166.4672213086229
 30
0.0
 10
359.7816160211657
 20
166.3394452007716
 30
0.0
 10
356.5819568552988
 20
162.908046399425
 30
0.0
 10
352.2778121237554
 20
160.7107388487112
 30
0.0
 10
347.6219569647583
 20
160.1318305155227
 30
0.0
 10
309.2778709985531
 20
155.364070202999
 30
0.0
 10
274.4951824414889
 20
135.2822662708841
 30
0.0
 10
251.1941402581703
 20
104.4591906683574
 30
0.0
 10
248.3648625525734
 20
100.7165713193951
 30
0.0
 10
244.3098584893585
 20
98.08770666424078
 30
0.0
 10
239.7383524948762
 20
97.03244252449616
 30
0.0
 10
235.7023631533984
 20
96.10079171493122
 30
0.0
 10
233.185787662046
 20
92.07369237322663
 30
0.0
 10
234.1174443859149
 20
88.03770303174886
 30
0.0
 10
234.1567379150528
 20
87.86748775831363
 30
0.0
 10
234.2019640250101
 20
87.69868359595351
 30
0.0
 10
234.2530462459291
 20
87.53160804466042
 30
0.0
 10
235.6248931553748
 20
83.04494720146107
 30
0.0
 10
235.375761495064
 20
78.21880411558317
 30
0.0
 10
233.5491840416639
 20
73.89724117027987
 30
0.0
 10
218.5061402587773
 20
38.30640930049986
 30
0.0
 10
218.5061402587773
 20
-1.857184499535819
 30
0.0
 10
233.5491840416639
 20
-37.44803137952682
 30
0.0
 10
235.375761495064
 20
-41.76955915622423
 30
0.0
 10
235.6248931553748
 20
-46.59573554390671
 30
0.0
 10
234.2530462459291
 20
-51.08239859834061
 30
0.0
 10
233.0418896101616
 20
-55.04349331957248
 30
0.0
 10
235.2711628866215
 20
-59.23643359630213
 30
0.0
 10
239.2322927855646
 20
-60.44759026266583
 30
0.0
 10
239.3993330590808
 20
-60.49867248487529
 30
0.0
 10
239.568137221441
 20
-60.54393387375298
 30
0.0
 10
239.7383524948762
 20
-60.58319804040968
 30
0.0
  0
ENDBLK
  5
6F
330
6C
100
AcDbEntity
  8
0
100
AcDbBlockEnd
  0
BLOCK
  5
73
330
71
100
AcDbEntity
  8
0
100
AcDbBlockBegin
  2
block 9
 70
     0
 10
0.0
 20
0.0
 30
0.0
  3
block 9
  1

  0
POLYLINE
  5
75
330
71
100
AcDbEntity
  8
_U+30EC_U+30A4_U+30E4_U+30FC 1
 62
   250
420
  2234388
370
    18
100
AcDb2dPolyline
 66
     1
 10
0.0
 20
0.0
 30
0.0
  0
VERTEX
  5
76
330
75
100
AcDbEntity
  8
_U+30EC_U+30A4_U+30E4_U+30FC 1
 62
   250
420
  2234388
370
    18
100
AcDbVertex
100
AcDb2dVertex
 10
370.2669124074336
 20
155.3378588147788
 30
0.0
  0
VERTEX
  5
77
330
75
100
AcDbEntity
  8
_U+30EC_U+30A4_U+30E4_U+30FC 1
 62
   250
420
  2234388
370
    18
100
AcDbVertex
100
AcDb2dVertex
 10
365.2669224086832
 20
152.4511136106481
 30
0.0
  0
VERTEX
  5
78
330
75
100
AcDbEntity
  8
_U+30EC_U+30A4_U+30E4_U+30FC 1
 62
   250
420
  2234388
370
    18
100
AcDbVertex
100
AcDb2dVertex
 10
360.2669324099335
 20
155.3378588147788
 30
0.0
  0
VERTEX
  5
79
330
75
100
AcDbEntity
  8
_U+30EC_U+30A4_U+30E4_U+30FC 1
 62
   250
420
  2234388
370
    18
100
AcDbVertex
100
AcDb2dVertex
 10
360.2669324099335
 20
161.1113492230404
 30
0.0
  0
VERTEX
  5
7A
330
75
100
AcDbEntity
  8
_U+30EC_U+30A4_U+30E4_U+30FC 1
 62
   250
420
  2234388
370
    18
100
AcDbVertex
100
AcDb2dVertex
 10
365.2669224086832
 20
163.9980944271712
 30
0.0
  0
VERTEX
  5
7B
330
75
100
AcDbEntity
  8
_U+30EC_U+30A4_U+30E4_U+30FC 1
 62
   250
420
  2234388
370
    18
100
AcDbVertex
100
AcDb2dVertex
 10
370.2669124074336
 20
161.1113492230404
 30
0.0
  0
VERTEX
  5
7C
330
75
100
AcDbEntity
  8
_U+30EC_U+30A4_U+30E4_U+30FC 1
 62
   250
420
  2234388
370
    18
100
AcDbVertex
100
AcDb2dVertex
 10
370.2669124074336
 20
155.3378588147788
 30
0.0
  0
SEQEND
  5
7D
330
75
100
AcDbEntity
  8
_U+30EC_U+30A4_U+30E4_U+30FC 1
 62
   250
420
  2234388
370
    18
  0
ENDBLK
  5
74
330
71
100
AcDbEntity
  8
0
100
AcDbBlockEnd
  0
BLOCK
  5
80
330
7E
100
AcDbEntity
  8
0
100
AcDbBlockBegin
  2
block 10
 70
     0
 10
0.0
 20
0.0
 30
0.0
  3
block 10
  1

  0
POLYLINE
  5
82
330
7E
100
AcDbEntity
  8
_U+30EC_U+30A4_U+30E4_U+30FC 1
 62
   250
420
  2234388
370
    18
100
AcDb2dPolyline
 66
     1
 10
0.0
 20
0.0
 30
0.0
  0
VERTEX
  5
83
330
82
100
AcDbEntity
  8
_U+30EC_U+30A4_U+30E4_U+30FC 1
 62
   250
420
  2234388
370
    18
100
AcDbVertex
100
AcDb2dVertex
 10
249.0233638266331
 20
91.11134989777804
 30
0.0
  0
VERTEX
  5
84
330
82
100
AcDbEntity
  8
_U+30EC_U+30A4_U+30E4_U+30FC 1
 62
   250
420
  2234388
370
    18
100
AcDbVertex
100
AcDb2dVertex
 10
249.0233638266331
 20
85.33785948951649
 30
0.0
  0
VERTEX
  5
85
330
82
100
AcDbEntity
  8
_U+30EC_U+30A4_U+30E4_U+30FC 1
 62
   250
420
  2234388
370
    18
100
AcDbVertex
100
AcDb2dVertex
 10
244.0233676633341
 20
82.45111428538571
 30
0.0
  0
VERTEX
  5
86
330
82
100
AcDbEntity
  8
_U+30EC_U+30A4_U+30E4_U+30FC 1
 62
   250
420
  2234388
370
    18
100
AcDbVertex
100
AcDb2dVertex
 10
239.0233777908945
 20
85.33785948951649
 30
0.0
  0
VERTEX
  5
87
330
82
100
AcDbEntity
  8
_U+30EC_U+30A4_U+30E4_U+30FC 1
 62
   250
420
  2234388
370
    18
100
AcDbVertex
100
AcDb2dVertex
 10
239.0233777908945
 20
91.11134989777804
 30
0.0
  0
VERTEX
  5
88
330
82
100
AcDbEntity
  8
_U+30EC_U+30A4_U+30E4_U+30FC 1
 62
   250
420
  2234388
370
    18
100
AcDbVertex
100
AcDb2dVertex
 10
244.0233676633341
 20
93.9980951019088
 30
0.0
  0
VERTEX
  5
89
330
82
100
AcDbEntity
  8
_U+30EC_U+30A4_U+30E4_U+30FC 1
 62
   250
420
  2234388
370
    18
100
AcDbVertex
100
AcDb2dVertex
 10
249.0233638266331
 20
91.11134989777804
 30
0.0
  0
SEQEND
  5
8A
330
82
100
AcDbEntity
  8
_U+30EC_U+30A4_U+30E4_U+30FC 1
 62
   250
420
  2234388
370
    18
  0
ENDBLK
  5
81
330
7E
100
AcDbEntity
  8
0
100
AcDbBlockEnd
  0
BLOCK
  5
8D
330
8B
100
AcDbEntity
  8
0
100
AcDbBlockBegin
  2
block 11
 70
     0
 10
0.0
 20
0.0
 30
0.0
  3
block 11
  1

  0
POLYLINE
  5
8F
330
8B
100
AcDbEntity
  8
_U+30EC_U+30A4_U+30E4_U+30FC 1
 62
   250
420
  2234388
370
    18
100
AcDb2dPolyline
 66
     1
 10
0.0
 20
0.0
 30
0.0
  0
VERTEX
  5
90
330
8F
100
AcDbEntity
  8
_U+30EC_U+30A4_U+30E4_U+30FC 1
 62
   250
420
  2234388
370
    18
100
AcDbVertex
100
AcDb2dVertex
 10
244.0233676633341
 20
-46.00190471072162
 30
0.0
  0
VERTEX
  5
91
330
8F
100
AcDbEntity
  8
_U+30EC_U+30A4_U+30E4_U+30FC 1
 62
   250
420
  2234388
370
    18
100
AcDbVertex
100
AcDb2dVertex
 10
249.0233638266331
 20
-48.88864998777796
 30
0.0
  0
VERTEX
  5
92
330
8F
100
AcDbEntity
  8
_U+30EC_U+30A4_U+30E4_U+30FC 1
 62
   250
420
  2234388
370
    18
100
AcDbVertex
100
AcDb2dVertex
 10
249.0233638266331
 20
-54.66214054188999
 30
0.0
  0
VERTEX
  5
93
330
8F
100
AcDbEntity
  8
_U+30EC_U+30A4_U+30E4_U+30FC 1
 62
   250
420
  2234388
370
    18
100
AcDbVertex
100
AcDb2dVertex
 10
244.0233676633341
 20
-57.54888581894601
 30
0.0
  0
VERTEX
  5
94
330
8F
100
AcDbEntity
  8
_U+30EC_U+30A4_U+30E4_U+30FC 1
 62
   250
420
  2234388
370
    18
100
AcDbVertex
100
AcDb2dVertex
 10
239.0233777908945
 20
-54.66214054188999
 30
0.0
  0
VERTEX
  5
95
330
8F
100
AcDbEntity
  8
_U+30EC_U+30A4_U+30E4_U+30FC 1
 62
   250
420
  2234388
370
    18
100
AcDbVertex
100
AcDb2dVertex
 10
239.0233777908945
 20
-48.88864998777796
 30
0.0
  0
VERTEX
  5
96
330
8F
100
AcDbEntity
  8
_U+30EC_U+30A4_U+30E4_U+30FC 1
 62
   250
420
  2234388
370
    18
100
AcDbVertex
100
AcDb2dVertex
 10
244.0233676633341
 20
-46.00190471072162
 30
0.0
  0
SEQEND
  5
97
330
8F
100
AcDbEntity
  8
_U+30EC_U+30A4_U+30E4_U+30FC 1
 62
   250
420
  2234388
370
    18
  0
ENDBLK
  5
8E
330
8B
100
AcDbEntity
  8
0
100
AcDbBlockEnd
  0
BLOCK
  5
9A
330
98
100
AcDbEntity
  8
0
100
AcDbBlockBegin
  2
block 12
 70
     0
 10
0.0
 20
0.0
 30
0.0
  3
block 12
  1

  0
POLYLINE
  5
9C
330
98
100
AcDbEntity
  8
_U+30EC_U+30A4_U+30E4_U+30FC 1
 62
   250
420
  2234388
370
    18
100
AcDb2dPolyline
 66
     1
 10
0.0
 20
0.0
 30
0.0
  0
VERTEX
  5
9D
330
9C
100
AcDbEntity
  8
_U+30EC_U+30A4_U+30E4_U+30FC 1
 62
   250
420
  2234388
370
    18
100
AcDbVertex
100
AcDb2dVertex
 10
360.2669324099335
 20
-118.8886158036111
 30
0.0
  0
VERTEX
  5
9E
330
9C
100
AcDbEntity
  8
_U+30EC_U+30A4_U+30E4_U+30FC 1
 62
   250
420
  2234388
370
    18
100
AcDbVertex
100
AcDb2dVertex
 10
365.2669224086832
 20
-116.0018705265551
 30
0.0
  0
VERTEX
  5
9F
330
9C
100
AcDbEntity
  8
_U+30EC_U+30A4_U+30E4_U+30FC 1
 62
   250
420
  2234388
370
    18
100
AcDbVertex
100
AcDb2dVertex
 10
370.2669124074336
 20
-118.8886158036111
 30
0.0
  0
VERTEX
  5
A0
330
9C
100
AcDbEntity
  8
_U+30EC_U+30A4_U+30E4_U+30FC 1
 62
   250
420
  2234388
370
    18
100
AcDbVertex
100
AcDb2dVertex
 10
370.2669124074336
 20
-124.662141635501
 30
0.0
  0
VERTEX
  5
A1
330
9C
100
AcDbEntity
  8
_U+30EC_U+30A4_U+30E4_U+30FC 1
 62
   250
420
  2234388
370
    18
100
AcDbVertex
100
AcDb2dVertex
 10
365.2669224086832
 20
-127.5488869125573
 30
0.0
  0
VERTEX
  5
A2
330
9C
100
AcDbEntity
  8
_U+30EC_U+30A4_U+30E4_U+30FC 1
 62
   250
420
  2234388
370
    18
100
AcDbVertex
100
AcDb2dVertex
 10
360.2669324099335
 20
-124.662141635501
 30
0.0
  0
VERTEX
  5
A3
330
9C
100
AcDbEntity
  8
_U+30EC_U+30A4_U+30E4_U+30FC 1
 62
   250
420
  2234388
370
    18
100
AcDbVertex
100
AcDb2dVertex
 10
360.2669324099335
 20
-118.8886158036111
 30
0.0
  0
SEQEND
  5
A4
330
9C
100
AcDbEntity
  8
_U+30EC_U+30A4_U+30E4_U+30FC 1
 62
   250
420
  2234388
370
    18
  0
ENDBLK
  5
9B
330
98
100
AcDbEntity
  8
0
100
AcDbBlockEnd
  0
BLOCK
  5
A7
330
A5
100
AcDbEntity
  8
0
100
AcDbBlockBegin
  2
block 13
 70
     0
 10
0.0
 20
0.0
 30
0.0
  3
block 13
  1

  0
POLYLINE
  5
A9
330
A5
100
AcDbEntity
  8
_U+30EC_U+30A4_U+30E4_U+30FC 1
 62
   250
420
  2234388
370
    18
100
AcDb2dPolyline
 66
     1
 10
0.0
 20
0.0
 30
0.0
  0
VERTEX
  5
AA
330
A9
100
AcDbEntity
  8
_U+30EC_U+30A4_U+30E4_U+30FC 1
 62
   250
420
  2234388
370
    18
100
AcDbVertex
100
AcDb2dVertex
 10
481.5104809907333
 20
-54.66214054188999
 30
0.0
  0
VERTEX
  5
AB
330
A9
100
AcDbEntity
  8
_U+30EC_U+30A4_U+30E4_U+30FC 1
 62
   250
420
  2234388
370
    18
100
AcDbVertex
100
AcDb2dVertex
 10
481.5104809907333
 20
-48.88864998777796
 30
0.0
  0
VERTEX
  5
AC
330
A9
100
AcDbEntity
  8
_U+30EC_U+30A4_U+30E4_U+30FC 1
 62
   250
420
  2234388
370
    18
100
AcDbVertex
100
AcDb2dVertex
 10
486.5104709894837
 20
-46.00190471072162
 30
0.0
  0
VERTEX
  5
AD
330
A9
100
AcDbEntity
  8
_U+30EC_U+30A4_U+30E4_U+30FC 1
 62
   250
420
  2234388
370
    18
100
AcDbVertex
100
AcDb2dVertex
 10
491.5104609882334
 20
-48.88864998777796
 30
0.0
  0
VERTEX
  5
AE
330
A9
100
AcDbEntity
  8
_U+30EC_U+30A4_U+30E4_U+30FC 1
 62
   250
420
  2234388
370
    18
100
AcDbVertex
100
AcDb2dVertex
 10
491.5104609882334
 20
-54.66214054188999
 30
0.0
  0
VERTEX
  5
AF
330
A9
100
AcDbEntity
  8
_U+30EC_U+30A4_U+30E4_U+30FC 1
 62
   250
420
  2234388
370
    18
100
AcDbVertex
100
AcDb2dVertex
 10
486.5104709894837
 20
-57.54888581894601
 30
0.0
  0
VERTEX
  5
B0
330
A9
100
AcDbEntity
  8
_U+30EC_U+30A4_U+30E4_U+30FC 1
 62
   250
420
  2234388
370
    18
100
AcDbVertex
100
AcDb2dVertex
 10
481.5104809907333
 20
-54.66214054188999
 30
0.0
  0
SEQEND
  5
B1
330
A9
100
AcDbEntity
  8
_U+30EC_U+30A4_U+30E4_U+30FC 1
 62
   250
420
  2234388
370
    18
  0
ENDBLK
  5
A8
330
A5
100
AcDbEntity
  8
0
100
AcDbBlockEnd
  0
BLOCK
  5
B4
330
B2
100
AcDbEntity
  8
0
100
AcDbBlockBegin
  2
block 14
 70
     0
 10
0.0
 20
0.0
 30
0.0
  3
block 14
  1

  0
POLYLINE
  5
B6
330
B2
100
AcDbEntity
  8
_U+30EC_U+30A4_U+30E4_U+30FC 1
 62
   250
420
  2234388
370
    18
100
AcDb2dPolyline
 66
     1
 10
0.0
 20
0.0
 30
0.0
  0
VERTEX
  5
B7
330
B6
100
AcDbEntity
  8
_U+30EC_U+30A4_U+30E4_U+30FC 1
 62
   250
420
  2234388
370
    18
100
AcDbVertex
100
AcDb2dVertex
 10
486.5104709894837
 20
82.45111428538571
 30
0.0
  0
VERTEX
  5
B8
330
B6
100
AcDbEntity
  8
_U+30EC_U+30A4_U+30E4_U+30FC 1
 62
   250
420
  2234388
370
    18
100
AcDbVertex
100
AcDb2dVertex
 10
481.5104809907333
 20
85.33785948951649
 30
0.0
  0
VERTEX
  5
B9
330
B6
100
AcDbEntity
  8
_U+30EC_U+30A4_U+30E4_U+30FC 1
 62
   250
420
  2234388
370
    18
100
AcDbVertex
100
AcDb2dVertex
 10
481.5104809907333
 20
91.11134989777804
 30
0.0
  0
VERTEX
  5
BA
330
B6
100
AcDbEntity
  8
_U+30EC_U+30A4_U+30E4_U+30FC 1
 62
   250
420
  2234388
370
    18
100
AcDbVertex
100
AcDb2dVertex
 10
486.5104709894837
 20
93.9980951019088
 30
0.0
  0
VERTEX
  5
BB
330
B6
100
AcDbEntity
  8
_U+30EC_U+30A4_U+30E4_U+30FC 1
 62
   250
420
  2234388
370
    18
100
AcDbVertex
100
AcDb2dVertex
 10
491.5104609882334
 20
91.11134989777804
 30
0.0
  0
VERTEX
  5
BC
330
B6
100
AcDbEntity
  8
_U+30EC_U+30A4_U+30E4_U+30FC 1
 62
   250
420
  2234388
370
    18
100
AcDbVertex
100
AcDb2dVertex
 10
491.5104609882334
 20
85.33785948951649
 30
0.0
  0
VERTEX
  5
BD
330
B6
100
AcDbEntity
  8
_U+30EC_U+30A4_U+30E4_U+30FC 1
 62
   250
420
  2234388
370
    18
100
AcDbVertex
100
AcDb2dVertex
 10
486.5104709894837
 20
82.45111428538571
 30
0.0
  0
SEQEND
  5
BE
330
B6
100
AcDbEntity
  8
_U+30EC_U+30A4_U+30E4_U+30FC 1
 62
   250
420
  2234388
370
    18
  0
ENDBLK
  5
B5
330
B2
100
AcDbEntity
  8
0
100
AcDbBlockEnd
  0
BLOCK
  5
C1
330
BF
100
AcDbEntity
  8
0
100
AcDbBlockBegin
  2
block 15
 70
     0
 10
0.0
 20
0.0
 30
0.0
  3
block 15
  1

  0
INSERT
  5
C4
330
BF
100
AcDbEntity
  8
_U+30EC_U+30A4_U+30E4_U+30FC 1
100
AcDbBlockReference
  2
block 16
 10
0.0
 20
0.0
 30
0.0
  0
SPLINE
  5
C8
330
BF
100
AcDbEntity
  8
_U+30EC_U+30A4_U+30E4_U+30FC 1
 62
   250
420
  2234388
370
    18
100
AcDbSpline
210
0.0
220
0.0
230
1.0
 70
     8
 71
     3
 72
    95
 73
    91
 74
     0
 42
0.0000000001
 43
0.0000000001
 12
1.0
 22
0.0
 32
0.0
 13
1.0
 23
0.0
 33
0.0
 40
0.0
 40
0.0
 40
0.0
 40
0.0
 40
1.0
 40
1.0
 40
1.0
 40
2.0
 40
2.0
 40
2.0
 40
3.0
 40
3.0
 40
3.0
 40
4.0
 40
4.0
 40
4.0
 40
5.0
 40
5.0
 40
5.0
 40
6.0
 40
6.0
 40
6.0
 40
7.0
 40
7.0
 40
7.0
 40
8.0
 40
8.0
 40
8.0
 40
9.0
 40
9.0
 40
9.0
 40
10.0
 40
10.0
 40
10.0
 40
11.0
 40
11.0
 40
11.0
 40
12.0
 40
12.0
 40
12.0
 40
13.0
 40
13.0
 40
13.0
 40
14.0
 40
14.0
 40
14.0
 40
15.0
 40
15.0
 40
15.0
 40
16.0
 40
16.0
 40
16.0
 40
17.0
 40
17.0
 40
17.0
 40
18.0
 40
18.0
 40
18.0
 40
19.0
 40
19.0
 40
19.0
 40
20.0
 40
20.0
 40
20.0
 40
21.0
 40
21.0
 40
21.0
 40
22.0
 40
22.0
 40
22.0
 40
23.0
 40
23.0
 40
23.0
 40
24.0
 40
24.0
 40
24.0
 40
25.0
 40
25.0
 40
25.0
 40
26.0
 40
26.0
 40
26.0
 40
27.0
 40
27.0
 40
27.0
 40
28.0
 40
28.0
 40
28.0
 40
29.0
 40
29.0
 40
29.0
 40
30.0
 40
30.0
 40
30.0
 40
30.0
 10
253.7296951934829
 20
-236.202184663172
 30
0.0
 10
250.5863394403432
 20
-236.9302121629896
 30
0.0
 10
248.1563356134489
 20
-239.6473418845327
 30
0.0
 10
247.9404708967338
 20
-243.0327385503531
 30
0.0
 10
247.8829681204231
 20
-243.9344032723497
 30
0.0
 10
247.9888720066101
 20
-244.8390313276791
 30
0.0
 10
248.2530319998708
 20
-245.7030193830186
 30
0.0
 10
249.6248789093165
 20
-250.1896824374525
 30
0.0
 10
249.3757472490058
 20
-255.0158235473569
 30
0.0
 10
247.5491697956056
 20
-259.3373866018324
 30
0.0
 10
232.506126012719
 20
-294.9282193707123
 30
0.0
 10
232.506126012719
 20
-335.0918282495602
 30
0.0
 10
247.5491697956056
 20
-370.6826610184407
 30
0.0
 10
249.3757472490058
 20
-375.0041887951381
 30
0.0
 10
249.6248789093165
 20
-379.83036518282
 30
0.0
 10
248.2530319998708
 20
-384.3170282372539
 30
0.0
 10
247.0418753641034
 20
-388.2781229584861
 30
0.0
 10
249.2711486405632
 20
-392.4710985129933
 30
0.0
 10
253.2322432617295
 20
-393.682255179357
 30
0.0
 10
253.3993188130226
 20
-393.7333374015664
 30
0.0
 10
253.5681229753827
 20
-393.7785635126666
 30
0.0
 10
253.7383382488179
 20
-393.8178276793236
 30
0.0
 10
258.3098442433002
 20
-394.8731271235039
 30
0.0
 10
262.3648130287382
 20
-397.5019565672914
 30
0.0
 10
265.194126012112
 20
-401.2446112885778
 30
0.0
 10
288.4951681954307
 20
-432.0676523919832
 30
0.0
 10
323.2778567524948
 20
-452.1494568314068
 30
0.0
 10
361.6219518540393
 20
-456.9172132191038
 30
0.0
 10
366.2778071306527
 20
-457.4961568300704
 30
0.0
 10
370.5819429629097
 20
-459.6934684961879
 30
0.0
 10
373.7816021287766
 20
-463.1248321064409
 30
0.0
 10
376.6064349058483
 20
-466.1543112723501
 30
0.0
 10
381.3522837935511
 20
-466.3201521056421
 30
0.0
 10
384.3817276816822
 20
-463.4953193285704
 30
0.0
 10
384.5095037927618
 20
-463.3761862730446
 30
0.0
 10
384.6330465705083
 20
-463.2526082175199
 30
0.0
 10
384.7521796260341
 20
-463.1248321064409
 30
0.0
 10
387.951838791901
 20
-459.6934684961879
 30
0.0
 10
392.2559746241581
 20
-457.4961568300704
 30
0.0
 10
396.9118299007721
 20
-456.9172132191038
 30
0.0
 10
435.2559168356305
 20
-452.1494568314068
 30
0.0
 10
470.038641549157
 20
-432.0676523919832
 30
0.0
 10
493.3396843211094
 20
-401.2446112885778
 30
0.0
 10
496.16896209818
 20
-397.5019565672914
 30
0.0
 10
500.2239662638332
 20
-394.8731271235039
 30
0.0
 10
504.7954370960232
 20
-393.8178276793236
 30
0.0
 10
508.8314618172369
 20
-392.8861768462231
 30
0.0
 10
511.3480020943854
 20
-388.859112680563
 30
0.0
 10
510.4163512612849
 20
-384.82308795935
 30
0.0
 10
510.3770518168504
 20
-384.6528726816148
 30
0.0
 10
510.3318257057502
 20
-384.4840685149899
 30
0.0
 10
510.2807434835407
 20
-384.3170282372539
 30
0.0
 10
508.9088965394394
 20
-379.83036518282
 30
0.0
 10
509.158028206044
 20
-375.0041887951381
 30
0.0
 10
510.9846057055875
 20
-370.6826610184407
 30
0.0
 10
526.0276498684934
 20
-335.0918282495602
 30
0.0
 10
526.0276498684934
 20
-294.9282193707123
 30
0.0
 10
510.9846057055875
 20
-259.3373866018324
 30
0.0
 10
509.158028206044
 20
-255.0158235473569
 30
0.0
 10
508.9088965394394
 20
-250.1896824374525
 30
0.0
 10
510.2807434835407
 20
-245.7030193830186
 30
0.0
 10
511.4919001499051
 20
-241.7419246617871
 30
0.0
 10
509.2626268171291
 20
-237.5489491072793
 30
0.0
 10
505.3015320958969
 20
-236.3377924409156
 30
0.0
 10
505.1344565403834
 20
-236.2867102187061
 30
0.0
 10
504.9656523737585
 20
-236.2414841076066
 30
0.0
 10
504.7954370960232
 20
-236.202184663172
 30
0.0
 10
500.2239662638332
 20
-235.1469204967686
 30
0.0
 10
496.16896209818
 20
-232.5180910529818
 30
0.0
 10
493.3396843211094
 20
-228.7754363316947
 30
0.0
 10
470.038641549157
 20
-197.9523952282899
 30
0.0
 10
435.2559168356305
 20
-177.8705555110882
 30
0.0
 10
396.9118299007721
 20
-173.1027991233912
 30
0.0
 10
392.2559746241581
 20
-172.5238907902021
 30
0.0
 10
387.951838791901
 20
-170.3265791240852
 30
0.0
 10
384.7521796260341
 20
-166.8951802360541
 30
0.0
 10
381.9273468489624
 20
-163.8657363479224
 30
0.0
 10
377.1814979612603
 20
-163.6998602368529
 30
0.0
 10
374.1520540731286
 20
-166.5247282917021
 30
0.0
 10
374.0241368509382
 20
-166.6440024583393
 30
0.0
 10
373.9005940731917
 20
-166.7675805138639
 30
0.0
 10
373.7816021287766
 20
-166.8951802360541
 30
0.0
 10
370.5819429629097
 20
-170.3265791240852
 30
0.0
 10
366.2778071306527
 20
-172.5238907902021
 30
0.0
 10
361.6219518540393
 20
-173.1027991233912
 30
0.0
 10
323.2778567524948
 20
-177.8705555110882
 30
0.0
 10
288.4951681954307
 20
-197.9523952282899
 30
0.0
 10
265.194126012112
 20
-228.7754363316947
 30
0.0
 10
262.3648130287382
 20
-232.5180910529818
 30
0.0
 10
258.3098442433002
 20
-235.1469204967686
 30
0.0
 10
253.7383382488179
 20
-236.202184663172
 30
0.0
  0
SPLINE
  5
C9
330
BF
100
AcDbEntity
  8
_U+30EC_U+30A4_U+30E4_U+30FC 1
 62
   250
420
  2234388
370
    18
100
AcDbSpline
210
0.0
220
0.0
230
1.0
 70
    11
 71
     3
 72
    17
 73
    13
 74
     0
 42
0.0000000001
 43
0.0000000001
 12
1.0
 22
0.0
 32
0.0
 13
1.0
 23
0.0
 33
0.0
 40
0.0
 40
0.0
 40
0.0
 40
0.0
 40
1.0
 40
1.0
 40
1.0
 40
2.0
 40
2.0
 40
2.0
 40
3.0
 40
3.0
 40
3.0
 40
4.0
 40
4.0
 40
4.0
 40
4.0
 10
382.2668954599891
 20
-175.0100216229139
 30
0.0
 10
382.2668954599891
 20
-176.6668777336112
 30
0.0
 10
380.9237646269914
 20
-178.0100085666089
 30
0.0
 10
379.2669085162941
 20
-178.0100085666089
 30
0.0
 10
377.6100524055975
 20
-178.0100085666089
 30
0.0
 10
376.2668862948223
 20
-176.6668777336112
 30
0.0
 10
376.2668862948223
 20
-175.0100216229139
 30
0.0
 10
376.2668862948223
 20
-173.3531655122173
 30
0.0
 10
377.6100524055975
 20
-172.0100346792196
 30
0.0
 10
379.2669085162941
 20
-172.0100346792196
 30
0.0
 10
380.9237646269914
 20
-172.0100346792196
 30
0.0
 10
382.2668954599891
 20
-173.3531655122173
 30
0.0
 10
382.2668954599891
 20
-175.0100216229139
 30
0.0
  0
SPLINE
  5
CA
330
BF
100
AcDbEntity
  8
_U+30EC_U+30A4_U+30E4_U+30FC 1
 62
   250
420
  2234388
370
    18
100
AcDbSpline
210
0.0
220
0.0
230
1.0
 70
    11
 71
     3
 72
    17
 73
    13
 74
     0
 42
0.0000000001
 43
0.0000000001
 12
1.0
 22
0.0
 32
0.0
 13
1.0
 23
0.0
 33
0.0
 40
0.0
 40
0.0
 40
0.0
 40
0.0
 40
1.0
 40
1.0
 40
1.0
 40
2.0
 40
2.0
 40
2.0
 40
3.0
 40
3.0
 40
3.0
 40
4.0
 40
4.0
 40
4.0
 40
4.0
 10
259.5233292123416
 20
-242.4119554949526
 30
0.0
 10
260.9582175090679
 20
-243.2403835503009
 30
0.0
 10
261.4498486076365
 20
-245.0751454942866
 30
0.0
 10
260.6214205732159
 20
-246.5100338272612
 30
0.0
 10
259.7929925387953
 20
-247.9448868824582
 30
0.0
 10
257.9582306411595
 20
-248.4365179934462
 30
0.0
 10
256.5233423444332
 20
-247.6080899380979
 30
0.0
 10
255.0884540477069
 20
-246.7796618827496
 30
0.0
 10
254.5968229491384
 20
-244.9448999387639
 30
0.0
 10
255.425250983559
 20
-243.5100116057893
 30
0.0
 10
256.2536790179796
 20
-242.0751232728147
 30
0.0
 10
258.0884761933922
 20
-241.5835274396043
 30
0.0
 10
259.5233292123416
 20
-242.4119554949526
 30
0.0
  0
SPLINE
  5
CB
330
BF
100
AcDbEntity
  8
_U+30EC_U+30A4_U+30E4_U+30FC 1
 62
   250
420
  2234388
370
    18
100
AcDbSpline
210
0.0
220
0.0
230
1.0
 70
    11
 71
     3
 72
    17
 73
    13
 74
     0
 42
0.0000000001
 43
0.0000000001
 12
1.0
 22
0.0
 32
0.0
 13
1.0
 23
0.0
 33
0.0
 40
0.0
 40
0.0
 40
0.0
 40
0.0
 40
1.0
 40
1.0
 40
1.0
 40
2.0
 40
2.0
 40
2.0
 40
3.0
 40
3.0
 40
3.0
 40
4.0
 40
4.0
 40
4.0
 40
4.0
 10
256.5233423444332
 20
-382.411922404397
 30
0.0
 10
257.9582306411595
 20
-381.5834943490487
 30
0.0
 10
259.7929925387953
 20
-382.0751254600368
 30
0.0
 10
260.6214205732159
 20
-383.5100137930114
 30
0.0
 10
261.4498486076365
 20
-384.9449021259859
 30
0.0
 10
260.9582175090679
 20
-386.7796640699716
 30
0.0
 10
259.5233292123416
 20
-387.6080921253199
 30
0.0
 10
258.0884409156153
 20
-388.4365201806689
 30
0.0
 10
256.2536790179796
 20
-387.9448890696802
 30
0.0
 10
255.425250983559
 20
-386.5100007367056
 30
0.0
 10
254.5968229491384
 20
-385.0751476815092
 30
0.0
 10
255.0884540477069
 20
-383.2403504597454
 30
0.0
 10
256.5233423444332
 20
-382.411922404397
 30
0.0
  0
SPLINE
  5
CC
330
BF
100
AcDbEntity
  8
_U+30EC_U+30A4_U+30E4_U+30FC 1
 62
   250
420
  2234388
370
    18
100
AcDbSpline
210
0.0
220
0.0
230
1.0
 70
    11
 71
     3
 72
    17
 73
    13
 74
     0
 42
0.0000000001
 43
0.0000000001
 12
1.0
 22
0.0
 32
0.0
 13
1.0
 23
0.0
 33
0.0
 40
0.0
 40
0.0
 40
0.0
 40
0.0
 40
1.0
 40
1.0
 40
1.0
 40
2.0
 40
2.0
 40
2.0
 40
3.0
 40
3.0
 40
3.0
 40
4.0
 40
4.0
 40
4.0
 40
4.0
 10
376.2668862948223
 20
-455.0100259973586
 30
0.0
 10
376.2668862948223
 20
-453.3531698866619
 30
0.0
 10
377.6100524055975
 20
-452.010003775886
 30
0.0
 10
379.2669085162941
 20
-452.010003775886
 30
0.0
 10
380.9237646269914
 20
-452.010003775886
 30
0.0
 10
382.2668954599891
 20
-453.3531698866619
 30
0.0
 10
382.2668954599891
 20
-455.0100259973586
 30
0.0
 10
382.2668954599891
 20
-456.6668468302777
 30
0.0
 10
380.9237646269914
 20
-458.0100129410529
 30
0.0
 10
379.2669085162941
 20
-458.0100129410529
 30
0.0
 10
377.6100524055975
 20
-458.0100129410529
 30
0.0
 10
376.2668862948223
 20
-456.6668468302777
 30
0.0
 10
376.2668862948223
 20
-455.0100259973586
 30
0.0
  0
SPLINE
  5
CD
330
BF
100
AcDbEntity
  8
_U+30EC_U+30A4_U+30E4_U+30FC 1
 62
   250
420
  2234388
370
    18
100
AcDbSpline
210
0.0
220
0.0
230
1.0
 70
    11
 71
     3
 72
    17
 73
    13
 74
     0
 42
0.0000000001
 43
0.0000000001
 12
1.0
 22
0.0
 32
0.0
 13
1.0
 23
0.0
 33
0.0
 40
0.0
 40
0.0
 40
0.0
 40
0.0
 40
1.0
 40
1.0
 40
1.0
 40
2.0
 40
2.0
 40
2.0
 40
3.0
 40
3.0
 40
3.0
 40
4.0
 40
4.0
 40
4.0
 40
4.0
 10
499.0104459863584
 20
-387.6080921253199
 30
0.0
 10
497.5755576533838
 20
-386.7796640699716
 30
0.0
 10
497.0839265423958
 20
-384.9449021259859
 30
0.0
 10
497.9123545977441
 20
-383.5100137930114
 30
0.0
 10
498.7407826530925
 20
-382.0751254600368
 30
0.0
 10
500.5755798748563
 20
-381.5834943490487
 30
0.0
 10
502.0104329300527
 20
-382.411922404397
 30
0.0
 10
503.4453212630279
 20
-383.2403504597454
 30
0.0
 10
503.936952374016
 20
-385.0751476815092
 30
0.0
 10
503.1085243186676
 20
-386.5100007367056
 30
0.0
 10
502.2800962633187
 20
-387.9448890696802
 30
0.0
 10
500.445334319333
 20
-388.4365201806689
 30
0.0
 10
499.0104459863584
 20
-387.6080921253199
 30
0.0
  0
SPLINE
  5
CE
330
BF
100
AcDbEntity
  8
_U+30EC_U+30A4_U+30E4_U+30FC 1
 62
   250
420
  2234388
370
    18
100
AcDbSpline
210
0.0
220
0.0
230
1.0
 70
    11
 71
     3
 72
    17
 73
    13
 74
     0
 42
0.0000000001
 43
0.0000000001
 12
1.0
 22
0.0
 32
0.0
 13
1.0
 23
0.0
 33
0.0
 40
0.0
 40
0.0
 40
0.0
 40
0.0
 40
1.0
 40
1.0
 40
1.0
 40
2.0
 40
2.0
 40
2.0
 40
3.0
 40
3.0
 40
3.0
 40
4.0
 40
4.0
 40
4.0
 40
4.0
 10
502.0104329300527
 20
-247.6080899380979
 30
0.0
 10
500.5755798748563
 20
-248.4365179934462
 30
0.0
 10
498.7407826530925
 20
-247.9448868824582
 30
0.0
 10
497.9123545977441
 20
-246.5100338272612
 30
0.0
 10
497.0839265423958
 20
-245.0751454942866
 30
0.0
 10
497.5755576533838
 20
-243.2403835503009
 30
0.0
 10
499.0104459863584
 20
-242.4119554949526
 30
0.0
 10
500.445334319333
 20
-241.5835274396043
 30
0.0
 10
502.2800962633187
 20
-242.0751232728147
 30
0.0
 10
503.1085243186676
 20
-243.5100116057893
 30
0.0
 10
503.936952374016
 20
-244.9448999387639
 30
0.0
 10
503.4453212630279
 20
-246.7796618827496
 30
0.0
 10
502.0104329300527
 20
-247.6080899380979
 30
0.0
  0
ENDBLK
  5
C2
330
BF
100
AcDbEntity
  8
0
100
AcDbBlockEnd
  0
BLOCK
  5
C5
330
C3
100
AcDbEntity
  8
0
100
AcDbBlockBegin
  2
block 16
 70
     0
 10
0.0
 20
0.0
 30
0.0
  3
block 16
  1

  0
SPLINE
  5
C7
330
C3
100
AcDbEntity
  8
_U+30EC_U+30A4_U+30E4_U+30FC 1
 62
   250
420
  2234388
370
    18
100
AcDbSpline
210
0.0
220
0.0
230
1.0
 70
    11
 71
     3
 72
    20
 73
    16
 74
     0
 42
0.0000000001
 43
0.0000000001
 12
1.0
 22
0.0
 32
0.0
 13
1.0
 23
0.0
 33
0.0
 40
0.0
 40
0.0
 40
0.0
 40
0.0
 40
1.0
 40
1.0
 40
1.0
 40
2.0
 40
2.0
 40
2.0
 40
3.0
 40
3.0
 40
3.0
 40
4.0
 40
4.0
 40
4.0
 40
5.0
 40
5.0
 40
5.0
 40
5.0
 10
250.2669054929887
 20
-315.0100238101366
 30
0.0
 10
250.2669054929887
 20
-243.7652816057253
 30
0.0
 10
308.022158530589
 20
-186.0100207868305
 30
0.0
 10
379.2669085162941
 20
-186.0100207868305
 30
0.0
 10
450.5116154429279
 20
-186.0100207868305
 30
0.0
 10
508.2669115396002
 20
-243.7652816057253
 30
0.0
 10
508.2669115396002
 20
-315.0100238101366
 30
0.0
 10
508.2669115396002
 20
-386.2547660145472
 30
0.0
 10
450.5116154429279
 20
-444.010026833442
 30
0.0
 10
379.2669085162941
 20
-444.010026833442
 30
0.0
 10
308.022158530589
 20
-444.010026833442
 30
0.0
 10
250.2669054929887
 20
-386.2547660145472
 30
0.0
 10
250.2669054929887
 20
-315.0100238101366
 30
0.0
 10
250.2669054929887
 20
-315.0100238101366
 30
0.0
 10
250.2669054929887
 20
-315.0100238101366
 30
0.0
 10
250.2669054929887
 20
-315.0100238101366
 30
0.0
  0
ENDBLK
  5
C6
330
C3
100
AcDbEntity
  8
0
100
AcDbBlockEnd
  0
BLOCK
  5
D8
330
D6
100
AcDbEntity
  8
0
100
AcDbBlockBegin
  2
block 17
 70
     0
 10
0.0
 20
0.0
 30
0.0
  3
block 17
  1

  0
INSERT
  5
DB
330
D6
100
AcDbEntity
  8
_U+30EC_U+30A4_U+30E4_U+30FC 1
100
AcDbBlockReference
  2
block 18
 10
0.0
 20
0.0
 30
0.0
  0
SPLINE
  5
E7
330
D6
100
AcDbEntity
  8
_U+30EC_U+30A4_U+30E4_U+30FC 1
 62
   250
420
  2234388
370
    18
100
AcDbSpline
210
0.0
220
0.0
230
1.0
 70
    11
 71
     3
 72
    17
 73
    13
 74
     0
 42
0.0000000001
 43
0.0000000001
 12
1.0
 22
0.0
 32
0.0
 13
1.0
 23
0.0
 33
0.0
 40
0.0
 40
0.0
 40
0.0
 40
0.0
 40
1.0
 40
1.0
 40
1.0
 40
2.0
 40
2.0
 40
2.0
 40
3.0
 40
3.0
 40
3.0
 40
4.0
 40
4.0
 40
4.0
 40
4.0
 10
42.13055559182665
 20
65.84434776461518
 30
0.0
 10
42.13055559182665
 20
65.01591973019458
 30
0.0
 10
41.4589725534046
 20
64.34433669177254
 30
0.0
 10
40.63054451898401
 20
64.34433669177254
 30
0.0
 10
39.80211648456341
 20
64.34433669177254
 30
0.0
 10
39.13053344614136
 20
65.01591973019458
 30
0.0
 10
39.13053344614136
 20
65.84434776461518
 30
0.0
 10
39.13053344614136
 20
66.67277579903578
 30
0.0
 10
39.80211648456341
 20
67.34435883745783
 30
0.0
 10
40.63054451898401
 20
67.34435883745783
 30
0.0
 10
41.4589725534046
 20
67.34435883745783
 30
0.0
 10
42.13055559182665
 20
66.67277579903578
 30
0.0
 10
42.13055559182665
 20
65.84434776461518
 30
0.0
  0
SPLINE
  5
E8
330
D6
100
AcDbEntity
  8
_U+30EC_U+30A4_U+30E4_U+30FC 1
 62
   250
420
  2234388
370
    18
100
AcDbSpline
210
0.0
220
0.0
230
1.0
 70
    11
 71
     3
 72
    17
 73
    13
 74
     0
 42
0.0000000001
 43
0.0000000001
 12
1.0
 22
0.0
 32
0.0
 13
1.0
 23
0.0
 33
0.0
 40
0.0
 40
0.0
 40
0.0
 40
0.0
 40
1.0
 40
1.0
 40
1.0
 40
2.0
 40
2.0
 40
2.0
 40
3.0
 40
3.0
 40
3.0
 40
4.0
 40
4.0
 40
4.0
 40
4.0
 10
-5.07682499873066
 20
-10.81038110840863
 30
0.0
 10
-4.359380832243371
 20
-10.39618471962323
 30
0.0
 10
-3.441996332472838
 20
-10.64200027511723
 30
0.0
 10
-3.027782304798675
 20
-11.35940916382668
 30
0.0
 10
-2.6135718049022
 20
-12.07685333031397
 30
0.0
 10
-2.859383832618512
 20
-12.99425194119589
 30
0.0
 10
-3.576813887994729
 20
-13.4084483299813
 30
0.0
 10
-4.294258054482018
 20
-13.82267999654422
 30
0.0
 10
-5.211656665363623
 20
-13.57686444105022
 30
0.0
 10
-5.625853054149027
 20
-12.85942027456293
 30
0.0
 10
-6.040084720712271
 20
-12.14197610807564
 30
0.0
 10
-5.794269165217949
 20
-11.22461277497156
 30
0.0
 10
-5.07682499873066
 20
-10.81038110840863
 30
0.0
  0
SPLINE
  5
E9
330
D6
100
AcDbEntity
  8
_U+30EC_U+30A4_U+30E4_U+30FC 1
 62
   250
420
  2234388
370
    18
100
AcDbSpline
210
0.0
220
0.0
230
1.0
 70
    11
 71
     3
 72
    17
 73
    13
 74
     0
 42
0.0000000001
 43
0.0000000001
 12
1.0
 22
0.0
 32
0.0
 13
1.0
 23
0.0
 33
0.0
 40
0.0
 40
0.0
 40
0.0
 40
0.0
 40
1.0
 40
1.0
 40
1.0
 40
2.0
 40
2.0
 40
2.0
 40
3.0
 40
3.0
 40
3.0
 40
4.0
 40
4.0
 40
4.0
 40
4.0
 10
84.9118097781637
 20
-13.36579749665867
 30
0.0
 10
84.19436562980056
 20
-12.95160110787326
 30
0.0
 10
83.94855008051628
 20
-12.03420249699134
 30
0.0
 10
84.36278173661502
 20
-11.31675833050405
 30
0.0
 10
84.77697811493688
 20
-10.59931416401676
 30
0.0
 10
85.6943767026432
 20
-10.35349860852276
 30
0.0
 10
86.41182085100634
 20
-10.767730275086
 30
0.0
 10
87.12926499936948
 20
-11.18192666387108
 30
0.0
 10
87.37508054865376
 20
-12.09932527475301
 30
0.0
 10
86.96084889255502
 20
-12.8167694412403
 30
0.0
 10
86.54665251423317
 20
-13.53421360772759
 30
0.0
 10
85.62925392652684
 20
-13.78002916322159
 30
0.0
 10
84.9118097781637
 20
-13.36579749665867
 30
0.0
  0
ENDBLK
  5
D9
330
D6
100
AcDbEntity
  8
0
100
AcDbBlockEnd
  0
BLOCK
  5
DC
330
DA
100
AcDbEntity
  8
0
100
AcDbBlockBegin
  2
block 18
 70
     0
 10
0.0
 20
0.0
 30
0.0
  3
block 18
  1

  0
SPLINE
  5
DE
330
DA
100
AcDbEntity
  8
_U+30EC_U+30A4_U+30E4_U+30FC 1
 62
   250
420
  2234388
370
    18
100
AcDbSpline
210
0.0
220
0.0
230
1.0
 70
     8
 71
     3
 72
    11
 73
     7
 74
     0
 42
0.0000000001
 43
0.0000000001
 12
1.0
 22
0.0
 32
0.0
 13
1.0
 23
0.0
 33
0.0
 40
0.0
 40
0.0
 40
0.0
 40
0.0
 40
1.0
 40
1.0
 40
1.0
 40
2.0
 40
2.0
 40
2.0
 40
2.0
 10
82.19446845859997
 20
130.898296938284
 30
0.0
 10
69.06210434919004
 20
135.5437098753252
 30
0.0
 10
55.09242220558632
 20
137.9651059246613
 30
0.0
 10
40.75055951592217
 20
137.9696249655077
 30
0.0
 10
26.40869749339785
 20
137.9742110766176
 30
0.0
 10
12.43749805244622
 20
135.5617015415329
 30
0.0
 10
-0.6978156109367873
 20
130.9246527450466
 30
0.0
  0
SPLINE
  5
DF
330
DA
100
AcDbEntity
  8
_U+30EC_U+30A4_U+30E4_U+30FC 1
 62
   250
420
  2234388
370
    18
100
AcDbSpline
210
0.0
220
0.0
230
1.0
 70
     8
 71
     3
 72
    14
 73
    10
 74
     0
 42
0.0000000001
 43
0.0000000001
 12
1.0
 22
0.0
 32
0.0
 13
1.0
 23
0.0
 33
0.0
 40
0.0
 40
0.0
 40
0.0
 40
0.0
 40
1.0
 40
1.0
 40
1.0
 40
2.0
 40
2.0
 40
2.0
 40
3.0
 40
3.0
 40
3.0
 40
3.0
 10
-81.70650831290685
 20
-6.647603331671486
 30
0.0
 10
-81.59047970182459
 20
-7.348043609274074
 30
0.0
 10
-81.4684891462995
 20
-8.046966942432737
 30
0.0
 10
-81.34067775744265
 20
-8.744338053369315
 30
0.0
 10
-79.19801136908946
 20
-20.43638138377982
 30
0.0
 10
-67.98271192744882
 20
-28.17766638184451
 30
0.0
 10
-56.29066859703831
 20
-26.03499999349131
 30
0.0
 10
-53.87110693097668
 20
-25.59159360471317
 30
0.0
 10
-51.57240693155149
 20
-24.73582527159378
 30
0.0
 10
-49.44169970986178
 20
-23.50657110523458
 30
0.0
  0
SPLINE
  5
E0
330
DA
100
AcDbEntity
  8
_U+30EC_U+30A4_U+30E4_U+30FC 1
 62
   250
420
  2234388
370
    18
100
AcDbSpline
210
0.0
220
0.0
230
1.0
 70
     8
 71
     3
 72
    20
 73
    16
 74
     0
 42
0.0000000001
 43
0.0000000001
 12
1.0
 22
0.0
 32
0.0
 13
1.0
 23
0.0
 33
0.0
 40
0.0
 40
0.0
 40
0.0
 40
0.0
 40
1.0
 40
1.0
 40
1.0
 40
2.0
 40
2.0
 40
2.0
 40
3.0
 40
3.0
 40
3.0
 40
4.0
 40
4.0
 40
4.0
 40
5.0
 40
5.0
 40
5.0
 40
5.0
 10
-49.44169970986178
 20
-23.50657110523458
 30
0.0
 10
28.07338527075933
 20
21.17125277248494
 30
0.0
 10
28.05140721520942
 20
110.6480063438008
 30
0.0
 10
28.03479138188032
 20
110.6576018991116
 30
0.0
 10
28.03856610410153
 20
122.5443782625213
 30
0.0
 10
18.40547499539855
 20
132.1836074610486
 30
0.0
 10
6.518733609481345
 20
132.1873469053976
 30
0.0
 10
4.058849443429735
 20
132.1881230164889
 30
0.0
 10
1.617098055151151
 20
131.7672238605603
 30
0.0
 10
-0.7005390553804127
 20
130.9429233260344
 30
0.0
 10
-0.7005390553804127
 20
130.9429233260344
 30
0.0
 10
-0.7005849164916372
 20
130.9331194117113
 30
0.0
 10
-0.7005849164916372
 20
130.9331194117113
 30
0.0
 10
-2.832516277069808
 20
130.1809971896769
 30
0.0
 10
-4.94245194320898
 20
129.3702753106004
 30
0.0
 10
-7.028356387131649
 20
128.5018069994236
 30
0.0
  0
SPLINE
  5
E1
330
DA
100
AcDbEntity
  8
_U+30EC_U+30A4_U+30E4_U+30FC 1
 62
   250
420
  2234388
370
    18
100
AcDbSpline
210
0.0
220
0.0
230
1.0
 70
     8
 71
     3
 72
    14
 73
    10
 74
     0
 42
0.0000000001
 43
0.0000000001
 12
1.0
 22
0.0
 32
0.0
 13
1.0
 23
0.0
 33
0.0
 40
0.0
 40
0.0
 40
0.0
 40
0.0
 40
1.0
 40
1.0
 40
1.0
 40
2.0
 40
2.0
 40
2.0
 40
3.0
 40
3.0
 40
3.0
 40
3.0
 10
120.054331659381
 20
-81.50986997962247
 30
0.0
 10
120.4736433153502
 20
-81.16252497970937
 30
0.0
 10
120.8904149713841
 20
-80.81263997979693
 30
0.0
 10
121.3046466274829
 20
-80.46025025766262
 30
0.0
 10
130.3589350075998
 20
-72.75861748181023
 30
0.0
 10
131.4554741462915
 20
-59.17522665187271
 30
0.0
 10
123.7538415649987
 20
-50.12097332080317
 30
0.0
 10
122.160062161215
 20
-48.24726471016038
 30
0.0
 10
120.2695966538892
 20
-46.68438859944006
 30
0.0
 10
118.139700874894
 20
-45.4537938775255
 30
0.0
  0
SPLINE
  5
E2
330
DA
100
AcDbEntity
  8
_U+30EC_U+30A4_U+30E4_U+30FC 1
 62
   250
420
  2234388
370
    18
100
AcDbSpline
210
0.0
220
0.0
230
1.0
 70
     8
 71
     3
 72
    20
 73
    16
 74
     0
 42
0.0000000001
 43
0.0000000001
 12
1.0
 22
0.0
 32
0.0
 13
1.0
 23
0.0
 33
0.0
 40
0.0
 40
0.0
 40
0.0
 40
0.0
 40
1.0
 40
1.0
 40
1.0
 40
2.0
 40
2.0
 40
2.0
 40
3.0
 40
3.0
 40
3.0
 40
4.0
 40
4.0
 40
4.0
 40
5.0
 40
5.0
 40
5.0
 40
5.0
 10
118.139700874894
 20
-45.4537938775255
 30
0.0
 10
40.68998757302305
 20
-0.6626577776119728
 30
0.0
 10
-36.78812526858062
 20
-45.42006832197818
 30
0.0
 10
-36.78816054635846
 20
-45.43929471086233
 30
0.0
 10
-47.08429748822902
 20
-51.37940220937728
 30
0.0
 10
-50.61553248734614
 20
-64.54147053942009
 30
0.0
 10
-44.67542498883119
 20
-74.83760748129065
 30
0.0
 10
-43.4462061002495
 20
-76.96831470298004
 30
0.0
 10
-41.86078748953479
 20
-78.87250331361525
 30
0.0
 10
-39.98810193444744
 20
-80.4674469243276
 30
0.0
 10
-39.98810193444744
 20
-80.4674469243276
 30
0.0
 10
-39.97956471222741
 20
-80.46257859099559
 30
0.0
 10
-39.97956471222741
 20
-80.46257859099559
 30
0.0
 10
-39.60946554565321
 20
-80.77947886869408
 30
0.0
 10
-39.23749665685732
 20
-81.09412136861529
 30
0.0
 10
-38.86369332361726
 20
-81.40643553520385
 30
0.0
  0
SPLINE
  5
E3
330
DA
100
AcDbEntity
  8
_U+30EC_U+30A4_U+30E4_U+30FC 1
 62
   250
420
  2234388
370
    18
100
AcDbSpline
210
0.0
220
0.0
230
1.0
 70
     8
 71
     3
 72
    14
 73
    10
 74
     0
 42
0.0000000001
 43
0.0000000001
 12
1.0
 22
0.0
 32
0.0
 13
1.0
 23
0.0
 33
0.0
 40
0.0
 40
0.0
 40
0.0
 40
0.0
 40
1.0
 40
1.0
 40
1.0
 40
2.0
 40
2.0
 40
2.0
 40
3.0
 40
3.0
 40
3.0
 40
3.0
 10
83.35539164582795
 20
130.4350644501021
 30
0.0
 10
82.93417497926644
 20
130.5903219461411
 30
0.0
 10
82.51232122826865
 20
130.7431805533525
 30
0.0
 10
82.08983457238051
 20
130.8937108272899
 30
0.0
 10
70.89287985803863
 20
134.8841565588185
 30
0.0
 10
58.58107683880555
 20
129.0420861523066
 30
0.0
 10
54.59063110727697
 20
117.8451314379647
 30
0.0
 10
53.76484890612221
 20
115.5280194155624
 30
0.0
 10
53.35661447209269
 20
113.1094073921164
 30
0.0
 10
53.35583836100138
 20
110.6495585659835
 30
0.0
  0
SPLINE
  5
E4
330
DA
100
AcDbEntity
  8
_U+30EC_U+30A4_U+30E4_U+30FC 1
 62
   250
420
  2234388
370
    18
100
AcDbSpline
210
0.0
220
0.0
230
1.0
 70
     8
 71
     3
 72
    20
 73
    16
 74
     0
 42
0.0000000001
 43
0.0000000001
 12
1.0
 22
0.0
 32
0.0
 13
1.0
 23
0.0
 33
0.0
 40
0.0
 40
0.0
 40
0.0
 40
0.0
 40
1.0
 40
1.0
 40
1.0
 40
2.0
 40
2.0
 40
2.0
 40
3.0
 40
3.0
 40
3.0
 40
4.0
 40
4.0
 40
4.0
 40
5.0
 40
5.0
 40
5.0
 40
5.0
 10
53.35583836100138
 20
110.6495585659835
 30
0.0
 10
53.29043336267
 20
21.18060138359369
 30
0.0
 10
130.7905586076993
 20
-23.53874443855982
 30
0.0
 10
130.8071777450761
 20
-23.5291488830065
 30
0.0
 10
141.0995716780278
 20
-29.47578277040876
 30
0.0
 10
154.2638621755121
 20
-25.95290860462278
 30
0.0
 10
160.2105311904666
 20
-15.6605816627516
 30
0.0
 10
161.4411258812937
 20
-13.53065055217277
 30
0.0
 10
162.2975332927588
 20
-11.20556277497629
 30
0.0
 10
162.7424525147608
 20
-8.786283331136746
 30
0.0
 10
162.7424525147608
 20
-8.786283331136746
 30
0.0
 10
162.7339505705333
 20
-8.781344442249047
 30
0.0
 10
162.7339505705333
 20
-8.781344442249047
 30
0.0
 10
162.8750616780443
 20
-8.02505944243818
 30
0.0
 10
163.0089761190723
 20
-7.267610275960826
 30
0.0
 10
163.1357997269479
 20
-6.50906749837267
 30
0.0
  0
SPLINE
  5
E5
330
DA
100
AcDbEntity
  8
_U+30EC_U+30A4_U+30E4_U+30FC 1
 62
   250
420
  2234388
370
    18
100
AcDbSpline
210
0.0
220
0.0
230
1.0
 70
     8
 71
     3
 72
    11
 73
     7
 74
     0
 42
0.0000000001
 43
0.0000000001
 12
1.0
 22
0.0
 32
0.0
 13
1.0
 23
0.0
 33
0.0
 40
0.0
 40
0.0
 40
0.0
 40
0.0
 40
1.0
 40
1.0
 40
1.0
 40
2.0
 40
2.0
 40
2.0
 40
2.0
 10
-81.35687025743863
 20
-8.679144720052282
 30
0.0
 10
-78.81369525807449
 20
-22.37478943885085
 30
0.0
 10
-73.9258180370741
 20
-35.68357804663475
 30
0.0
 10
-66.7588905388658
 20
-48.10629471019572
 30
0.0
 10
-59.59189248510213
 20
-60.52897609597884
 30
0.0
 10
-50.51700165403739
 20
-71.42215414881122
 30
0.0
 10
-39.93352721223885
 20
-80.47915914654685
 30
0.0
  0
SPLINE
  5
E6
330
DA
100
AcDbEntity
  8
_U+30EC_U+30A4_U+30E4_U+30FC 1
 62
   250
420
  2234388
370
    18
100
AcDbSpline
210
0.0
220
0.0
230
1.0
 70
     8
 71
     3
 72
    11
 73
     7
 74
     0
 42
0.0000000001
 43
0.0000000001
 12
1.0
 22
0.0
 32
0.0
 13
1.0
 23
0.0
 33
0.0
 40
0.0
 40
0.0
 40
0.0
 40
0.0
 40
1.0
 40
1.0
 40
1.0
 40
2.0
 40
2.0
 40
2.0
 40
2.0
 10
121.2964269054703
 20
-80.53002970208959
 30
0.0
 10
131.8856513575389
 20
-71.47976275990798
 30
0.0
 10
140.9674564036206
 20
-60.59233498485203
 30
0.0
 10
148.1423249629643
 20
-48.17423971017852
 30
0.0
 10
155.3172213153053
 20
-35.75607387994997
 30
0.0
 10
160.2135298015012
 20
-22.45042499438744
 30
0.0
 10
162.7653830697313
 20
-8.756367775588798
 30
0.0
  0
ENDBLK
  5
DD
330
DA
100
AcDbEntity
  8
0
100
AcDbBlockEnd
  0
ENDSEC
  0
SECTION
  2
ENTITIES
  0
INSERT
  5
42
330
1F
100
AcDbEntity
  8
_U+30EC_U+30A4_U+30E4_U+30FC 1
100
AcDbBlockReference
  2
block 2
 10
0.0
 20
0.0
 30
0.0
  0
INSERT
  5
54
330
1F
100
AcDbEntity
  8
_U+30EC_U+30A4_U+30E4_U+30FC 1
100
AcDbBlockReference
  2
block 4
 10
0.0
 20
0.0
 30
0.0
  0
INSERT
  5
64
330
1F
100
AcDbEntity
  8
_U+30EC_U+30A4_U+30E4_U+30FC 1
100
AcDbBlockReference
  2
block 6
 10
0.0
 20
0.0
 30
0.0
  0
INSERT
  5
C0
330
1F
100
AcDbEntity
  8
_U+30EC_U+30A4_U+30E4_U+30FC 1
100
AcDbBlockReference
  2
block 15
 10
0.0
 20
0.0
 30
0.0
  0
SPLINE
  5
CF
330
1F
100
AcDbEntity
  8
_U+30EC_U+30A4_U+30E4_U+30FC 1
 62
   250
420
  2234388
370
    18
100
AcDbSpline
210
0.0
220
0.0
230
1.0
 70
    11
 71
     3
 72
    17
 73
    13
 74
     0
 42
0.0000000001
 43
0.0000000001
 12
1.0
 22
0.0
 32
0.0
 13
1.0
 23
0.0
 33
0.0
 40
0.0
 40
0.0
 40
0.0
 40
0.0
 40
1.0
 40
1.0
 40
1.0
 40
2.0
 40
2.0
 40
2.0
 40
3.0
 40
3.0
 40
3.0
 40
4.0
 40
4.0
 40
4.0
 40
4.0
 10
42.09686531490838
 20
-252.5550221590836
 30
0.0
 10
42.09686531490838
 20
-253.383450214432
 30
0.0
 10
41.42528332297715
 20
-254.0550332698199
 30
0.0
 10
40.59685424206574
 20
-254.0550332698199
 30
0.0
 10
39.76842620764514
 20
-254.0550332698199
 30
0.0
 10
39.09687844699998
 20
-253.383450214432
 30
0.0
 10
39.09687844699998
 20
-252.5550221590836
 30
0.0
 10
39.09687844699998
 20
-251.7265941037353
 30
0.0
 10
39.76842620764514
 20
-251.0550463261249
 30
0.0
 10
40.59685424206574
 20
-251.0550463261249
 30
0.0
 10
41.42528332297715
 20
-251.0550463261249
 30
0.0
 10
42.09686531490838
 20
-251.7265941037353
 30
0.0
 10
42.09686531490838
 20
-252.5550221590836
 30
0.0
  0
SPLINE
  5
D0
330
1F
100
AcDbEntity
  8
_U+30EC_U+30A4_U+30E4_U+30FC 1
 62
   250
420
  2234388
370
    18
100
AcDbSpline
210
0.0
220
0.0
230
1.0
 70
    11
 71
     3
 72
    17
 73
    13
 74
     0
 42
0.0000000001
 43
0.0000000001
 12
1.0
 22
0.0
 32
0.0
 13
1.0
 23
0.0
 33
0.0
 40
0.0
 40
0.0
 40
0.0
 40
0.0
 40
1.0
 40
1.0
 40
1.0
 40
2.0
 40
2.0
 40
2.0
 40
3.0
 40
3.0
 40
3.0
 40
4.0
 40
4.0
 40
4.0
 40
4.0
 10
-5.110515276500141
 20
-329.2097879732532
 30
0.0
 10
-4.393071110012852
 20
-328.7955563066897
 30
0.0
 10
-3.475679554686623
 20
-329.0413718621843
 30
0.0
 10
-3.06146552701246
 20
-329.7588160286716
 30
0.0
 10
-2.647251499338296
 20
-330.4762601951589
 30
0.0
 10
-2.893063527054609
 20
-331.3936235282627
 30
0.0
 10
-3.610504165763889
 20
-331.8078551948256
 30
0.0
 10
-4.327948332251499
 20
-332.222051583611
 30
0.0
 10
-5.245311665355264
 20
-331.976236028117
 30
0.0
 10
-5.659543331918508
 20
-331.2588271394072
 30
0.0
 10
-6.073739720703911
 20
-330.54138297292
 30
0.0
 10
-5.827959442987431
 20
-329.6239843620387
 30
0.0
 10
-5.110515276500141
 20
-329.2097879732532
 30
0.0
  0
SPLINE
  5
D1
330
1F
100
AcDbEntity
  8
_U+30EC_U+30A4_U+30E4_U+30FC 1
 62
   250
420
  2234388
370
    18
100
AcDbSpline
210
0.0
220
0.0
230
1.0
 70
    11
 71
     3
 72
    17
 73
    13
 74
     0
 42
0.0000000001
 43
0.0000000001
 12
1.0
 22
0.0
 32
0.0
 13
1.0
 23
0.0
 33
0.0
 40
0.0
 40
0.0
 40
0.0
 40
0.0
 40
1.0
 40
1.0
 40
1.0
 40
2.0
 40
2.0
 40
2.0
 40
3.0
 40
3.0
 40
3.0
 40
4.0
 40
4.0
 40
4.0
 40
4.0
 10
84.87811950124544
 20
-331.7651690837255
 30
0.0
 10
84.16071063065917
 20
-331.3509726949401
 30
0.0
 10
83.91489720124339
 20
-330.4335740840581
 30
0.0
 10
84.32909145969676
 20
-329.716165195349
 30
0.0
 10
84.74332311579549
 20
-328.9987210288617
 30
0.0
 10
85.66068642572493
 20
-328.7529054733671
 30
0.0
 10
86.37813057408808
 20
-329.1671018621525
 30
0.0
 10
87.09557472245122
 20
-329.581333528716
 30
0.0
 10
87.34139027173549
 20
-330.4986968618198
 30
0.0
 10
86.92715861563676
 20
-331.2161410283071
 30
0.0
 10
86.5129622373149
 20
-331.9335851947944
 30
0.0
 10
85.59556364960858
 20
-332.1794007502884
 30
0.0
 10
84.87811950124544
 20
-331.7651690837255
 30
0.0
  0
SPLINE
  5
D2
330
1F
100
AcDbEntity
  8
_U+30EC_U+30A4_U+30E4_U+30FC 1
 62
   250
420
  2234388
370
    18
100
AcDbSpline
210
0.0
220
0.0
230
1.0
 70
     8
 71
     3
 72
    41
 73
    37
 74
     0
 42
0.0000000001
 43
0.0000000001
 12
1.0
 22
0.0
 32
0.0
 13
1.0
 23
0.0
 33
0.0
 40
0.0
 40
0.0
 40
0.0
 40
0.0
 40
1.0
 40
1.0
 40
1.0
 40
2.0
 40
2.0
 40
2.0
 40
3.0
 40
3.0
 40
3.0
 40
4.0
 40
4.0
 40
4.0
 40
5.0
 40
5.0
 40
5.0
 40
6.0
 40
6.0
 40
6.0
 40
7.0
 40
7.0
 40
7.0
 40
8.0
 40
8.0
 40
8.0
 40
9.0
 40
9.0
 40
9.0
 40
10.0
 40
10.0
 40
10.0
 40
11.0
 40
11.0
 40
11.0
 40
12.0
 40
12.0
 40
12.0
 40
12.0
 10
410.6823340639961
 20
-32.81909304735073
 30
0.0
 10
378.3179715720871
 20
-23.90919638291146
 30
0.0
 10
348.0854363973785
 20
-27.66807888197172
 30
0.0
 10
326.0365789043361
 20
-33.60268304715482
 30
0.0
 10
326.0365789043361
 20
-33.60268304715482
 30
0.0
 10
326.0367200154436
 20
-33.60151888048865
 30
0.0
 10
326.0367200154436
 20
-33.60151888048865
 30
0.0
 10
317.2063749629467
 20
-25.46307666030079
 30
0.0
 10
310.7513610334236
 20
-14.78622194074791
 30
0.0
 10
307.8295771466132
 20
-2.728947777095533
 30
0.0
 10
307.8295771466132
 20
-2.728947777095533
 30
0.0
 10
307.8301415910433
 20
-2.729533388206463
 30
0.0
 10
307.8301415910433
 20
-2.729533388206463
 30
0.0
 10
331.7138315372751
 20
20.83096332812548
 30
0.0
 10
343.5740437346959
 20
48.87404375311927
 30
0.0
 10
349.4617988622645
 20
70.92992152376029
 30
0.0
 10
349.4617988622645
 20
70.92992152376029
 30
0.0
 10
349.4616665793014
 20
70.9308387459591
 30
0.0
 10
349.4616665793014
 20
70.9308387459591
 30
0.0
 10
355.2973165778423
 20
72.75551119940783
 30
0.0
 10
361.5046885207348
 20
73.73887922987558
 30
0.0
 10
367.9417187969033
 20
73.73887922987558
 30
0.0
 10
373.9753476842842
 20
73.73887922987558
 30
0.0
 10
379.8072229606036
 20
72.87489119636219
 30
0.0
 10
385.3202929592252
 20
71.26393331551729
 30
0.0
 10
385.3202929592252
 20
71.26393331551729
 30
0.0
 10
385.319446292559
 20
71.26283790415576
 30
0.0
 10
385.319446292559
 20
71.26283790415576
 30
0.0
 10
393.789922957108
 20
38.79712317686959
 30
0.0
 10
412.1544051747393
 20
14.50625749637347
 30
0.0
 10
428.3125446151438
 20
-1.615214221818392
 30
0.0
 10
428.3125446151438
 20
-1.615214221818392
 30
0.0
 10
428.3129679484773
 20
-1.614360499596453
 30
0.0
 10
428.3129679484773
 20
-1.614360499596453
 30
0.0
 10
425.612066004708
 20
-13.7428463854533
 30
0.0
 10
419.3496607284962
 20
-24.52920332720112
 30
0.0
 10
410.680182119552
 20
-32.81909304735073
 30
0.0
  0
SPLINE
  5
D3
330
1F
100
AcDbEntity
  8
_U+30EC_U+30A4_U+30E4_U+30FC 1
 62
   250
420
  2234388
370
    18
100
AcDbSpline
210
0.0
220
0.0
230
1.0
 70
    11
 71
     3
 72
    17
 73
    13
 74
     0
 42
0.0000000001
 43
0.0000000001
 12
1.0
 22
0.0
 32
0.0
 13
1.0
 23
0.0
 33
0.0
 40
0.0
 40
0.0
 40
0.0
 40
0.0
 40
1.0
 40
1.0
 40
1.0
 40
2.0
 40
2.0
 40
2.0
 40
3.0
 40
3.0
 40
3.0
 40
4.0
 40
4.0
 40
4.0
 40
4.0
 10
369.4664596298558
 20
63.84251031568631
 30
0.0
 10
369.4664596298558
 20
63.01408228126571
 30
0.0
 10
368.7949118522461
 20
62.34249924284367
 30
0.0
 10
367.9664837968971
 20
62.34249924284367
 30
0.0
 10
367.1380557415488
 20
62.34249924284367
 30
0.0
 10
366.4664726861608
 20
63.01408228126571
 30
0.0
 10
366.4664726861608
 20
63.84251031568631
 30
0.0
 10
366.4664726861608
 20
64.67090307233003
 30
0.0
 10
367.1380557415488
 20
65.34248611075208
 30
0.0
 10
367.9664837968971
 20
65.34248611075208
 30
0.0
 10
368.7949118522461
 20
65.34248611075208
 30
0.0
 10
369.4664596298558
 20
64.67090307233003
 30
0.0
 10
369.4664596298558
 20
63.84251031568631
 30
0.0
  0
SPLINE
  5
D4
330
1F
100
AcDbEntity
  8
_U+30EC_U+30A4_U+30E4_U+30FC 1
 62
   250
420
  2234388
370
    18
100
AcDbSpline
210
0.0
220
0.0
230
1.0
 70
    11
 71
     3
 72
    17
 73
    13
 74
     0
 42
0.0000000001
 43
0.0000000001
 12
1.0
 22
0.0
 32
0.0
 13
1.0
 23
0.0
 33
0.0
 40
0.0
 40
0.0
 40
0.0
 40
0.0
 40
1.0
 40
1.0
 40
1.0
 40
2.0
 40
2.0
 40
2.0
 40
3.0
 40
3.0
 40
3.0
 40
4.0
 40
4.0
 40
4.0
 40
4.0
 10
322.2591051118186
 20
-12.81225388568572
 30
0.0
 10
322.9765221414779
 20
-12.3980222191228
 30
0.0
 10
323.8939125701112
 20
-12.6438377746168
 30
0.0
 10
324.3081442262099
 20
-13.36128194110409
 30
0.0
 10
324.7223406045318
 20
-14.07872610759138
 30
0.0
 10
324.4765332522142
 20
-14.9961247184733
 30
0.0
 10
323.7590809068844
 20
-15.41032110725839
 30
0.0
 10
323.0416367585212
 20
-15.82455277382163
 30
0.0
 10
322.1242734485918
 20
-15.57873721832763
 30
0.0
 10
321.7100499195723
 20
-14.86129305184034
 30
0.0
 10
321.2958454141712
 20
-14.14384888535305
 30
0.0
 10
321.5416609634555
 20
-13.22645027447113
 30
0.0
 10
322.2591051118186
 20
-12.81225388568572
 30
0.0
  0
SPLINE
  5
D5
330
1F
100
AcDbEntity
  8
_U+30EC_U+30A4_U+30E4_U+30FC 1
 62
   250
420
  2234388
370
    18
100
AcDbSpline
210
0.0
220
0.0
230
1.0
 70
    11
 71
     3
 72
    17
 73
    13
 74
     0
 42
0.0000000001
 43
0.0000000001
 12
1.0
 22
0.0
 32
0.0
 13
1.0
 23
0.0
 33
0.0
 40
0.0
 40
0.0
 40
0.0
 40
0.0
 40
1.0
 40
1.0
 40
1.0
 40
2.0
 40
2.0
 40
2.0
 40
3.0
 40
3.0
 40
3.0
 40
4.0
 40
4.0
 40
4.0
 40
4.0
 10
412.2477501747161
 20
-15.36767027393575
 30
0.0
 10
411.5303060082288
 20
-14.95343860737283
 30
0.0
 10
411.2844904527341
 20
-14.03607527426874
 30
0.0
 10
411.6986868415195
 20
-13.31863110778146
 30
0.0
 10
412.1129185080831
 20
-12.60118694129417
 30
0.0
 10
413.0303171189644
 20
-12.35537138580017
 30
0.0
 10
413.7477260076741
 20
-12.76956777458525
 30
0.0
 10
414.4651701741615
 20
-13.18379944114849
 30
0.0
 10
414.7109857296555
 20
-14.10119805203042
 30
0.0
 10
414.2967893408701
 20
-14.81860694073987
 30
0.0
 10
413.8825576743071
 20
-15.53605110722716
 30
0.0
 10
412.9651943412034
 20
-15.78186666272116
 30
0.0
 10
412.2477501747161
 20
-15.36767027393575
 30
0.0
  0
INSERT
  5
D7
330
1F
100
AcDbEntity
  8
_U+30EC_U+30A4_U+30E4_U+30FC 1
100
AcDbBlockReference
  2
block 17
 10
0.0
 20
0.0
 30
0.0
  0
SPLINE
  5
EA
330
1F
100
AcDbEntity
  8
_U+30EC_U+30A4_U+30E4_U+30FC 1
 62
   250
420
  2234388
370
    18
100
AcDbSpline
210
0.0
220
0.0
230
1.0
 70
    11
 71
     3
 72
    17
 73
    13
 74
     0
 42
0.0000000001
 43
0.0000000001
 12
1.0
 22
0.0
 32
0.0
 13
1.0
 23
0.0
 33
0.0
 40
0.0
 40
0.0
 40
0.0
 40
0.0
 40
1.0
 40
1.0
 40
1.0
 40
2.0
 40
2.0
 40
2.0
 40
3.0
 40
3.0
 40
3.0
 40
4.0
 40
4.0
 40
4.0
 40
4.0
 10
372.9664681526533
 20
47.10300586458853
 30
0.0
 10
372.9664681526533
 20
44.34158211627919
 30
0.0
 10
370.7278919022128
 20
42.1030058658387
 30
0.0
 10
367.9664681539032
 20
42.1030058658387
 30
0.0
 10
365.2050444055935
 20
42.1030058658387
 30
0.0
 10
362.966468155153
 20
44.34158211627919
 30
0.0
 10
362.966468155153
 20
47.10300586458853
 30
0.0
 10
362.966468155153
 20
49.86442961289818
 30
0.0
 10
365.2050444055935
 20
52.10300586333867
 30
0.0
 10
367.9664681539032
 20
52.10300586333867
 30
0.0
 10
370.7278919022128
 20
52.10300586333867
 30
0.0
 10
372.9664681526533
 20
49.86442961289818
 30
0.0
 10
372.9664681526533
 20
47.10300586458853
 30
0.0
  0
ENDSEC
  0
SECTION
  2
OBJECTS
  0
DICTIONARY
  5
C
330
0
100
AcDbDictionary
281
     1
  3
ACAD_GROUP
350
D
  3
ACAD_LAYOUT
350
1A
  3
ACAD_MATERIAL
350
3B
  3
ACAD_MLEADERSTYLE
350
EC
  3
ACAD_MLINESTYLE
350
17
  3
ACAD_PLOTSETTINGS
350
19
  3
ACAD_PLOTSTYLENAME
350
E
  3
ACAD_TABLESTYLE
350
EB
  3
ACAD_VISUALSTYLE
350
2A
  0
SUN
  5
3F
330
29
100
AcDbSun
 90
        1
290
     0
 63
     7
421
 16777215
 40
1.0
291
     1
 91
  2455826
 92
 54000000
292
     0
 70
     2
 71
   256
280
     1
  0
DICTIONARY
  5
D
102
{ACAD_REACTORS
330
C
102
}
330
C
100
AcDbDictionary
281
     1
  0
DICTIONARY
  5
1A
102
{ACAD_REACTORS
330
C
102
}
330
C
100
AcDbDictionary
281
     1
  3
Layout1
350
1E
  3
Layout2
350
26
  3
Model
350
22
  0
DICTIONARY
  5
3B
102
{ACAD_REACTORS
330
C
102
}
330
C
100
AcDbDictionary
281
     1
  3
ByBlock
350
3D
  3
ByLayer
350
3C
  3
Global
350
3E
  0
DICTIONARY
  5
EC
102
{ACAD_REACTORS
330
C
102
}
330
C
100
AcDbDictionary
281
     1
  0
DICTIONARY
  5
17
102
{ACAD_REACTORS
330
C
102
}
330
C
100
AcDbDictionary
281
     1
  3
Standard
350
18
  0
DICTIONARY
  5
19
102
{ACAD_REACTORS
330
C
102
}
330
C
100
AcDbDictionary
281
     1
  0
ACDBDICTIONARYWDFLT
  5
E
102
{ACAD_REACTORS
330
C
102
}
330
C
100
AcDbDictionary
281
     1
  3
Normal
350
F
100
AcDbDictionaryWithDefault
340
F
  0
DICTIONARY
  5
EB
102
{ACAD_REACTORS
330
C
102
}
330
C
100
AcDbDictionary
281
     1
  0
DICTIONARY
  5
2A
102
{ACAD_REACTORS
330
C
102
}
330
C
100
AcDbDictionary
281
     1
  3
2dWireframe
350
2F
  3
3D Hidden
350
31
  3
3dWireframe
350
30
  3
Basic
350
32
  3
Brighten
350
36
  3
ColorChange
350
3A
  3
Conceptual
350
34
  3
Dim
350
35
  3
Facepattern
350
39
  3
Flat
350
2B
  3
FlatWithEdges
350
2C
  3
Gouraud
350
2D
  3
GouraudWithEdges
350
2E
  3
Linepattern
350
38
  3
Realistic
350
33
  3
Thicken
350
37
  0
LAYOUT
  5
1E
102
{ACAD_REACTORS
330
1A
102
}
330
1A
100
AcDbPlotSettings
  1

  2
none_device
  4

  6

 40
0.0
 41
0.0
 42
0.0
 43
0.0
 44
0.0
 45
0.0
 46
0.0
 47
0.0
 48
0.0
 49
0.0
140
0.0
141
0.0
142
1.0
143
1.0
 70
   688
 72
     0
 73
     0
 74
     5
  7

 75
    16
 76
     0
 77
     2
 78
   300
147
1.0
148
0.0
149
0.0
100
AcDbLayout
  1
Layout1
 70
     1
 71
     1
 10
0.0
 20
0.0
 11
12.0
 21
9.0
 12
0.0
 22
0.0
 32
0.0
 14
1.000000000000000E+20
 24
1.000000000000000E+20
 34
1.000000000000000E+20
 15
-1.000000000000000E+20
 25
-1.000000000000000E+20
 35
-1.000000000000000E+20
146
0.0
 13
0.0
 23
0.0
 33
0.0
 16
1.0
 26
0.0
 36
0.0
 17
0.0
 27
1.0
 37
0.0
 76
     0
330
1B
  0
LAYOUT
  5
26
102
{ACAD_REACTORS
330
1A
102
}
330
1A
100
AcDbPlotSettings
  1

  2
none_device
  4

  6

 40
0.0
 41
0.0
 42
0.0
 43
0.0
 44
0.0
 45
0.0
 46
0.0
 47
0.0
 48
0.0
 49
0.0
140
0.0
141
0.0
142
1.0
143
1.0
 70
   688
 72
     0
 73
     0
 74
     5
  7

 75
    16
 76
     0
 77
     2
 78
   300
147
1.0
148
0.0
149
0.0
100
AcDbLayout
  1
Layout2
 70
     1
 71
     2
 10
0.0
 20
0.0
 11
0.0
 21
0.0
 12
0.0
 22
0.0
 32
0.0
 14
0.0
 24
0.0
 34
0.0
 15
0.0
 25
0.0
 35
0.0
146
0.0
 13
0.0
 23
0.0
 33
0.0
 16
1.0
 26
0.0
 36
0.0
 17
0.0
 27
1.0
 37
0.0
 76
     0
330
23
  0
LAYOUT
  5
22
102
{ACAD_REACTORS
330
1A
102
}
330
1A
100
AcDbPlotSettings
  1

  2
none_device
  4

  6

 40
0.0
 41
0.0
 42
0.0
 43
0.0
 44
0.0
 45
0.0
 46
0.0
 47
0.0
 48
0.0
 49
0.0
140
0.0
141
0.0
142
1.0
143
1.0
 70
  1712
 72
     0
 73
     0
 74
     0
  7

 75
     0
 76
     0
 77
     2
 78
   300
147
1.0
148
0.0
149
0.0
100
AcDbLayout
  1
Model
 70
     1
 71
     0
 10
0.0
 20
0.0
 11
12.0
 21
9.0
 12
0.0
 22
0.0
 32
0.0
 14
1.000000000000000E+20
 24
1.000000000000000E+20
 34
1.000000000000000E+20
 15
-1.000000000000000E+20
 25
-1.000000000000000E+20
 35
-1.000000000000000E+20
146
0.0
 13
0.0
 23
0.0
 33
0.0
 16
1.0
 26
0.0
 36
0.0
 17
0.0
 27
1.0
 37
0.0
 76
     0
330
1F
331
29
  0
MATERIAL
  5
3D
102
{ACAD_REACTORS
330
3B
102
}
330
3B
100
AcDbMaterial
  1
ByBlock
 72
     1
 94
      127
  0
MATERIAL
  5
3C
102
{ACAD_REACTORS
330
3B
102
}
330
3B
100
AcDbMaterial
  1
ByLayer
 72
     1
 94
      127
  0
MATERIAL
  5
3E
102
{ACAD_REACTORS
330
3B
102
}
330
3B
100
AcDbMaterial
  1
Global
 72
     1
 94
      127
  0
MLINESTYLE
  5
18
102
{ACAD_REACTORS
330
17
102
}
330
17
100
AcDbMlineStyle
  2
Standard
 70
     0
  3

 62
   256
 51
90.0
 52
90.0
 71
     2
 49
0.5
 62
   256
  6
BYLAYER
 49
-0.5
 62
   256
  6
BYLAYER
  0
ACDBPLACEHOLDER
  5
F
102
{ACAD_REACTORS
330
E
102
}
330
E
  0
VISUALSTYLE
  5
2F
102
{ACAD_REACTORS
330
2A
102
}
330
2A
100
AcDbVisualStyle
  2
2dWireframe
 70
     4
177
     2
291
     0
 71
     0
176
     1
 72
     2
176
     1
 73
     0
176
     1
 90
        0
176
     1
 40
-0.6
176
     1
 41
-30.0
176
     1
 62
     5
 63
     7
421
 16777215
176
     1
 74
     1
176
     1
 91
        4
176
     1
 64
     7
176
     1
 65
   257
176
     1
 75
     1
176
     1
175
     1
176
     1
 42
1.0
176
     1
 92
        0
176
     1
 66
   257
176
     1
 43
1.0
176
     1
 76
     1
176
     1
 77
     6
176
     1
 78
     2
176
     1
 67
     7
176
     1
 79
     5
176
     1
170
     0
176
     1
171
     0
176
     1
290
     0
176
     1
 93
        1
176
     1
 44
0.0
176
     1
173
     0
176
     1
  0
VISUALSTYLE
  5
31
102
{ACAD_REACTORS
330
2A
102
}
330
2A
100
AcDbVisualStyle
  2
3D Hidden
 70
     6
177
     2
291
     0
 71
     1
176
     1
 72
     2
176
     1
 73
     2
176
     1
 90
        0
176
     1
 40
-0.6
176
     1
 41
-30.0
176
     1
 62
     5
 63
     7
421
 16777215
176
     1
 74
     2
176
     1
 91
        2
176
     1
 64
     7
176
     1
 65
   257
176
     1
 75
     2
176
     1
175
     1
176
     1
 42
40.0
176
     1
 92
        0
176
     1
 66
   257
176
     1
 43
1.0
176
     1
 76
     1
176
     1
 77
     6
176
     1
 78
     2
176
     1
 67
     7
176
     1
 79
     3
176
     1
170
     0
176
     1
171
     0
176
     1
290
     0
176
     1
 93
        1
176
     1
 44
0.0
176
     1
173
     0
176
     1
  0
VISUALSTYLE
  5
30
102
{ACAD_REACTORS
330
2A
102
}
330
2A
100
AcDbVisualStyle
  2
3dWireframe
 70
     5
177
     2
291
     0
 71
     0
176
     1
 72
     2
176
     1
 73
     0
176
     1
 90
        0
176
     1
 40
-0.6
176
     1
 41
-30.0
176
     1
 62
     5
 63
     7
421
 16777215
176
     1
 74
     1
176
     1
 91
        4
176
     1
 64
     7
176
     1
 65
   257
176
     1
 75
     1
176
     1
175
     1
176
     1
 42
1.0
176
     1
 92
        0
176
     1
 66
   257
176
     1
 43
1.0
176
     1
 76
     1
176
     1
 77
     6
176
     1
 78
     2
176
     1
 67
     7
176
     1
 79
     5
176
     1
170
     0
176
     1
171
     0
176
     1
290
     0
176
     1
 93
        1
176
     1
 44
0.0
176
     1
173
     0
176
     1
  0
VISUALSTYLE
  5
32
102
{ACAD_REACTORS
330
2A
102
}
330
2A
100
AcDbVisualStyle
  2
Basic
 70
     7
177
     2
291
     1
 71
     1
176
     1
 72
     0
176
     1
 73
     1
176
     1
 90
        0
176
     1
 40
-0.6
176
     1
 41
-30.0
176
     1
 62
     5
 63
     7
421
 16777215
176
     1
 74
     0
176
     1
 91
        4
176
     1
 64
     7
176
     1
 65
   257
176
     1
 75
     1
176
     1
175
     1
176
     1
 42
1.0
176
     1
 92
        8
176
     1
 66
     7
176
     1
 43
1.0
176
     1
 76
     1
176
     1
 77
     6
176
     1
 78
     2
176
     1
 67
     7
176
     1
 79
     5
176
     1
170
     0
176
     1
171
     0
176
     1
290
     0
176
     1
 93
        1
176
     1
 44
0.0
176
     1
173
     0
176
     1
  0
VISUALSTYLE
  5
36
102
{ACAD_REACTORS
330
2A
102
}
330
2A
100
AcDbVisualStyle
  2
Brighten
 70
    12
177
     2
291
     1
 71
     2
176
     1
 72
     2
176
     1
 73
     0
176
     1
 90
        0
176
     1
 40
-0.6
176
     1
 41
-30.0
176
     1
 62
     5
 63
     7
421
 16777215
176
     1
 74
     1
176
     1
 91
        4
176
     1
 64
     7
176
     1
 65
   257
176
     1
 75
     1
176
     1
175
     1
176
     1
 42
1.0
176
     1
 92
        8
176
     1
 66
     7
176
     1
 43
1.0
176
     1
 76
     1
176
     1
 77
     6
176
     1
 78
     2
176
     1
 67
     7
176
     1
 79
     5
176
     1
170
     0
176
     1
171
     0
176
     1
290
     0
176
     1
 93
        1
176
     1
 44
50.0
176
     1
173
     0
176
     1
  0
VISUALSTYLE
  5
3A
102
{ACAD_REACTORS
330
2A
102
}
330
2A
100
AcDbVisualStyle
  2
ColorChange
 70
    16
177
     2
291
     1
 71
     2
176
     1
 72
     2
176
     1
 73
     3
176
     1
 90
        0
176
     1
 40
-0.6
176
     1
 41
-30.0
176
     1
 62
     5
 63
     8
421
  8421504
176
     1
 74
     1
176
     1
 91
        4
176
     1
 64
     7
176
     1
 65
   257
176
     1
 75
     1
176
     1
175
     1
176
     1
 42
1.0
176
     1
 92
        8
176
     1
 66
     8
424
  8421504
176
     1
 43
1.0
176
     1
 76
     1
176
     1
 77
     6
176
     1
 78
     2
176
     1
 67
     7
176
     1
 79
     5
176
     1
170
     0
176
     1
171
     0
176
     1
290
     0
176
     1
 93
        1
176
     1
 44
0.0
176
     1
173
     0
176
     1
  0
VISUALSTYLE
  5
34
102
{ACAD_REACTORS
330
2A
102
}
330
2A
100
AcDbVisualStyle
  2
Conceptual
 70
     9
177
     2
291
     0
 71
     3
176
     1
 72
     2
176
     1
 73
     0
176
     1
 90
        0
176
     1
 40
-0.6
176
     1
 41
-30.0
176
     1
 62
     5
 63
     7
421
 16777215
176
     1
 74
     2
176
     1
 91
        2
176
     1
 64
     7
176
     1
 65
   257
176
     1
 75
     1
176
     1
175
     1
176
     1
 42
40.0
176
     1
 92
        8
176
     1
 66
     7
176
     1
 43
1.0
176
     1
 76
     1
176
     1
 77
     6
176
     1
 78
     2
176
     1
 67
     7
176
     1
 79
     3
176
     1
170
     0
176
     1
171
     0
176
     1
290
     0
176
     1
 93
        1
176
     1
 44
0.0
176
     1
173
     0
176
     1
  0
VISUALSTYLE
  5
35
102
{ACAD_REACTORS
330
2A
102
}
330
2A
100
AcDbVisualStyle
  2
Dim
 70
    11
177
     2
291
     1
 71
     2
176
     1
 72
     2
176
     1
 73
     0
176
     1
 90
        0
176
     1
 40
-0.6
176
     1
 41
-30.0
176
     1
 62
     5
 63
     7
421
 16777215
176
     1
 74
     1
176
     1
 91
        4
176
     1
 64
     7
176
     1
 65
   257
176
     1
 75
     1
176
     1
175
     1
176
     1
 42
1.0
176
     1
 92
        8
176
     1
 66
     7
176
     1
 43
1.0
176
     1
 76
     1
176
     1
 77
     6
176
     1
 78
     2
176
     1
 67
     7
176
     1
 79
     5
176
     1
170
     0
176
     1
171
     0
176
     1
290
     0
176
     1
 93
        1
176
     1
 44
-50.0
176
     1
173
     0
176
     1
  0
VISUALSTYLE
  5
39
102
{ACAD_REACTORS
330
2A
102
}
330
2A
100
AcDbVisualStyle
  2
Facepattern
 70
    15
177
     2
291
     1
 71
     2
176
     1
 72
     2
176
     1
 73
     0
176
     1
 90
        0
176
     1
 40
-0.6
176
     1
 41
-30.0
176
     1
 62
     5
 63
     7
421
 16777215
176
     1
 74
     1
176
     1
 91
        4
176
     1
 64
     7
176
     1
 65
   257
176
     1
 75
     1
176
     1
175
     1
176
     1
 42
1.0
176
     1
 92
        8
176
     1
 66
     7
176
     1
 43
1.0
176
     1
 76
     1
176
     1
 77
     6
176
     1
 78
     2
176
     1
 67
     7
176
     1
 79
     5
176
     1
170
     0
176
     1
171
     0
176
     1
290
     0
176
     1
 93
        1
176
     1
 44
0.0
176
     1
173
     0
176
     1
  0
VISUALSTYLE
  5
2B
102
{ACAD_REACTORS
330
2A
102
}
330
2A
100
AcDbVisualStyle
  2
Flat
 70
     0
177
     2
291
     1
 71
     2
176
     1
 72
     1
176
     1
 73
     1
176
     1
 90
        2
176
     1
 40
-0.6
176
     1
 41
30.0
176
     1
 62
     5
 63
     7
421
 16777215
176
     1
 74
     0
176
     1
 91
        4
176
     1
 64
     7
176
     1
 65
   257
176
     1
 75
     1
176
     1
175
     1
176
     1
 42
1.0
176
     1
 92
        8
176
     1
 66
     7
176
     1
 43
1.0
176
     1
 76
     1
176
     1
 77
     6
176
     1
 78
     2
176
     1
 67
     7
176
     1
 79
     5
176
     1
170
     0
176
     1
171
     0
176
     1
290
     0
176
     1
 93
       13
176
     1
 44
0.0
176
     1
173
     0
176
     1
  0
VISUALSTYLE
  5
2C
102
{ACAD_REACTORS
330
2A
102
}
330
2A
100
AcDbVisualStyle
  2
FlatWithEdges
 70
     1
177
     2
291
     1
 71
     2
176
     1
 72
     1
176
     1
 73
     1
176
     1
 90
        2
176
     1
 40
-0.6
176
     1
 41
30.0
176
     1
 62
     5
 63
     7
421
 16777215
176
     1
 74
     1
176
     1
 91
        4
176
     1
 64
     7
176
     1
 65
   257
176
     1
 75
     1
176
     1
175
     1
176
     1
 42
1.0
176
     1
 92
        0
176
     1
 66
   257
176
     1
 43
1.0
176
     1
 76
     1
176
     1
 77
     6
176
     1
 78
     2
176
     1
 67
     7
176
     1
 79
     5
176
     1
170
     0
176
     1
171
     0
176
     1
290
     0
176
     1
 93
       13
176
     1
 44
0.0
176
     1
173
     0
176
     1
  0
VISUALSTYLE
  5
2D
102
{ACAD_REACTORS
330
2A
102
}
330
2A
100
AcDbVisualStyle
  2
Gouraud
 70
     2
177
     2
291
     1
 71
     2
176
     1
 72
     2
176
     1
 73
     1
176
     1
 90
        2
176
     1
 40
-0.6
176
     1
 41
30.0
176
     1
 62
     5
 63
     7
421
 16777215
176
     1
 74
     0
176
     1
 91
        4
176
     1
 64
     7
176
     1
 65
   257
176
     1
 75
     1
176
     1
175
     1
176
     1
 42
1.0
176
     1
 92
        0
176
     1
 66
     7
176
     1
 43
1.0
176
     1
 76
     1
176
     1
 77
     6
176
     1
 78
     2
176
     1
 67
     7
176
     1
 79
     5
176
     1
170
     0
176
     1
171
     0
176
     1
290
     0
176
     1
 93
       13
176
     1
 44
0.0
176
     1
173
     0
176
     1
  0
VISUALSTYLE
  5
2E
102
{ACAD_REACTORS
330
2A
102
}
330
2A
100
AcDbVisualStyle
  2
GouraudWithEdges
 70
     3
177
     2
291
     1
 71
     2
176
     1
 72
     2
176
     1
 73
     1
176
     1
 90
        2
176
     1
 40
-0.6
176
     1
 41
30.0
176
     1
 62
     5
 63
     7
421
 16777215
176
     1
 74
     1
176
     1
 91
        4
176
     1
 64
     7
176
     1
 65
   257
176
     1
 75
     1
176
     1
175
     1
176
     1
 42
1.0
176
     1
 92
        0
176
     1
 66
   257
176
     1
 43
1.0
176
     1
 76
     1
176
     1
 77
     6
176
     1
 78
     2
176
     1
 67
     7
176
     1
 79
     5
176
     1
170
     0
176
     1
171
     0
176
     1
290
     0
176
     1
 93
       13
176
     1
 44
0.0
176
     1
173
     0
176
     1
  0
VISUALSTYLE
  5
38
102
{ACAD_REACTORS
330
2A
102
}
330
2A
100
AcDbVisualStyle
  2
Linepattern
 70
    14
177
     2
291
     1
 71
     2
176
     1
 72
     2
176
     1
 73
     0
176
     1
 90
        0
176
     1
 40
-0.6
176
     1
 41
-30.0
176
     1
 62
     5
 63
     7
421
 16777215
176
     1
 74
     1
176
     1
 91
        4
176
     1
 64
     7
176
     1
 65
   257
176
     1
 75
     7
176
     1
175
     7
176
     1
 42
1.0
176
     1
 92
        8
176
     1
 66
     7
176
     1
 43
1.0
176
     1
 76
     1
176
     1
 77
     6
176
     1
 78
     2
176
     1
 67
     7
176
     1
 79
     5
176
     1
170
     0
176
     1
171
     0
176
     1
290
     0
176
     1
 93
        1
176
     1
 44
0.0
176
     1
173
     0
176
     1
  0
VISUALSTYLE
  5
33
102
{ACAD_REACTORS
330
2A
102
}
330
2A
100
AcDbVisualStyle
  2
Realistic
 70
     8
177
     2
291
     0
 71
     2
176
     1
 72
     2
176
     1
 73
     0
176
     1
 90
        0
176
     1
 40
-0.6
176
     1
 41
-30.0
176
     1
 62
     5
 63
     7
421
 16777215
176
     1
 74
     1
176
     1
 91
        0
176
     1
 64
     7
176
     1
 65
   257
176
     1
 75
     1
176
     1
175
     1
176
     1
 42
1.0
176
     1
 92
        8
176
     1
 66
     8
424
  7895160
176
     1
 43
1.0
176
     1
 76
     1
176
     1
 77
     6
176
     1
 78
     2
176
     1
 67
     7
176
     1
 79
     5
176
     1
170
     0
176
     1
171
     0
176
     1
290
     0
176
     1
 93
       13
176
     1
 44
0.0
176
     1
173
     0
176
     1
  0
VISUALSTYLE
  5
37
102
{ACAD_REACTORS
330
2A
102
}
330
2A
100
AcDbVisualStyle
  2
Thicken
 70
    13
177
     2
291
     1
 71
     2
176
     1
 72
     2
176
     1
 73
     0
176
     1
 90
        0
176
     1
 40
-0.6
176
     1
 41
-30.0
176
     1
 62
     5
 63
     7
421
 16777215
176
     1
 74
     1
176
     1
 91
        4
176
     1
 64
     7
176
     1
 65
   257
176
     1
 75
     1
176
     1
175
     1
176
     1
 42
1.0
176
     1
 92
       12
176
     1
 66
     7
176
     1
 43
1.0
176
     1
 76
     1
176
     1
 77
     6
176
     1
 78
     2
176
     1
 67
     7
176
     1
 79
     5
176
     1
170
     0
176
     1
171
     0
176
     1
290
     0
176
     1
 93
        1
176
     1
 44
0.0
176
     1
173
     0
176
     1
  0
ENDSEC
  0
EOF
