  0
SECTION
  2
HEADER
  9
$ACADVER
  1
AC1024
  9
$ACADMAINTVER
 70
     6
  9
$DWGCODEPAGE
  3
ANSI_932
  9
$INSBASE
 10
0.0
 20
0.0
 30
0.0
  9
$EXTMIN
 10
1.000000000000000E+20
 20
1.000000000000000E+20
 30
1.000000000000000E+20
  9
$EXTMAX
 10
-1.000000000000000E+20
 20
-1.000000000000000E+20
 30
-1.000000000000000E+20
  9
$LIMMIN
 10
0.0
 20
0.0
  9
$LIMMAX
 10
12.0
 20
9.0
  9
$ORTHOMODE
 70
     0
  9
$REGENMODE
 70
     1
  9
$FILLMODE
 70
     1
  9
$QTEXTMODE
 70
     0
  9
$MIRRTEXT
 70
     1
  9
$LTSCALE
 40
1.0
  9
$ATTMODE
 70
     1
  9
$TEXTSIZE
 40
0.2
  9
$TRACEWID
 40
0.05
  9
$TEXTSTYLE
  7
Standard
  9
$CLAYER
  8
0
  9
$CELTYPE
  6
ByLayer
  9
$CECOLOR
 62
   256
  9
$CELTSCALE
 40
1.0
  9
$DISPSILH
 70
     0
  9
$DIMSCALE
 40
1.0
  9
$DIMASZ
 40
0.18
  9
$DIMEXO
 40
0.0625
  9
$DIMDLI
 40
0.38
  9
$DIMRND
 40
0.0
  9
$DIMDLE
 40
0.0
  9
$DIMEXE
 40
0.18
  9
$DIMTP
 40
0.0
  9
$DIMTM
 40
0.0
  9
$DIMTXT
 40
0.18
  9
$DIMCEN
 40
0.09
  9
$DIMTSZ
 40
0.0
  9
$DIMTOL
 70
     0
  9
$DIMLIM
 70
     0
  9
$DIMTIH
 70
     1
  9
$DIMTOH
 70
     1
  9
$DIMSE1
 70
     0
  9
$DIMSE2
 70
     0
  9
$DIMTAD
 70
     0
  9
$DIMZIN
 70
     0
  9
$DIMBLK
  1

  9
$DIMASO
 70
     1
  9
$DIMSHO
 70
     1
  9
$DIMPOST
  1

  9
$DIMAPOST
  1

  9
$DIMALT
 70
     0
  9
$DIMALTD
 70
     2
  9
$DIMALTF
 40
25.4
  9
$DIMLFAC
 40
1.0
  9
$DIMTOFL
 70
     0
  9
$DIMTVP
 40
0.0
  9
$DIMTIX
 70
     0
  9
$DIMSOXD
 70
     0
  9
$DIMSAH
 70
     0
  9
$DIMBLK1
  1

  9
$DIMBLK2
  1

  9
$DIMSTYLE
  2
Standard
  9
$DIMCLRD
 70
     0
  9
$DIMCLRE
 70
     0
  9
$DIMCLRT
 70
     0
  9
$DIMTFAC
 40
1.0
  9
$DIMGAP
 40
0.09
  9
$DIMJUST
 70
     0
  9
$DIMSD1
 70
     0
  9
$DIMSD2
 70
     0
  9
$DIMTOLJ
 70
     1
  9
$DIMTZIN
 70
     0
  9
$DIMALTZ
 70
     0
  9
$DIMALTTZ
 70
     0
  9
$DIMUPT
 70
     0
  9
$DIMDEC
 70
     4
  9
$DIMTDEC
 70
     4
  9
$DIMALTU
 70
     2
  9
$DIMALTTD
 70
     2
  9
$DIMTXSTY
  7
Standard
  9
$DIMAUNIT
 70
     0
  9
$DIMADEC
 70
     0
  9
$DIMALTRND
 40
0.0
  9
$DIMAZIN
 70
     0
  9
$DIMDSEP
 70
    46
  9
$DIMATFIT
 70
     3
  9
$DIMFRAC
 70
     0
  9
$DIMLDRBLK
  1

  9
$DIMLUNIT
 70
     2
  9
$DIMLWD
 70
    -2
  9
$DIMLWE
 70
    -2
  9
$DIMTMOVE
 70
     0
  9
$DIMFXL
 40
1.0
  9
$DIMFXLON
 70
     0
  9
$DIMJOGANG
 40
0.7853981633974483
  9
$DIMTFILL
 70
     0
  9
$DIMTFILLCLR
 70
     0
  9
$DIMARCSYM
 70
     0
  9
$DIMLTYPE
  6

  9
$DIMLTEX1
  6

  9
$DIMLTEX2
  6

  9
$DIMTXTDIRECTION
 70
     0
  9
$LUNITS
 70
     2
  9
$LUPREC
 70
     4
  9
$SKETCHINC
 40
0.1
  9
$FILLETRAD
 40
0.5
  9
$AUNITS
 70
     0
  9
$AUPREC
 70
     0
  9
$MENU
  1
.
  9
$ELEVATION
 40
0.0
  9
$PELEVATION
 40
0.0
  9
$THICKNESS
 40
0.0
  9
$LIMCHECK
 70
     0
  9
$CHAMFERA
 40
0.5
  9
$CHAMFERB
 40
0.5
  9
$CHAMFERC
 40
1.0
  9
$CHAMFERD
 40
0.0
  9
$SKPOLY
 70
     0
  9
$TDCREATE
 40
2457911.685944051
  9
$TDUCREATE
 40
2457911.310944051
  9
$TDUPDATE
 40
2457911.685944167
  9
$TDUUPDATE
 40
2457911.310944167
  9
$TDINDWG
 40
0.0000000116
  9
$TDUSRTIMER
 40
0.0000000116
  9
$USRTIMER
 70
     1
  9
$ANGBASE
 50
0.0
  9
$ANGDIR
 70
     0
  9
$PDMODE
 70
     0
  9
$PDSIZE
 40
0.0
  9
$PLINEWID
 40
0.0
  9
$SPLFRAME
 70
     0
  9
$SPLINETYPE
 70
     6
  9
$SPLINESEGS
 70
     8
  9
$HANDSEED
  5
E2
  9
$SURFTAB1
 70
     6
  9
$SURFTAB2
 70
     6
  9
$SURFTYPE
 70
     6
  9
$SURFU
 70
     6
  9
$SURFV
 70
     6
  9
$UCSBASE
  2

  9
$UCSNAME
  2

  9
$UCSORG
 10
0.0
 20
0.0
 30
0.0
  9
$UCSXDIR
 10
1.0
 20
0.0
 30
0.0
  9
$UCSYDIR
 10
0.0
 20
1.0
 30
0.0
  9
$UCSORTHOREF
  2

  9
$UCSORTHOVIEW
 70
     0
  9
$UCSORGTOP
 10
0.0
 20
0.0
 30
0.0
  9
$UCSORGBOTTOM
 10
0.0
 20
0.0
 30
0.0
  9
$UCSORGLEFT
 10
0.0
 20
0.0
 30
0.0
  9
$UCSORGRIGHT
 10
0.0
 20
0.0
 30
0.0
  9
$UCSORGFRONT
 10
0.0
 20
0.0
 30
0.0
  9
$UCSORGBACK
 10
0.0
 20
0.0
 30
0.0
  9
$PUCSBASE
  2

  9
$PUCSNAME
  2

  9
$PUCSORG
 10
0.0
 20
0.0
 30
0.0
  9
$PUCSXDIR
 10
1.0
 20
0.0
 30
0.0
  9
$PUCSYDIR
 10
0.0
 20
1.0
 30
0.0
  9
$PUCSORTHOREF
  2

  9
$PUCSORTHOVIEW
 70
     0
  9
$PUCSORGTOP
 10
0.0
 20
0.0
 30
0.0
  9
$PUCSORGBOTTOM
 10
0.0
 20
0.0
 30
0.0
  9
$PUCSORGLEFT
 10
0.0
 20
0.0
 30
0.0
  9
$PUCSORGRIGHT
 10
0.0
 20
0.0
 30
0.0
  9
$PUCSORGFRONT
 10
0.0
 20
0.0
 30
0.0
  9
$PUCSORGBACK
 10
0.0
 20
0.0
 30
0.0
  9
$USERI1
 70
     0
  9
$USERI2
 70
     0
  9
$USERI3
 70
     0
  9
$USERI4
 70
     0
  9
$USERI5
 70
     0
  9
$USERR1
 40
0.0
  9
$USERR2
 40
0.0
  9
$USERR3
 40
0.0
  9
$USERR4
 40
0.0
  9
$USERR5
 40
0.0
  9
$WORLDVIEW
 70
     1
  9
$SHADEDGE
 70
     3
  9
$SHADEDIF
 70
    70
  9
$TILEMODE
 70
     1
  9
$MAXACTVP
 70
    64
  9
$PINSBASE
 10
0.0
 20
0.0
 30
0.0
  9
$PLIMCHECK
 70
     0
  9
$PEXTMIN
 10
1.000000000000000E+20
 20
1.000000000000000E+20
 30
1.000000000000000E+20
  9
$PEXTMAX
 10
-1.000000000000000E+20
 20
-1.000000000000000E+20
 30
-1.000000000000000E+20
  9
$PLIMMIN
 10
0.0
 20
0.0
  9
$PLIMMAX
 10
12.0
 20
9.0
  9
$UNITMODE
 70
     0
  9
$VISRETAIN
 70
     1
  9
$PLINEGEN
 70
     0
  9
$PSLTSCALE
 70
     1
  9
$TREEDEPTH
 70
  3020
  9
$CMLSTYLE
  2
Standard
  9
$CMLJUST
 70
     0
  9
$CMLSCALE
 40
1.0
  9
$PROXYGRAPHICS
 70
     1
  9
$MEASUREMENT
 70
     0
  9
$CELWEIGHT
370
    -1
  9
$ENDCAPS
280
     0
  9
$JOINSTYLE
280
     0
  9
$LWDISPLAY
290
     1
  9
$INSUNITS
 70
     1
  9
$HYPERLINKBASE
  1

  9
$STYLESHEET
  1

  9
$XEDIT
290
     1
  9
$CEPSNTYPE
380
     0
  9
$PSTYLEMODE
290
     1
  9
$FINGERPRINTGUID
  2
{190ED1D0-43D4-4C57-A232-20343F9ABB7D}
  9
$VERSIONGUID
  2
{FAEB1C32-E019-11D5-929B-00C0DF256EC4}
  9
$EXTNAMES
290
     1
  9
$PSVPSCALE
 40
0.0
  9
$OLESTARTUP
290
     0
  9
$SORTENTS
280
   127
  9
$INDEXCTL
280
     0
  9
$HIDETEXT
280
     1
  9
$XCLIPFRAME
280
     2
  9
$HALOGAP
280
     0
  9
$OBSCOLOR
 70
   257
  9
$OBSLTYPE
280
     0
  9
$INTERSECTIONDISPLAY
280
     0
  9
$INTERSECTIONCOLOR
 70
   257
  9
$DIMASSOC
280
     2
  9
$PROJECTNAME
  1

  9
$CAMERADISPLAY
290
     0
  9
$LENSLENGTH
 40
50.0
  9
$CAMERAHEIGHT
 40
0.0
  9
$STEPSPERSEC
 40
2.0
  9
$STEPSIZE
 40
6.0
  9
$3DDWFPREC
 40
2.0
  9
$PSOLWIDTH
 40
0.25
  9
$PSOLHEIGHT
 40
4.0
  9
$LOFTANG1
 40
1.570796326794897
  9
$LOFTANG2
 40
1.570796326794897
  9
$LOFTMAG1
 40
0.0
  9
$LOFTMAG2
 40
0.0
  9
$LOFTPARAM
 70
     7
  9
$LOFTNORMALS
280
     1
  9
$LATITUDE
 40
37.795
  9
$LONGITUDE
 40
-122.394
  9
$NORTHDIRECTION
 40
0.0
  9
$TIMEZONE
 70
 -8000
  9
$LIGHTGLYPHDISPLAY
280
     1
  9
$TILEMODELIGHTSYNCH
280
     1
  9
$CMATERIAL
347
3C
  9
$SOLIDHIST
280
     1
  9
$SHOWHIST
280
     1
  9
$DWFFRAME
280
     2
  9
$DGNFRAME
280
     2
  9
$REALWORLDSCALE
290
     1
  9
$INTERFERECOLOR
 62
   256
  9
$CSHADOW
280
     0
  9
$SHADOWPLANELOCATION
 40
0.0
  0
ENDSEC
  0
SECTION
  2
CLASSES
  0
CLASS
  1
ACDBDICTIONARYWDFLT
  2
AcDbDictionaryWithDefault
  3
ObjectDBX Classes
 90
        0
 91
        4
280
     0
281
     0
  0
CLASS
  1
VISUALSTYLE
  2
AcDbVisualStyle
  3
ObjectDBX Classes
 90
     4095
 91
        4
280
     0
281
     0
  0
CLASS
  1
MATERIAL
  2
AcDbMaterial
  3
ObjectDBX Classes
 90
     1153
 91
        4
280
     0
281
     0
  0
CLASS
  1
SUN
  2
AcDbSun
  3
SCENEOE
 90
     1024
 91
        4
280
     0
281
     0
  0
ENDSEC
  0
SECTION
  2
TABLES
  0
TABLE
  2
VPORT
  5
8
330
0
100
AcDbSymbolTable
 70
     1
  0
VPORT
  5
29
330
8
100
AcDbSymbolTableRecord
100
AcDbViewportTableRecord
  2
*Active
 70
     0
 10
0.0
 20
0.0
 11
1.0
 21
1.0
 12
0.0
 22
0.0
 13
0.0
 23
0.0
 14
0.5
 24
0.5
 15
0.5
 25
0.5
 16
0.0
 26
0.0
 36
1.0
 17
114.6527777491146
 27
-172.8611110678958
 37
0.0
 40
561.6222220818167
 41
1.050251256281407
 42
50.0
 43
0.0
 44
0.0
 50
0.0
 51
0.0
 71
     0
 72
   100
 73
     1
 74
     3
 75
     0
 76
     0
 77
     0
 78
     0
281
     0
 65
     1
110
0.0
120
0.0
130
0.0
111
1.0
121
0.0
131
0.0
112
0.0
122
1.0
132
0.0
 79
     0
146
0.0
 60
     3
 61
     5
292
     1
282
     1
141
0.0
142
0.0
 63
   250
361
3F
  0
ENDTAB
  0
TABLE
  2
LTYPE
  5
5
330
0
100
AcDbSymbolTable
 70
     1
  0
LTYPE
  5
14
330
5
100
AcDbSymbolTableRecord
100
AcDbLinetypeTableRecord
  2
ByBlock
 70
     0
  3

 72
    65
 73
     0
 40
0.0
  0
LTYPE
  5
15
330
5
100
AcDbSymbolTableRecord
100
AcDbLinetypeTableRecord
  2
ByLayer
 70
     0
  3

 72
    65
 73
     0
 40
0.0
  0
LTYPE
  5
16
330
5
100
AcDbSymbolTableRecord
100
AcDbLinetypeTableRecord
  2
Continuous
 70
     0
  3
Solid line
 72
    65
 73
     0
 40
0.0
  0
ENDTAB
  0
TABLE
  2
LAYER
  5
2
330
0
100
AcDbSymbolTable
 70
     2
  0
LAYER
  5
10
330
2
100
AcDbSymbolTableRecord
100
AcDbLayerTableRecord
  2
0
 70
     0
 62
     7
  6
Continuous
370
    -3
390
F
347
3E
  0
LAYER
  5
40
330
2
100
AcDbSymbolTableRecord
100
AcDbLayerTableRecord
  2
_U+30EC_U+30A4_U+30E4_U+30FC 1
 70
     0
 62
     7
  6
Continuous
370
    -3
390
F
347
3E
  0
ENDTAB
  0
TABLE
  2
STYLE
  5
3
330
0
100
AcDbSymbolTable
 70
     1
  0
STYLE
  5
11
330
3
100
AcDbSymbolTableRecord
100
AcDbTextStyleTableRecord
  2
Standard
 70
     0
 40
0.0
 41
1.0
 50
0.0
 71
     0
 42
0.2
  3
txt
  4

  0
ENDTAB
  0
TABLE
  2
VIEW
  5
6
330
0
100
AcDbSymbolTable
 70
     0
  0
ENDTAB
  0
TABLE
  2
UCS
  5
7
330
0
100
AcDbSymbolTable
 70
     0
  0
ENDTAB
  0
TABLE
  2
APPID
  5
9
330
0
100
AcDbSymbolTable
 70
     1
  0
APPID
  5
12
330
9
100
AcDbSymbolTableRecord
100
AcDbRegAppTableRecord
  2
ACAD
 70
     0
  0
ENDTAB
  0
TABLE
  2
DIMSTYLE
  5
A
330
0
100
AcDbSymbolTable
 70
     1
100
AcDbDimStyleTable
  0
DIMSTYLE
105
27
330
A
100
AcDbSymbolTableRecord
100
AcDbDimStyleTableRecord
  2
Standard
 70
     0
178
     0
340
11
  0
ENDTAB
  0
TABLE
  2
BLOCK_RECORD
  5
1
330
0
100
AcDbSymbolTable
 70
    16
  0
BLOCK_RECORD
  5
1F
330
1
100
AcDbSymbolTableRecord
100
AcDbBlockTableRecord
  2
*Model_Space
340
22
 70
     0
280
     1
281
     0
  0
BLOCK_RECORD
  5
1B
330
1
100
AcDbSymbolTableRecord
100
AcDbBlockTableRecord
  2
*Paper_Space
340
1E
 70
     0
280
     1
281
     0
  0
BLOCK_RECORD
  5
23
330
1
100
AcDbSymbolTableRecord
100
AcDbBlockTableRecord
  2
*Paper_Space0
340
26
 70
     0
280
     1
281
     0
  0
BLOCK_RECORD
  5
41
330
1
100
AcDbSymbolTableRecord
100
AcDbBlockTableRecord
  2
block 2
340
0
102
{BLKREFS
331
42
102
}
 70
     0
280
     1
281
     0
  0
BLOCK_RECORD
  5
46
330
1
100
AcDbSymbolTableRecord
100
AcDbBlockTableRecord
  2
block 3
340
0
102
{BLKREFS
331
47
102
}
 70
     0
280
     1
281
     0
  0
BLOCK_RECORD
  5
4B
330
1
100
AcDbSymbolTableRecord
100
AcDbBlockTableRecord
  2
block 4
340
0
102
{BLKREFS
331
4C
102
}
 70
     0
280
     1
281
     0
  0
BLOCK_RECORD
  5
58
330
1
100
AcDbSymbolTableRecord
100
AcDbBlockTableRecord
  2
block 5
340
0
102
{BLKREFS
331
59
102
}
 70
     0
280
     1
281
     0
  0
BLOCK_RECORD
  5
65
330
1
100
AcDbSymbolTableRecord
100
AcDbBlockTableRecord
  2
block 6
340
0
102
{BLKREFS
331
66
102
}
 70
     0
280
     1
281
     0
  0
BLOCK_RECORD
  5
72
330
1
100
AcDbSymbolTableRecord
100
AcDbBlockTableRecord
  2
block 7
340
0
102
{BLKREFS
331
73
102
}
 70
     0
280
     1
281
     0
  0
BLOCK_RECORD
  5
7F
330
1
100
AcDbSymbolTableRecord
100
AcDbBlockTableRecord
  2
block 8
340
0
102
{BLKREFS
331
80
102
}
 70
     0
280
     1
281
     0
  0
BLOCK_RECORD
  5
8C
330
1
100
AcDbSymbolTableRecord
100
AcDbBlockTableRecord
  2
block 9
340
0
102
{BLKREFS
331
8D
102
}
 70
     0
280
     1
281
     0
  0
BLOCK_RECORD
  5
99
330
1
100
AcDbSymbolTableRecord
100
AcDbBlockTableRecord
  2
block 10
340
0
102
{BLKREFS
331
9A
102
}
 70
     0
280
     1
281
     0
  0
BLOCK_RECORD
  5
9E
330
1
100
AcDbSymbolTableRecord
100
AcDbBlockTableRecord
  2
block 11
340
0
102
{BLKREFS
331
9F
102
}
 70
     0
280
     1
281
     0
  0
BLOCK_RECORD
  5
A9
330
1
100
AcDbSymbolTableRecord
100
AcDbBlockTableRecord
  2
block 12
340
0
102
{BLKREFS
331
AA
102
}
 70
     0
280
     1
281
     0
  0
BLOCK_RECORD
  5
AD
330
1
100
AcDbSymbolTableRecord
100
AcDbBlockTableRecord
  2
block 13
340
0
102
{BLKREFS
331
AE
102
}
 70
     0
280
     1
281
     0
  0
BLOCK_RECORD
  5
BE
330
1
100
AcDbSymbolTableRecord
100
AcDbBlockTableRecord
  2
block 14
340
0
102
{BLKREFS
331
BF
102
}
 70
     0
280
     1
281
     0
  0
BLOCK_RECORD
  5
C8
330
1
100
AcDbSymbolTableRecord
100
AcDbBlockTableRecord
  2
block 15
340
0
102
{BLKREFS
331
C9
102
}
 70
     0
280
     1
281
     0
  0
BLOCK_RECORD
  5
D7
330
1
100
AcDbSymbolTableRecord
100
AcDbBlockTableRecord
  2
block 16
340
0
102
{BLKREFS
331
D8
102
}
 70
     0
280
     1
281
     0
  0
ENDTAB
  0
ENDSEC
  0
SECTION
  2
BLOCKS
  0
BLOCK
  5
20
330
1F
100
AcDbEntity
  8
0
100
AcDbBlockBegin
  2
*Model_Space
 70
     0
 10
0.0
 20
0.0
 30
0.0
  3
*Model_Space
  1

  0
ENDBLK
  5
21
330
1F
100
AcDbEntity
  8
0
100
AcDbBlockEnd
  0
BLOCK
  5
1C
330
1B
100
AcDbEntity
 67
     1
  8
0
100
AcDbBlockBegin
  2
*Paper_Space
 70
     0
 10
0.0
 20
0.0
 30
0.0
  3
*Paper_Space
  1

  0
ENDBLK
  5
1D
330
1B
100
AcDbEntity
 67
     1
  8
0
100
AcDbBlockEnd
  0
BLOCK
  5
24
330
23
100
AcDbEntity
  8
0
100
AcDbBlockBegin
  2
*Paper_Space0
 70
     0
 10
0.0
 20
0.0
 30
0.0
  3
*Paper_Space0
  1

  0
ENDBLK
  5
25
330
23
100
AcDbEntity
  8
0
100
AcDbBlockEnd
  0
BLOCK
  5
43
330
41
100
AcDbEntity
  8
0
100
AcDbBlockBegin
  2
block 2
 70
     0
 10
0.0
 20
0.0
 30
0.0
  3
block 2
  1

  0
SPLINE
  5
45
330
41
100
AcDbEntity
  8
_U+30EC_U+30A4_U+30E4_U+30FC 1
 62
    18
420
   196608
370
    25
100
AcDbSpline
210
0.0
220
0.0
230
1.0
 70
    11
 71
     3
 72
    20
 73
    16
 74
     0
 42
0.0000000001
 43
0.0000000001
 12
1.0
 22
0.0
 32
0.0
 13
1.0
 23
0.0
 33
0.0
 40
0.0
 40
0.0
 40
0.0
 40
0.0
 40
1.0
 40
1.0
 40
1.0
 40
2.0
 40
2.0
 40
2.0
 40
3.0
 40
3.0
 40
3.0
 40
4.0
 40
4.0
 40
4.0
 40
5.0
 40
5.0
 40
5.0
 40
5.0
 10
-112.1569435945689
 20
-39.16054033783835
 30
0.0
 10
-112.1569435945689
 20
18.00093126964789
 30
0.0
 10
-65.81841520205786
 20
64.33945966216177
 30
0.0
 10
-8.65694359456778
 20
64.33945966216177
 30
0.0
 10
48.50452801291846
 20
64.33945966216177
 30
0.0
 10
94.84305640543235
 20
18.00093126964789
 30
0.0
 10
94.84305640543235
 20
-39.16054033783835
 30
0.0
 10
94.84305640543235
 20
-96.32201194532523
 30
0.0
 10
48.50452801291846
 20
-142.6605403378385
 30
0.0
 10
-8.65694359456778
 20
-142.6605403378385
 30
0.0
 10
-65.81841520205786
 20
-142.6605403378385
 30
0.0
 10
-112.1569435945689
 20
-96.32201194532523
 30
0.0
 10
-112.1569435945689
 20
-39.16054033783835
 30
0.0
 10
-112.1569435945689
 20
-39.16054033783835
 30
0.0
 10
-112.1569435945689
 20
-39.16054033783835
 30
0.0
 10
-112.1569435945689
 20
-39.16054033783835
 30
0.0
  0
ENDBLK
  5
44
330
41
100
AcDbEntity
  8
0
100
AcDbBlockEnd
  0
BLOCK
  5
48
330
46
100
AcDbEntity
  8
0
100
AcDbBlockBegin
  2
block 3
 70
     0
 10
0.0
 20
0.0
 30
0.0
  3
block 3
  1

  0
SPLINE
  5
4A
330
46
100
AcDbEntity
  8
_U+30EC_U+30A4_U+30E4_U+30FC 1
 62
    18
420
   196608
370
    25
100
AcDbSpline
210
0.0
220
0.0
230
1.0
 70
    11
 71
     3
 72
    95
 73
    91
 74
     0
 42
0.0000000001
 43
0.0000000001
 12
1.0
 22
0.0
 32
0.0
 13
1.0
 23
0.0
 33
0.0
 40
0.0
 40
0.0
 40
0.0
 40
0.0
 40
1.0
 40
1.0
 40
1.0
 40
2.0
 40
2.0
 40
2.0
 40
3.0
 40
3.0
 40
3.0
 40
4.0
 40
4.0
 40
4.0
 40
5.0
 40
5.0
 40
5.0
 40
6.0
 40
6.0
 40
6.0
 40
7.0
 40
7.0
 40
7.0
 40
8.0
 40
8.0
 40
8.0
 40
9.0
 40
9.0
 40
9.0
 40
10.0
 40
10.0
 40
10.0
 40
11.0
 40
11.0
 40
11.0
 40
12.0
 40
12.0
 40
12.0
 40
13.0
 40
13.0
 40
13.0
 40
14.0
 40
14.0
 40
14.0
 40
15.0
 40
15.0
 40
15.0
 40
16.0
 40
16.0
 40
16.0
 40
17.0
 40
17.0
 40
17.0
 40
18.0
 40
18.0
 40
18.0
 40
19.0
 40
19.0
 40
19.0
 40
20.0
 40
20.0
 40
20.0
 40
21.0
 40
21.0
 40
21.0
 40
22.0
 40
22.0
 40
22.0
 40
23.0
 40
23.0
 40
23.0
 40
24.0
 40
24.0
 40
24.0
 40
25.0
 40
25.0
 40
25.0
 40
26.0
 40
26.0
 40
26.0
 40
27.0
 40
27.0
 40
27.0
 40
28.0
 40
28.0
 40
28.0
 40
29.0
 40
29.0
 40
29.0
 40
30.0
 40
30.0
 40
30.0
 40
30.0
 10
-112.4181906199791
 20
-105.3920212987656
 30
0.0
 10
-112.6495360424743
 20
-105.341786774477
 30
0.0
 10
-112.8783375941652
 20
-105.2804795834727
 30
0.0
 10
-113.1038058692391
 20
-105.2083112464048
 30
0.0
 10
-116.9961822623422
 20
-103.9624316146204
 30
0.0
 10
-119.1415917814867
 20
-99.7970521028348
 30
0.0
 10
-117.895712149702
 20
-95.90467570973162
 30
0.0
 10
-116.4820829451599
 20
-91.48821620275174
 30
0.0
 10
-116.6389967398743
 20
-86.71881680607875
 30
0.0
 10
-118.339858826676
 20
-82.4048244247204
 30
0.0
 10
-129.2959720808415
 20
-54.61621561358501
 30
0.0
 10
-129.2959716202267
 20
-23.70486146677196
 30
0.0
 10
-118.3398581822851
 20
4.083745383445388
 30
0.0
 10
-116.6389967398743
 20
8.3977361303982
 30
0.0
 10
-116.4820829451599
 20
13.16713552707504
 30
0.0
 10
-117.895712149702
 20
17.58359503405428
 30
0.0
 10
-117.9678804867695
 20
17.80906330912784
 30
0.0
 10
-118.0291876777701
 20
18.03786486081903
 30
0.0
 10
-118.0794222020593
 20
18.26921028331391
 30
0.0
 10
-118.9466469874271
 20
22.26304693672866
 30
0.0
 10
-116.4120272733906
 20
26.20371583772078
 30
0.0
 10
-112.4181906199791
 20
27.07094062308508
 30
0.0
 10
-107.8866098898762
 20
28.0549315739122
 30
0.0
 10
-103.8346457489184
 20
30.57552260467701
 30
0.0
 10
-100.9490497983319
 20
34.20550857085977
 30
0.0
 10
-82.36146670081243
 20
57.58808428299131
 30
0.0
 10
-55.59144874429238
 20
73.04376135639751
 30
0.0
 10
-26.04775262291134
 20
77.44979265773797
 30
0.0
 10
-21.46129458552245
 20
78.1337990729142
 30
0.0
 10
-17.25241664985083
 20
80.38260743882495
 30
0.0
 10
-14.13446512429387
 20
83.81507599498156
 30
0.0
 10
-13.97528803886301
 20
83.99030974576652
 30
0.0
 10
-13.80779367817619
 20
84.15780410645655
 30
0.0
 10
-13.63255992738801
 20
84.31698119188421
 30
0.0
 10
-10.60740831965298
 20
87.06493821351074
 30
0.0
 10
-5.927379086472082
 20
86.84022760271658
 30
0.0
 10
-3.179422064845542
 20
83.81507599498156
 30
0.0
 10
-0.0614705392847279
 20
80.38260743882495
 30
0.0
 10
4.147407396383043
 20
78.1337990729142
 30
0.0
 10
8.73386543377193
 20
77.44979265773797
 30
0.0
 10
38.27756155515297
 20
73.04376135639751
 30
0.0
 10
65.04757951167302
 20
57.58808428299131
 30
0.0
 10
83.63516260919243
 20
34.20550857085977
 30
0.0
 10
86.52075855977898
 20
30.57552260467701
 30
0.0
 10
90.57272270073679
 20
28.0549315739122
 30
0.0
 10
95.10430343083874
 20
27.07094062308508
 30
0.0
 10
95.33564885333426
 20
27.0207060987997
 30
0.0
 10
95.56445040502481
 20
26.95939890779533
 30
0.0
 10
95.78991868009868
 20
26.8872305707281
 30
0.0
 10
99.68229507320153
 20
25.6413509389431
 30
0.0
 10
101.8277045923466
 20
21.47597142715745
 30
0.0
 10
100.5818249605616
 20
17.58359503405428
 30
0.0
 10
99.16819575602305
 20
13.16713552707504
 30
0.0
 10
99.32510955073333
 20
8.3977361303982
 30
0.0
 10
101.025971637536
 20
4.08374374903986
 30
0.0
 10
111.9820846613938
 20
-23.70486326443215
 30
0.0
 10
111.9820846613938
 20
-54.6162174112452
 30
0.0
 10
101.025971637536
 20
-82.4048244247204
 30
0.0
 10
99.32510955073333
 20
-86.71881680607875
 30
0.0
 10
99.16819575602305
 20
-91.48821620275174
 30
0.0
 10
100.5818249605616
 20
-95.90467570973162
 30
0.0
 10
100.6539932976295
 20
-96.13014398480838
 30
0.0
 10
100.71530048863
 20
-96.35894553649636
 30
0.0
 10
100.7655350129186
 20
-96.59029095899446
 30
0.0
 10
101.6327597982867
 20
-100.584127612406
 30
0.0
 10
99.09814008425028
 20
-104.5247965133981
 30
0.0
 10
95.10430343083874
 20
-105.3920212987656
 30
0.0
 10
90.57272270073679
 20
-106.3760122495927
 30
0.0
 10
86.52075855977898
 20
-108.8966032803543
 30
0.0
 10
83.63516260919243
 20
-112.5265892465371
 30
0.0
 10
65.04757951167302
 20
-135.9091649586719
 30
0.0
 10
38.27756155515297
 20
-151.3648420320748
 30
0.0
 10
8.73386543377193
 20
-155.7708733334192
 30
0.0
 10
4.147407396383043
 20
-156.4548797485947
 30
0.0
 10
-0.0614705392847279
 20
-158.7036881145055
 30
0.0
 10
-3.179422064845542
 20
-162.1361566706589
 30
0.0
 10
-3.338599150276401
 20
-162.3113904214432
 30
0.0
 10
-3.506093510963221
 20
-162.4788847821339
 30
0.0
 10
-3.681327261751399
 20
-162.6380618675609
 30
0.0
 10
-6.706478869486749
 20
-165.3860188891875
 30
0.0
 10
-11.38650810266733
 20
-165.1613082783939
 30
0.0
 10
-14.13446512429387
 20
-162.1361566706589
 30
0.0
 10
-17.252416902387
 20
-158.7036879392633
 30
0.0
 10
-21.46129487156879
 20
-156.454879636069
 30
0.0
 10
-26.04775291914914
 20
-155.7708732892369
 30
0.0
 10
-55.59144874429238
 20
-151.3648420320748
 30
0.0
 10
-82.36146670081243
 20
-135.9091649586719
 30
0.0
 10
-100.9490497983319
 20
-112.5265892465371
 30
0.0
 10
-103.8346457489184
 20
-108.8966032803543
 30
0.0
 10
-107.8866098898762
 20
-106.3760122495927
 30
0.0
 10
-112.4181906199791
 20
-105.3920212987656
 30
0.0
  0
ENDBLK
  5
49
330
46
100
AcDbEntity
  8
0
100
AcDbBlockEnd
  0
BLOCK
  5
4D
330
4B
100
AcDbEntity
  8
0
100
AcDbBlockBegin
  2
block 4
 70
     0
 10
0.0
 20
0.0
 30
0.0
  3
block 4
  1

  0
POLYLINE
  5
4F
330
4B
100
AcDbEntity
  8
_U+30EC_U+30A4_U+30E4_U+30FC 1
 62
    18
420
   196608
370
    25
100
AcDb2dPolyline
 66
     1
 10
0.0
 20
0.0
 30
0.0
  0
VERTEX
  5
50
330
4F
100
AcDbEntity
  8
_U+30EC_U+30A4_U+30E4_U+30FC 1
 62
    18
420
   196608
370
    25
100
AcDbVertex
100
AcDb2dVertex
 10
-3.656949448562063
 20
72.30410588848845
 30
0.0
  0
VERTEX
  5
51
330
4F
100
AcDbEntity
  8
_U+30EC_U+30A4_U+30E4_U+30FC 1
 62
    18
420
   196608
370
    25
100
AcDbVertex
100
AcDb2dVertex
 10
-8.656941630249374
 20
69.41735905644421
 30
0.0
  0
VERTEX
  5
52
330
4F
100
AcDbEntity
  8
_U+30EC_U+30A4_U+30E4_U+30FC 1
 62
    18
420
   196608
370
    25
100
AcDbVertex
100
AcDb2dVertex
 10
-13.65693381194054
 20
72.30410588848845
 30
0.0
  0
VERTEX
  5
53
330
4F
100
AcDbEntity
  8
_U+30EC_U+30A4_U+30E4_U+30FC 1
 62
    18
420
   196608
370
    25
100
AcDbVertex
100
AcDb2dVertex
 10
-13.65693381194054
 20
78.07759955257691
 30
0.0
  0
VERTEX
  5
54
330
4F
100
AcDbEntity
  8
_U+30EC_U+30A4_U+30E4_U+30FC 1
 62
    18
420
   196608
370
    25
100
AcDbVertex
100
AcDb2dVertex
 10
-8.656941630249374
 20
80.96434638462114
 30
0.0
  0
VERTEX
  5
55
330
4F
100
AcDbEntity
  8
_U+30EC_U+30A4_U+30E4_U+30FC 1
 62
    18
420
   196608
370
    25
100
AcDbVertex
100
AcDb2dVertex
 10
-3.656949448562063
 20
78.07759955257691
 30
0.0
  0
VERTEX
  5
56
330
4F
100
AcDbEntity
  8
_U+30EC_U+30A4_U+30E4_U+30FC 1
 62
    18
420
   196608
370
    25
100
AcDbVertex
100
AcDb2dVertex
 10
-3.656949448562063
 20
72.30410588848845
 30
0.0
  0
SEQEND
  5
57
330
4F
100
AcDbEntity
  8
_U+30EC_U+30A4_U+30E4_U+30FC 1
 62
    18
420
   196608
370
    25
  0
ENDBLK
  5
4E
330
4B
100
AcDbEntity
  8
0
100
AcDbBlockEnd
  0
BLOCK
  5
5A
330
58
100
AcDbEntity
  8
0
100
AcDbBlockBegin
  2
block 5
 70
     0
 10
0.0
 20
0.0
 30
0.0
  3
block 5
  1

  0
POLYLINE
  5
5C
330
58
100
AcDbEntity
  8
_U+30EC_U+30A4_U+30E4_U+30FC 1
 62
    18
420
   196608
370
    25
100
AcDb2dPolyline
 66
     1
 10
0.0
 20
0.0
 30
0.0
  0
VERTEX
  5
5D
330
5C
100
AcDbEntity
  8
_U+30EC_U+30A4_U+30E4_U+30FC 1
 62
    18
420
   196608
370
    25
100
AcDbVertex
100
AcDb2dVertex
 10
-102.688177614242
 20
20.90190465578937
 30
0.0
  0
VERTEX
  5
5E
330
5C
100
AcDbEntity
  8
_U+30EC_U+30A4_U+30E4_U+30FC 1
 62
    18
420
   196608
370
    25
100
AcDbVertex
100
AcDb2dVertex
 10
-102.688177614414
 20
15.12841099170091
 30
0.0
  0
VERTEX
  5
5F
330
5C
100
AcDbEntity
  8
_U+30EC_U+30A4_U+30E4_U+30FC 1
 62
    18
420
   196608
370
    25
100
AcDbVertex
100
AcDb2dVertex
 10
-107.6881697961905
 20
12.24166415980491
 30
0.0
  0
VERTEX
  5
60
330
5C
100
AcDbEntity
  8
_U+30EC_U+30A4_U+30E4_U+30FC 1
 62
    18
420
   196608
370
    25
100
AcDbVertex
100
AcDb2dVertex
 10
-112.6881619777928
 20
15.12841099199737
 30
0.0
  0
VERTEX
  5
61
330
5C
100
AcDbEntity
  8
_U+30EC_U+30A4_U+30E4_U+30FC 1
 62
    18
420
   196608
370
    25
100
AcDbVertex
100
AcDb2dVertex
 10
-112.6881619776163
 20
20.90190465608904
 30
0.0
  0
VERTEX
  5
62
330
5C
100
AcDbEntity
  8
_U+30EC_U+30A4_U+30E4_U+30FC 1
 62
    18
420
   196608
370
    25
100
AcDbVertex
100
AcDb2dVertex
 10
-107.6881697958433
 20
23.78865148798119
 30
0.0
  0
VERTEX
  5
63
330
5C
100
AcDbEntity
  8
_U+30EC_U+30A4_U+30E4_U+30FC 1
 62
    18
420
   196608
370
    25
100
AcDbVertex
100
AcDb2dVertex
 10
-102.688177614242
 20
20.90190465578937
 30
0.0
  0
SEQEND
  5
64
330
5C
100
AcDbEntity
  8
_U+30EC_U+30A4_U+30E4_U+30FC 1
 62
    18
420
   196608
370
    25
  0
ENDBLK
  5
5B
330
58
100
AcDbEntity
  8
0
100
AcDbBlockEnd
  0
BLOCK
  5
67
330
65
100
AcDbEntity
  8
0
100
AcDbBlockBegin
  2
block 6
 70
     0
 10
0.0
 20
0.0
 30
0.0
  3
block 6
  1

  0
POLYLINE
  5
69
330
65
100
AcDbEntity
  8
_U+30EC_U+30A4_U+30E4_U+30FC 1
 62
    18
420
   196608
370
    25
100
AcDb2dPolyline
 66
     1
 10
0.0
 20
0.0
 30
0.0
  0
VERTEX
  5
6A
330
69
100
AcDbEntity
  8
_U+30EC_U+30A4_U+30E4_U+30FC 1
 62
    18
420
   196608
370
    25
100
AcDbVertex
100
AcDb2dVertex
 10
-107.6881796224586
 20
-90.56275531986468
 30
0.0
  0
VERTEX
  5
6B
330
69
100
AcDbEntity
  8
_U+30EC_U+30A4_U+30E4_U+30FC 1
 62
    18
420
   196608
370
    25
100
AcDbVertex
100
AcDb2dVertex
 10
-102.6881874409439
 20
-93.44950215220537
 30
0.0
  0
VERTEX
  5
6C
330
69
100
AcDbEntity
  8
_U+30EC_U+30A4_U+30E4_U+30FC 1
 62
    18
420
   196608
370
    25
100
AcDbVertex
100
AcDb2dVertex
 10
-102.6881874412885
 20
-99.22299581629704
 30
0.0
  0
VERTEX
  5
6D
330
69
100
AcDbEntity
  8
_U+30EC_U+30A4_U+30E4_U+30FC 1
 62
    18
420
   196608
370
    25
100
AcDbVertex
100
AcDb2dVertex
 10
-107.688179623149
 20
-102.109742648041
 30
0.0
  0
VERTEX
  5
6E
330
69
100
AcDbEntity
  8
_U+30EC_U+30A4_U+30E4_U+30FC 1
 62
    18
420
   196608
370
    25
100
AcDbVertex
100
AcDb2dVertex
 10
-112.6881718046647
 20
-99.22299581569385
 30
0.0
  0
VERTEX
  5
6F
330
69
100
AcDbEntity
  8
_U+30EC_U+30A4_U+30E4_U+30FC 1
 62
    18
420
   196608
370
    25
100
AcDbVertex
100
AcDb2dVertex
 10
-112.6881718043188
 20
-93.44950215160924
 30
0.0
  0
VERTEX
  5
70
330
69
100
AcDbEntity
  8
_U+30EC_U+30A4_U+30E4_U+30FC 1
 62
    18
420
   196608
370
    25
100
AcDbVertex
100
AcDb2dVertex
 10
-107.6881796224586
 20
-90.56275531986468
 30
0.0
  0
SEQEND
  5
71
330
69
100
AcDbEntity
  8
_U+30EC_U+30A4_U+30E4_U+30FC 1
 62
    18
420
   196608
370
    25
  0
ENDBLK
  5
68
330
65
100
AcDbEntity
  8
0
100
AcDbBlockEnd
  0
BLOCK
  5
74
330
72
100
AcDbEntity
  8
0
100
AcDbBlockBegin
  2
block 7
 70
     0
 10
0.0
 20
0.0
 30
0.0
  3
block 7
  1

  0
POLYLINE
  5
76
330
72
100
AcDbEntity
  8
_U+30EC_U+30A4_U+30E4_U+30FC 1
 62
    18
420
   196608
370
    25
100
AcDb2dPolyline
 66
     1
 10
0.0
 20
0.0
 30
0.0
  0
VERTEX
  5
77
330
76
100
AcDbEntity
  8
_U+30EC_U+30A4_U+30E4_U+30FC 1
 62
    18
420
   196608
370
    25
100
AcDbVertex
100
AcDb2dVertex
 10
-13.65695346525509
 20
-150.6252140685943
 30
0.0
  0
VERTEX
  5
78
330
76
100
AcDbEntity
  8
_U+30EC_U+30A4_U+30E4_U+30FC 1
 62
    18
420
   196608
370
    25
100
AcDbVertex
100
AcDb2dVertex
 10
-8.656961283309176
 20
-147.7384672369986
 30
0.0
  0
VERTEX
  5
79
330
76
100
AcDbEntity
  8
_U+30EC_U+30A4_U+30E4_U+30FC 1
 62
    18
420
   196608
370
    25
100
AcDbVertex
100
AcDb2dVertex
 10
-3.656969101876618
 20
-150.6252140694939
 30
0.0
  0
VERTEX
  5
7A
330
76
100
AcDbEntity
  8
_U+30EC_U+30A4_U+30E4_U+30FC 1
 62
    18
420
   196608
370
    25
100
AcDbVertex
100
AcDb2dVertex
 10
-3.656969102395111
 20
-156.3987077335824
 30
0.0
  0
VERTEX
  5
7B
330
76
100
AcDbEntity
  8
_U+30EC_U+30A4_U+30E4_U+30FC 1
 62
    18
420
   196608
370
    25
100
AcDbVertex
100
AcDb2dVertex
 10
-8.65696128434552
 20
-159.2854545651749
 30
0.0
  0
VERTEX
  5
7C
330
76
100
AcDbEntity
  8
_U+30EC_U+30A4_U+30E4_U+30FC 1
 62
    18
420
   196608
370
    25
100
AcDbVertex
100
AcDb2dVertex
 10
-13.6569534657723
 20
-156.3987077326828
 30
0.0
  0
VERTEX
  5
7D
330
76
100
AcDbEntity
  8
_U+30EC_U+30A4_U+30E4_U+30FC 1
 62
    18
420
   196608
370
    25
100
AcDbVertex
100
AcDb2dVertex
 10
-13.65695346525509
 20
-150.6252140685943
 30
0.0
  0
SEQEND
  5
7E
330
76
100
AcDbEntity
  8
_U+30EC_U+30A4_U+30E4_U+30FC 1
 62
    18
420
   196608
370
    25
  0
ENDBLK
  5
75
330
72
100
AcDbEntity
  8
0
100
AcDbBlockEnd
  0
BLOCK
  5
81
330
7F
100
AcDbEntity
  8
0
100
AcDbBlockBegin
  2
block 8
 70
     0
 10
0.0
 20
0.0
 30
0.0
  3
block 8
  1

  0
POLYLINE
  5
83
330
7F
100
AcDbEntity
  8
_U+30EC_U+30A4_U+30E4_U+30FC 1
 62
    18
420
   196608
370
    25
100
AcDb2dPolyline
 66
     1
 10
0.0
 20
0.0
 30
0.0
  0
VERTEX
  5
84
330
83
100
AcDbEntity
  8
_U+30EC_U+30A4_U+30E4_U+30FC 1
 62
    18
420
   196608
370
    25
100
AcDbVertex
100
AcDb2dVertex
 10
85.37427470503995
 20
-99.22301284478532
 30
0.0
  0
VERTEX
  5
85
330
83
100
AcDbEntity
  8
_U+30EC_U+30A4_U+30E4_U+30FC 1
 62
    18
420
   196608
370
    25
100
AcDbVertex
100
AcDb2dVertex
 10
85.37427470573041
 20
-93.4495191807007
 30
0.0
  0
VERTEX
  5
86
330
83
100
AcDbEntity
  8
_U+30EC_U+30A4_U+30E4_U+30FC 1
 62
    18
420
   196608
370
    25
100
AcDbVertex
100
AcDb2dVertex
 10
90.37426688776681
 20
-90.56277234925261
 30
0.0
  0
VERTEX
  5
87
330
83
100
AcDbEntity
  8
_U+30EC_U+30A4_U+30E4_U+30FC 1
 62
    18
420
   196608
370
    25
100
AcDbVertex
100
AcDb2dVertex
 10
95.37425906910889
 20
-93.44951918189298
 30
0.0
  0
VERTEX
  5
88
330
83
100
AcDbEntity
  8
_U+30EC_U+30A4_U+30E4_U+30FC 1
 62
    18
420
   196608
370
    25
100
AcDbVertex
100
AcDb2dVertex
 10
95.37425906841457
 20
-99.22301284598466
 30
0.0
  0
VERTEX
  5
89
330
83
100
AcDbEntity
  8
_U+30EC_U+30A4_U+30E4_U+30FC 1
 62
    18
420
   196608
370
    25
100
AcDbVertex
100
AcDb2dVertex
 10
90.37426688638331
 20
-102.109759677425
 30
0.0
  0
VERTEX
  5
8A
330
83
100
AcDbEntity
  8
_U+30EC_U+30A4_U+30E4_U+30FC 1
 62
    18
420
   196608
370
    25
100
AcDbVertex
100
AcDb2dVertex
 10
85.37427470503995
 20
-99.22301284478532
 30
0.0
  0
SEQEND
  5
8B
330
83
100
AcDbEntity
  8
_U+30EC_U+30A4_U+30E4_U+30FC 1
 62
    18
420
   196608
370
    25
  0
ENDBLK
  5
82
330
7F
100
AcDbEntity
  8
0
100
AcDbBlockEnd
  0
BLOCK
  5
8E
330
8C
100
AcDbEntity
  8
0
100
AcDbBlockBegin
  2
block 9
 70
     0
 10
0.0
 20
0.0
 30
0.0
  3
block 9
  1

  0
POLYLINE
  5
90
330
8C
100
AcDbEntity
  8
_U+30EC_U+30A4_U+30E4_U+30FC 1
 62
    18
420
   196608
370
    25
100
AcDb2dPolyline
 66
     1
 10
0.0
 20
0.0
 30
0.0
  0
VERTEX
  5
91
330
90
100
AcDbEntity
  8
_U+30EC_U+30A4_U+30E4_U+30FC 1
 62
    18
420
   196608
370
    25
100
AcDbVertex
100
AcDb2dVertex
 10
90.37427672326574
 20
12.24164713041762
 30
0.0
  0
VERTEX
  5
92
330
90
100
AcDbEntity
  8
_U+30EC_U+30A4_U+30E4_U+30FC 1
 62
    18
420
   196608
370
    25
100
AcDbVertex
100
AcDb2dVertex
 10
85.37428454201029
 20
15.12839396320943
 30
0.0
  0
VERTEX
  5
93
330
90
100
AcDbEntity
  8
_U+30EC_U+30A4_U+30E4_U+30FC 1
 62
    18
420
   196608
370
    25
100
AcDbVertex
100
AcDb2dVertex
 10
85.37428454287337
 20
20.9018876273011
 30
0.0
  0
VERTEX
  5
94
330
90
100
AcDbEntity
  8
_U+30EC_U+30A4_U+30E4_U+30FC 1
 62
    18
420
   196608
370
    25
100
AcDbVertex
100
AcDb2dVertex
 10
90.3742767249932
 20
23.7886344585939
 30
0.0
  0
VERTEX
  5
95
330
90
100
AcDbEntity
  8
_U+30EC_U+30A4_U+30E4_U+30FC 1
 62
    18
420
   196608
370
    25
100
AcDbVertex
100
AcDb2dVertex
 10
95.37426890624992
 20
20.90188762579824
 30
0.0
  0
VERTEX
  5
96
330
90
100
AcDbEntity
  8
_U+30EC_U+30A4_U+30E4_U+30FC 1
 62
    18
420
   196608
370
    25
100
AcDbVertex
100
AcDb2dVertex
 10
95.37426890538491
 20
15.12839396171363
 30
0.0
  0
VERTEX
  5
97
330
90
100
AcDbEntity
  8
_U+30EC_U+30A4_U+30E4_U+30FC 1
 62
    18
420
   196608
370
    25
100
AcDbVertex
100
AcDb2dVertex
 10
90.37427672326574
 20
12.24164713041762
 30
0.0
  0
SEQEND
  5
98
330
90
100
AcDbEntity
  8
_U+30EC_U+30A4_U+30E4_U+30FC 1
 62
    18
420
   196608
370
    25
  0
ENDBLK
  5
8F
330
8C
100
AcDbEntity
  8
0
100
AcDbBlockEnd
  0
BLOCK
  5
9B
330
99
100
AcDbEntity
  8
0
100
AcDbBlockBegin
  2
block 10
 70
     0
 10
0.0
 20
0.0
 30
0.0
  3
block 10
  1

  0
SPLINE
  5
9D
330
99
100
AcDbEntity
  8
_U+30EC_U+30A4_U+30E4_U+30FC 1
 62
    18
420
   196608
370
    25
100
AcDbSpline
210
0.0
220
0.0
230
1.0
 70
    11
 71
     3
 72
    20
 73
    16
 74
     0
 42
0.0000000001
 43
0.0000000001
 12
1.0
 22
0.0
 32
0.0
 13
1.0
 23
0.0
 33
0.0
 40
0.0
 40
0.0
 40
0.0
 40
0.0
 40
1.0
 40
1.0
 40
1.0
 40
2.0
 40
2.0
 40
2.0
 40
3.0
 40
3.0
 40
3.0
 40
4.0
 40
4.0
 40
4.0
 40
5.0
 40
5.0
 40
5.0
 40
5.0
 10
138.2330699740169
 20
-39.16054033783835
 30
0.0
 10
138.2330699740169
 20
18.00093126964789
 30
0.0
 10
184.5715983665302
 20
64.33945966216177
 30
0.0
 10
241.7330699740171
 20
64.33945966216177
 30
0.0
 10
298.8945415815033
 20
64.33945966216177
 30
0.0
 10
345.2330699740172
 20
18.00093126964789
 30
0.0
 10
345.2330699740172
 20
-39.16054033783835
 30
0.0
 10
345.2330699740172
 20
-96.32201194532523
 30
0.0
 10
298.8945415815033
 20
-142.6605403378385
 30
0.0
 10
241.7330699740171
 20
-142.6605403378385
 30
0.0
 10
184.5715983665302
 20
-142.6605403378385
 30
0.0
 10
138.2330699740169
 20
-96.32201194532523
 30
0.0
 10
138.2330699740169
 20
-39.16054033783835
 30
0.0
 10
138.2330699740169
 20
-39.16054033783835
 30
0.0
 10
138.2330699740169
 20
-39.16054033783835
 30
0.0
 10
138.2330699740169
 20
-39.16054033783835
 30
0.0
  0
ENDBLK
  5
9C
330
99
100
AcDbEntity
  8
0
100
AcDbBlockEnd
  0
BLOCK
  5
A0
330
9E
100
AcDbEntity
  8
0
100
AcDbBlockBegin
  2
block 11
 70
     0
 10
0.0
 20
0.0
 30
0.0
  3
block 11
  1

  0
SPLINE
  5
A2
330
9E
100
AcDbEntity
  8
_U+30EC_U+30A4_U+30E4_U+30FC 1
 62
    18
420
   196608
370
    25
100
AcDbSpline
210
0.0
220
0.0
230
1.0
 70
    11
 71
     3
 72
    95
 73
    91
 74
     0
 42
0.0000000001
 43
0.0000000001
 12
1.0
 22
0.0
 32
0.0
 13
1.0
 23
0.0
 33
0.0
 40
0.0
 40
0.0
 40
0.0
 40
0.0
 40
1.0
 40
1.0
 40
1.0
 40
2.0
 40
2.0
 40
2.0
 40
3.0
 40
3.0
 40
3.0
 40
4.0
 40
4.0
 40
4.0
 40
5.0
 40
5.0
 40
5.0
 40
6.0
 40
6.0
 40
6.0
 40
7.0
 40
7.0
 40
7.0
 40
8.0
 40
8.0
 40
8.0
 40
9.0
 40
9.0
 40
9.0
 40
10.0
 40
10.0
 40
10.0
 40
11.0
 40
11.0
 40
11.0
 40
12.0
 40
12.0
 40
12.0
 40
13.0
 40
13.0
 40
13.0
 40
14.0
 40
14.0
 40
14.0
 40
15.0
 40
15.0
 40
15.0
 40
16.0
 40
16.0
 40
16.0
 40
17.0
 40
17.0
 40
17.0
 40
18.0
 40
18.0
 40
18.0
 40
19.0
 40
19.0
 40
19.0
 40
20.0
 40
20.0
 40
20.0
 40
21.0
 40
21.0
 40
21.0
 40
22.0
 40
22.0
 40
22.0
 40
23.0
 40
23.0
 40
23.0
 40
24.0
 40
24.0
 40
24.0
 40
25.0
 40
25.0
 40
25.0
 40
26.0
 40
26.0
 40
26.0
 40
27.0
 40
27.0
 40
27.0
 40
28.0
 40
28.0
 40
28.0
 40
29.0
 40
29.0
 40
29.0
 40
30.0
 40
30.0
 40
30.0
 40
30.0
 10
137.9718229486099
 20
-105.3920212987656
 30
0.0
 10
137.740477526115
 20
-105.341786774477
 30
0.0
 10
137.5116759744238
 20
-105.2804795834727
 30
0.0
 10
137.2862076993464
 20
-105.2083112464048
 30
0.0
 10
133.3938313062439
 20
-103.9624316146204
 30
0.0
 10
131.2484217870988
 20
-99.7970521028348
 30
0.0
 10
132.494301418887
 20
-95.90467570973162
 30
0.0
 10
133.9079306234256
 20
-91.48821620275174
 30
0.0
 10
133.7510168287111
 20
-86.71881680607875
 30
0.0
 10
132.0501547419133
 20
-82.4048244247204
 30
0.0
 10
121.094041487744
 20
-54.61621561358501
 30
0.0
 10
121.0940419483626
 20
-23.70486146677196
 30
0.0
 10
132.0501553863043
 20
4.083745383445388
 30
0.0
 10
133.7510168287111
 20
8.3977361303982
 30
0.0
 10
133.9079306234256
 20
13.16713552707504
 30
0.0
 10
132.494301418887
 20
17.58359503405428
 30
0.0
 10
132.4221330818198
 20
17.80906330912784
 30
0.0
 10
132.3608258908154
 20
18.03786486081903
 30
0.0
 10
132.3105913665262
 20
18.26921028331391
 30
0.0
 10
131.4433665811619
 20
22.26304693672866
 30
0.0
 10
133.9779862951983
 20
26.20371583772078
 30
0.0
 10
137.9718229486099
 20
27.07094062308508
 30
0.0
 10
142.5034036787086
 20
28.0549315739122
 30
0.0
 10
146.5553678196658
 20
30.57552260467701
 30
0.0
 10
149.4409637702562
 20
34.20550857085977
 30
0.0
 10
168.0285468677763
 20
57.58808428299131
 30
0.0
 10
194.7985648242918
 20
73.04376135639751
 30
0.0
 10
224.3422609456735
 20
77.44979265773797
 30
0.0
 10
228.9287189830617
 20
78.1337990729142
 30
0.0
 10
233.1375969187334
 20
80.38260743882495
 30
0.0
 10
236.2555484442942
 20
83.81507599498156
 30
0.0
 10
236.414725529725
 20
83.99030974576652
 30
0.0
 10
236.5822198904119
 20
84.15780410645655
 30
0.0
 10
236.7574536411968
 20
84.31698119188421
 30
0.0
 10
239.7826052489351
 20
87.06493821351074
 30
0.0
 10
244.4626344821166
 20
86.84022760271658
 30
0.0
 10
247.2105915037393
 20
83.81507599498156
 30
0.0
 10
250.3285430293001
 20
80.38260743882495
 30
0.0
 10
254.5374209649717
 20
78.1337990729142
 30
0.0
 10
259.12387900236
 20
77.44979265773797
 30
0.0
 10
288.6675751237416
 20
73.04376135639751
 30
0.0
 10
315.4375930802578
 20
57.58808428299131
 30
0.0
 10
334.0251761777811
 20
34.20550857085977
 30
0.0
 10
336.9107721283677
 20
30.57552260467701
 30
0.0
 10
340.9627362693249
 20
28.0549315739122
 30
0.0
 10
345.4943169994274
 20
27.07094062308508
 30
0.0
 10
345.7256624219223
 20
27.0207060987997
 30
0.0
 10
345.9544639736135
 20
26.95939890779533
 30
0.0
 10
346.1799322486871
 20
26.8872305707281
 30
0.0
 10
350.0723086417902
 20
25.6413509389431
 30
0.0
 10
352.2177181609347
 20
21.47597142715745
 30
0.0
 10
350.9718385291496
 20
17.58359503405428
 30
0.0
 10
349.5582093246079
 20
13.16713552707504
 30
0.0
 10
349.7151231193224
 20
8.3977361303982
 30
0.0
 10
351.415985206124
 20
4.08374374903986
 30
0.0
 10
362.3720982299824
 20
-23.70486326443215
 30
0.0
 10
362.3720982299824
 20
-54.6162174112452
 30
0.0
 10
351.415985206124
 20
-82.4048244247204
 30
0.0
 10
349.7151231193224
 20
-86.71881680607875
 30
0.0
 10
349.5582093246079
 20
-91.48821620275174
 30
0.0
 10
350.9718385291496
 20
-95.90467570973162
 30
0.0
 10
351.0440068662176
 20
-96.13014398480838
 30
0.0
 10
351.105314057218
 20
-96.35894553649636
 30
0.0
 10
351.1555485815073
 20
-96.59029095899446
 30
0.0
 10
352.0227733668748
 20
-100.584127612406
 30
0.0
 10
349.4881536528389
 20
-104.5247965133981
 30
0.0
 10
345.4943169994274
 20
-105.3920212987656
 30
0.0
 10
340.9627362693249
 20
-106.3760122495927
 30
0.0
 10
336.9107721283677
 20
-108.8966032803543
 30
0.0
 10
334.0251761777811
 20
-112.5265892465371
 30
0.0
 10
315.4375930802578
 20
-135.9091649586719
 30
0.0
 10
288.6675751237416
 20
-151.3648420320748
 30
0.0
 10
259.12387900236
 20
-155.7708733334192
 30
0.0
 10
254.5374209649717
 20
-156.4548797485947
 30
0.0
 10
250.3285430293001
 20
-158.7036881145055
 30
0.0
 10
247.2105915037393
 20
-162.1361566706589
 30
0.0
 10
247.0514144183123
 20
-162.3113904214432
 30
0.0
 10
246.8839200576255
 20
-162.4788847821339
 30
0.0
 10
246.7086863068367
 20
-162.6380618675609
 30
0.0
 10
243.6835346991016
 20
-165.3860188891875
 30
0.0
 10
239.0035054659207
 20
-165.1613082783939
 30
0.0
 10
236.2555484442942
 20
-162.1361566706589
 30
0.0
 10
233.1375966661979
 20
-158.7036879392633
 30
0.0
 10
228.9287186970193
 20
-156.454879636069
 30
0.0
 10
224.3422606494389
 20
-155.7708732892369
 30
0.0
 10
194.7985648242918
 20
-151.3648420320748
 30
0.0
 10
168.0285468677763
 20
-135.9091649586719
 30
0.0
 10
149.4409637702562
 20
-112.5265892465371
 30
0.0
 10
146.5553678196658
 20
-108.8966032803543
 30
0.0
 10
142.5034036787086
 20
-106.3760122495927
 30
0.0
 10
137.9718229486099
 20
-105.3920212987656
 30
0.0
  0
ENDBLK
  5
A1
330
9E
100
AcDbEntity
  8
0
100
AcDbBlockEnd
  0
BLOCK
  5
AB
330
A9
100
AcDbEntity
  8
0
100
AcDbBlockBegin
  2
block 12
 70
     0
 10
0.0
 20
0.0
 30
0.0
  3
block 12
  1

  0
INSERT
  5
AE
330
A9
100
AcDbEntity
  8
_U+30EC_U+30A4_U+30E4_U+30FC 1
100
AcDbBlockReference
  2
block 13
 10
0.0
 20
0.0
 30
0.0
  0
SPLINE
  5
B2
330
A9
100
AcDbEntity
  8
_U+30EC_U+30A4_U+30E4_U+30FC 1
 62
    18
420
   196608
370
    18
100
AcDbSpline
210
0.0
220
0.0
230
1.0
 70
    11
 71
     3
 72
    17
 73
    13
 74
     0
 42
0.0000000001
 43
0.0000000001
 12
1.0
 22
0.0
 32
0.0
 13
1.0
 23
0.0
 33
0.0
 40
0.0
 40
0.0
 40
0.0
 40
0.0
 40
1.0
 40
1.0
 40
1.0
 40
2.0
 40
2.0
 40
2.0
 40
3.0
 40
3.0
 40
3.0
 40
4.0
 40
4.0
 40
4.0
 40
4.0
 10
-5.656855606224452
 20
-187.4567211464404
 30
0.0
 10
-5.656855606224452
 20
-189.1135772571377
 30
0.0
 10
-7.000021716999663
 20
-190.4567080901354
 30
0.0
 10
-8.656877827696956
 20
-190.4567080901354
 30
0.0
 10
-10.31373393839361
 20
-190.4567080901354
 30
0.0
 10
-11.6568647713913
 20
-189.1135772571377
 30
0.0
 10
-11.6568647713913
 20
-187.4567211464404
 30
0.0
 10
-11.6568647713913
 20
-185.7998650357438
 30
0.0
 10
-10.31373393839361
 20
-184.4566989249685
 30
0.0
 10
-8.656877827696956
 20
-184.4566989249685
 30
0.0
 10
-7.000021716999663
 20
-184.4566989249685
 30
0.0
 10
-5.656855606224452
 20
-185.7998650357438
 30
0.0
 10
-5.656855606224452
 20
-187.4567211464404
 30
0.0
  0
SPLINE
  5
B3
330
A9
100
AcDbEntity
  8
_U+30EC_U+30A4_U+30E4_U+30FC 1
 62
    18
420
   196608
370
    18
100
AcDbSpline
210
0.0
220
0.0
230
1.0
 70
    11
 71
     3
 72
    17
 73
    13
 74
     0
 42
0.0000000001
 43
0.0000000001
 12
1.0
 22
0.0
 32
0.0
 13
1.0
 23
0.0
 33
0.0
 40
0.0
 40
0.0
 40
0.0
 40
0.0
 40
1.0
 40
1.0
 40
1.0
 40
2.0
 40
2.0
 40
2.0
 40
3.0
 40
3.0
 40
3.0
 40
4.0
 40
4.0
 40
4.0
 40
4.0
 10
-106.1880800255362
 20
-242.0343361327964
 30
0.0
 10
-104.7532269703397
 20
-242.8627641881453
 30
0.0
 10
-104.2615958593511
 20
-244.697526132131
 30
0.0
 10
-105.0900239146994
 20
-246.1324144651056
 30
0.0
 10
-105.9184519700484
 20
-247.567267520302
 30
0.0
 10
-107.7532139140341
 20
-248.05889863129
 30
0.0
 10
-109.1881022470087
 20
-247.2304705759423
 30
0.0
 10
-110.6229553022051
 20
-246.4020425205934
 30
0.0
 10
-111.1145864131937
 20
-244.5672805766077
 30
0.0
 10
-110.2861583578454
 20
-243.1323922436331
 30
0.0
 10
-109.4577303024964
 20
-241.6975391884367
 30
0.0
 10
-107.6229683585107
 20
-241.205908077448
 30
0.0
 10
-106.1880800255362
 20
-242.0343361327964
 30
0.0
  0
SPLINE
  5
B4
330
A9
100
AcDbEntity
  8
_U+30EC_U+30A4_U+30E4_U+30FC 1
 62
    18
420
   196608
370
    18
100
AcDbSpline
210
0.0
220
0.0
230
1.0
 70
    11
 71
     3
 72
    17
 73
    13
 74
     0
 42
0.0000000001
 43
0.0000000001
 12
1.0
 22
0.0
 32
0.0
 13
1.0
 23
0.0
 33
0.0
 40
0.0
 40
0.0
 40
0.0
 40
0.0
 40
1.0
 40
1.0
 40
1.0
 40
2.0
 40
2.0
 40
2.0
 40
3.0
 40
3.0
 40
3.0
 40
4.0
 40
4.0
 40
4.0
 40
4.0
 10
-109.1881022470087
 20
-356.3857358264311
 30
0.0
 10
-107.7532139140341
 20
-355.5573077710821
 30
0.0
 10
-105.9184519700484
 20
-356.0489388820707
 30
0.0
 10
-105.0900239146994
 20
-357.4837919372678
 30
0.0
 10
-104.2615958593511
 20
-358.9186802702424
 30
0.0
 10
-104.7532269703397
 20
-360.7534422142281
 30
0.0
 10
-106.1881153033143
 20
-361.5818702695764
 30
0.0
 10
-107.6229683585107
 20
-362.4102983249247
 30
0.0
 10
-109.4577655802746
 20
-361.9187024917142
 30
0.0
 10
-110.2861936356229
 20
-360.4838141587397
 30
0.0
 10
-111.1146216909712
 20
-359.0489258257651
 30
0.0
 10
-110.6229905799832
 20
-357.2141638817794
 30
0.0
 10
-109.1881022470087
 20
-356.3857358264311
 30
0.0
  0
SPLINE
  5
B5
330
A9
100
AcDbEntity
  8
_U+30EC_U+30A4_U+30E4_U+30FC 1
 62
    18
420
   196608
370
    18
100
AcDbSpline
210
0.0
220
0.0
230
1.0
 70
    11
 71
     3
 72
    17
 73
    13
 74
     0
 42
0.0000000001
 43
0.0000000001
 12
1.0
 22
0.0
 32
0.0
 13
1.0
 23
0.0
 33
0.0
 40
0.0
 40
0.0
 40
0.0
 40
0.0
 40
1.0
 40
1.0
 40
1.0
 40
2.0
 40
2.0
 40
2.0
 40
3.0
 40
3.0
 40
3.0
 40
4.0
 40
4.0
 40
4.0
 40
4.0
 10
-11.65690004916882
 20
-416.1595205337098
 30
0.0
 10
-11.65690004916882
 20
-414.5026644230132
 30
0.0
 10
-10.31373393839361
 20
-413.1595335900155
 30
0.0
 10
-8.656877827696956
 20
-413.1595335900155
 30
0.0
 10
-7.000021716999663
 20
-413.1595335900155
 30
0.0
 10
-5.656890884002614
 20
-414.5026644230132
 30
0.0
 10
-5.656890884002614
 20
-416.1595205337098
 30
0.0
 10
-5.656890884002614
 20
-417.8163766444065
 30
0.0
 10
-7.000021716999663
 20
-419.1595074774042
 30
0.0
 10
-8.656877827696956
 20
-419.1595074774042
 30
0.0
 10
-10.31373393839361
 20
-419.1595074774042
 30
0.0
 10
-11.65690004916882
 20
-417.8163766444065
 30
0.0
 10
-11.65690004916882
 20
-416.1595205337098
 30
0.0
  0
SPLINE
  5
B6
330
A9
100
AcDbEntity
  8
_U+30EC_U+30A4_U+30E4_U+30FC 1
 62
    18
420
   196608
370
    18
100
AcDbSpline
210
0.0
220
0.0
230
1.0
 70
    11
 71
     3
 72
    17
 73
    13
 74
     0
 42
0.0000000001
 43
0.0000000001
 12
1.0
 22
0.0
 32
0.0
 13
1.0
 23
0.0
 33
0.0
 40
0.0
 40
0.0
 40
0.0
 40
0.0
 40
1.0
 40
1.0
 40
1.0
 40
2.0
 40
2.0
 40
2.0
 40
3.0
 40
3.0
 40
3.0
 40
4.0
 40
4.0
 40
4.0
 40
4.0
 10
88.8743596479204
 20
-361.5819055473539
 30
0.0
 10
87.43947131494582
 20
-360.7534774920056
 30
0.0
 10
86.94784020395782
 20
-358.9187155480199
 30
0.0
 10
87.77626825930615
 20
-357.4838272150453
 30
0.0
 10
88.60469631465448
 20
-356.0489388820707
 30
0.0
 10
90.43945825864016
 20
-355.5573077710821
 30
0.0
 10
91.87434659161474
 20
-356.3857358264311
 30
0.0
 10
93.30923492458932
 20
-357.2141638817794
 30
0.0
 10
93.8008307577998
 20
-359.0489611035426
 30
0.0
 10
92.97240270245148
 20
-360.4838141587397
 30
0.0
 10
92.14397464710315
 20
-361.9187024917142
 30
0.0
 10
90.30921270311681
 20
-362.4103336027029
 30
0.0
 10
88.8743596479204
 20
-361.5819055473539
 30
0.0
  0
SPLINE
  5
B7
330
A9
100
AcDbEntity
  8
_U+30EC_U+30A4_U+30E4_U+30FC 1
 62
    18
420
   196608
370
    18
100
AcDbSpline
210
0.0
220
0.0
230
1.0
 70
    11
 71
     3
 72
    17
 73
    13
 74
     0
 42
0.0000000001
 43
0.0000000001
 12
1.0
 22
0.0
 32
0.0
 13
1.0
 23
0.0
 33
0.0
 40
0.0
 40
0.0
 40
0.0
 40
0.0
 40
1.0
 40
1.0
 40
1.0
 40
2.0
 40
2.0
 40
2.0
 40
3.0
 40
3.0
 40
3.0
 40
4.0
 40
4.0
 40
4.0
 40
4.0
 10
91.87434659161474
 20
-247.2305058537192
 30
0.0
 10
90.43945825864016
 20
-248.0589339090682
 30
0.0
 10
88.60469631465448
 20
-247.5673027980802
 30
0.0
 10
87.77626825930615
 20
-246.1324144651056
 30
0.0
 10
86.94784020395782
 20
-244.697526132131
 30
0.0
 10
87.43947131494582
 20
-242.8627641881453
 30
0.0
 10
88.8743596479204
 20
-242.0343361327964
 30
0.0
 10
90.30924798089498
 20
-241.205908077448
 30
0.0
 10
92.14400992488066
 20
-241.6975391884367
 30
0.0
 10
92.97243798022899
 20
-243.1324275214112
 30
0.0
 10
93.80086603557731
 20
-244.5672805766077
 30
0.0
 10
93.30923492458932
 20
-246.4020777983715
 30
0.0
 10
91.87434659161474
 20
-247.2305058537192
 30
0.0
  0
SPLINE
  5
B8
330
A9
100
AcDbEntity
  8
_U+30EC_U+30A4_U+30E4_U+30FC 1
 62
    18
420
   196608
370
    18
100
AcDbSpline
210
0.0
220
0.0
230
1.0
 70
    11
 71
     3
 72
    32
 73
    28
 74
     0
 42
0.0000000001
 43
0.0000000001
 12
1.0
 22
0.0
 32
0.0
 13
1.0
 23
0.0
 33
0.0
 40
0.0
 40
0.0
 40
0.0
 40
0.0
 40
1.0
 40
1.0
 40
1.0
 40
2.0
 40
2.0
 40
2.0
 40
3.0
 40
3.0
 40
3.0
 40
4.0
 40
4.0
 40
4.0
 40
5.0
 40
5.0
 40
5.0
 40
6.0
 40
6.0
 40
6.0
 40
7.0
 40
7.0
 40
7.0
 40
8.0
 40
8.0
 40
8.0
 40
9.0
 40
9.0
 40
9.0
 40
9.0
 10
-79.85544142100801
 20
-331.3738619437948
 30
0.0
 10
-18.64087699186719
 20
-296.0653219526219
 30
0.0
 10
-18.68070560296837
 20
-225.3915505814014
 30
0.0
 10
-18.69386421407618
 20
-225.3839658591814
 30
0.0
 10
-18.69386421407618
 20
-215.9951380837504
 30
0.0
 10
-26.30500948995168
 20
-208.383957530098
 30
0.0
 10
-35.69387254315962
 20
-208.383957530098
 30
0.0
 10
-37.63679615378554
 20
-208.383957530098
 30
0.0
 10
-39.56532643108084
 20
-208.7170503077925
 30
0.0
 10
-41.39571393062332
 20
-209.3687014187407
 30
0.0
 10
-41.39571393062332
 20
-209.3687014187407
 30
0.0
 10
-41.39574920840084
 20
-209.3764625298502
 30
0.0
 10
-41.39574920840084
 20
-209.3764625298502
 30
0.0
 10
-55.00094170500005
 20
-214.1810841953156
 30
0.0
 10
-67.47008392410453
 20
-222.0072122489142
 30
0.0
 10
-77.97457142147839
 20
-232.5116997462881
 30
0.0
 10
-96.48436280573964
 20
-251.0213500194386
 30
0.0
 10
-106.6780530809692
 20
-275.6313747355086
 30
0.0
 10
-106.6780530809692
 20
-301.8080855622976
 30
0.0
 10
-106.6780530809692
 20
-307.8825661163343
 30
0.0
 10
-106.1291308588847
 20
-313.8726975037257
 30
0.0
 10
-105.054746136931
 20
-319.7217883355971
 30
0.0
 10
-103.3594019706879
 20
-328.9562758332884
 30
0.0
 10
-94.49900002845877
 20
-335.0680097206493
 30
0.0
 10
-85.2645125307669
 20
-333.3726655544062
 30
0.0
 10
-83.35351530902261
 20
-333.0218280544943
 30
0.0
 10
-81.53808558725427
 20
-332.3453061102184
 30
0.0
 10
-79.85544142100801
 20
-331.3738619437948
 30
0.0
  0
SPLINE
  5
B9
330
A9
100
AcDbEntity
  8
_U+30EC_U+30A4_U+30E4_U+30FC 1
 62
    18
420
   196608
370
    18
100
AcDbSpline
210
0.0
220
0.0
230
1.0
 70
    11
 71
     3
 72
    32
 73
    28
 74
     0
 42
0.0000000001
 43
0.0000000001
 12
1.0
 22
0.0
 32
0.0
 13
1.0
 23
0.0
 33
0.0
 40
0.0
 40
0.0
 40
0.0
 40
0.0
 40
1.0
 40
1.0
 40
1.0
 40
2.0
 40
2.0
 40
2.0
 40
3.0
 40
3.0
 40
3.0
 40
4.0
 40
4.0
 40
4.0
 40
5.0
 40
5.0
 40
5.0
 40
6.0
 40
6.0
 40
6.0
 40
7.0
 40
7.0
 40
7.0
 40
8.0
 40
8.0
 40
8.0
 40
9.0
 40
9.0
 40
9.0
 40
9.0
 10
52.51528271256579
 20
-348.6669227728051
 30
0.0
 10
-8.670106994360445
 20
-313.3077944483113
 30
0.0
 10
-69.85546142350852
 20
-348.6791994394685
 30
0.0
 10
-69.85546142350852
 20
-348.6943688839097
 30
0.0
 10
-77.986424754809
 20
-353.3887827716246
 30
0.0
 10
-80.77231086522393
 20
-363.7858141579137
 30
0.0
 10
-76.0778969775084
 20
-371.9167774892148
 30
0.0
 10
-75.10641753330668
 20
-373.5994216554604
 30
0.0
 10
-73.85370364473116
 20
-375.1030663773075
 30
0.0
 10
-72.37415364510058
 20
-376.362377210326
 30
0.0
 10
-72.37415364510058
 20
-376.362377210326
 30
0.0
 10
-72.36741558954688
 20
-376.3585319325488
 30
0.0
 10
-72.36741558954688
 20
-376.3585319325488
 30
0.0
 10
-61.40389364784337
 20
-385.7386460968704
 30
0.0
 10
-48.39168531776301
 20
-392.6241980395938
 30
0.0
 10
-34.04230809912811
 20
-396.4690877608548
 30
0.0
 10
-8.757595883227317
 20
-403.2442202591608
 30
0.0
 10
17.65215994350382
 20
-399.7672072044742
 30
0.0
 10
40.32187160450292
 20
-386.6788694299684
 30
0.0
 10
45.5825291031876
 20
-383.6416291529504
 30
0.0
 10
50.49566521307032
 20
-380.1711777649286
 30
0.0
 10
55.02392076749421
 20
-376.3161633214483
 30
0.0
 10
62.17356215459574
 20
-370.2307113785248
 30
0.0
 10
63.03628020993555
 20
-359.5015397145406
 30
0.0
 10
56.95082826701207
 20
-352.3518983274398
 30
0.0
 10
55.69148215621605
 20
-350.8723483278092
 30
0.0
 10
54.19789160103389
 20
-349.6383669392287
 30
0.0
 10
52.51528271256579
 20
-348.6669227728051
 30
0.0
  0
SPLINE
  5
BA
330
A9
100
AcDbEntity
  8
_U+30EC_U+30A4_U+30E4_U+30FC 1
 62
    18
420
   196608
370
    18
100
AcDbSpline
210
0.0
220
0.0
230
1.0
 70
    11
 71
     3
 72
    32
 73
    28
 74
     0
 42
0.0000000001
 43
0.0000000001
 12
1.0
 22
0.0
 32
0.0
 13
1.0
 23
0.0
 33
0.0
 40
0.0
 40
0.0
 40
0.0
 40
0.0
 40
1.0
 40
1.0
 40
1.0
 40
2.0
 40
2.0
 40
2.0
 40
3.0
 40
3.0
 40
3.0
 40
4.0
 40
4.0
 40
4.0
 40
5.0
 40
5.0
 40
5.0
 40
6.0
 40
6.0
 40
6.0
 40
7.0
 40
7.0
 40
7.0
 40
8.0
 40
8.0
 40
8.0
 40
9.0
 40
9.0
 40
9.0
 40
9.0
 10
1.306131058700962
 20
-225.3839658591814
 30
0.0
 10
1.276921058708217
 20
-296.0515988970699
 30
0.0
 10
62.50213937673563
 20
-331.3540005549114
 30
0.0
 10
62.51526271006528
 20
-331.3464158326902
 30
0.0
 10
70.6462260413664
 20
-336.0408297204057
 30
0.0
 10
81.04329270543371
 20
-333.2549436099914
 30
0.0
 10
85.73770659314924
 20
-325.1239802786903
 30
0.0
 10
86.70915075957281
 20
-323.4413713902222
 30
0.0
 10
87.38500242607074
 20
-321.6046338906813
 30
0.0
 10
87.73583992598265
 20
-319.6936719467145
 30
0.0
 10
87.73583992598265
 20
-319.6936719467145
 30
0.0
 10
87.72913714820646
 20
-319.6897561133823
 30
0.0
 10
87.72913714820646
 20
-319.6897561133823
 30
0.0
 10
90.37077242532399
 20
-305.5050202835954
 30
0.0
 10
89.82774159212629
 20
-290.7933402872733
 30
0.0
 10
85.98281659308772
 20
-276.4439630686384
 30
0.0
 10
79.2079310392257
 20
-251.1591802971819
 30
0.0
 10
62.99183020994659
 20
-230.0261333580204
 30
0.0
 10
40.32215382672501
 20
-216.9377955835146
 30
0.0
 10
35.06149632804033
 20
-213.9005553064966
 30
0.0
 10
29.59943799607245
 20
-211.3808753071263
 30
0.0
 10
23.99676244191734
 20
-209.3867989187359
 30
0.0
 10
15.15177688857335
 20
-206.23772808619
 30
0.0
 10
5.428692168781967
 20
-210.8552011405914
 30
0.0
 10
2.279656614013569
 20
-219.7001866939354
 30
0.0
 10
1.627970225287154
 20
-221.5305741934779
 30
0.0
 10
1.306131058700962
 20
-223.4410422485562
 30
0.0
 10
1.306131058700962
 20
-225.3839658591814
 30
0.0
  0
SPLINE
  5
BB
330
A9
100
AcDbEntity
  8
_U+30EC_U+30A4_U+30E4_U+30FC 1
 62
    18
420
   196608
370
    25
100
AcDbSpline
210
0.0
220
0.0
230
1.0
 70
    11
 71
     3
 72
    17
 73
    13
 74
     0
 42
0.0000000001
 43
0.0000000001
 12
1.0
 22
0.0
 32
0.0
 13
1.0
 23
0.0
 33
0.0
 40
0.0
 40
0.0
 40
0.0
 40
0.0
 40
1.0
 40
1.0
 40
1.0
 40
2.0
 40
2.0
 40
2.0
 40
3.0
 40
3.0
 40
3.0
 40
4.0
 40
4.0
 40
4.0
 40
4.0
 10
-7.156871779736719
 20
-260.5020047225315
 30
0.0
 10
-7.156871779736719
 20
-261.3304318470241
 30
0.0
 10
-7.828444654868736
 20
-262.0020047221565
 30
0.0
 10
-8.656871779361698
 20
-262.0020047221565
 30
0.0
 10
-9.48529890385466
 20
-262.0020047221565
 30
0.0
 10
-10.15687177898668
 20
-261.3304318470241
 30
0.0
 10
-10.15687177898668
 20
-260.5020047225315
 30
0.0
 10
-10.15687177898668
 20
-259.6735775980388
 30
0.0
 10
-9.48529890385466
 20
-259.0020047229065
 30
0.0
 10
-8.656871779361698
 20
-259.0020047229065
 30
0.0
 10
-7.828444654868736
 20
-259.0020047229065
 30
0.0
 10
-7.156871779736719
 20
-259.6735775980388
 30
0.0
 10
-7.156871779736719
 20
-260.5020047225315
 30
0.0
  0
SPLINE
  5
BC
330
A9
100
AcDbEntity
  8
_U+30EC_U+30A4_U+30E4_U+30FC 1
 62
    18
420
   196608
370
    25
100
AcDbSpline
210
0.0
220
0.0
230
1.0
 70
    11
 71
     3
 72
    17
 73
    13
 74
     0
 42
0.0000000001
 43
0.0000000001
 12
1.0
 22
0.0
 32
0.0
 13
1.0
 23
0.0
 33
0.0
 40
0.0
 40
0.0
 40
0.0
 40
0.0
 40
1.0
 40
1.0
 40
1.0
 40
2.0
 40
2.0
 40
2.0
 40
3.0
 40
3.0
 40
3.0
 40
4.0
 40
4.0
 40
4.0
 40
4.0
 10
-45.17902476915476
 20
-321.1621514939094
 30
0.0
 10
-44.46158583413558
 20
-320.7479379317061
 30
0.0
 10
-43.54420022622717
 20
-320.9937506645521
 30
0.0
 10
-43.12998666402352
 20
-321.7111895995713
 30
0.0
 10
-42.71577310181988
 20
-322.4286285345918
 30
0.0
 10
-42.96158583466589
 20
-323.3460141424995
 30
0.0
 10
-43.67902476968572
 20
-323.7602277047029
 30
0.0
 10
-44.39646370470491
 20
-324.1744412669069
 30
0.0
 10
-45.31384931261332
 20
-323.9286285340608
 30
0.0
 10
-45.72806287481696
 20
-323.211189599041
 30
0.0
 10
-46.14227643702061
 20
-322.4937506640211
 30
0.0
 10
-45.89646370417459
 20
-321.5763650561134
 30
0.0
 10
-45.17902476915476
 20
-321.1621514939094
 30
0.0
  0
SPLINE
  5
BD
330
A9
100
AcDbEntity
  8
_U+30EC_U+30A4_U+30E4_U+30FC 1
 62
    18
420
   196608
370
    25
100
AcDbSpline
210
0.0
220
0.0
230
1.0
 70
    11
 71
     3
 72
    17
 73
    13
 74
     0
 42
0.0000000001
 43
0.0000000001
 12
1.0
 22
0.0
 32
0.0
 13
1.0
 23
0.0
 33
0.0
 40
0.0
 40
0.0
 40
0.0
 40
0.0
 40
1.0
 40
1.0
 40
1.0
 40
2.0
 40
2.0
 40
2.0
 40
3.0
 40
3.0
 40
3.0
 40
4.0
 40
4.0
 40
4.0
 40
4.0
 10
26.36527982670456
 20
-323.7602285079182
 30
0.0
 10
25.64784089175949
 20
-323.3460149455859
 30
0.0
 10
25.40202815907871
 20
-322.4286293376332
 30
0.0
 10
25.81624172141037
 20
-321.7111904026878
 30
0.0
 10
26.23045528374332
 20
-320.9937514677424
 30
0.0
 10
27.14784089169537
 20
-320.7479387350613
 30
0.0
 10
27.86527982664076
 20
-321.1621522973942
 30
0.0
 10
28.58271876158615
 20
-321.5763658597253
 30
0.0
 10
28.82853149426725
 20
-322.493751467678
 30
0.0
 10
28.41431793193463
 20
-323.211190402624
 30
0.0
 10
28.000104369602
 20
-323.9286293375694
 30
0.0
 10
27.08271876164995
 20
-324.1744420702499
 30
0.0
 10
26.36527982670456
 20
-323.7602285079182
 30
0.0
  0
ENDBLK
  5
AC
330
A9
100
AcDbEntity
  8
0
100
AcDbBlockEnd
  0
BLOCK
  5
AF
330
AD
100
AcDbEntity
  8
0
100
AcDbBlockBegin
  2
block 13
 70
     0
 10
0.0
 20
0.0
 30
0.0
  3
block 13
  1

  0
SPLINE
  5
B1
330
AD
100
AcDbEntity
  8
_U+30EC_U+30A4_U+30E4_U+30FC 1
 62
    18
420
   196608
370
    18
100
AcDbSpline
210
0.0
220
0.0
230
1.0
 70
    11
 71
     3
 72
    95
 73
    91
 74
     0
 42
0.0000000001
 43
0.0000000001
 12
1.0
 22
0.0
 32
0.0
 13
1.0
 23
0.0
 33
0.0
 40
0.0
 40
0.0
 40
0.0
 40
0.0
 40
1.0
 40
1.0
 40
1.0
 40
2.0
 40
2.0
 40
2.0
 40
3.0
 40
3.0
 40
3.0
 40
4.0
 40
4.0
 40
4.0
 40
5.0
 40
5.0
 40
5.0
 40
6.0
 40
6.0
 40
6.0
 40
7.0
 40
7.0
 40
7.0
 40
8.0
 40
8.0
 40
8.0
 40
9.0
 40
9.0
 40
9.0
 40
10.0
 40
10.0
 40
10.0
 40
11.0
 40
11.0
 40
11.0
 40
12.0
 40
12.0
 40
12.0
 40
13.0
 40
13.0
 40
13.0
 40
14.0
 40
14.0
 40
14.0
 40
15.0
 40
15.0
 40
15.0
 40
16.0
 40
16.0
 40
16.0
 40
17.0
 40
17.0
 40
17.0
 40
18.0
 40
18.0
 40
18.0
 40
19.0
 40
19.0
 40
19.0
 40
20.0
 40
20.0
 40
20.0
 40
21.0
 40
21.0
 40
21.0
 40
22.0
 40
22.0
 40
22.0
 40
23.0
 40
23.0
 40
23.0
 40
24.0
 40
24.0
 40
24.0
 40
25.0
 40
25.0
 40
25.0
 40
26.0
 40
26.0
 40
26.0
 40
27.0
 40
27.0
 40
27.0
 40
28.0
 40
28.0
 40
28.0
 40
29.0
 40
29.0
 40
29.0
 40
30.0
 40
30.0
 40
30.0
 40
30.0
 10
-14.13442310410497
 20
-178.8325039263745
 30
0.0
 10
-17.25237893665926
 20
-182.2649964255165
 30
0.0
 10
-21.46126476894001
 20
-184.5137783693987
 30
0.0
 10
-26.04769337890484
 20
-185.1978144803389
 30
0.0
 10
-55.59138587151887
 20
-189.6038325347928
 30
0.0
 10
-82.36143364260386
 20
-205.0595208642624
 30
0.0
 10
-100.9490125268461
 20
-228.4420905806386
 30
0.0
 10
-103.8345936372356
 20
-232.0720680797315
 30
0.0
 10
-107.8865639140003
 20
-234.5926653013237
 30
0.0
 10
-112.4181355795341
 20
-235.5766683566334
 30
0.0
 10
-116.411968078536
 20
-236.4438666897496
 30
0.0
 10
-118.9466058556798
 20
-240.3845355776537
 30
0.0
 10
-118.0793722447855
 20
-244.3783680766549
 30
0.0
 10
-118.0291366892429
 20
-244.6097197432633
 30
0.0
 10
-117.9678239114803
 20
-244.8385314098729
 30
0.0
 10
-117.8956808559428
 20
-245.0639916875944
 30
0.0
 10
-116.4820297451851
 20
-249.4804519642686
 30
0.0
 10
-116.6389453007012
 20
-254.2498664075205
 30
0.0
 10
-118.339828078054
 20
-258.5638447397748
 30
0.0
 10
-129.2959416864258
 20
-286.3524677883837
 30
0.0
 10
-129.2959416864258
 20
-317.2638091695447
 30
0.0
 10
-118.339828078054
 20
-345.0524322181529
 30
0.0
 10
-116.6389453007012
 20
-349.3664105504079
 30
0.0
 10
-116.4820297451851
 20
-354.1358249936599
 30
0.0
 10
-117.8956808559428
 20
-358.552285270334
 30
0.0
 10
-119.1415508556314
 20
-362.4446588804713
 30
0.0
 10
-116.9961328006121
 20
-366.6100119349856
 30
0.0
 10
-113.1037591904743
 20
-367.8559172124517
 30
0.0
 10
-112.8782989127528
 20
-367.9280602679898
 30
0.0
 10
-112.6494872461431
 20
-367.9893730457518
 30
0.0
 10
-112.4181355795341
 20
-368.039608601295
 30
0.0
 10
-107.8865639140003
 20
-369.0236116566047
 30
0.0
 10
-103.8345936372356
 20
-371.544208878197
 30
0.0
 10
-100.9490125268461
 20
-375.1741863772892
 30
0.0
 10
-82.36143364260386
 20
-398.556756093666
 30
0.0
 10
-55.59138587151887
 20
-414.012444423135
 30
0.0
 10
-26.04769337890484
 20
-418.4184624775889
 30
0.0
 10
-21.46126476894001
 20
-419.1024633107516
 30
0.0
 10
-17.25237893665926
 20
-421.3512805324113
 30
0.0
 10
-14.13442310410497
 20
-424.7837377537758
 30
0.0
 10
-11.38646060479233
 20
-427.8089130307974
 30
0.0
 10
-6.706440050406772
 20
-428.0335971974077
 30
0.0
 10
-3.681264773385138
 20
-425.2856699758726
 30
0.0
 10
-3.506040051206831
 20
-425.1264613648011
 30
0.0
 10
-3.338541162359831
 20
-424.9589977537323
 30
0.0
 10
-3.179367829066461
 20
-424.7837377537758
 30
0.0
 10
-0.0614119965121743
 20
-421.3512805324113
 30
0.0
 10
4.147438557991058
 20
-419.1024633107516
 30
0.0
 10
8.733902445733403
 20
-418.4184624775889
 30
0.0
 10
38.27759493834744
 20
-414.012444423135
 30
0.0
 10
65.04764270943242
 20
-398.556756093666
 30
0.0
 10
83.63522159367467
 20
-375.1741863772892
 30
0.0
 10
86.52080270406421
 20
-371.544208878197
 30
0.0
 10
90.57277298082887
 20
-369.0236116566047
 30
0.0
 10
95.1043446463627
 20
-368.039608601295
 30
0.0
 10
99.09817714536462
 20
-367.1723749904013
 30
0.0
 10
101.6328149225084
 20
-363.2317061024972
 30
0.0
 10
100.765581311614
 20
-359.237873603496
 30
0.0
 10
100.7153457560714
 20
-359.006521936887
 30
0.0
 10
100.6540329783088
 20
-358.7777455480549
 30
0.0
 10
100.5818546449938
 20
-358.552285270334
 30
0.0
 10
99.16823881201366
 20
-354.1358249936599
 30
0.0
 10
99.32515436752975
 20
-349.3664105504079
 30
0.0
 10
101.0260018671044
 20
-345.0524322181529
 30
0.0
 10
111.9821154754768
 20
-317.2638091695447
 30
0.0
 10
111.9821154754768
 20
-286.3524677883837
 30
0.0
 10
101.0260018671044
 20
-258.5638447397748
 30
0.0
 10
99.32515436752975
 20
-254.2498664075205
 30
0.0
 10
99.16823881201366
 20
-249.4804519642686
 30
0.0
 10
100.5818546449938
 20
-245.0639916875944
 30
0.0
 10
101.82775992246
 20
-241.1716180774565
 30
0.0
 10
99.6823418674407
 20
-237.0062297451647
 30
0.0
 10
95.7899682573022
 20
-235.7603597454761
 30
0.0
 10
95.56450797958132
 20
-235.6881814121611
 30
0.0
 10
95.33569631297169
 20
-235.626903912176
 30
0.0
 10
95.1043446463627
 20
-235.5766683566334
 30
0.0
 10
90.57277298082887
 20
-234.5926653013237
 30
0.0
 10
86.52080270406421
 20
-232.0720680797315
 30
0.0
 10
83.63522159367467
 20
-228.4420905806386
 30
0.0
 10
65.04764270943242
 20
-205.0595208642624
 30
0.0
 10
38.27759493834744
 20
-189.6038325347928
 30
0.0
 10
8.733902445733403
 20
-185.1978144803389
 30
0.0
 10
4.147438557991058
 20
-184.5137783693987
 30
0.0
 10
-0.0614119965121743
 20
-182.2649964255165
 30
0.0
 10
-3.179367829066461
 20
-178.8325039263745
 30
0.0
 10
-5.927330328379101
 20
-175.807363927131
 30
0.0
 10
-10.60735088276466
 20
-175.5826444827432
 30
0.0
 10
-13.63252615978629
 20
-178.3306069820558
 30
0.0
 10
-13.8077508819646
 20
-178.4897803153492
 30
0.0
 10
-13.9752497708116
 20
-178.6572792041962
 30
0.0
 10
-14.13442310410497
 20
-178.8325039263745
 30
0.0
  0
ENDBLK
  5
B0
330
AD
100
AcDbEntity
  8
0
100
AcDbBlockEnd
  0
BLOCK
  5
C0
330
BE
100
AcDbEntity
  8
0
100
AcDbBlockBegin
  2
block 14
 70
     0
 10
0.0
 20
0.0
 30
0.0
  3
block 14
  1

  0
SPLINE
  5
C2
330
BE
100
AcDbEntity
  8
_U+30EC_U+30A4_U+30E4_U+30FC 1
 62
    18
420
   196608
370
    18
100
AcDbSpline
210
0.0
220
0.0
230
1.0
 70
    11
 71
     3
 72
    32
 73
    28
 74
     0
 42
0.0000000001
 43
0.0000000001
 12
1.0
 22
0.0
 32
0.0
 13
1.0
 23
0.0
 33
0.0
 40
0.0
 40
0.0
 40
0.0
 40
0.0
 40
1.0
 40
1.0
 40
1.0
 40
2.0
 40
2.0
 40
2.0
 40
3.0
 40
3.0
 40
3.0
 40
4.0
 40
4.0
 40
4.0
 40
5.0
 40
5.0
 40
5.0
 40
6.0
 40
6.0
 40
6.0
 40
7.0
 40
7.0
 40
7.0
 40
8.0
 40
8.0
 40
8.0
 40
9.0
 40
9.0
 40
9.0
 40
9.0
 10
170.5345109320142
 20
-331.3738382243125
 30
0.0
 10
231.749073814745
 20
-296.0653335109179
 30
0.0
 10
231.70924520465
 20
-225.3915621396973
 30
0.0
 10
231.6961218716515
 20
-225.3839774174767
 30
0.0
 10
231.6961218716515
 20
-215.9951496420463
 30
0.0
 10
224.0849415102733
 20
-208.3839690883933
 30
0.0
 10
214.6961139720245
 20
-208.3839690883933
 30
0.0
 10
212.7531904104815
 20
-208.3839690883933
 30
0.0
 10
210.8246249041277
 20
-208.7170265883103
 30
0.0
 10
208.9942374508248
 20
-209.368712977036
 30
0.0
 10
208.9942374508248
 20
-209.368712977036
 30
0.0
 10
208.9942021730479
 20
-209.3764740881448
 30
0.0
 10
208.9942021730479
 20
-209.3764740881448
 30
0.0
 10
195.3890512274658
 20
-214.1810957536102
 30
0.0
 10
182.9198681160374
 20
-222.0072238072095
 30
0.0
 10
172.4154161618061
 20
-232.5117113045834
 30
0.0
 10
153.9055899673644
 20
-251.0213262999557
 30
0.0
 10
143.7118999496493
 20
-275.6313862938032
 30
0.0
 10
143.7118999496493
 20
-301.8080618428148
 30
0.0
 10
143.7118999496493
 20
-307.8825776746302
 30
0.0
 10
144.2608221578674
 20
-313.8726737842435
 30
0.0
 10
145.3352421304567
 20
-319.7217646161142
 30
0.0
 10
147.0305509760946
 20
-328.9562873915837
 30
0.0
 10
155.8909526944914
 20
-335.0679860011664
 30
0.0
 10
165.1254752366769
 20
-333.3726771127015
 30
0.0
 10
167.0364371323686
 20
-333.0218396127889
 30
0.0
 10
168.8518668082754
 20
-332.3453176685143
 30
0.0
 10
170.5345109320142
 20
-331.3738382243125
 30
0.0
  0
SPLINE
  5
C3
330
BE
100
AcDbEntity
  8
_U+30EC_U+30A4_U+30E4_U+30FC 1
 62
    18
420
   196608
370
    18
100
AcDbSpline
210
0.0
220
0.0
230
1.0
 70
    11
 71
     3
 72
    32
 73
    28
 74
     0
 42
0.0000000001
 43
0.0000000001
 12
1.0
 22
0.0
 32
0.0
 13
1.0
 23
0.0
 33
0.0
 40
0.0
 40
0.0
 40
0.0
 40
0.0
 40
1.0
 40
1.0
 40
1.0
 40
2.0
 40
2.0
 40
2.0
 40
3.0
 40
3.0
 40
3.0
 40
4.0
 40
4.0
 40
4.0
 40
5.0
 40
5.0
 40
5.0
 40
6.0
 40
6.0
 40
6.0
 40
7.0
 40
7.0
 40
7.0
 40
8.0
 40
8.0
 40
8.0
 40
9.0
 40
9.0
 40
9.0
 40
9.0
 10
302.9052317216224
 20
-348.6669343311004
 30
0.0
 10
241.7198788381464
 20
-313.3078060066072
 30
0.0
 10
180.5344906768935
 20
-348.6791757199863
 30
0.0
 10
180.5344906768935
 20
-348.6943451644268
 30
0.0
 10
172.4035275509983
 20
-353.3887590521417
 30
0.0
 10
169.6176415109611
 20
-363.7858257162097
 30
0.0
 10
174.3120905578623
 20
-371.9167890475101
 30
0.0
 10
175.283540121381
 20
-373.5993979359782
 30
0.0
 10
176.5362540099565
 20
-375.1030426578247
 30
0.0
 10
178.0158040095865
 20
-376.3623887686207
 30
0.0
 10
178.0158040095865
 20
-376.3623887686207
 30
0.0
 10
178.0225365743121
 20
-376.3585434908441
 30
0.0
 10
178.0225365743121
 20
-376.3585434908441
 30
0.0
 10
188.9860582390538
 20
-385.7386576551656
 30
0.0
 10
201.998266240418
 20
-392.6241743201109
 30
0.0
 10
216.3476430965572
 20
-396.4690993191495
 30
0.0
 10
241.6323546737127
 20
-403.2442318174561
 30
0.0
 10
268.0421451110539
 20
-399.7672187627701
 30
0.0
 10
290.7118209215911
 20
-386.6788809882644
 30
0.0
 10
295.9724782873806
 20
-383.6416054334682
 30
0.0
 10
300.8856142731472
 20
-380.1711893232246
 30
0.0
 10
305.4138697131773
 20
-376.3161748797436
 30
0.0
 10
312.5635461974405
 20
-370.2307229368207
 30
0.0
 10
313.4262289532094
 20
-359.5015512728359
 30
0.0
 10
307.3407771640178
 20
-352.3518746079569
 30
0.0
 10
306.0814663628121
 20
-350.8723246083263
 30
0.0
 10
304.5878405675844
 20
-349.6383784975246
 30
0.0
 10
302.9052317216224
 20
-348.6669343311004
 30
0.0
  0
SPLINE
  5
C4
330
BE
100
AcDbEntity
  8
_U+30EC_U+30A4_U+30E4_U+30FC 1
 62
    18
420
   196608
370
    18
100
AcDbSpline
210
0.0
220
0.0
230
1.0
 70
    11
 71
     3
 72
    32
 73
    28
 74
     0
 42
0.0000000001
 43
0.0000000001
 12
1.0
 22
0.0
 32
0.0
 13
1.0
 23
0.0
 33
0.0
 40
0.0
 40
0.0
 40
0.0
 40
0.0
 40
1.0
 40
1.0
 40
1.0
 40
2.0
 40
2.0
 40
2.0
 40
3.0
 40
3.0
 40
3.0
 40
4.0
 40
4.0
 40
4.0
 40
5.0
 40
5.0
 40
5.0
 40
6.0
 40
6.0
 40
6.0
 40
7.0
 40
7.0
 40
7.0
 40
8.0
 40
8.0
 40
8.0
 40
9.0
 40
9.0
 40
9.0
 40
9.0
 10
251.6961166391869
 20
-225.3839774174767
 30
0.0
 10
251.6669066399321
 20
-296.0516104553653
 30
0.0
 10
312.8920881335031
 20
-331.3539768354286
 30
0.0
 10
312.9052114665017
 20
-331.3464273909862
 30
0.0
 10
321.0362189738316
 20
-336.0408412787016
 30
0.0
 10
331.4332503601214
 20
-333.2549551682867
 30
0.0
 10
336.1276642478363
 20
-325.1239918369862
 30
0.0
 10
337.099143692038
 20
-323.44134767074
 30
0.0
 10
337.7749600807578
 20
-321.6046454489772
 30
0.0
 10
338.1257975806703
 20
-319.6936482272323
 30
0.0
 10
338.1257975806703
 20
-319.6936482272323
 30
0.0
 10
338.1190948028942
 20
-319.6897323939
 30
0.0
 10
338.1190948028942
 20
-319.6897323939
 30
0.0
 10
340.7607653577892
 20
-305.5049965641132
 30
0.0
 10
340.217699246814
 20
-290.7933165677911
 30
0.0
 10
336.372809525553
 20
-276.4439393491562
 30
0.0
 10
329.5978886939134
 20
-251.159156577699
 30
0.0
 10
313.3818142321203
 20
-230.0261449163163
 30
0.0
 10
290.7121031438062
 20
-216.9378071418106
 30
0.0
 10
285.451453982728
 20
-213.9005668647919
 30
0.0
 10
279.9893956507601
 20
-211.3808868654223
 30
0.0
 10
274.3867474491896
 20
-209.3867751992537
 30
0.0
 10
265.5417621192884
 20
-206.2377396444853
 30
0.0
 10
255.8186776451227
 20
-210.8552126988867
 30
0.0
 10
252.6696068921289
 20
-219.7001982522307
 30
0.0
 10
252.0179557976428
 20
-221.5305857517732
 30
0.0
 10
251.6961166391869
 20
-223.4410538068508
 30
0.0
 10
251.6961166391869
 20
-225.3839774174767
 30
0.0
  0
SPLINE
  5
C5
330
BE
100
AcDbEntity
  8
_U+30EC_U+30A4_U+30E4_U+30FC 1
 62
    18
420
   196608
370
    18
100
AcDbSpline
210
0.0
220
0.0
230
1.0
 70
     8
 71
     3
 72
    11
 73
     7
 74
     0
 42
0.0000000001
 43
0.0000000001
 12
1.0
 22
0.0
 32
0.0
 13
1.0
 23
0.0
 33
0.0
 40
0.0
 40
0.0
 40
0.0
 40
0.0
 40
1.0
 40
1.0
 40
1.0
 40
2.0
 40
2.0
 40
2.0
 40
2.0
 10
274.4694032804142
 20
-209.3831415881435
 30
0.0
 10
264.0955496561843
 20
-205.7172513112823
 30
0.0
 10
253.0609079932571
 20
-203.8081943673151
 30
0.0
 10
241.7328963378143
 20
-203.8081943673151
 30
0.0
 10
230.4048846823715
 20
-203.8081943673151
 30
0.0
 10
219.3702430194442
 20
-205.7172513112823
 30
0.0
 10
208.9963956685085
 20
-209.3831415881435
 30
0.0
  0
SPLINE
  5
C6
330
BE
100
AcDbEntity
  8
_U+30EC_U+30A4_U+30E4_U+30FC 1
 62
    18
420
   196608
370
    18
100
AcDbSpline
210
0.0
220
0.0
230
1.0
 70
     8
 71
     3
 72
    11
 73
     7
 74
     0
 42
0.0000000001
 43
0.0000000001
 12
1.0
 22
0.0
 32
0.0
 13
1.0
 23
0.0
 33
0.0
 40
0.0
 40
0.0
 40
0.0
 40
0.0
 40
1.0
 40
1.0
 40
1.0
 40
2.0
 40
2.0
 40
2.0
 40
2.0
 10
145.32243629745
 20
-319.6702943383495
 30
0.0
 10
147.3345748572272
 20
-330.4872723912008
 30
0.0
 10
151.1986203142027
 20
-340.9980746107956
 30
0.0
 10
156.8626437808126
 20
-350.8084365527874
 30
0.0
 10
162.5266319696455
 20
-360.6187632170011
 30
0.0
 10
169.6972281755973
 20
-369.2205084926287
 30
0.0
 10
178.0589079622731
 20
-376.3715962686187
 30
0.0
  0
SPLINE
  5
C7
330
BE
100
AcDbEntity
  8
_U+30EC_U+30A4_U+30E4_U+30FC 1
 62
    18
420
   196608
370
    18
100
AcDbSpline
210
0.0
220
0.0
230
1.0
 70
     8
 71
     3
 72
    11
 73
     7
 74
     0
 42
0.0000000001
 43
0.0000000001
 12
1.0
 22
0.0
 32
0.0
 13
1.0
 23
0.0
 33
0.0
 40
0.0
 40
0.0
 40
0.0
 40
0.0
 40
1.0
 40
1.0
 40
1.0
 40
2.0
 40
2.0
 40
2.0
 40
2.0
 10
305.4073873110721
 20
-376.3712787686185
 30
0.0
 10
313.7691025867593
 20
-369.2202262704066
 30
0.0
 10
320.9396989738556
 20
-360.618480994779
 30
0.0
 10
326.6036873057733
 20
-350.8081190527872
 30
0.0
 10
332.2677109154686
 20
-340.9977923885729
 30
0.0
 10
336.1317564700581
 20
-330.4869901689787
 30
0.0
 10
338.1438950806661
 20
-319.6700121161275
 30
0.0
  0
INSERT
  5
C9
330
BE
100
AcDbEntity
  8
_U+30EC_U+30A4_U+30E4_U+30FC 1
100
AcDbBlockReference
  2
block 15
 10
0.0
 20
0.0
 30
0.0
  0
SPLINE
  5
CD
330
BE
100
AcDbEntity
  8
_U+30EC_U+30A4_U+30E4_U+30FC 1
 62
    18
420
   196608
370
    18
100
AcDbSpline
210
0.0
220
0.0
230
1.0
 70
    11
 71
     3
 72
    20
 73
    16
 74
     0
 42
0.0000000001
 43
0.0000000001
 12
1.0
 22
0.0
 32
0.0
 13
1.0
 23
0.0
 33
0.0
 40
0.0
 40
0.0
 40
0.0
 40
0.0
 40
1.0
 40
1.0
 40
1.0
 40
2.0
 40
2.0
 40
2.0
 40
3.0
 40
3.0
 40
3.0
 40
4.0
 40
4.0
 40
4.0
 40
5.0
 40
5.0
 40
5.0
 40
5.0
 10
140.7330797478676
 20
-301.8081323983704
 30
0.0
 10
140.7330797478676
 20
-246.0273688012042
 30
0.0
 10
185.9523105386733
 20
-200.808136868065
 30
0.0
 10
241.7330727266987
 20
-200.808136868065
 30
0.0
 10
297.513834914724
 20
-200.808136868065
 30
0.0
 10
342.7330753572961
 20
-246.0273688012042
 30
0.0
 10
342.7330753572961
 20
-301.8081323983704
 30
0.0
 10
342.7330753572961
 20
-357.5888959955367
 30
0.0
 10
297.513834914724
 20
-402.8081279286758
 30
0.0
 10
241.7330727266987
 20
-402.8081279286758
 30
0.0
 10
185.9523105386733
 20
-402.8081279286758
 30
0.0
 10
140.7330797478676
 20
-357.5888959955367
 30
0.0
 10
140.7330797478676
 20
-301.8081323983704
 30
0.0
 10
140.7330797478676
 20
-301.8081323983704
 30
0.0
 10
140.7330797478676
 20
-301.8081323983704
 30
0.0
 10
140.7330797478676
 20
-301.8081323983704
 30
0.0
  0
SPLINE
  5
CE
330
BE
100
AcDbEntity
  8
_U+30EC_U+30A4_U+30E4_U+30FC 1
 62
    18
420
   196608
370
    18
100
AcDbSpline
210
0.0
220
0.0
230
1.0
 70
    11
 71
     3
 72
    17
 73
    13
 74
     0
 42
0.0000000001
 43
0.0000000001
 12
1.0
 22
0.0
 32
0.0
 13
1.0
 23
0.0
 33
0.0
 40
0.0
 40
0.0
 40
0.0
 40
0.0
 40
1.0
 40
1.0
 40
1.0
 40
2.0
 40
2.0
 40
2.0
 40
3.0
 40
3.0
 40
3.0
 40
4.0
 40
4.0
 40
4.0
 40
4.0
 10
244.7330595946071
 20
-187.4566974269582
 30
0.0
 10
244.7330595946071
 20
-189.1135535376548
 30
0.0
 10
243.3899287955398
 20
-190.4567196484307
 30
0.0
 10
241.7330727266987
 20
-190.4567196484307
 30
0.0
 10
240.0762166578575
 20
-190.4567196484307
 30
0.0
 10
238.7330928832964
 20
-189.1135535376548
 30
0.0
 10
238.7330928832964
 20
-187.4566974269582
 30
0.0
 10
238.7330928832964
 20
-185.7998413162615
 30
0.0
 10
240.0762166578575
 20
-184.4567104832639
 30
0.0
 10
241.7330727266987
 20
-184.4567104832639
 30
0.0
 10
243.3899287955398
 20
-184.4567104832639
 30
0.0
 10
244.7330595946071
 20
-185.7998413162615
 30
0.0
 10
244.7330595946071
 20
-187.4566974269582
 30
0.0
  0
SPLINE
  5
CF
330
BE
100
AcDbEntity
  8
_U+30EC_U+30A4_U+30E4_U+30FC 1
 62
    18
420
   196608
370
    18
100
AcDbSpline
210
0.0
220
0.0
230
1.0
 70
    11
 71
     3
 72
    17
 73
    13
 74
     0
 42
0.0000000001
 43
0.0000000001
 12
1.0
 22
0.0
 32
0.0
 13
1.0
 23
0.0
 33
0.0
 40
0.0
 40
0.0
 40
0.0
 40
0.0
 40
1.0
 40
1.0
 40
1.0
 40
2.0
 40
2.0
 40
2.0
 40
3.0
 40
3.0
 40
3.0
 40
4.0
 40
4.0
 40
4.0
 40
4.0
 10
144.2018377149278
 20
-242.0343124133141
 30
0.0
 10
145.636726011654
 20
-242.8627404686625
 30
0.0
 10
146.1283571102226
 20
-244.6975376904257
 30
0.0
 10
145.299929075802
 20
-246.1323907456227
 30
0.0
 10
144.4715010413814
 20
-247.5672790785973
 30
0.0
 10
142.6367391437456
 20
-248.0589101895859
 30
0.0
 10
141.2018508470194
 20
-247.230482134237
 30
0.0
 10
139.7669625502931
 20
-246.4020540788887
 30
0.0
 10
139.2753314517245
 20
-244.567292134903
 30
0.0
 10
140.1037594861451
 20
-243.1324038019284
 30
0.0
 10
140.9321875205657
 20
-241.6975154689538
 30
0.0
 10
142.7669846959784
 20
-241.2058843579651
 30
0.0
 10
144.2018377149278
 20
-242.0343124133141
 30
0.0
  0
SPLINE
  5
D0
330
BE
100
AcDbEntity
  8
_U+30EC_U+30A4_U+30E4_U+30FC 1
 62
    18
420
   196608
370
    18
100
AcDbSpline
210
0.0
220
0.0
230
1.0
 70
    11
 71
     3
 72
    17
 73
    13
 74
     0
 42
0.0000000001
 43
0.0000000001
 12
1.0
 22
0.0
 32
0.0
 13
1.0
 23
0.0
 33
0.0
 40
0.0
 40
0.0
 40
0.0
 40
0.0
 40
1.0
 40
1.0
 40
1.0
 40
2.0
 40
2.0
 40
2.0
 40
3.0
 40
3.0
 40
3.0
 40
4.0
 40
4.0
 40
4.0
 40
4.0
 10
141.2018508470194
 20
-356.3857473847257
 30
0.0
 10
142.6367038659688
 20
-355.557319329378
 30
0.0
 10
144.4715010413814
 20
-356.0489151625879
 30
0.0
 10
145.299929075802
 20
-357.4838034955624
 30
0.0
 10
146.1283571102226
 20
-358.918691828537
 30
0.0
 10
145.636726011654
 20
-360.7534537725227
 30
0.0
 10
144.2018377149278
 20
-361.5818818278717
 30
0.0
 10
142.7669540183988
 20
-362.41030988322
 30
0.0
 10
140.9321875205657
 20
-361.9186787722314
 30
0.0
 10
140.1037594861451
 20
-360.4837904392574
 30
0.0
 10
139.2753314517245
 20
-359.0489373840604
 30
0.0
 10
139.7669625502931
 20
-357.2141754400747
 30
0.0
 10
141.2018508470194
 20
-356.3857473847257
 30
0.0
  0
SPLINE
  5
D1
330
BE
100
AcDbEntity
  8
_U+30EC_U+30A4_U+30E4_U+30FC 1
 62
    18
420
   196608
370
    18
100
AcDbSpline
210
0.0
220
0.0
230
1.0
 70
    11
 71
     3
 72
    17
 73
    13
 74
     0
 42
0.0000000001
 43
0.0000000001
 12
1.0
 22
0.0
 32
0.0
 13
1.0
 23
0.0
 33
0.0
 40
0.0
 40
0.0
 40
0.0
 40
0.0
 40
1.0
 40
1.0
 40
1.0
 40
2.0
 40
2.0
 40
2.0
 40
3.0
 40
3.0
 40
3.0
 40
4.0
 40
4.0
 40
4.0
 40
4.0
 10
238.7330505810134
 20
-416.1595320920051
 30
0.0
 10
238.7330505810134
 20
-414.5026759813078
 30
0.0
 10
240.0762166578575
 20
-413.1595098705333
 30
0.0
 10
241.7330727266987
 20
-413.1595098705333
 30
0.0
 10
243.389893517763
 20
-413.1595098705333
 30
0.0
 10
244.7330595946071
 20
-414.5026759813078
 30
0.0
 10
244.7330595946071
 20
-416.1595320920051
 30
0.0
 10
244.7330595946071
 20
-417.8163882027018
 30
0.0
 10
243.389893517763
 20
-419.1595190356995
 30
0.0
 10
241.7330727266987
 20
-419.1595190356995
 30
0.0
 10
240.0762166578575
 20
-419.1595190356995
 30
0.0
 10
238.7330505810134
 20
-417.8163882027018
 30
0.0
 10
238.7330505810134
 20
-416.1595320920051
 30
0.0
  0
SPLINE
  5
D2
330
BE
100
AcDbEntity
  8
_U+30EC_U+30A4_U+30E4_U+30FC 1
 62
    18
420
   196608
370
    18
100
AcDbSpline
210
0.0
220
0.0
230
1.0
 70
    11
 71
     3
 72
    17
 73
    13
 74
     0
 42
0.0000000001
 43
0.0000000001
 12
1.0
 22
0.0
 32
0.0
 13
1.0
 23
0.0
 33
0.0
 40
0.0
 40
0.0
 40
0.0
 40
0.0
 40
1.0
 40
1.0
 40
1.0
 40
2.0
 40
2.0
 40
2.0
 40
3.0
 40
3.0
 40
3.0
 40
4.0
 40
4.0
 40
4.0
 40
4.0
 10
339.2642820248305
 20
-361.5819171056498
 30
0.0
 10
337.8294289696335
 20
-360.7534890503009
 30
0.0
 10
337.3377978586449
 20
-358.918691828537
 30
0.0
 10
338.1662259139939
 20
-357.4838387733406
 30
0.0
 10
338.9946539693422
 20
-356.048950440366
 30
0.0
 10
340.8294159133279
 20
-355.557319329378
 30
0.0
 10
342.2643042463025
 20
-356.3857473847257
 30
0.0
 10
343.6991573014995
 20
-357.2141754400747
 30
0.0
 10
344.1907884124875
 20
-359.0489373840604
 30
0.0
 10
343.3623603571392
 20
-360.483825717035
 30
0.0
 10
342.5339323017909
 20
-361.9187140500096
 30
0.0
 10
340.6991703578051
 20
-362.4103451609975
 30
0.0
 10
339.2642820248305
 20
-361.5819171056498
 30
0.0
  0
SPLINE
  5
D3
330
BE
100
AcDbEntity
  8
_U+30EC_U+30A4_U+30E4_U+30FC 1
 62
    18
420
   196608
370
    18
100
AcDbSpline
210
0.0
220
0.0
230
1.0
 70
    11
 71
     3
 72
    17
 73
    13
 74
     0
 42
0.0000000001
 43
0.0000000001
 12
1.0
 22
0.0
 32
0.0
 13
1.0
 23
0.0
 33
0.0
 40
0.0
 40
0.0
 40
0.0
 40
0.0
 40
1.0
 40
1.0
 40
1.0
 40
2.0
 40
2.0
 40
2.0
 40
3.0
 40
3.0
 40
3.0
 40
4.0
 40
4.0
 40
4.0
 40
4.0
 10
342.2643042463025
 20
-247.230482134237
 30
0.0
 10
340.8294159133279
 20
-248.0589101895859
 30
0.0
 10
338.9946539693422
 20
-247.5673143563748
 30
0.0
 10
338.1662259139939
 20
-246.1324260234002
 30
0.0
 10
337.3377978586449
 20
-244.6975376904257
 30
0.0
 10
337.8294289696335
 20
-242.86277574644
 30
0.0
 10
339.2643173026081
 20
-242.0343476910917
 30
0.0
 10
340.6991703578051
 20
-241.2059196357433
 30
0.0
 10
342.5339675795684
 20
-241.6975507467313
 30
0.0
 10
343.3623956349167
 20
-243.1324038019284
 30
0.0
 10
344.1907884124875
 20
-244.567292134903
 30
0.0
 10
343.699192579277
 20
-246.4020540788887
 30
0.0
 10
342.2643042463025
 20
-247.230482134237
 30
0.0
  0
SPLINE
  5
D4
330
BE
100
AcDbEntity
  8
_U+30EC_U+30A4_U+30E4_U+30FC 1
 62
    18
420
   196608
370
    25
100
AcDbSpline
210
0.0
220
0.0
230
1.0
 70
    11
 71
     3
 72
    17
 73
    13
 74
     0
 42
0.0000000001
 43
0.0000000001
 12
1.0
 22
0.0
 32
0.0
 13
1.0
 23
0.0
 33
0.0
 40
0.0
 40
0.0
 40
0.0
 40
0.0
 40
1.0
 40
1.0
 40
1.0
 40
2.0
 40
2.0
 40
2.0
 40
3.0
 40
3.0
 40
3.0
 40
4.0
 40
4.0
 40
4.0
 40
4.0
 10
243.2136124038184
 20
-260.5020121241038
 30
0.0
 10
243.2136124038184
 20
-261.3304392485965
 30
0.0
 10
242.5420395286866
 20
-262.0020121237288
 30
0.0
 10
241.7136124041934
 20
-262.0020121237288
 30
0.0
 10
240.8851852797007
 20
-262.0020121237288
 30
0.0
 10
240.2136124045684
 20
-261.3304392485965
 30
0.0
 10
240.2136124045684
 20
-260.5020121241038
 30
0.0
 10
240.2136124045684
 20
-259.6735849996112
 30
0.0
 10
240.8851852797007
 20
-259.0020121244788
 30
0.0
 10
241.7136124041934
 20
-259.0020121244788
 30
0.0
 10
242.5420395286866
 20
-259.0020121244788
 30
0.0
 10
243.2136124038184
 20
-259.6735849996112
 30
0.0
 10
243.2136124038184
 20
-260.5020121241038
 30
0.0
  0
SPLINE
  5
D5
330
BE
100
AcDbEntity
  8
_U+30EC_U+30A4_U+30E4_U+30FC 1
 62
    18
420
   196608
370
    25
100
AcDbSpline
210
0.0
220
0.0
230
1.0
 70
    11
 71
     3
 72
    17
 73
    13
 74
     0
 42
0.0000000001
 43
0.0000000001
 12
1.0
 22
0.0
 32
0.0
 13
1.0
 23
0.0
 33
0.0
 40
0.0
 40
0.0
 40
0.0
 40
0.0
 40
1.0
 40
1.0
 40
1.0
 40
2.0
 40
2.0
 40
2.0
 40
3.0
 40
3.0
 40
3.0
 40
4.0
 40
4.0
 40
4.0
 40
4.0
 10
205.1914594144006
 20
-321.1621588954818
 30
0.0
 10
205.9088983494198
 20
-320.7479453332784
 30
0.0
 10
206.8262839573282
 20
-320.9937580661244
 30
0.0
 10
207.2404975195322
 20
-321.7111970011436
 30
0.0
 10
207.6547110817355
 20
-322.4286359361641
 30
0.0
 10
207.4088983488895
 20
-323.3460215440718
 30
0.0
 10
206.6914594138697
 20
-323.7602351062752
 30
0.0
 10
205.9740204788505
 20
-324.1744486684792
 30
0.0
 10
205.0566348709421
 20
-323.9286359356332
 30
0.0
 10
204.6424213087388
 20
-323.2111970006133
 30
0.0
 10
204.2282077465348
 20
-322.4937580655935
 30
0.0
 10
204.4740204793808
 20
-321.5763724576857
 30
0.0
 10
205.1914594144006
 20
-321.1621588954818
 30
0.0
  0
SPLINE
  5
D6
330
BE
100
AcDbEntity
  8
_U+30EC_U+30A4_U+30E4_U+30FC 1
 62
    18
420
   196608
370
    25
100
AcDbSpline
210
0.0
220
0.0
230
1.0
 70
    11
 71
     3
 72
    17
 73
    13
 74
     0
 42
0.0000000001
 43
0.0000000001
 12
1.0
 22
0.0
 32
0.0
 13
1.0
 23
0.0
 33
0.0
 40
0.0
 40
0.0
 40
0.0
 40
0.0
 40
1.0
 40
1.0
 40
1.0
 40
2.0
 40
2.0
 40
2.0
 40
3.0
 40
3.0
 40
3.0
 40
4.0
 40
4.0
 40
4.0
 40
4.0
 10
276.73576401026
 20
-323.7602359094905
 30
0.0
 10
276.0183250753146
 20
-323.3460223471582
 30
0.0
 10
275.7725123426341
 20
-322.4286367392055
 30
0.0
 10
276.1867259049658
 20
-321.7111978042601
 30
0.0
 10
276.6009394672987
 20
-320.9937588693147
 30
0.0
 10
277.5183250752507
 20
-320.7479461366336
 30
0.0
 10
278.2357640101961
 20
-321.1621596989666
 30
0.0
 10
278.9532029451415
 20
-321.5763732612976
 30
0.0
 10
279.1990156778227
 20
-322.4937588692503
 30
0.0
 10
278.7848021154903
 20
-323.2111978041963
 30
0.0
 10
278.3705885531574
 20
-323.9286367391417
 30
0.0
 10
277.4532029452054
 20
-324.1744494718222
 30
0.0
 10
276.73576401026
 20
-323.7602359094905
 30
0.0
  0
ENDBLK
  5
C1
330
BE
100
AcDbEntity
  8
0
100
AcDbBlockEnd
  0
BLOCK
  5
CA
330
C8
100
AcDbEntity
  8
0
100
AcDbBlockBegin
  2
block 15
 70
     0
 10
0.0
 20
0.0
 30
0.0
  3
block 15
  1

  0
SPLINE
  5
CC
330
C8
100
AcDbEntity
  8
_U+30EC_U+30A4_U+30E4_U+30FC 1
 62
    18
420
   196608
370
    18
100
AcDbSpline
210
0.0
220
0.0
230
1.0
 70
    11
 71
     3
 72
    95
 73
    91
 74
     0
 42
0.0000000001
 43
0.0000000001
 12
1.0
 22
0.0
 32
0.0
 13
1.0
 23
0.0
 33
0.0
 40
0.0
 40
0.0
 40
0.0
 40
0.0
 40
1.0
 40
1.0
 40
1.0
 40
2.0
 40
2.0
 40
2.0
 40
3.0
 40
3.0
 40
3.0
 40
4.0
 40
4.0
 40
4.0
 40
5.0
 40
5.0
 40
5.0
 40
6.0
 40
6.0
 40
6.0
 40
7.0
 40
7.0
 40
7.0
 40
8.0
 40
8.0
 40
8.0
 40
9.0
 40
9.0
 40
9.0
 40
10.0
 40
10.0
 40
10.0
 40
11.0
 40
11.0
 40
11.0
 40
12.0
 40
12.0
 40
12.0
 40
13.0
 40
13.0
 40
13.0
 40
14.0
 40
14.0
 40
14.0
 40
15.0
 40
15.0
 40
15.0
 40
16.0
 40
16.0
 40
16.0
 40
17.0
 40
17.0
 40
17.0
 40
18.0
 40
18.0
 40
18.0
 40
19.0
 40
19.0
 40
19.0
 40
20.0
 40
20.0
 40
20.0
 40
21.0
 40
21.0
 40
21.0
 40
22.0
 40
22.0
 40
22.0
 40
23.0
 40
23.0
 40
23.0
 40
24.0
 40
24.0
 40
24.0
 40
25.0
 40
25.0
 40
25.0
 40
26.0
 40
26.0
 40
26.0
 40
27.0
 40
27.0
 40
27.0
 40
28.0
 40
28.0
 40
28.0
 40
29.0
 40
29.0
 40
29.0
 40
30.0
 40
30.0
 40
30.0
 40
30.0
 10
236.2555628664416
 20
-178.8325154846704
 30
0.0
 10
233.1376071126539
 20
-182.2649727060343
 30
0.0
 10
228.9287213866982
 20
-184.5137899276946
 30
0.0
 10
224.3422576148198
 20
-185.197790760856
 30
0.0
 10
194.7985658685421
 20
-189.6038440930881
 30
0.0
 10
168.028554051502
 20
-205.0594971447802
 30
0.0
 10
149.4409756368218
 20
-228.4421021389345
 30
0.0
 10
146.5553593215511
 20
-232.0720796380268
 30
0.0
 10
142.5034290184649
 20
-234.592676859619
 30
0.0
 10
137.9718175960911
 20
-235.5766446371505
 30
0.0
 10
133.9779851979822
 20
-236.4438782480449
 30
0.0
 10
131.4433827626453
 20
-240.3845471359483
 30
0.0
 10
132.3106206876797
 20
-244.3783796349502
 30
0.0
 10
132.3608519059054
 20
-244.6097313015592
 30
0.0
 10
132.4221294043421
 20
-244.8385429681688
 30
0.0
 10
132.494307735834
 20
-245.0640032458903
 30
0.0
 10
133.9079235331029
 20
-249.4804635225632
 30
0.0
 10
133.7510432593275
 20
-254.2498426880383
 30
0.0
 10
132.0501605249429
 20
-258.5638562980708
 30
0.0
 10
121.0940512460394
 20
-286.3524440689008
 30
0.0
 10
121.0940512460394
 20
-317.26382072784
 30
0.0
 10
132.0501605249429
 20
-345.0524084986707
 30
0.0
 10
133.7510432593275
 20
-349.3664221087032
 30
0.0
 10
133.9079235331029
 20
-354.1358012741777
 30
0.0
 10
132.494307735834
 20
-358.5522615508511
 30
0.0
 10
131.2484377676188
 20
-362.444635160989
 30
0.0
 10
133.3938557684401
 20
-366.6100234932815
 30
0.0
 10
137.2862292802485
 20
-367.8558934929695
 30
0.0
 10
137.5116895522743
 20
-367.9280718262851
 30
0.0
 10
137.7405012131035
 20
-367.9893846040478
 30
0.0
 10
137.9718175960911
 20
-368.039620159591
 30
0.0
 10
142.5034290184649
 20
-369.0236232149
 30
0.0
 10
146.555394599328
 20
-371.5441851587147
 30
0.0
 10
149.4409756368218
 20
-375.1741979355845
 30
0.0
 10
168.028554051502
 20
-398.5567676519613
 30
0.0
 10
194.7985658685421
 20
-414.0124207036527
 30
0.0
 10
224.3422576148198
 20
-418.4184740358848
 30
0.0
 10
228.9287213866982
 20
-419.1024748690469
 30
0.0
 10
233.1376071126539
 20
-421.3512920907073
 30
0.0
 10
236.2555628664416
 20
-424.7837493120711
 30
0.0
 10
239.0035252963352
 20
-427.8088893113152
 30
0.0
 10
243.6835457324935
 20
-428.033608755703
 30
0.0
 10
246.7086928813025
 20
-425.2856462563904
 30
0.0
 10
246.8839103730676
 20
-425.126472923097
 30
0.0
 10
247.0514092576833
 20
-424.95897403425
 30
0.0
 10
247.2105825869558
 20
-424.7837493120711
 30
0.0
 10
250.3285456581755
 20
-421.3512920907073
 30
0.0
 10
254.5374240666991
 20
-419.1024748690469
 30
0.0
 10
259.1238878385776
 20
-418.4184740358848
 30
0.0
 10
288.6675795848552
 20
-414.0124207036527
 30
0.0
 10
315.4376003641201
 20
-398.5567676519613
 30
0.0
 10
334.0251792483623
 20
-375.1741979355845
 30
0.0
 10
336.9107956365294
 20
-371.5441851587147
 30
0.0
 10
340.9627659132947
 20
-369.0236232149
 30
0.0
 10
345.4943375788285
 20
-368.039620159591
 30
0.0
 10
349.4881700778298
 20
-367.172386548696
 30
0.0
 10
352.0227725771961
 20
-363.2317176607925
 30
0.0
 10
351.1555742440798
 20
-359.2378851617906
 30
0.0
 10
351.1053386885367
 20
-359.0065334951817
 30
0.0
 10
351.0440259107741
 20
-358.7777218285727
 30
0.0
 10
350.9718475774591
 20
-358.5522615508511
 30
0.0
 10
349.5582317444789
 20
-354.1358012741777
 30
0.0
 10
349.715147299995
 20
-349.3664221087032
 30
0.0
 10
351.4159947995702
 20
-345.0524084986707
 30
0.0
 10
362.3721084079421
 20
-317.26382072784
 30
0.0
 10
362.3721084079421
 20
-286.3524440689008
 30
0.0
 10
351.4159947995702
 20
-258.5638562980708
 30
0.0
 10
349.715147299995
 20
-254.2498426880383
 30
0.0
 10
349.5582317444789
 20
-249.4804635225632
 30
0.0
 10
350.9718475774591
 20
-245.0640032458903
 30
0.0
 10
352.2177175771477
 20
-241.1716296357518
 30
0.0
 10
350.0723347999059
 20
-237.00624130346
 30
0.0
 10
346.1799611897681
 20
-235.7603713037713
 30
0.0
 10
345.954465634269
 20
-235.6881929704557
 30
0.0
 10
345.7256892454369
 20
-235.6268801926937
 30
0.0
 10
345.4943375788285
 20
-235.5766446371505
 30
0.0
 10
340.9627659132947
 20
-234.592676859619
 30
0.0
 10
336.9107956365294
 20
-232.0720796380268
 30
0.0
 10
334.0251792483623
 20
-228.4421021389345
 30
0.0
 10
315.4376003641201
 20
-205.0594971447802
 30
0.0
 10
288.6675795848552
 20
-189.6038440930881
 30
0.0
 10
259.1238878385776
 20
-185.197790760856
 30
0.0
 10
254.5374240666991
 20
-184.5137899276946
 30
0.0
 10
250.3285456581755
 20
-182.2649727060343
 30
0.0
 10
247.2105825869558
 20
-178.8325154846704
 30
0.0
 10
244.462655434839
 20
-175.8073754854263
 30
0.0
 10
239.782606771923
 20
-175.5826560410378
 30
0.0
 10
236.7574597980816
 20
-178.3306185403511
 30
0.0
 10
236.5822350803297
 20
-178.4897918736445
 30
0.0
 10
236.4147361957141
 20
-178.6572907624915
 30
0.0
 10
236.2555628664416
 20
-178.8325154846704
 30
0.0
  0
ENDBLK
  5
CB
330
C8
100
AcDbEntity
  8
0
100
AcDbBlockEnd
  0
BLOCK
  5
D9
330
D7
100
AcDbEntity
  8
0
100
AcDbBlockBegin
  2
block 16
 70
     0
 10
0.0
 20
0.0
 30
0.0
  3
block 16
  1

  0
SPLINE
  5
DB
330
D7
100
AcDbEntity
  8
_U+30EC_U+30A4_U+30E4_U+30FC 1
 62
    18
420
   196608
370
    18
100
AcDbSpline
210
0.0
220
0.0
230
1.0
 70
     8
 71
     3
 72
    38
 73
    34
 74
     0
 42
0.0000000001
 43
0.0000000001
 12
1.0
 22
0.0
 32
0.0
 13
1.0
 23
0.0
 33
0.0
 40
0.0
 40
0.0
 40
0.0
 40
0.0
 40
1.0
 40
1.0
 40
1.0
 40
2.0
 40
2.0
 40
2.0
 40
3.0
 40
3.0
 40
3.0
 40
4.0
 40
4.0
 40
4.0
 40
5.0
 40
5.0
 40
5.0
 40
6.0
 40
6.0
 40
6.0
 40
7.0
 40
7.0
 40
7.0
 40
8.0
 40
8.0
 40
8.0
 40
9.0
 40
9.0
 40
9.0
 40
10.0
 40
10.0
 40
10.0
 40
11.0
 40
11.0
 40
11.0
 40
11.0
 10
228.9198873215638
 20
10.21156854194293
 30
0.0
 10
233.4201579346165
 20
11.5328340435346
 30
0.0
 10
238.1823843982431
 20
12.2416663873412
 30
0.0
 10
243.1101675264219
 20
12.2416663873412
 30
0.0
 10
247.7117243797704
 20
12.2416663873412
 30
0.0
 10
252.1689191700105
 20
11.62357891966685
 30
0.0
 10
256.4031317187794
 20
10.46619488380416
 30
0.0
 10
263.0947961254099
 20
-16.81833133451356
 30
0.0
 10
278.6722102935773
 20
-36.945883963823
 30
0.0
 10
291.9823924145175
 20
-49.92149414621169
 30
0.0
 10
291.9823924145175
 20
-49.92149414621169
 30
0.0
 10
291.9839193059129
 20
-49.92032467445754
 30
0.0
 10
291.9839193059129
 20
-49.92032467445754
 30
0.0
 10
289.7501145692011
 20
-59.14468020067466
 30
0.0
 10
284.9727881710231
 20
-67.37556154865955
 30
0.0
 10
278.4362147221517
 20
-73.82869410763888
 30
0.0
 10
278.4362147221517
 20
-73.82869410763888
 30
0.0
 10
278.4375902631933
 20
-73.82675722365533
 30
0.0
 10
278.4375902631933
 20
-73.82675722365533
 30
0.0
 10
251.4899755609289
 20
-65.98882596803638
 30
0.0
 10
226.2944094708023
 20
-69.40146316460762
 30
0.0
 10
208.4062306206606
 20
-74.43249016106141
 30
0.0
 10
208.4062306206606
 20
-74.43249016106141
 30
0.0
 10
208.4076767334466
 20
-74.43380718999462
 30
0.0
 10
208.4076767334466
 20
-74.43380718999462
 30
0.0
 10
201.7498286934361
 20
-68.08296935173065
 30
0.0
 10
196.8323008963335
 20
-59.92362268522783
 30
0.0
 10
194.443306999441
 20
-50.74398084778496
 30
0.0
 10
194.443306999441
 20
-50.74398084778496
 30
0.0
 10
194.4435144082726
 20
-50.74647926811925
 30
0.0
 10
194.4435144082726
 20
-50.74647926811925
 30
0.0
 10
214.6988244380896
 20
-31.32559161824067
 30
0.0
 10
224.3364531533064
 20
-7.799614649028695
 30
0.0
 10
228.9204832546881
 20
10.20421037567509
 30
0.0
  0
SPLINE
  5
DC
330
D7
100
AcDbEntity
  8
_U+30EC_U+30A4_U+30E4_U+30FC 1
 62
    18
420
   196608
370
    18
100
AcDbSpline
210
0.0
220
0.0
230
1.0
 70
    11
 71
     3
 72
    17
 73
    13
 74
     0
 42
0.0000000001
 43
0.0000000001
 12
1.0
 22
0.0
 32
0.0
 13
1.0
 23
0.0
 33
0.0
 40
0.0
 40
0.0
 40
0.0
 40
0.0
 40
1.0
 40
1.0
 40
1.0
 40
2.0
 40
2.0
 40
2.0
 40
3.0
 40
3.0
 40
3.0
 40
4.0
 40
4.0
 40
4.0
 40
4.0
 10
244.6101679861515
 20
3.263139898755972
 30
0.0
 10
244.6101679861515
 20
2.434712774263331
 30
0.0
 10
243.9385951110198
 20
1.763139899130992
 30
0.0
 10
243.1101679865265
 20
1.763139899130992
 30
0.0
 10
242.2817408620339
 20
1.763139899130992
 30
0.0
 10
241.6101679869016
 20
2.434712774263331
 30
0.0
 10
241.6101679869016
 20
3.263139898755972
 30
0.0
 10
241.6101679869016
 20
4.091567023248613
 30
0.0
 10
242.2817408620339
 20
4.763139898380952
 30
0.0
 10
243.1101679865265
 20
4.763139898380952
 30
0.0
 10
243.9385951110198
 20
4.763139898380952
 30
0.0
 10
244.6101679861515
 20
4.091567023248613
 30
0.0
 10
244.6101679861515
 20
3.263139898755972
 30
0.0
  0
SPLINE
  5
DD
330
D7
100
AcDbEntity
  8
_U+30EC_U+30A4_U+30E4_U+30FC 1
 62
    18
420
   196608
370
    18
100
AcDbSpline
210
0.0
220
0.0
230
1.0
 70
    11
 71
     3
 72
    17
 73
    13
 74
     0
 42
0.0000000001
 43
0.0000000001
 12
1.0
 22
0.0
 32
0.0
 13
1.0
 23
0.0
 33
0.0
 40
0.0
 40
0.0
 40
0.0
 40
0.0
 40
1.0
 40
1.0
 40
1.0
 40
2.0
 40
2.0
 40
2.0
 40
3.0
 40
3.0
 40
3.0
 40
4.0
 40
4.0
 40
4.0
 40
4.0
 10
206.5880149967338
 20
-57.39700687262196
 30
0.0
 10
207.305453931753
 20
-56.98279331041863
 30
0.0
 10
208.2228395396614
 20
-57.22860604326465
 30
0.0
 10
208.6370531018653
 20
-57.94604497828384
 30
0.0
 10
209.0512666640687
 20
-58.6634839133043
 30
0.0
 10
208.8054539312226
 20
-59.58086952121207
 30
0.0
 10
208.0880149962028
 20
-59.9950830834154
 30
0.0
 10
207.3705760611836
 20
-60.40929664561937
 30
0.0
 10
206.4531904532752
 20
-60.16348391277335
 30
0.0
 10
206.0389768910719
 20
-59.44604497775352
 30
0.0
 10
205.6247633288679
 20
-58.72860604273369
 30
0.0
 10
205.870576061714
 20
-57.81122043482593
 30
0.0
 10
206.5880149967338
 20
-57.39700687262196
 30
0.0
  0
SPLINE
  5
DE
330
D7
100
AcDbEntity
  8
_U+30EC_U+30A4_U+30E4_U+30FC 1
 62
    18
420
   196608
370
    18
100
AcDbSpline
210
0.0
220
0.0
230
1.0
 70
    11
 71
     3
 72
    17
 73
    13
 74
     0
 42
0.0000000001
 43
0.0000000001
 12
1.0
 22
0.0
 32
0.0
 13
1.0
 23
0.0
 33
0.0
 40
0.0
 40
0.0
 40
0.0
 40
0.0
 40
1.0
 40
1.0
 40
1.0
 40
2.0
 40
2.0
 40
2.0
 40
3.0
 40
3.0
 40
3.0
 40
4.0
 40
4.0
 40
4.0
 40
4.0
 10
278.1323195925931
 20
-59.99508388663073
 30
0.0
 10
277.4148806576477
 20
-59.58087032429842
 30
0.0
 10
277.1690679249672
 20
-58.66348471634574
 30
0.0
 10
277.5832814872989
 20
-57.94604578140034
 30
0.0
 10
277.9974950496319
 20
-57.22860684645495
 30
0.0
 10
278.9148806575839
 20
-56.98279411377385
 30
0.0
 10
279.6323195925293
 20
-57.3970076761068
 30
0.0
 10
280.3497585274747
 20
-57.81122123843782
 30
0.0
 10
280.5955712601558
 20
-58.72860684639051
 30
0.0
 10
280.1813576978235
 20
-59.44604578133655
 30
0.0
 10
279.7671441354905
 20
-60.16348471628194
 30
0.0
 10
278.8497585275385
 20
-60.4092974489624
 30
0.0
 10
278.1323195925931
 20
-59.99508388663073
 30
0.0
  0
SPLINE
  5
DF
330
D7
100
AcDbEntity
  8
_U+30EC_U+30A4_U+30E4_U+30FC 1
 62
    18
420
   196608
370
    18
100
AcDbSpline
210
0.0
220
0.0
230
1.0
 70
    11
 71
     3
 72
    17
 73
    13
 74
     0
 42
0.0000000001
 43
0.0000000001
 12
1.0
 22
0.0
 32
0.0
 13
1.0
 23
0.0
 33
0.0
 40
0.0
 40
0.0
 40
0.0
 40
0.0
 40
1.0
 40
1.0
 40
1.0
 40
2.0
 40
2.0
 40
2.0
 40
3.0
 40
3.0
 40
3.0
 40
4.0
 40
4.0
 40
4.0
 40
4.0
 10
248.1101698784974
 20
-7.802235367599446
 30
0.0
 10
248.1101698784974
 20
-10.5636591159091
 30
0.0
 10
245.8715936280569
 20
-12.80223536634959
 30
0.0
 10
243.1101698797472
 20
-12.80223536634959
 30
0.0
 10
240.3487461314376
 20
-12.80223536634959
 30
0.0
 10
238.1101698809971
 20
-10.5636591159091
 30
0.0
 10
238.1101698809971
 20
-7.802235367599446
 30
0.0
 10
238.1101698809971
 20
-5.040811619289786
 30
0.0
 10
240.3487461314376
 20
-2.802235368849299
 30
0.0
 10
243.1101698797472
 20
-2.802235368849299
 30
0.0
 10
245.8715936280569
 20
-2.802235368849299
 30
0.0
 10
248.1101698784974
 20
-5.040811619289786
 30
0.0
 10
248.1101698784974
 20
-7.802235367599446
 30
0.0
  0
ENDBLK
  5
DA
330
D7
100
AcDbEntity
  8
0
100
AcDbBlockEnd
  0
ENDSEC
  0
SECTION
  2
ENTITIES
  0
INSERT
  5
42
330
1F
100
AcDbEntity
  8
_U+30EC_U+30A4_U+30E4_U+30FC 1
100
AcDbBlockReference
  2
block 2
 10
0.0
 20
0.0
 30
0.0
  0
INSERT
  5
47
330
1F
100
AcDbEntity
  8
_U+30EC_U+30A4_U+30E4_U+30FC 1
100
AcDbBlockReference
  2
block 3
 10
0.0
 20
0.0
 30
0.0
  0
INSERT
  5
4C
330
1F
100
AcDbEntity
  8
_U+30EC_U+30A4_U+30E4_U+30FC 1
100
AcDbBlockReference
  2
block 4
 10
0.0
 20
0.0
 30
0.0
  0
INSERT
  5
59
330
1F
100
AcDbEntity
  8
_U+30EC_U+30A4_U+30E4_U+30FC 1
100
AcDbBlockReference
  2
block 5
 10
0.0
 20
0.0
 30
0.0
  0
INSERT
  5
66
330
1F
100
AcDbEntity
  8
_U+30EC_U+30A4_U+30E4_U+30FC 1
100
AcDbBlockReference
  2
block 6
 10
0.0
 20
0.0
 30
0.0
  0
INSERT
  5
73
330
1F
100
AcDbEntity
  8
_U+30EC_U+30A4_U+30E4_U+30FC 1
100
AcDbBlockReference
  2
block 7
 10
0.0
 20
0.0
 30
0.0
  0
INSERT
  5
80
330
1F
100
AcDbEntity
  8
_U+30EC_U+30A4_U+30E4_U+30FC 1
100
AcDbBlockReference
  2
block 8
 10
0.0
 20
0.0
 30
0.0
  0
INSERT
  5
8D
330
1F
100
AcDbEntity
  8
_U+30EC_U+30A4_U+30E4_U+30FC 1
100
AcDbBlockReference
  2
block 9
 10
0.0
 20
0.0
 30
0.0
  0
INSERT
  5
9A
330
1F
100
AcDbEntity
  8
_U+30EC_U+30A4_U+30E4_U+30FC 1
100
AcDbBlockReference
  2
block 10
 10
0.0
 20
0.0
 30
0.0
  0
INSERT
  5
9F
330
1F
100
AcDbEntity
  8
_U+30EC_U+30A4_U+30E4_U+30FC 1
100
AcDbBlockReference
  2
block 11
 10
0.0
 20
0.0
 30
0.0
  0
SPLINE
  5
A3
330
1F
100
AcDbEntity
  8
_U+30EC_U+30A4_U+30E4_U+30FC 1
 62
    18
420
   196608
370
    25
100
AcDbSpline
210
0.0
220
0.0
230
1.0
 70
    11
 71
     3
 72
    17
 73
    13
 74
     0
 42
0.0000000001
 43
0.0000000001
 12
1.0
 22
0.0
 32
0.0
 13
1.0
 23
0.0
 33
0.0
 40
0.0
 40
0.0
 40
0.0
 40
0.0
 40
1.0
 40
1.0
 40
1.0
 40
2.0
 40
2.0
 40
2.0
 40
3.0
 40
3.0
 40
3.0
 40
4.0
 40
4.0
 40
4.0
 40
4.0
 10
244.7330726094783
 20
75.19085270273516
 30
0.0
 10
244.7330726094783
 20
73.5339984537486
 30
0.0
 10
243.3899268592143
 20
72.19085270348327
 30
0.0
 10
241.7330726102284
 20
72.19085270348327
 30
0.0
 10
240.0762183612424
 20
72.19085270348327
 30
0.0
 10
238.7330726109784
 20
73.5339984537486
 30
0.0
 10
238.7330726109784
 20
75.19085270273516
 30
0.0
 10
238.7330726109784
 20
76.84770695172108
 30
0.0
 10
240.0762183612424
 20
78.19085270198383
 30
0.0
 10
241.7330726102284
 20
78.19085270198383
 30
0.0
 10
243.3899268592143
 20
78.19085270198383
 30
0.0
 10
244.7330726094783
 20
76.84770695172108
 30
0.0
 10
244.7330726094783
 20
75.19085270273516
 30
0.0
  0
SPLINE
  5
A4
330
1F
100
AcDbEntity
  8
_U+30EC_U+30A4_U+30E4_U+30FC 1
 62
    18
420
   196608
370
    25
100
AcDbSpline
210
0.0
220
0.0
230
1.0
 70
    11
 71
     3
 72
    17
 73
    13
 74
     0
 42
0.0000000001
 43
0.0000000001
 12
1.0
 22
0.0
 32
0.0
 13
1.0
 23
0.0
 33
0.0
 40
0.0
 40
0.0
 40
0.0
 40
0.0
 40
1.0
 40
1.0
 40
1.0
 40
2.0
 40
2.0
 40
2.0
 40
3.0
 40
3.0
 40
3.0
 40
4.0
 40
4.0
 40
4.0
 40
4.0
 10
144.2018440536129
 20
20.61323472880689
 30
0.0
 10
145.6367219235781
 20
19.78480760426933
 30
0.0
 10
146.1283473891046
 20
17.95003638841208
 30
0.0
 10
145.299920264569
 20
16.51515851844558
 30
0.0
 10
144.4714931400333
 20
15.08028064847908
 30
0.0
 10
142.6367219241722
 20
14.58865518295452
 30
0.0
 10
141.201844054207
 20
15.41708230748823
 30
0.0
 10
139.7669661842418
 20
16.24550943202579
 30
0.0
 10
139.2753407187153
 20
18.08028064788625
 30
0.0
 10
140.1037678432509
 20
19.51515851785275
 30
0.0
 10
140.9321949677872
 20
20.95003638781605
 30
0.0
 10
142.7669661836477
 20
21.44166185334381
 30
0.0
 10
144.2018440536129
 20
20.61323472880689
 30
0.0
  0
SPLINE
  5
A5
330
1F
100
AcDbEntity
  8
_U+30EC_U+30A4_U+30E4_U+30FC 1
 62
    18
420
   196608
370
    25
100
AcDbSpline
210
0.0
220
0.0
230
1.0
 70
    11
 71
     3
 72
    17
 73
    13
 74
     0
 42
0.0000000001
 43
0.0000000001
 12
1.0
 22
0.0
 32
0.0
 13
1.0
 23
0.0
 33
0.0
 40
0.0
 40
0.0
 40
0.0
 40
0.0
 40
1.0
 40
1.0
 40
1.0
 40
2.0
 40
2.0
 40
2.0
 40
3.0
 40
3.0
 40
3.0
 40
4.0
 40
4.0
 40
4.0
 40
4.0
 10
141.2018334157206
 20
-93.73817206110414
 30
0.0
 10
142.6367112857602
 20
-92.90974493669748
 30
0.0
 10
144.4714825015764
 20
-93.40137040239144
 30
0.0
 10
145.2999096259837
 20
-94.83624827242853
 30
0.0
 10
146.1283367503904
 20
-96.27112614246947
 30
0.0
 10
145.6367112846983
 20
-98.10589735828373
 30
0.0
 10
144.2018334146587
 20
-98.93432448269422
 30
0.0
 10
142.766955544619
 20
-99.76275160710088
 30
0.0
 10
140.9321843288035
 20
-99.27112614140756
 30
0.0
 10
140.1037572043955
 20
-97.83624827137048
 30
0.0
 10
139.2753300799889
 20
-96.40137040132953
 30
0.0
 10
139.7669555456803
 20
-94.56659918551078
 30
0.0
 10
141.2018334157206
 20
-93.73817206110414
 30
0.0
  0
SPLINE
  5
A6
330
1F
100
AcDbEntity
  8
_U+30EC_U+30A4_U+30E4_U+30FC 1
 62
    18
420
   196608
370
    25
100
AcDbSpline
210
0.0
220
0.0
230
1.0
 70
    11
 71
     3
 72
    17
 73
    13
 74
     0
 42
0.0000000001
 43
0.0000000001
 12
1.0
 22
0.0
 32
0.0
 13
1.0
 23
0.0
 33
0.0
 40
0.0
 40
0.0
 40
0.0
 40
0.0
 40
1.0
 40
1.0
 40
1.0
 40
2.0
 40
2.0
 40
2.0
 40
3.0
 40
3.0
 40
3.0
 40
4.0
 40
4.0
 40
4.0
 40
4.0
 10
238.7330513335377
 20
-153.5119608830175
 30
0.0
 10
238.7330513336866
 20
-151.8551066340348
 30
0.0
 10
240.0761970840719
 20
-150.5119608838888
 30
0.0
 10
241.7330513330572
 20
-150.5119608840402
 30
0.0
 10
243.3899055820424
 20
-150.5119608841885
 30
0.0
 10
244.7330513321865
 20
-151.8551066345744
 30
0.0
 10
244.7330513320376
 20
-153.5119608835572
 30
0.0
 10
244.7330513318887
 20
-155.1688151325431
 30
0.0
 10
243.3899055815041
 20
-156.5119608826858
 30
0.0
 10
241.7330513325182
 20
-156.5119608825376
 30
0.0
 10
240.0761970835316
 20
-156.5119608823894
 30
0.0
 10
238.7330513333888
 20
-155.1688151320072
 30
0.0
 10
238.7330513335377
 20
-153.5119608830175
 30
0.0
  0
SPLINE
  5
A7
330
1F
100
AcDbEntity
  8
_U+30EC_U+30A4_U+30E4_U+30FC 1
 62
    18
420
   196608
370
    25
100
AcDbSpline
210
0.0
220
0.0
230
1.0
 70
    11
 71
     3
 72
    17
 73
    13
 74
     0
 42
0.0000000001
 43
0.0000000001
 12
1.0
 22
0.0
 32
0.0
 13
1.0
 23
0.0
 33
0.0
 40
0.0
 40
0.0
 40
0.0
 40
0.0
 40
1.0
 40
1.0
 40
1.0
 40
2.0
 40
2.0
 40
2.0
 40
3.0
 40
3.0
 40
3.0
 40
4.0
 40
4.0
 40
4.0
 40
4.0
 10
339.2642798943031
 20
-98.93434291811984
 30
0.0
 10
337.8294020244123
 20
-98.10591579345586
 30
0.0
 10
337.3377765590521
 20
-96.2711445775492
 30
0.0
 10
338.166203683716
 20
-94.83626670766034
 30
0.0
 10
338.99463080838
 20
-93.40138883777084
 30
0.0
 10
340.8294020242854
 20
-92.90976337240544
 30
0.0
 10
342.2642798941762
 20
-93.73819049707005
 30
0.0
 10
343.699157764067
 20
-94.56661762173788
 30
0.0
 10
344.1907832294285
 20
-96.40138883764068
 30
0.0
 10
343.3623561047639
 20
-97.83626670752955
 30
0.0
 10
342.5339289800987
 20
-99.27114457742225
 30
0.0
 10
340.6991577641945
 20
-99.76277004278445
 30
0.0
 10
339.2642798943031
 20
-98.93434291811984
 30
0.0
  0
SPLINE
  5
A8
330
1F
100
AcDbEntity
  8
_U+30EC_U+30A4_U+30E4_U+30FC 1
 62
    18
420
   196608
370
    25
100
AcDbSpline
210
0.0
220
0.0
230
1.0
 70
    11
 71
     3
 72
    17
 73
    13
 74
     0
 42
0.0000000001
 43
0.0000000001
 12
1.0
 22
0.0
 32
0.0
 13
1.0
 23
0.0
 33
0.0
 40
0.0
 40
0.0
 40
0.0
 40
0.0
 40
1.0
 40
1.0
 40
1.0
 40
2.0
 40
2.0
 40
2.0
 40
3.0
 40
3.0
 40
3.0
 40
4.0
 40
4.0
 40
4.0
 40
4.0
 10
342.2642905424633
 20
15.41706387152296
 30
0.0
 10
340.8294126723499
 20
14.58863674724336
 30
0.0
 10
338.9946414565786
 20
15.08026221310224
 30
0.0
 10
338.1662143323003
 20
16.51514008321762
 30
0.0
 10
337.3377872080226
 20
17.9500179533285
 30
0.0
 10
337.8294126738789
 20
19.78478916910105
 30
0.0
 10
339.2642905439924
 20
20.61321629338064
 30
0.0
 10
340.6991684141065
 20
21.44164341765703
 30
0.0
 10
342.5339396298784
 20
20.95001795180136
 30
0.0
 10
343.3623667541567
 20
19.51514008168984
 30
0.0
 10
344.190793878435
 20
18.08026221157125
 30
0.0
 10
343.6991684125787
 20
16.24549099580256
 30
0.0
 10
342.2642905424633
 20
15.41706387152296
 30
0.0
  0
INSERT
  5
AA
330
1F
100
AcDbEntity
  8
_U+30EC_U+30A4_U+30E4_U+30FC 1
100
AcDbBlockReference
  2
block 12
 10
0.0
 20
0.0
 30
0.0
  0
INSERT
  5
BF
330
1F
100
AcDbEntity
  8
_U+30EC_U+30A4_U+30E4_U+30FC 1
100
AcDbBlockReference
  2
block 14
 10
0.0
 20
0.0
 30
0.0
  0
INSERT
  5
D8
330
1F
100
AcDbEntity
  8
_U+30EC_U+30A4_U+30E4_U+30FC 1
100
AcDbBlockReference
  2
block 16
 10
0.0
 20
0.0
 30
0.0
  0
ENDSEC
  0
SECTION
  2
OBJECTS
  0
DICTIONARY
  5
C
330
0
100
AcDbDictionary
281
     1
  3
ACAD_GROUP
350
D
  3
ACAD_LAYOUT
350
1A
  3
ACAD_MATERIAL
350
3B
  3
ACAD_MLEADERSTYLE
350
E1
  3
ACAD_MLINESTYLE
350
17
  3
ACAD_PLOTSETTINGS
350
19
  3
ACAD_PLOTSTYLENAME
350
E
  3
ACAD_TABLESTYLE
350
E0
  3
ACAD_VISUALSTYLE
350
2A
  0
SUN
  5
3F
330
29
100
AcDbSun
 90
        1
290
     0
 63
     7
421
 16777215
 40
1.0
291
     1
 91
  2455826
 92
 54000000
292
     0
 70
     2
 71
   256
280
     1
  0
DICTIONARY
  5
D
102
{ACAD_REACTORS
330
C
102
}
330
C
100
AcDbDictionary
281
     1
  0
DICTIONARY
  5
1A
102
{ACAD_REACTORS
330
C
102
}
330
C
100
AcDbDictionary
281
     1
  3
Layout1
350
1E
  3
Layout2
350
26
  3
Model
350
22
  0
DICTIONARY
  5
3B
102
{ACAD_REACTORS
330
C
102
}
330
C
100
AcDbDictionary
281
     1
  3
ByBlock
350
3D
  3
ByLayer
350
3C
  3
Global
350
3E
  0
DICTIONARY
  5
E1
102
{ACAD_REACTORS
330
C
102
}
330
C
100
AcDbDictionary
281
     1
  0
DICTIONARY
  5
17
102
{ACAD_REACTORS
330
C
102
}
330
C
100
AcDbDictionary
281
     1
  3
Standard
350
18
  0
DICTIONARY
  5
19
102
{ACAD_REACTORS
330
C
102
}
330
C
100
AcDbDictionary
281
     1
  0
ACDBDICTIONARYWDFLT
  5
E
102
{ACAD_REACTORS
330
C
102
}
330
C
100
AcDbDictionary
281
     1
  3
Normal
350
F
100
AcDbDictionaryWithDefault
340
F
  0
DICTIONARY
  5
E0
102
{ACAD_REACTORS
330
C
102
}
330
C
100
AcDbDictionary
281
     1
  0
DICTIONARY
  5
2A
102
{ACAD_REACTORS
330
C
102
}
330
C
100
AcDbDictionary
281
     1
  3
2dWireframe
350
2F
  3
3D Hidden
350
31
  3
3dWireframe
350
30
  3
Basic
350
32
  3
Brighten
350
36
  3
ColorChange
350
3A
  3
Conceptual
350
34
  3
Dim
350
35
  3
Facepattern
350
39
  3
Flat
350
2B
  3
FlatWithEdges
350
2C
  3
Gouraud
350
2D
  3
GouraudWithEdges
350
2E
  3
Linepattern
350
38
  3
Realistic
350
33
  3
Thicken
350
37
  0
LAYOUT
  5
1E
102
{ACAD_REACTORS
330
1A
102
}
330
1A
100
AcDbPlotSettings
  1

  2
none_device
  4

  6

 40
0.0
 41
0.0
 42
0.0
 43
0.0
 44
0.0
 45
0.0
 46
0.0
 47
0.0
 48
0.0
 49
0.0
140
0.0
141
0.0
142
1.0
143
1.0
 70
   688
 72
     0
 73
     0
 74
     5
  7

 75
    16
 76
     0
 77
     2
 78
   300
147
1.0
148
0.0
149
0.0
100
AcDbLayout
  1
Layout1
 70
     1
 71
     1
 10
0.0
 20
0.0
 11
12.0
 21
9.0
 12
0.0
 22
0.0
 32
0.0
 14
1.000000000000000E+20
 24
1.000000000000000E+20
 34
1.000000000000000E+20
 15
-1.000000000000000E+20
 25
-1.000000000000000E+20
 35
-1.000000000000000E+20
146
0.0
 13
0.0
 23
0.0
 33
0.0
 16
1.0
 26
0.0
 36
0.0
 17
0.0
 27
1.0
 37
0.0
 76
     0
330
1B
  0
LAYOUT
  5
26
102
{ACAD_REACTORS
330
1A
102
}
330
1A
100
AcDbPlotSettings
  1

  2
none_device
  4

  6

 40
0.0
 41
0.0
 42
0.0
 43
0.0
 44
0.0
 45
0.0
 46
0.0
 47
0.0
 48
0.0
 49
0.0
140
0.0
141
0.0
142
1.0
143
1.0
 70
   688
 72
     0
 73
     0
 74
     5
  7

 75
    16
 76
     0
 77
     2
 78
   300
147
1.0
148
0.0
149
0.0
100
AcDbLayout
  1
Layout2
 70
     1
 71
     2
 10
0.0
 20
0.0
 11
0.0
 21
0.0
 12
0.0
 22
0.0
 32
0.0
 14
0.0
 24
0.0
 34
0.0
 15
0.0
 25
0.0
 35
0.0
146
0.0
 13
0.0
 23
0.0
 33
0.0
 16
1.0
 26
0.0
 36
0.0
 17
0.0
 27
1.0
 37
0.0
 76
     0
330
23
  0
LAYOUT
  5
22
102
{ACAD_REACTORS
330
1A
102
}
330
1A
100
AcDbPlotSettings
  1

  2
none_device
  4

  6

 40
0.0
 41
0.0
 42
0.0
 43
0.0
 44
0.0
 45
0.0
 46
0.0
 47
0.0
 48
0.0
 49
0.0
140
0.0
141
0.0
142
1.0
143
1.0
 70
  1712
 72
     0
 73
     0
 74
     0
  7

 75
     0
 76
     0
 77
     2
 78
   300
147
1.0
148
0.0
149
0.0
100
AcDbLayout
  1
Model
 70
     1
 71
     0
 10
0.0
 20
0.0
 11
12.0
 21
9.0
 12
0.0
 22
0.0
 32
0.0
 14
1.000000000000000E+20
 24
1.000000000000000E+20
 34
1.000000000000000E+20
 15
-1.000000000000000E+20
 25
-1.000000000000000E+20
 35
-1.000000000000000E+20
146
0.0
 13
0.0
 23
0.0
 33
0.0
 16
1.0
 26
0.0
 36
0.0
 17
0.0
 27
1.0
 37
0.0
 76
     0
330
1F
331
29
  0
MATERIAL
  5
3D
102
{ACAD_REACTORS
330
3B
102
}
330
3B
100
AcDbMaterial
  1
ByBlock
 72
     1
 94
      127
  0
MATERIAL
  5
3C
102
{ACAD_REACTORS
330
3B
102
}
330
3B
100
AcDbMaterial
  1
ByLayer
 72
     1
 94
      127
  0
MATERIAL
  5
3E
102
{ACAD_REACTORS
330
3B
102
}
330
3B
100
AcDbMaterial
  1
Global
 72
     1
 94
      127
  0
MLINESTYLE
  5
18
102
{ACAD_REACTORS
330
17
102
}
330
17
100
AcDbMlineStyle
  2
Standard
 70
     0
  3

 62
   256
 51
90.0
 52
90.0
 71
     2
 49
0.5
 62
   256
  6
BYLAYER
 49
-0.5
 62
   256
  6
BYLAYER
  0
ACDBPLACEHOLDER
  5
F
102
{ACAD_REACTORS
330
E
102
}
330
E
  0
VISUALSTYLE
  5
2F
102
{ACAD_REACTORS
330
2A
102
}
330
2A
100
AcDbVisualStyle
  2
2dWireframe
 70
     4
177
     2
291
     0
 71
     0
176
     1
 72
     2
176
     1
 73
     0
176
     1
 90
        0
176
     1
 40
-0.6
176
     1
 41
-30.0
176
     1
 62
     5
 63
     7
421
 16777215
176
     1
 74
     1
176
     1
 91
        4
176
     1
 64
     7
176
     1
 65
   257
176
     1
 75
     1
176
     1
175
     1
176
     1
 42
1.0
176
     1
 92
        0
176
     1
 66
   257
176
     1
 43
1.0
176
     1
 76
     1
176
     1
 77
     6
176
     1
 78
     2
176
     1
 67
     7
176
     1
 79
     5
176
     1
170
     0
176
     1
171
     0
176
     1
290
     0
176
     1
 93
        1
176
     1
 44
0.0
176
     1
173
     0
176
     1
  0
VISUALSTYLE
  5
31
102
{ACAD_REACTORS
330
2A
102
}
330
2A
100
AcDbVisualStyle
  2
3D Hidden
 70
     6
177
     2
291
     0
 71
     1
176
     1
 72
     2
176
     1
 73
     2
176
     1
 90
        0
176
     1
 40
-0.6
176
     1
 41
-30.0
176
     1
 62
     5
 63
     7
421
 16777215
176
     1
 74
     2
176
     1
 91
        2
176
     1
 64
     7
176
     1
 65
   257
176
     1
 75
     2
176
     1
175
     1
176
     1
 42
40.0
176
     1
 92
        0
176
     1
 66
   257
176
     1
 43
1.0
176
     1
 76
     1
176
     1
 77
     6
176
     1
 78
     2
176
     1
 67
     7
176
     1
 79
     3
176
     1
170
     0
176
     1
171
     0
176
     1
290
     0
176
     1
 93
        1
176
     1
 44
0.0
176
     1
173
     0
176
     1
  0
VISUALSTYLE
  5
30
102
{ACAD_REACTORS
330
2A
102
}
330
2A
100
AcDbVisualStyle
  2
3dWireframe
 70
     5
177
     2
291
     0
 71
     0
176
     1
 72
     2
176
     1
 73
     0
176
     1
 90
        0
176
     1
 40
-0.6
176
     1
 41
-30.0
176
     1
 62
     5
 63
     7
421
 16777215
176
     1
 74
     1
176
     1
 91
        4
176
     1
 64
     7
176
     1
 65
   257
176
     1
 75
     1
176
     1
175
     1
176
     1
 42
1.0
176
     1
 92
        0
176
     1
 66
   257
176
     1
 43
1.0
176
     1
 76
     1
176
     1
 77
     6
176
     1
 78
     2
176
     1
 67
     7
176
     1
 79
     5
176
     1
170
     0
176
     1
171
     0
176
     1
290
     0
176
     1
 93
        1
176
     1
 44
0.0
176
     1
173
     0
176
     1
  0
VISUALSTYLE
  5
32
102
{ACAD_REACTORS
330
2A
102
}
330
2A
100
AcDbVisualStyle
  2
Basic
 70
     7
177
     2
291
     1
 71
     1
176
     1
 72
     0
176
     1
 73
     1
176
     1
 90
        0
176
     1
 40
-0.6
176
     1
 41
-30.0
176
     1
 62
     5
 63
     7
421
 16777215
176
     1
 74
     0
176
     1
 91
        4
176
     1
 64
     7
176
     1
 65
   257
176
     1
 75
     1
176
     1
175
     1
176
     1
 42
1.0
176
     1
 92
        8
176
     1
 66
     7
176
     1
 43
1.0
176
     1
 76
     1
176
     1
 77
     6
176
     1
 78
     2
176
     1
 67
     7
176
     1
 79
     5
176
     1
170
     0
176
     1
171
     0
176
     1
290
     0
176
     1
 93
        1
176
     1
 44
0.0
176
     1
173
     0
176
     1
  0
VISUALSTYLE
  5
36
102
{ACAD_REACTORS
330
2A
102
}
330
2A
100
AcDbVisualStyle
  2
Brighten
 70
    12
177
     2
291
     1
 71
     2
176
     1
 72
     2
176
     1
 73
     0
176
     1
 90
        0
176
     1
 40
-0.6
176
     1
 41
-30.0
176
     1
 62
     5
 63
     7
421
 16777215
176
     1
 74
     1
176
     1
 91
        4
176
     1
 64
     7
176
     1
 65
   257
176
     1
 75
     1
176
     1
175
     1
176
     1
 42
1.0
176
     1
 92
        8
176
     1
 66
     7
176
     1
 43
1.0
176
     1
 76
     1
176
     1
 77
     6
176
     1
 78
     2
176
     1
 67
     7
176
     1
 79
     5
176
     1
170
     0
176
     1
171
     0
176
     1
290
     0
176
     1
 93
        1
176
     1
 44
50.0
176
     1
173
     0
176
     1
  0
VISUALSTYLE
  5
3A
102
{ACAD_REACTORS
330
2A
102
}
330
2A
100
AcDbVisualStyle
  2
ColorChange
 70
    16
177
     2
291
     1
 71
     2
176
     1
 72
     2
176
     1
 73
     3
176
     1
 90
        0
176
     1
 40
-0.6
176
     1
 41
-30.0
176
     1
 62
     5
 63
     8
421
  8421504
176
     1
 74
     1
176
     1
 91
        4
176
     1
 64
     7
176
     1
 65
   257
176
     1
 75
     1
176
     1
175
     1
176
     1
 42
1.0
176
     1
 92
        8
176
     1
 66
     8
424
  8421504
176
     1
 43
1.0
176
     1
 76
     1
176
     1
 77
     6
176
     1
 78
     2
176
     1
 67
     7
176
     1
 79
     5
176
     1
170
     0
176
     1
171
     0
176
     1
290
     0
176
     1
 93
        1
176
     1
 44
0.0
176
     1
173
     0
176
     1
  0
VISUALSTYLE
  5
34
102
{ACAD_REACTORS
330
2A
102
}
330
2A
100
AcDbVisualStyle
  2
Conceptual
 70
     9
177
     2
291
     0
 71
     3
176
     1
 72
     2
176
     1
 73
     0
176
     1
 90
        0
176
     1
 40
-0.6
176
     1
 41
-30.0
176
     1
 62
     5
 63
     7
421
 16777215
176
     1
 74
     2
176
     1
 91
        2
176
     1
 64
     7
176
     1
 65
   257
176
     1
 75
     1
176
     1
175
     1
176
     1
 42
40.0
176
     1
 92
        8
176
     1
 66
     7
176
     1
 43
1.0
176
     1
 76
     1
176
     1
 77
     6
176
     1
 78
     2
176
     1
 67
     7
176
     1
 79
     3
176
     1
170
     0
176
     1
171
     0
176
     1
290
     0
176
     1
 93
        1
176
     1
 44
0.0
176
     1
173
     0
176
     1
  0
VISUALSTYLE
  5
35
102
{ACAD_REACTORS
330
2A
102
}
330
2A
100
AcDbVisualStyle
  2
Dim
 70
    11
177
     2
291
     1
 71
     2
176
     1
 72
     2
176
     1
 73
     0
176
     1
 90
        0
176
     1
 40
-0.6
176
     1
 41
-30.0
176
     1
 62
     5
 63
     7
421
 16777215
176
     1
 74
     1
176
     1
 91
        4
176
     1
 64
     7
176
     1
 65
   257
176
     1
 75
     1
176
     1
175
     1
176
     1
 42
1.0
176
     1
 92
        8
176
     1
 66
     7
176
     1
 43
1.0
176
     1
 76
     1
176
     1
 77
     6
176
     1
 78
     2
176
     1
 67
     7
176
     1
 79
     5
176
     1
170
     0
176
     1
171
     0
176
     1
290
     0
176
     1
 93
        1
176
     1
 44
-50.0
176
     1
173
     0
176
     1
  0
VISUALSTYLE
  5
39
102
{ACAD_REACTORS
330
2A
102
}
330
2A
100
AcDbVisualStyle
  2
Facepattern
 70
    15
177
     2
291
     1
 71
     2
176
     1
 72
     2
176
     1
 73
     0
176
     1
 90
        0
176
     1
 40
-0.6
176
     1
 41
-30.0
176
     1
 62
     5
 63
     7
421
 16777215
176
     1
 74
     1
176
     1
 91
        4
176
     1
 64
     7
176
     1
 65
   257
176
     1
 75
     1
176
     1
175
     1
176
     1
 42
1.0
176
     1
 92
        8
176
     1
 66
     7
176
     1
 43
1.0
176
     1
 76
     1
176
     1
 77
     6
176
     1
 78
     2
176
     1
 67
     7
176
     1
 79
     5
176
     1
170
     0
176
     1
171
     0
176
     1
290
     0
176
     1
 93
        1
176
     1
 44
0.0
176
     1
173
     0
176
     1
  0
VISUALSTYLE
  5
2B
102
{ACAD_REACTORS
330
2A
102
}
330
2A
100
AcDbVisualStyle
  2
Flat
 70
     0
177
     2
291
     1
 71
     2
176
     1
 72
     1
176
     1
 73
     1
176
     1
 90
        2
176
     1
 40
-0.6
176
     1
 41
30.0
176
     1
 62
     5
 63
     7
421
 16777215
176
     1
 74
     0
176
     1
 91
        4
176
     1
 64
     7
176
     1
 65
   257
176
     1
 75
     1
176
     1
175
     1
176
     1
 42
1.0
176
     1
 92
        8
176
     1
 66
     7
176
     1
 43
1.0
176
     1
 76
     1
176
     1
 77
     6
176
     1
 78
     2
176
     1
 67
     7
176
     1
 79
     5
176
     1
170
     0
176
     1
171
     0
176
     1
290
     0
176
     1
 93
       13
176
     1
 44
0.0
176
     1
173
     0
176
     1
  0
VISUALSTYLE
  5
2C
102
{ACAD_REACTORS
330
2A
102
}
330
2A
100
AcDbVisualStyle
  2
FlatWithEdges
 70
     1
177
     2
291
     1
 71
     2
176
     1
 72
     1
176
     1
 73
     1
176
     1
 90
        2
176
     1
 40
-0.6
176
     1
 41
30.0
176
     1
 62
     5
 63
     7
421
 16777215
176
     1
 74
     1
176
     1
 91
        4
176
     1
 64
     7
176
     1
 65
   257
176
     1
 75
     1
176
     1
175
     1
176
     1
 42
1.0
176
     1
 92
        0
176
     1
 66
   257
176
     1
 43
1.0
176
     1
 76
     1
176
     1
 77
     6
176
     1
 78
     2
176
     1
 67
     7
176
     1
 79
     5
176
     1
170
     0
176
     1
171
     0
176
     1
290
     0
176
     1
 93
       13
176
     1
 44
0.0
176
     1
173
     0
176
     1
  0
VISUALSTYLE
  5
2D
102
{ACAD_REACTORS
330
2A
102
}
330
2A
100
AcDbVisualStyle
  2
Gouraud
 70
     2
177
     2
291
     1
 71
     2
176
     1
 72
     2
176
     1
 73
     1
176
     1
 90
        2
176
     1
 40
-0.6
176
     1
 41
30.0
176
     1
 62
     5
 63
     7
421
 16777215
176
     1
 74
     0
176
     1
 91
        4
176
     1
 64
     7
176
     1
 65
   257
176
     1
 75
     1
176
     1
175
     1
176
     1
 42
1.0
176
     1
 92
        0
176
     1
 66
     7
176
     1
 43
1.0
176
     1
 76
     1
176
     1
 77
     6
176
     1
 78
     2
176
     1
 67
     7
176
     1
 79
     5
176
     1
170
     0
176
     1
171
     0
176
     1
290
     0
176
     1
 93
       13
176
     1
 44
0.0
176
     1
173
     0
176
     1
  0
VISUALSTYLE
  5
2E
102
{ACAD_REACTORS
330
2A
102
}
330
2A
100
AcDbVisualStyle
  2
GouraudWithEdges
 70
     3
177
     2
291
     1
 71
     2
176
     1
 72
     2
176
     1
 73
     1
176
     1
 90
        2
176
     1
 40
-0.6
176
     1
 41
30.0
176
     1
 62
     5
 63
     7
421
 16777215
176
     1
 74
     1
176
     1
 91
        4
176
     1
 64
     7
176
     1
 65
   257
176
     1
 75
     1
176
     1
175
     1
176
     1
 42
1.0
176
     1
 92
        0
176
     1
 66
   257
176
     1
 43
1.0
176
     1
 76
     1
176
     1
 77
     6
176
     1
 78
     2
176
     1
 67
     7
176
     1
 79
     5
176
     1
170
     0
176
     1
171
     0
176
     1
290
     0
176
     1
 93
       13
176
     1
 44
0.0
176
     1
173
     0
176
     1
  0
VISUALSTYLE
  5
38
102
{ACAD_REACTORS
330
2A
102
}
330
2A
100
AcDbVisualStyle
  2
Linepattern
 70
    14
177
     2
291
     1
 71
     2
176
     1
 72
     2
176
     1
 73
     0
176
     1
 90
        0
176
     1
 40
-0.6
176
     1
 41
-30.0
176
     1
 62
     5
 63
     7
421
 16777215
176
     1
 74
     1
176
     1
 91
        4
176
     1
 64
     7
176
     1
 65
   257
176
     1
 75
     7
176
     1
175
     7
176
     1
 42
1.0
176
     1
 92
        8
176
     1
 66
     7
176
     1
 43
1.0
176
     1
 76
     1
176
     1
 77
     6
176
     1
 78
     2
176
     1
 67
     7
176
     1
 79
     5
176
     1
170
     0
176
     1
171
     0
176
     1
290
     0
176
     1
 93
        1
176
     1
 44
0.0
176
     1
173
     0
176
     1
  0
VISUALSTYLE
  5
33
102
{ACAD_REACTORS
330
2A
102
}
330
2A
100
AcDbVisualStyle
  2
Realistic
 70
     8
177
     2
291
     0
 71
     2
176
     1
 72
     2
176
     1
 73
     0
176
     1
 90
        0
176
     1
 40
-0.6
176
     1
 41
-30.0
176
     1
 62
     5
 63
     7
421
 16777215
176
     1
 74
     1
176
     1
 91
        0
176
     1
 64
     7
176
     1
 65
   257
176
     1
 75
     1
176
     1
175
     1
176
     1
 42
1.0
176
     1
 92
        8
176
     1
 66
     8
424
  7895160
176
     1
 43
1.0
176
     1
 76
     1
176
     1
 77
     6
176
     1
 78
     2
176
     1
 67
     7
176
     1
 79
     5
176
     1
170
     0
176
     1
171
     0
176
     1
290
     0
176
     1
 93
       13
176
     1
 44
0.0
176
     1
173
     0
176
     1
  0
VISUALSTYLE
  5
37
102
{ACAD_REACTORS
330
2A
102
}
330
2A
100
AcDbVisualStyle
  2
Thicken
 70
    13
177
     2
291
     1
 71
     2
176
     1
 72
     2
176
     1
 73
     0
176
     1
 90
        0
176
     1
 40
-0.6
176
     1
 41
-30.0
176
     1
 62
     5
 63
     7
421
 16777215
176
     1
 74
     1
176
     1
 91
        4
176
     1
 64
     7
176
     1
 65
   257
176
     1
 75
     1
176
     1
175
     1
176
     1
 42
1.0
176
     1
 92
       12
176
     1
 66
     7
176
     1
 43
1.0
176
     1
 76
     1
176
     1
 77
     6
176
     1
 78
     2
176
     1
 67
     7
176
     1
 79
     5
176
     1
170
     0
176
     1
171
     0
176
     1
290
     0
176
     1
 93
        1
176
     1
 44
0.0
176
     1
173
     0
176
     1
  0
ENDSEC
  0
EOF
